<?xml version="1.0"?>
<svg width="373" height="137" xmlns="http://www.w3.org/2000/svg" xmlns:svg="http://www.w3.org/2000/svg">
 <!-- Created with SVG-edit - https://github.com/SVG-Edit/svgedit-->
 <g class="layer">
  <title>Layer 1</title>
  <g id="svg_1" transform="translate(0 -1.1) translate(-0.1 0) translate(1 0) translate(-1 0) translate(-1 0) translate(-48 -10) translate(46 7) matrix(1 0 0 1 -247 -35)" xmlns="http://www.w3.org/2000/svg">
   <g id="svg_2">
    <g id="svg_3">
     <path class="st5" d="m265.2,89.3c0,-6.8 5.3,-11.7 14.8,-13.3l14.5,-2.4l0,-2.3c0,-5.5 -4.1,-8.9 -9.9,-8.9s-8.7,2.2 -11.3,5.9l-6.9,-5.3c4,-5.4 10.4,-8.7 18.5,-8.7c12.1,0 18.8,7.1 18.8,17l0,29.7l-9.2,0l0,-5.1c-3.2,3.9 -8.8,6.4 -14.4,6.4c-8.9,0 -15,-5.1 -15,-13l0.1,0zm16.7,5.6c5.6,0 10,-2.7 12.7,-7l0,-7.8l-12.1,2.1c-5.6,1 -7.9,3.4 -7.9,6.8s2.8,5.9 7.4,5.9l-0.1,0z" id="svg_4"/>
     <path class="st5" d="m308.8,56l9.2,0l0,4.4c3.4,-3.6 7.9,-6.2 14.3,-6.2c9.9,0 17.5,6.7 17.5,19.7l0,27l-9.3,0l0,-26.7c0,-7.1 -3.9,-11.4 -10.4,-11.4s-9.8,3.8 -12.1,7.8l0,30.3l-9.2,0l0,-45l0,0.1z" id="svg_5"/>
    </g>
    <g id="svg_6">
     <path class="st5" d="m302.4,145.4l7.4,5.7c-4.2,5.7 -11,9.3 -19.5,9.3c-15.4,0 -25.1,-11.4 -25.1,-24.9s9.7,-24.9 25.1,-24.9s15.3,3.7 19.5,9.3l-7.4,5.7c-2.6,-3.6 -6.8,-6.1 -12.1,-6.1c-8.9,0 -15.3,6.9 -15.3,16s6.4,16 15.4,16s9.4,-2.6 12,-6.1z" id="svg_7"/>
     <path class="st5" d="m324.4,121.9l-10,0l0,-8.3l10,0l0,-11.2l9.3,0l0,11.2l16.1,0l0,8.3l-16.1,0l0,21.1c0,6.1 3.2,8 8.2,8s6.3,-0.4 7.9,-1l0,8.1c-2.1,0.9 -5.8,1.3 -9.3,1.3c-10.5,0 -16.1,-5.5 -16.1,-16.5l0,-21.1l0,0.1z" id="svg_8"/>
    </g>
    <path class="st5" d="m356,48.1l0,6.2l8.9,0l0,-8.7c0,-3.1 -2.8,-6.3 -5.9,-6.5l-9.3,0s0,8.6 0,8.6l6.2,0.4l0.1,0z" id="svg_9"/>
    <path class="st6" d="m356,166.8l0,-6.2l8.9,0l0,8.7c0,3.1 -2.8,6.3 -5.9,6.5l-9.3,0l0,-8.6l6.2,-0.4l0.1,0z" id="svg_10"/>
    <path class="st7" d="m259,166.8l0,-6.2s-8.9,0 -8.9,0l0,8.7c0,3.1 2.8,6.3 5.9,6.5l9.3,0s0,-8.6 0,-8.6l-6.2,-0.4l-0.1,0z" id="svg_11"/>
    <path class="st4" d="m259,48.1l0,6.2l-8.9,0l0,-8.7c0,-3.1 2.8,-6.3 5.9,-6.5l9.3,0l0,8.6s-6.2,0.4 -6.2,0.4l-0.1,0z" id="svg_12"/>
   </g>
   <g id="svg_13">
    <path class="st5" d="m395.6,80.9c0,-1.6 1.2,-2.7 3.5,-3.1l3.6,-0.6l0,-0.7c0,-1.5 -1.1,-2.3 -2.6,-2.3s-2.2,0.6 -2.9,1.5l-1.3,-1c0.9,-1.3 2.4,-2 4.3,-2c2.7,0 4.3,1.6 4.3,3.9l0,7.1l-1.8,0l0,-1.3c-0.8,1 -2.2,1.6 -3.6,1.6c-2.1,0 -3.5,-1.2 -3.5,-3l0,-0.1zm3.8,1.5c1.4,0 2.6,-0.7 3.3,-1.8l0,-2.1l-3.1,0.5c-1.5,0.3 -2.1,0.9 -2.1,1.8s0.7,1.6 2,1.6l-0.1,0z" id="svg_14"/>
    <path class="st5" d="m412.2,82.9c-0.5,-0.4 -0.7,-0.9 -0.7,-1.5c0,-0.8 0.4,-1.5 1.3,-2.1c-0.9,-0.7 -1.5,-1.8 -1.5,-2.9c0,-2 1.6,-3.8 4.1,-3.8s1.5,0.2 2,0.4l3.9,0l0,1.6l-2.3,0c0.3,0.5 0.4,1.1 0.4,1.8c0,2 -1.6,3.7 -4.1,3.7s-1,0 -1.5,-0.2c-0.4,0.3 -0.7,0.7 -0.7,1.1s0.2,0.8 0.9,0.8l3,0c2.8,0 4.1,1.4 4.1,3.3s-2.2,3.9 -5.4,3.9s-5.2,-1.2 -5.2,-3.3s0.5,-1.9 1.6,-2.7l0.1,-0.1zm3.6,4.5c2.2,0 3.6,-0.9 3.6,-2.3s-0.6,-1.8 -2.5,-1.8l-3.4,0c-0.7,0.5 -1.2,1.2 -1.2,2c0,1.3 1.3,2.1 3.4,2.1l0.1,0zm2,-11.1c0,-1.3 -0.9,-2.4 -2.4,-2.4s-2.4,1.1 -2.4,2.4s0.9,2.3 2.4,2.3s2.4,-1.1 2.4,-2.3z" id="svg_15"/>
    <path class="st5" d="m431.7,84c-3.6,0 -5.8,-2.6 -5.8,-5.7s2.1,-5.7 5.3,-5.7s4.8,2 4.8,4.6s0,0.8 -0.1,1.1l-8.1,0c0,2.5 1.7,4.1 4,4.1s2.5,-0.6 3.2,-1.6l1.3,1c-1,1.3 -2.6,2.2 -4.5,2.2l-0.1,0zm-3.8,-7l6.3,0c0,-1.6 -1.1,-2.9 -3,-2.9s-3,1 -3.3,2.9z" id="svg_16"/>
    <path class="st5" d="m442.8,73l1.8,0l0,1.2c0.9,-0.9 2,-1.6 3.5,-1.6c2.4,0 4.1,1.6 4.1,4.6l0,6.4l-1.8,0l0,-6.3c0,-1.9 -1.1,-3 -2.7,-3s-2.5,0.9 -3.2,2l0,7.3l-1.8,0l0,-10.6l0.1,0z" id="svg_17"/>
    <path class="st5" d="m467.6,80.8l1.4,1.1c-1,1.3 -2.5,2.2 -4.5,2.2c-3.5,0 -5.8,-2.6 -5.8,-5.7s2.2,-5.7 5.8,-5.7s3.5,0.9 4.5,2.2l-1.4,1.1c-0.7,-0.9 -1.7,-1.6 -3,-1.6c-2.3,0 -3.9,1.8 -3.9,4s1.6,4 3.9,4s2.4,-0.6 3,-1.6z" id="svg_18"/>
    <path class="st5" d="m479.7,84c-3.6,0 -5.8,-2.6 -5.8,-5.7s2.1,-5.7 5.3,-5.7s4.8,2 4.8,4.6s0,0.8 -0.1,1.1l-8.1,0c0,2.5 1.7,4.1 4,4.1s2.5,-0.6 3.2,-1.6l1.3,1c-1,1.3 -2.6,2.2 -4.5,2.2l-0.1,0zm-3.8,-7l6.3,0c0,-1.6 -1.1,-2.9 -3,-2.9s-3,1 -3.3,2.9z" id="svg_19"/>
    <path class="st5" d="m500.3,73l1.8,0l0,1.2c0.9,-0.9 2,-1.6 3.5,-1.6c2.4,0 4.1,1.6 4.1,4.6l0,6.4l-1.8,0l0,-6.3c0,-1.9 -1.1,-3 -2.7,-3s-2.5,0.9 -3.2,2l0,7.3l-1.8,0l0,-10.6l0.1,0z" id="svg_20"/>
    <path class="st5" d="m516.5,80.9c0,-1.6 1.2,-2.7 3.5,-3.1l3.6,-0.6l0,-0.7c0,-1.5 -1.1,-2.3 -2.6,-2.3s-2.2,0.6 -2.9,1.5l-1.3,-1c0.9,-1.3 2.4,-2 4.3,-2c2.7,0 4.3,1.6 4.3,3.9l0,7.1l-1.8,0l0,-1.3c-0.8,1 -2.2,1.6 -3.6,1.6c-2.1,0 -3.5,-1.2 -3.5,-3l0,-0.1zm3.8,1.5c1.4,0 2.6,-0.7 3.3,-1.8l0,-2.1l-3.1,0.5c-1.5,0.3 -2.1,0.9 -2.1,1.8s0.7,1.6 2,1.6l-0.1,0z" id="svg_21"/>
    <path class="st5" d="m533.3,74.6l-2,0l0,-1.6l2,0l0,-2.6l1.8,0l0,2.6l3.7,0l0,1.6l-3.7,0l0,5.4c0,1.7 0.8,2.1 2.1,2.1s1.2,0 1.6,-0.3l0,1.6c-0.5,0.2 -1.1,0.3 -1.8,0.3c-2.4,0 -3.7,-1.2 -3.7,-3.8l0,-5.4l0,0.1z" id="svg_22"/>
    <path class="st5" d="m545,69c0,-0.7 0.6,-1.2 1.3,-1.2s1.2,0.6 1.2,1.2s-0.5,1.3 -1.2,1.3s-1.3,-0.6 -1.3,-1.3zm0.3,4l1.8,0l0,10.6l-1.8,0l0,-10.6z" id="svg_23"/>
    <path class="st5" d="m565.3,78.3c0,3.1 -2.3,5.7 -5.7,5.7s-5.7,-2.6 -5.7,-5.7s2.3,-5.7 5.7,-5.7s5.7,2.6 5.7,5.7zm-1.9,0c0,-2.2 -1.6,-4 -3.8,-4s-3.9,1.8 -3.9,4s1.6,4 3.9,4s3.8,-1.9 3.8,-4z" id="svg_24"/>
    <path class="st5" d="m571.9,73l1.8,0l0,1.2c0.9,-0.9 2,-1.6 3.5,-1.6c2.4,0 4.1,1.6 4.1,4.6l0,6.4l-1.8,0l0,-6.3c0,-1.9 -1.1,-3 -2.7,-3s-2.5,0.9 -3.2,2l0,7.3l-1.8,0l0,-10.6l0.1,0z" id="svg_25"/>
    <path class="st5" d="m588.2,80.9c0,-1.6 1.2,-2.7 3.5,-3.1l3.6,-0.6l0,-0.7c0,-1.5 -1.1,-2.3 -2.6,-2.3s-2.2,0.6 -2.9,1.5l-1.3,-1c0.9,-1.3 2.4,-2 4.3,-2c2.7,0 4.3,1.6 4.3,3.9l0,7.1l-1.8,0l0,-1.3c-0.8,1 -2.2,1.6 -3.6,1.6c-2.1,0 -3.5,-1.2 -3.5,-3l0,-0.1zm3.7,1.5c1.4,0 2.6,-0.7 3.3,-1.8l0,-2.1l-3.1,0.5c-1.5,0.3 -2.1,0.9 -2.1,1.8s0.7,1.6 2,1.6l-0.1,0z" id="svg_26"/>
    <path class="st5" d="m604.4,67.8l1.8,0l0,15.8l-1.8,0l0,-15.8z" id="svg_27"/>
    <path class="st5" d="m618.6,84c-3.6,0 -5.8,-2.6 -5.8,-5.7s2.1,-5.7 5.3,-5.7s4.8,2 4.8,4.6s0,0.8 -0.1,1.1l-8.1,0c0,2.5 1.7,4.1 4,4.1s2.5,-0.6 3.2,-1.6l1.3,1c-1,1.3 -2.6,2.2 -4.5,2.2l-0.1,0zm-3.8,-7l6.4,0c0,-1.6 -1.1,-2.9 -3,-2.9s-3,1 -3.3,2.9l-0.1,0z" id="svg_28"/>
    <path class="st5" d="m400.8,98.9c1.6,0 2.8,0.6 3.8,1.7l0,-6.4l1.8,0l0,15.8l-1.8,0l0,-1.3c-0.9,1.1 -2.2,1.7 -3.8,1.7c-3.3,0 -5.4,-2.6 -5.4,-5.7s2.1,-5.7 5.4,-5.7l0,-0.1zm0.2,9.7c1.5,0 2.8,-0.7 3.6,-2l0,-4.2c-0.8,-1.3 -2.1,-2 -3.6,-2c-2.2,0 -3.8,1.8 -3.8,4s1.5,4 3.8,4l0,0.2z" id="svg_29"/>
    <path class="st5" d="m418.7,110.3c-3.6,0 -5.8,-2.6 -5.8,-5.7s2.1,-5.7 5.3,-5.7s4.8,2 4.8,4.6s0,0.8 -0.1,1.1l-8.1,0c0,2.5 1.7,4.1 4,4.1s2.5,-0.6 3.2,-1.6l1.3,1c-1,1.3 -2.6,2.2 -4.5,2.2l-0.1,0zm-3.8,-7l6.4,0c0,-1.6 -1.1,-2.9 -3,-2.9s-3,1 -3.3,2.9l-0.1,0z" id="svg_30"/>
    <path class="st5" d="m439.3,94.1l1.8,0l0,15.8l-1.8,0l0,-15.8z" id="svg_31"/>
    <path class="st5" d="m448.1,107.2c0,-1.6 1.2,-2.7 3.5,-3.1l3.6,-0.6l0,-0.7c0,-1.5 -1.1,-2.3 -2.6,-2.3s-2.2,0.6 -2.9,1.5l-1.3,-1c0.9,-1.3 2.4,-2 4.3,-2c2.7,0 4.3,1.6 4.3,3.9l0,7.1l-1.8,0l0,-1.3c-0.8,1 -2.2,1.6 -3.6,1.6c-2.1,0 -3.5,-1.2 -3.5,-3l0,-0.1zm3.8,1.5c1.4,0 2.6,-0.7 3.3,-1.8l0,-2.1l-3.1,0.5c-1.5,0.3 -2.1,0.9 -2.1,1.8s0.7,1.6 2,1.6l-0.1,0z" id="svg_32"/>
    <path class="st5" d="m481.6,107.1l1.4,1.1c-1,1.3 -2.5,2.2 -4.5,2.2c-3.5,0 -5.8,-2.6 -5.8,-5.7s2.2,-5.7 5.8,-5.7s3.5,0.9 4.5,2.2l-1.4,1.1c-0.7,-0.9 -1.7,-1.6 -3,-1.6c-2.3,0 -3.9,1.8 -3.9,4s1.6,4 3.9,4s2.4,-0.6 3,-1.6z" id="svg_33"/>
    <path class="st5" d="m499.5,104.6c0,3.1 -2.3,5.7 -5.7,5.7s-5.7,-2.6 -5.7,-5.7s2.3,-5.7 5.7,-5.7s5.7,2.6 5.7,5.7zm-1.9,0c0,-2.2 -1.6,-4 -3.8,-4s-3.9,1.8 -3.9,4s1.6,4 3.9,4s3.8,-1.9 3.8,-4z" id="svg_34"/>
    <path class="st5" d="m506.1,94.1l1.8,0l0,6.4c0.9,-0.9 2,-1.6 3.5,-1.6c2.4,0 4.1,1.6 4.1,4.6l0,6.4l-1.8,0l0,-6.3c0,-1.9 -1.1,-3 -2.7,-3s-2.5,0.9 -3.2,2l0,7.3l-1.8,0l0,-15.8l0.1,0z" id="svg_35"/>
    <path class="st5" d="m527.8,110.3c-3.6,0 -5.8,-2.6 -5.8,-5.7s2.1,-5.7 5.3,-5.7s4.8,2 4.8,4.6s0,0.8 -0.1,1.1l-8.1,0c0,2.5 1.7,4.1 4,4.1s2.5,-0.6 3.2,-1.6l1.3,1c-1,1.3 -2.6,2.2 -4.5,2.2l-0.1,0zm-3.8,-7l6.4,0c0,-1.6 -1.1,-2.9 -3,-2.9s-3,1 -3.3,2.9l-0.1,0zm2.6,-5.7l2.2,-3.5l2,0l-2.5,3.5l-1.7,0z" id="svg_36"/>
    <path class="st5" d="m539,107.4c0.7,0.9 1.6,1.5 2.7,1.5s1.9,-0.7 1.9,-1.6c0,-2.4 -5.3,-1.5 -5.3,-5.3s1.4,-3 3.4,-3s2.8,0.7 3.6,1.7l-1.2,1.1c-0.6,-0.8 -1.4,-1.3 -2.3,-1.3s-1.7,0.7 -1.7,1.5c0,2.4 5.3,1.6 5.3,5.2c0,2 -1.6,3.2 -3.6,3.2s-3,-0.7 -4,-1.9l1.3,-1.1l-0.1,0z" id="svg_37"/>
    <path class="st5" d="m551.6,95.3c0,-0.7 0.6,-1.2 1.3,-1.2s1.2,0.6 1.2,1.2s-0.5,1.3 -1.2,1.3s-1.3,-0.6 -1.3,-1.3zm0.4,4l1.8,0l0,10.6l-1.8,0l0,-10.6z" id="svg_38"/>
    <path class="st5" d="m571.9,104.6c0,3.1 -2.3,5.7 -5.7,5.7s-5.7,-2.6 -5.7,-5.7s2.3,-5.7 5.7,-5.7s5.7,2.6 5.7,5.7zm-1.9,0c0,-2.2 -1.6,-4 -3.8,-4s-3.9,1.8 -3.9,4s1.6,4 3.9,4s3.8,-1.9 3.8,-4z" id="svg_39"/>
    <path class="st5" d="m578.6,99.3l1.8,0l0,1.2c0.9,-0.9 2,-1.6 3.5,-1.6c2.4,0 4.1,1.6 4.1,4.6l0,6.4l-1.8,0l0,-6.3c0,-1.9 -1.1,-3 -2.7,-3s-2.5,0.9 -3.2,2l0,7.3l-1.8,0l0,-10.6l0.1,0z" id="svg_40"/>
    <path class="st5" d="m400.8,125.2c1.6,0 2.8,0.6 3.8,1.7l0,-6.4l1.8,0l0,15.8l-1.8,0l0,-1.3c-0.9,1.1 -2.2,1.7 -3.8,1.7c-3.3,0 -5.4,-2.6 -5.4,-5.7s2.1,-5.7 5.4,-5.7l0,-0.1zm0.2,9.7c1.5,0 2.8,-0.7 3.6,-2l0,-4.2c-0.8,-1.3 -2.1,-2 -3.6,-2c-2.2,0 -3.8,1.8 -3.8,4s1.5,4 3.8,4l0,0.2z" id="svg_41"/>
    <path class="st5" d="m418.7,136.6c-3.6,0 -5.8,-2.6 -5.8,-5.7s2.1,-5.7 5.3,-5.7s4.8,2 4.8,4.6s0,0.8 -0.1,1.1l-8.1,0c0,2.5 1.7,4.1 4,4.1s2.5,-0.6 3.2,-1.6l1.3,1c-1,1.3 -2.6,2.2 -4.5,2.2l-0.1,0zm-3.8,-7.1l6.4,0c0,-1.6 -1.1,-2.9 -3,-2.9s-3,1 -3.3,2.9l-0.1,0z" id="svg_42"/>
    <path class="st5" d="m429.9,133.7c0.7,0.9 1.6,1.5 2.7,1.5s1.9,-0.7 1.9,-1.6c0,-2.4 -5.3,-1.5 -5.3,-5.3s1.4,-3 3.4,-3s2.8,0.7 3.6,1.7l-1.2,1.1c-0.6,-0.8 -1.4,-1.3 -2.3,-1.3s-1.7,0.7 -1.7,1.5c0,2.4 5.3,1.6 5.3,5.2c0,2 -1.6,3.2 -3.6,3.2s-3,-0.7 -4,-1.9l1.3,-1.1l-0.1,0z" id="svg_43"/>
    <path class="st5" d="m452.9,127.2l-2,0l0,-1.6l2,0l0,-2.6l1.8,0l0,2.6l3.7,0l0,1.6l-3.7,0l0,5.4c0,1.7 0.8,2.1 2.1,2.1s1.2,0 1.6,-0.3l0,1.6c-0.5,0.2 -1.1,0.3 -1.8,0.3c-2.4,0 -3.7,-1.2 -3.7,-3.8l0,-5.4l0,0.1z" id="svg_44"/>
    <path class="st5" d="m469.6,136.6c-3.6,0 -5.8,-2.6 -5.8,-5.7s2.1,-5.7 5.3,-5.7s4.8,2 4.8,4.6s0,0.8 -0.1,1.1l-8.1,0c0,2.5 1.7,4.1 4,4.1s2.5,-0.6 3.2,-1.6l1.3,1c-1,1.3 -2.6,2.2 -4.5,2.2l-0.1,0zm-3.8,-7.1l6.3,0c0,-1.6 -1.1,-2.9 -3,-2.9s-3,1 -3.3,2.9z" id="svg_45"/>
    <path class="st5" d="m480.7,125.6l1.8,0l0,1.3c0.8,-0.9 1.7,-1.5 3.1,-1.5s0.7,0 0.9,0.1l0,1.7c-0.3,0 -0.6,-0.1 -1.1,-0.1c-1.4,0 -2.3,0.7 -2.9,1.8l0,7.3l-1.8,0l0,-10.6z" id="svg_46"/>
    <path class="st5" d="m492.9,125.6l1.8,0l0,1.3c0.8,-0.9 1.7,-1.5 3.1,-1.5s0.7,0 0.9,0.1l0,1.7c-0.3,0 -0.6,-0.1 -1.1,-0.1c-1.4,0 -2.3,0.7 -2.9,1.8l0,7.3l-1.8,0l0,-10.6z" id="svg_47"/>
    <path class="st5" d="m504.6,121.6c0,-0.7 0.6,-1.2 1.3,-1.2s1.2,0.6 1.2,1.2s-0.5,1.3 -1.2,1.3s-1.3,-0.6 -1.3,-1.3zm0.4,4l1.8,0l0,10.6l-1.8,0l0,-10.6z" id="svg_48"/>
    <path class="st5" d="m515,127.2l-2,0l0,-1.6l2,0l0,-2.6l1.8,0l0,2.6l3.7,0l0,1.6l-3.7,0l0,5.4c0,1.7 0.8,2.1 2.1,2.1s1.2,0 1.6,-0.3l0,1.6c-0.5,0.2 -1.1,0.3 -1.8,0.3c-2.4,0 -3.7,-1.2 -3.7,-3.8l0,-5.4l0,0.1z" id="svg_49"/>
    <path class="st5" d="m537.3,130.9c0,3.1 -2.3,5.7 -5.7,5.7s-5.7,-2.6 -5.7,-5.7s2.3,-5.7 5.7,-5.7s5.7,2.6 5.7,5.7zm-1.9,0c0,-2.2 -1.6,-4 -3.8,-4s-3.9,1.8 -3.9,4s1.6,4 3.9,4s3.8,-1.9 3.8,-4z" id="svg_50"/>
    <path class="st5" d="m543.6,121.6c0,-0.7 0.6,-1.2 1.3,-1.2s1.2,0.6 1.2,1.2s-0.5,1.3 -1.2,1.3s-1.3,-0.6 -1.3,-1.3zm0.4,4l1.8,0l0,10.6l-1.8,0l0,-10.6z" id="svg_51"/>
    <path class="st5" d="m553.4,125.6l1.8,0l0,1.3c0.8,-0.9 1.7,-1.5 3.1,-1.5s0.7,0 0.9,0.1l0,1.7c-0.3,0 -0.6,-0.1 -1.1,-0.1c-1.4,0 -2.3,0.7 -2.9,1.8l0,7.3l-1.8,0l0,-10.6z" id="svg_52"/>
    <path class="st5" d="m569.7,136.6c-3.6,0 -5.8,-2.6 -5.8,-5.7s2.1,-5.7 5.3,-5.7s4.8,2 4.8,4.6s0,0.8 -0.1,1.1l-8.1,0c0,2.5 1.7,4.1 4,4.1s2.5,-0.6 3.2,-1.6l1.3,1c-1,1.3 -2.6,2.2 -4.5,2.2l-0.1,0zm-3.8,-7.1l6.3,0c0,-1.6 -1.1,-2.9 -3,-2.9s-3,1 -3.3,2.9z" id="svg_53"/>
    <path class="st5" d="m580.9,133.7c0.7,0.9 1.6,1.5 2.7,1.5s1.9,-0.7 1.9,-1.6c0,-2.4 -5.3,-1.5 -5.3,-5.3s1.4,-3 3.4,-3s2.8,0.7 3.6,1.7l-1.2,1.1c-0.6,-0.8 -1.4,-1.3 -2.3,-1.3s-1.7,0.7 -1.7,1.5c0,2.4 5.3,1.6 5.3,5.2c0,2 -1.6,3.2 -3.6,3.2s-3,-0.7 -4,-1.9l1.3,-1.1l-0.1,0z" id="svg_54"/>
   </g>
  </g>
 </g>
 <defs xmlns="http://www.w3.org/2000/svg">
  <style>.st0 {
        fill: #231f20;
      }

      .st1 {
        fill: #ed1c24;
      }

      .st2 {
        fill: #243b7d;
      }

      .st3 {
        fill: #939598;
      }

      .st4 {
        fill: #008373;
      }

      .st5 {
        fill: #2a3d85;
      }

      .st6 {
        fill: #ffca05;
      }

      .st7 {
        fill: #5c72b6;
      }</style>
 </defs>
</svg>