<?xml version="1.0" encoding="iso-8859-1"?>
<!-- Generator: Adobe Illustrator 29.1.0, SVG Export Plug-In . SVG Version: 9.03 Build 55587)  -->
<svg version="1.1" xmlns="http://www.w3.org/2000/svg" xmlns:xlink="http://www.w3.org/1999/xlink" x="0px" y="0px"
	 viewBox="0 0 630 320" style="enable-background:new 0 0 630 320;" xml:space="preserve">
<g id="Capa_1">
	<g>
		<g>
			<path style="fill:#222221;" d="M114.075,80.458h5.175l4.999,8.596l5-8.596h5.175v20.466h-4.152V86.247l-4.561,7.66h-2.924
				l-4.561-7.66v14.677h-4.152V80.458z"/>
			<path style="fill:#222221;" d="M140.156,80.458h4.152v20.466h-4.152V80.458z"/>
			<path style="fill:#222221;" d="M150.068,80.458h5.321l9.152,14.794V80.458h4.151v20.466h-5.321L154.22,86.13v14.794h-4.152
				V80.458z"/>
			<path style="fill:#222221;" d="M174.453,80.458h4.152v20.466h-4.152V80.458z"/>
			<path style="fill:#222221;" d="M185.534,95.311c1.228,1.579,2.866,2.514,4.532,2.514c1.637,0,2.632-0.877,2.632-2.339
				c0-3.772-9.298-2.748-9.298-9.678c0-3.245,2.689-5.935,6.607-5.935c3.07,0,5.409,1.374,7.164,3.45l-3.04,2.748
				c-1.199-1.549-2.544-2.573-4.093-2.573c-1.462,0-2.427,0.936-2.427,2.163c0,3.713,9.298,2.661,9.298,9.678
				c-0.059,3.859-3.041,6.169-6.813,6.169c-3.45,0-5.76-1.257-7.573-3.421L185.534,95.311z"/>
			<path style="fill:#222221;" d="M199.043,80.458h16.783v3.772h-6.316v16.695h-4.151V84.229h-6.316V80.458z"/>
			<path style="fill:#222221;" d="M219.481,80.458h11.929v3.45h-7.777v4.854h6.607v3.45h-6.607v5.263h7.777v3.45h-11.929V80.458z
				 M219.832,74.756h4.268l3.304,3.947h-3.801L219.832,74.756z"/>
			<path style="fill:#222221;" d="M236.265,80.458h6.257c4.502,0,7.28,2.31,7.28,6.111c0,2.485-1.199,4.327-3.304,5.292l6.404,9.064
				h-4.883l-5.468-8.274h-2.134v8.274h-4.152V80.458z M240.416,83.908V89.2h2.338c1.754,0,2.778-1.023,2.778-2.69
				c0-1.549-1.023-2.602-2.778-2.602H240.416z"/>
			<path style="fill:#222221;" d="M255.562,80.458h11.929v3.45h-7.777v4.854h6.607v3.45h-6.607v5.263h7.777v3.45h-11.929V80.458z"/>
			<path style="fill:#222221;" d="M273.778,95.311c1.228,1.579,2.866,2.514,4.532,2.514c1.637,0,2.632-0.877,2.632-2.339
				c0-3.772-9.298-2.748-9.298-9.678c0-3.245,2.689-5.935,6.607-5.935c3.07,0,5.409,1.374,7.164,3.45l-3.04,2.748
				c-1.199-1.549-2.544-2.573-4.093-2.573c-1.462,0-2.427,0.936-2.427,2.163c0,3.713,9.298,2.661,9.298,9.678
				c-0.059,3.859-3.041,6.169-6.813,6.169c-3.45,0-5.76-1.257-7.573-3.421L273.778,95.311z"/>
		</g>
		<g>
			<path style="fill:#222221;" d="M111.97,110.051h16.783v3.772h-6.316v16.695h-4.151v-16.695h-6.316V110.051z"/>
			<path style="fill:#222221;" d="M132.437,110.051h6.257c4.502,0,7.28,2.31,7.28,6.111c0,2.485-1.199,4.327-3.304,5.292
				l6.403,9.064h-4.882l-5.468-8.274h-2.134v8.274h-4.152V110.051z M136.589,113.501v5.292h2.338c1.754,0,2.778-1.023,2.778-2.69
				c0-1.549-1.023-2.602-2.778-2.602H136.589z"/>
			<path style="fill:#222221;" d="M156.91,110.051h5.438l7.748,20.466h-4.415l-1.959-5.321h-8.186l-1.959,5.321h-4.415
				L156.91,110.051z M162.436,121.658l-2.806-7.689l-2.807,7.689H162.436z"/>
			<path style="fill:#222221;" d="M173.284,110.051h5.321l9.152,14.794v-14.794h4.151v20.466h-5.321l-9.151-14.794v14.794h-4.152
				V110.051z"/>
			<path style="fill:#222221;" d="M198.838,124.904c1.229,1.579,2.866,2.514,4.532,2.514c1.637,0,2.632-0.877,2.632-2.339
				c0-3.772-9.298-2.748-9.298-9.678c0-3.245,2.689-5.935,6.607-5.935c3.07,0,5.409,1.374,7.164,3.45l-3.04,2.748
				c-1.199-1.549-2.544-2.573-4.093-2.573c-1.462,0-2.427,0.936-2.427,2.163c0,3.713,9.298,2.661,9.298,9.678
				c-0.059,3.859-3.041,6.169-6.813,6.169c-3.45,0-5.76-1.257-7.573-3.421L198.838,124.904z"/>
			<path style="fill:#222221;" d="M214.598,110.051h4.152v20.466h-4.152V110.051z"/>
			<path style="fill:#222221;" d="M222.405,110.051h16.783v3.772h-6.316v16.695h-4.151v-16.695h-6.316V110.051z"/>
			<path style="fill:#222221;" d="M242.873,110.051h4.152v20.466h-4.152V110.051z"/>
			<path style="fill:#222221;" d="M272.754,120.284c0,5.848-4.415,10.818-10.848,10.818c-6.462,0-10.876-4.97-10.876-10.818
				c0-5.848,4.415-10.818,10.876-10.818C268.339,109.466,272.754,114.436,272.754,120.284z M268.485,120.284
				c0-3.918-2.749-6.93-6.579-6.93c-3.859,0-6.607,3.012-6.607,6.93c0,3.918,2.748,6.93,6.607,6.93
				C265.736,127.214,268.485,124.202,268.485,120.284z"/>
			<path style="fill:#222221;" d="M276.761,110.051h5.321l9.152,14.794v-14.794h4.151v20.466h-5.321l-9.151-14.794v14.794h-4.152
				V110.051z"/>
			<path style="fill:#222221;" d="M308.777,110.051h11.929v3.45h-7.777v4.854h6.607v3.45h-6.607v5.263h7.777v3.45h-11.929V110.051z
				 M312.812,108.297l3.303-3.947h4.269l-3.801,3.947H312.812z"/>
			<path style="fill:#222221;" d="M340.033,124.407l3.274,2.514c-1.871,2.544-4.912,4.181-8.625,4.181
				c-6.462,0-10.876-4.97-10.876-10.818c0-5.848,4.415-10.818,10.876-10.818c3.714,0,6.754,1.667,8.625,4.152l-3.274,2.544
				c-1.17-1.666-3.012-2.807-5.351-2.807c-3.859,0-6.607,3.012-6.607,6.93c0,3.918,2.748,6.93,6.607,6.93
				C337.021,127.214,338.863,126.073,340.033,124.407z"/>
			<path style="fill:#222221;" d="M366.903,120.284c0,5.848-4.415,10.818-10.847,10.818c-6.462,0-10.876-4.97-10.876-10.818
				c0-5.848,4.415-10.818,10.876-10.818C362.488,109.466,366.903,114.436,366.903,120.284z M362.634,120.284
				c0-3.918-2.749-6.93-6.579-6.93c-3.859,0-6.607,3.012-6.607,6.93c0,3.918,2.748,6.93,6.607,6.93
				C359.885,127.214,362.634,124.202,362.634,120.284z"/>
			<path style="fill:#222221;" d="M370.91,110.051h4.152v16.695h7.777v3.772H370.91V110.051z"/>
			<path style="fill:#222221;" d="M406.493,120.284c0,5.848-4.415,10.818-10.847,10.818c-6.462,0-10.876-4.97-10.876-10.818
				c0-5.848,4.415-10.818,10.876-10.818C402.078,109.466,406.493,114.436,406.493,120.284z M402.224,120.284
				c0-3.918-2.749-6.93-6.579-6.93c-3.859,0-6.607,3.012-6.607,6.93c0,3.918,2.748,6.93,6.607,6.93
				C399.475,127.214,402.224,124.202,402.224,120.284z"/>
			<path style="fill:#222221;" d="M424.68,125.43v-3.567h-5.204v-3.538h9.356v8.596c-1.901,2.544-5.088,4.181-8.918,4.181
				c-6.637,0-11.169-4.97-11.169-10.818c0-5.848,4.415-10.818,10.876-10.818c3.714,0,6.754,1.667,8.625,4.152l-3.274,2.544
				c-1.17-1.666-3.012-2.807-5.351-2.807c-3.859,0-6.607,3.012-6.607,6.93c0,3.918,2.894,6.93,6.9,6.93
				C421.844,127.214,423.51,126.541,424.68,125.43z"/>
			<path style="fill:#222221;" d="M433.482,110.051h4.152v20.466h-4.152V110.051z"/>
			<path style="fill:#222221;" d="M464.854,131.95c0.439,0,1.023-0.058,1.462-0.234v3.508c-0.673,0.263-1.257,0.38-2.164,0.38
				c-2.281,0-4.386-0.936-6.403-2.69l-2.427-2.163c-0.877,0.234-1.813,0.351-2.807,0.351c-6.462,0-10.876-4.97-10.876-10.818
				c0-5.848,4.415-10.818,10.876-10.818c6.433,0,10.848,4.971,10.848,10.818c0,3.421-1.52,6.549-4.035,8.538l1.228,1.17
				C462.135,131.424,463.539,131.95,464.854,131.95z M459.095,120.284c0-3.918-2.749-6.93-6.579-6.93
				c-3.859,0-6.607,3.012-6.607,6.93c0,3.918,2.748,6.93,6.607,6.93C456.346,127.214,459.095,124.202,459.095,120.284z"/>
			<path style="fill:#222221;" d="M479.211,110.051h4.152v12.455c0,5.38-3.157,8.596-8.304,8.596c-5.116,0-8.274-3.216-8.274-8.596
				v-12.455h4.152v12.806c0,2.748,1.55,4.357,4.152,4.357c2.544,0,4.122-1.608,4.122-4.357V110.051z"/>
			<path style="fill:#222221;" d="M488.539,110.051h11.929v3.45h-7.777v4.854h6.607v3.45h-6.607v5.263h7.777v3.45h-11.929V110.051z"
				/>
		</g>
		<g>
			<path style="fill:#222221;" d="M119.25,139.638h5.438l7.748,20.466h-4.415l-1.959-5.321h-8.186l-1.959,5.321h-4.415
				L119.25,139.638z M124.776,151.245l-2.806-7.689l-2.807,7.689H124.776z"/>
			<path style="fill:#222221;" d="M135.303,139.638h5.175l4.999,8.596l5-8.596h5.175v20.466H151.5v-14.677l-4.561,7.66h-2.924
				l-4.561-7.66v14.677h-4.152V139.638z"/>
			<path style="fill:#222221;" d="M161.061,139.638h11.929v3.45h-7.777v4.854h6.607v3.45h-6.607v5.263h7.777v3.45h-11.929V139.638z
				 M165.096,137.884l3.303-3.947h4.269l-3.801,3.947H165.096z"/>
			<path style="fill:#222221;" d="M177.523,139.638h5.321l9.152,14.794v-14.794h4.151v20.466h-5.321l-9.151-14.794v14.794h-4.152
				V139.638z"/>
			<path style="fill:#222221;" d="M206.763,139.638h5.438l7.748,20.466h-4.415l-1.959-5.321h-8.186l-1.959,5.321h-4.415
				L206.763,139.638z M212.288,151.245l-2.806-7.689l-2.807,7.689H212.288z"/>
			<path style="fill:#222221;" d="M236.995,155.017v-3.567h-5.204v-3.538h9.356v8.596c-1.901,2.544-5.088,4.182-8.918,4.182
				c-6.637,0-11.169-4.971-11.169-10.818c0-5.848,4.415-10.818,10.876-10.818c3.714,0,6.754,1.667,8.625,4.152l-3.274,2.544
				c-1.17-1.666-3.012-2.807-5.351-2.807c-3.859,0-6.607,3.012-6.607,6.93s2.895,6.929,6.9,6.929
				C234.159,156.8,235.825,156.128,236.995,155.017z"/>
			<path style="fill:#222221;" d="M245.475,139.638h11.929v3.45h-7.777v4.854h6.607v3.45h-6.607v5.263h7.777v3.45h-11.929V139.638z"
				/>
			<path style="fill:#222221;" d="M261.936,139.638h5.175l4.999,8.596l5-8.596h5.175v20.466h-4.152v-14.677l-4.561,7.66h-2.924
				l-4.561-7.66v14.677h-4.152V139.638z"/>
			<path style="fill:#222221;" d="M287.695,139.638h11.929v3.45h-7.777v4.854h6.607v3.45h-6.607v5.263h7.777v3.45h-11.929V139.638z"
				/>
			<path style="fill:#222221;" d="M304.157,139.638h5.321l9.152,14.794v-14.794h4.151v20.466h-5.321l-9.151-14.794v14.794h-4.152
				V139.638z"/>
			<path style="fill:#222221;" d="M326.115,139.638h16.783v3.772h-6.316v16.695h-4.151V143.41h-6.316V139.638z"/>
			<path style="fill:#222221;" d="M353.57,139.638h8.04c6.491,0,10.876,4.707,10.876,10.233s-4.385,10.233-10.876,10.233h-8.04
				V139.638z M357.722,143.41v12.923h3.947c3.801,0,6.55-2.836,6.55-6.462c0-3.655-2.749-6.462-6.55-6.462H357.722z"/>
			<path style="fill:#222221;" d="M388.043,139.638h4.152v12.455c0,5.379-3.157,8.596-8.304,8.596c-5.116,0-8.274-3.217-8.274-8.596
				v-12.455h4.152v12.806c0,2.749,1.55,4.356,4.152,4.356c2.544,0,4.122-1.608,4.122-4.356V139.638z"/>
			<path style="fill:#222221;" d="M402.254,139.638h16.783v3.772h-6.316v16.695h-4.151V143.41h-6.316V139.638z"/>
			<path style="fill:#222221;" d="M422.399,139.638h11.929v3.45h-7.777v4.854h6.607v3.45h-6.607v5.263h7.777v3.45h-11.929V139.638z"
				/>
			<path style="fill:#222221;" d="M438.861,139.638h6.257c4.502,0,7.28,2.31,7.28,6.111c0,2.485-1.199,4.327-3.304,5.292
				l6.403,9.064h-4.882l-5.468-8.274h-2.134v8.274h-4.152V139.638z M443.012,143.088v5.292h2.338c1.754,0,2.778-1.023,2.778-2.69
				c0-1.549-1.023-2.602-2.778-2.602H443.012z"/>
			<path style="fill:#222221;" d="M457.836,139.638h6.257c4.502,0,7.28,2.31,7.28,6.111c0,2.485-1.199,4.327-3.304,5.292
				l6.404,9.064h-4.883l-5.468-8.274h-2.134v8.274h-4.152V139.638z M461.988,143.088v5.292h2.338c1.754,0,2.778-1.023,2.778-2.69
				c0-1.549-1.023-2.602-2.778-2.602H461.988z"/>
			<path style="fill:#222221;" d="M476.812,139.638h4.152v20.466h-4.152V139.638z"/>
			<path style="fill:#222221;" d="M484.298,139.638h16.783v3.772h-6.316v16.695h-4.151V143.41h-6.316V139.638z"/>
			<path style="fill:#222221;" d="M524.413,149.871c0,5.847-4.415,10.818-10.847,10.818c-6.462,0-10.876-4.971-10.876-10.818
				c0-5.848,4.415-10.818,10.876-10.818C519.998,139.053,524.413,144.024,524.413,149.871z M520.144,149.871
				c0-3.918-2.749-6.93-6.579-6.93c-3.859,0-6.607,3.012-6.607,6.93s2.748,6.929,6.607,6.929
				C517.395,156.8,520.144,153.789,520.144,149.871z"/>
			<path style="fill:#222221;" d="M528.098,139.638h4.152v20.466h-4.152V139.638z"/>
			<path style="fill:#222221;" d="M537.688,139.638h6.257c4.502,0,7.28,2.31,7.28,6.111c0,2.485-1.199,4.327-3.304,5.292
				l6.403,9.064h-4.882l-5.468-8.274h-2.134v8.274h-4.152V139.638z M541.84,143.088v5.292h2.339c1.754,0,2.778-1.023,2.778-2.69
				c0-1.549-1.023-2.602-2.778-2.602H541.84z"/>
			<path style="fill:#222221;" d="M556.664,139.638h11.929v3.45h-7.777v4.854h6.607v3.45h-6.607v5.263h7.777v3.45h-11.929V139.638z"
				/>
		</g>
		<g>
			<path style="fill:#222221;" d="M111.97,169.228h16.783v3.771h-6.316v16.695h-4.151v-16.695h-6.316V169.228z"/>
			<path style="fill:#222221;" d="M132.584,169.228h6.257c4.502,0,7.28,2.31,7.28,6.111c0,2.485-1.199,4.327-3.304,5.292
				l6.404,9.064h-4.883l-5.468-8.274h-2.134v8.274h-4.152V169.228z M136.736,172.678v5.292h2.338c1.754,0,2.778-1.023,2.778-2.69
				c0-1.549-1.023-2.602-2.778-2.602H136.736z"/>
			<path style="fill:#222221;" d="M157.203,169.228h5.438l7.748,20.466h-4.415l-1.959-5.321h-8.186l-1.959,5.321h-4.415
				L157.203,169.228z M162.728,180.835l-2.806-7.689l-2.807,7.689H162.728z"/>
			<path style="fill:#222221;" d="M173.722,169.228h5.321l9.152,14.794v-14.794h4.151v20.466h-5.321l-9.151-14.794v14.794h-4.152
				V169.228z"/>
			<path style="fill:#222221;" d="M199.423,184.081c1.228,1.579,2.866,2.515,4.532,2.515c1.637,0,2.632-0.877,2.632-2.339
				c0-3.772-9.298-2.749-9.298-9.677c0-3.246,2.689-5.936,6.607-5.936c3.07,0,5.409,1.374,7.164,3.45l-3.04,2.749
				c-1.199-1.55-2.544-2.573-4.093-2.573c-1.462,0-2.427,0.936-2.427,2.164c0,3.714,9.298,2.661,9.298,9.677
				c-0.059,3.859-3.041,6.17-6.813,6.17c-3.45,0-5.76-1.257-7.573-3.421L199.423,184.081z"/>
			<path style="fill:#222221;" d="M215.329,169.228h6.754c4.502,0,7.251,2.31,7.251,6.111c0,3.772-2.749,6.082-7.251,6.082h-2.602
				v8.274h-4.152V169.228z M219.481,172.678v5.292h2.778c1.754,0,2.806-1.023,2.806-2.69c0-1.549-1.052-2.602-2.806-2.602H219.481z"
				/>
			<path style="fill:#222221;" d="M252.901,179.461c0,5.848-4.415,10.819-10.847,10.819c-6.462,0-10.876-4.971-10.876-10.819
				c0-5.847,4.415-10.818,10.876-10.818C248.486,168.643,252.901,173.614,252.901,179.461z M248.632,179.461
				c0-3.917-2.749-6.929-6.579-6.929c-3.859,0-6.607,3.012-6.607,6.929c0,3.918,2.748,6.93,6.607,6.93
				C245.883,186.391,248.632,183.379,248.632,179.461z"/>
			<path style="fill:#222221;" d="M257.054,169.228h6.257c4.502,0,7.28,2.31,7.28,6.111c0,2.485-1.199,4.327-3.304,5.292
				l6.404,9.064h-4.883l-5.468-8.274h-2.134v8.274h-4.152V169.228z M261.206,172.678v5.292h2.338c1.754,0,2.778-1.023,2.778-2.69
				c0-1.549-1.023-2.602-2.778-2.602H261.206z"/>
			<path style="fill:#222221;" d="M274.393,169.228h16.783v3.771h-6.316v16.695h-4.151v-16.695h-6.316V169.228z"/>
			<path style="fill:#222221;" d="M296.175,184.081c1.228,1.579,2.866,2.515,4.532,2.515c1.637,0,2.632-0.877,2.632-2.339
				c0-3.772-9.298-2.749-9.298-9.677c0-3.246,2.689-5.936,6.607-5.936c3.07,0,5.409,1.374,7.164,3.45l-3.04,2.749
				c-1.199-1.55-2.544-2.573-4.093-2.573c-1.462,0-2.427,0.936-2.427,2.164c0,3.714,9.298,2.661,9.298,9.677
				c-0.058,3.859-3.041,6.17-6.813,6.17c-3.45,0-5.76-1.257-7.573-3.421L296.175,184.081z"/>
		</g>
		<g>
			<path style="fill:#222221;" d="M115.917,198.821l6.053,15.993l6.052-15.993h4.415l-7.748,20.466h-5.438l-7.749-20.466H115.917z"
				/>
			<path style="fill:#222221;" d="M136.004,198.821h4.152v20.466h-4.152V198.821z"/>
			<path style="fill:#222221;" d="M146.296,198.821h4.152v16.695h7.777v3.771h-11.929V198.821z"/>
			<path style="fill:#222221;" d="M162.29,198.821h4.152v16.695h7.777v3.771H162.29V198.821z"/>
			<path style="fill:#222221;" d="M178.284,198.821h11.929v3.45h-7.777v4.853h6.607v3.451h-6.607v5.263h7.777v3.45h-11.929V198.821z
				"/>
			<path style="fill:#222221;" d="M203.458,198.821h11.929v3.45h-7.777v4.853h6.607v3.451h-6.607v5.263h7.777v3.45h-11.929V198.821z
				"/>
			<path style="fill:#222221;" d="M218.516,198.821h16.783v3.771h-6.316v16.695h-4.151v-16.695h-6.316V198.821z"/>
			<path style="fill:#222221;" d="M247.375,198.821h4.152v16.695h7.777v3.771h-11.929V198.821z"/>
			<path style="fill:#222221;" d="M283.338,209.054c0,5.848-4.415,10.819-10.847,10.819c-6.462,0-10.876-4.971-10.876-10.819
				c0-5.847,4.415-10.818,10.876-10.818C278.924,198.236,283.338,203.207,283.338,209.054z M279.069,209.054
				c0-3.917-2.749-6.929-6.579-6.929c-3.859,0-6.607,3.012-6.607,6.929c0,3.918,2.748,6.93,6.607,6.93
				C276.321,215.984,279.069,212.972,279.069,209.054z"/>
			<path style="fill:#222221;" d="M301.906,214.201v-3.567h-5.204v-3.538h9.356v8.596c-1.901,2.544-5.088,4.182-8.918,4.182
				c-6.637,0-11.169-4.971-11.169-10.819c0-5.847,4.415-10.818,10.876-10.818c3.714,0,6.754,1.667,8.625,4.152l-3.274,2.544
				c-1.17-1.666-3.012-2.806-5.351-2.806c-3.859,0-6.607,3.012-6.607,6.929c0,3.918,2.894,6.93,6.9,6.93
				C299.069,215.984,300.736,215.311,301.906,214.201z"/>
			<path style="fill:#222221;" d="M311.088,198.821h11.929v3.45h-7.777v4.853h6.607v3.451h-6.607v5.263h7.777v3.45h-11.929V198.821z
				"/>
			<path style="fill:#222221;" d="M328.251,198.821h5.175l4.999,8.596l5-8.596h5.175v20.466h-4.152V204.61l-4.561,7.66h-2.924
				l-4.561-7.66v14.677h-4.152V198.821z"/>
			<path style="fill:#222221;" d="M354.712,198.821h11.929v3.45h-7.777v4.853h6.607v3.451h-6.607v5.263h7.777v3.45h-11.929V198.821z
				"/>
			<path style="fill:#222221;" d="M371.875,198.821h5.321l9.152,14.794v-14.794h4.151v20.466h-5.321l-9.151-14.794v14.794h-4.152
				V198.821z"/>
			<path style="fill:#222221;" d="M394.535,198.821h16.783v3.771h-6.316v16.695h-4.151v-16.695h-6.316V198.821z"/>
		</g>
		<path style="fill:#2F3772;" d="M138.611,63.402c0.009-0.004,0.013-0.009,0.021-0.009c0.073-0.039,0.141-0.081,0.201-0.137
			c-0.009,0-0.013-0.004-0.021-0.004C138.743,63.299,138.679,63.346,138.611,63.402"/>
		<path style="fill:#2F3772;" d="M148.618,60.063c-0.021,0.017-0.047,0.034-0.068,0.051
			C148.588,60.114,148.618,60.102,148.618,60.063"/>
		<path style="fill:#2F3772;" d="M145.458,63.558c0.295-0.295,0.59-0.608,0.881-0.928h-0.004c0.548-0.62,1.087-1.211,1.724-1.754
			c0.193-0.175,0.381-0.329,0.561-0.449c0.051-0.051,0.051-0.154,0.103-0.205c-0.257,0.103-0.415,0.308-0.672,0.411
			c-0.051,0-0.103-0.051-0.051-0.103l0.552-0.415h-0.034c-0.051,0-0.051-0.051-0.051-0.103c-0.672-0.103-1.19,0.364-1.652,0.774
			c-0.107,0.051-0.205-0.051-0.261-0.051c-0.77,0.257-1.339,0.928-2.114,1.241v-0.103c-0.308,0.103-0.608,0.287-0.933,0.359
			c-0.462,0.103-0.877,0.051-1.288,0.051c-0.625,0.064-1.249,0.201-1.878,0.334c-0.017,0.004-0.034,0.009-0.056,0.013
			c-0.334,0.094-0.65,0.218-0.958,0.389c-0.013,0.009-0.026,0.013-0.034,0.021c-0.026,0.03-0.051,0.064-0.077,0.09
			c-0.111,0.12-0.205,0.231-0.355,0.308c-0.317,0.158-0.573,0.441-0.856,0.672c-0.021,0.013-0.051,0.021-0.081,0.026
			c-0.278,0.265-0.548,0.535-0.834,0.796c-0.017,0.017-0.094,0.026-0.154,0.017l0.004-0.004c0.009-0.017,0.021-0.03,0.03-0.047
			c0.043-0.073,0.09-0.15,0.133-0.218c0.051-0.081,0.103-0.163,0.15-0.24c0.073-0.107,0.145-0.214,0.223-0.317
			c0.021-0.026,0.013-0.051-0.004-0.068c-0.017-0.017-0.043-0.026-0.068-0.026c0.257-0.252,0.561-0.462,0.869-0.646v-0.009
			c-0.039,0.013-0.09-0.017-0.06-0.051c0.03-0.047,0.06-0.098,0.09-0.141c0.004-0.017,0.009-0.034,0.013-0.047
			c-0.009-0.013-0.021-0.026-0.034-0.039c-0.086,0.051-0.175,0.103-0.248,0.167c-0.12,0.111-0.218,0.338-0.406,0.338
			c-0.013,0-0.047-0.004-0.077-0.013c-0.021-0.004-0.043-0.009-0.056-0.017c0.004-0.004,0.004-0.009,0.009-0.013
			c0-0.004,0.004-0.009,0.009-0.013c0-0.004,0.004-0.009,0.004-0.013l0.026-0.043c0.009-0.017,0.017-0.034,0.026-0.047
			c0.009-0.013,0.013-0.026,0.021-0.039c0.013-0.017,0.021-0.043,0.034-0.064c0.009-0.017,0.017-0.03,0.026-0.043
			c0.021-0.043,0.047-0.077,0.068-0.116c0.013-0.021,0.021-0.039,0.034-0.056c0.017-0.03,0.03-0.064,0.051-0.094
			c0.026-0.043,0-0.077-0.034-0.09c0.094-0.128,0.21-0.231,0.351-0.312h-0.013c0.197-0.098,0.389-0.218,0.586-0.329l0.09-0.073
			c-0.295,0.098-0.561,0.231-0.826,0.402c0,0-0.064,0.03-0.086,0.051c0,0-0.06,0.021-0.124-0.051
			c-0.009-0.009-0.013-0.021-0.013-0.034c0.047-0.103,0.205-0.158,0.308-0.261c0.051,0,0.098,0,0.098,0.051
			c1.656-1.288,3.924-0.98,5.836-1.652c0.158-0.103,0.312-0.205,0.466-0.308c0.257-0.103,0.466-0.364,0.774-0.518
			c0.411-0.308,0.723-0.672,0.877-1.185c0-0.051-0.051-0.103-0.051-0.103c-0.672,0.719-1.446,1.288-2.272,1.703
			c-1.083,0.569-2.272,0.462-3.406,0.616c0.051-0.103,0.154-0.103,0.257-0.103c0-0.154,0.103-0.205,0.205-0.308h0.158
			c0.047,0,0.047-0.103,0.103-0.103c0.098,0,0.257-0.051,0.205-0.051c-0.154-0.205-0.466,0.154-0.723,0
			c0.103-0.103,0.051-0.261,0.154-0.312h0.21c0-0.103,0.098-0.205,0.098-0.205c0.779-0.466,1.502-0.826,2.225-1.237
			c-0.158,0-0.261,0.154-0.415,0.051c0.103,0,0-0.158,0.103-0.158c0.565-0.154,1.031-0.462,1.6-0.667c-0.205,0-0.359,0.154-0.569,0
			c0.103-0.056,0.158-0.154,0.312-0.154v-0.158c0-0.051,0.051-0.051,0.098-0.051c-0.047,0-0.098-0.051-0.098-0.051
			c0.051-0.103,0.205-0.051,0.308-0.154c-0.051,0-0.154,0-0.154-0.051c0.154-0.205,0.415-0.257,0.668-0.312
			c-0.047-0.103-0.201,0-0.201-0.103c0-0.051,0.047-0.051,0.103-0.051h-0.103c-0.107-0.051-0.051-0.154-0.051-0.205
			c0.308-0.364,0.308-0.826,0.462-1.241c-0.051,0-0.103,0-0.103-0.047c-0.518,0.565-1.344,0.77-2.118,0.98h-0.257
			c-0.257,0.103-0.62,0.103-0.877-0.056c-0.21-0.098-0.308-0.257-0.518-0.411c-0.415-0.257-0.826-0.466-1.292-0.62
			c-1.292-0.411-2.631-0.616-3.975-0.569c0.569-0.308,1.198-0.334,1.806-0.513c0.877-0.257,1.707-0.569,2.636-0.518
			c-0.158-0.051-0.359,0-0.518,0c-0.723-0.051-1.442,0.154-2.216,0.308c-0.518,0.107-0.984,0.312-1.502,0.415
			c-0.308,0.103-0.462,0.415-0.822,0.364v-0.158c0.513-0.62,1.138-1.237,1.96-1.288c0.933-0.154,1.81,0,2.738,0.103
			c0.672,0.051,1.288,0.205,1.96,0.364c0.257,0,0.312,0.411,0.518,0.462c0.308,0.103,0.616,0,0.924,0.205
			c0-0.103-0.047-0.205,0-0.308c0.21-0.205,0.471,0.051,0.676-0.051c0.411-0.261-0.364-0.723-0.569-1.087
			c0-0.051,0.051-0.098,0.051-0.098c0.411,0.359,0.723,0.77,1.241,1.031c0.257,0.103,0.877,0.257,0.77-0.051
			c-0.257-0.569-0.77-1.035-1.185-1.549v-0.21c-0.103,0-0.103-0.051-0.154-0.103v-0.205c-0.205-0.103-0.154-0.312-0.261-0.466
			c-0.154-0.257-0.047-0.616-0.154-0.929c-0.103-0.308-0.154-0.565-0.205-0.877c-0.154-0.877-0.364-1.652-0.462-2.477
			c-0.107-0.98,0.565-1.754,1.031-2.632c0.359-0.62,0.774-1.241,1.446-1.652c0.154-0.62,0.565-1.138,0.98-1.652
			c0.411-0.505,1.095-0.813,1.596-1.035c0.719-0.321,1.369-0.522,1.369-0.522h-35.66v27.316h25.322
			c0.98-0.706,1.964-1.044,3.333-1.72C143.476,64.739,144.957,64.059,145.458,63.558 M137.52,59.857
			c-0.103,0-0.308,0.051-0.261-0.051c0.056-0.257,0.415-0.257,0.625-0.359c0.098-0.056,0.252-0.154,0.359-0.107
			c0.103,0.158,0.257,0.107,0.364,0.21C138.299,59.857,137.884,59.703,137.52,59.857 M129.622,58.723c0,0-0.047-0.051-0.047-0.103
			c0.667-0.877,1.185-1.707,1.647-2.636c0.672-0.359,1.228-0.886,1.754-1.442c0.877-0.933,1.81-1.754,2.892-2.272
			c0.415-0.158,0.929-0.103,1.344,0.051c-0.154,0.205-0.415,0.154-0.62,0.308c-0.056,0-0.103,0-0.154-0.051
			c0.051-0.051,0.051-0.103,0.051-0.154c-0.513,0.565-1.237,0.826-1.652,1.498c-0.308,0.514-0.518,1.185-1.185,1.344
			c-0.21,0.047,0.047-0.158-0.056-0.107C131.996,56.143,130.862,57.328,129.622,58.723 M133.909,55.313
			c-0.056,0.107-0.107,0.116-0.158,0.21c-0.051,0.103-0.098,0.154-0.205,0.205c-0.047,0-0.103,0-0.103-0.051
			c0.056-0.21,0.21-0.411,0.411-0.466C133.909,55.21,133.909,55.266,133.909,55.313 M136.305,63.049
			c-0.021,0.056-0.077,0.107-0.128,0.15c0.064,0.013,0.111,0.043,0.068,0.081c-0.12,0.111-0.235,0.218-0.394,0.274
			c-0.009,0.004-0.038,0.009-0.077,0.009c-0.064,0.064-0.128,0.124-0.193,0.184c-0.06,0.051-0.342,0.013-0.257-0.064
			c0.133-0.116,0.252-0.244,0.381-0.359c0.073-0.068,0.15-0.133,0.214-0.205c0.039-0.043,0.068-0.081,0.111-0.115
			C136.074,62.972,136.348,62.95,136.305,63.049 M135.381,62.621c-0.004,0.004-0.009,0.009-0.013,0.009
			c-0.193,0.141-0.389,0.278-0.59,0.394c-0.218,0.128-0.449,0.227-0.68,0.338c-0.004-0.009-0.004-0.013-0.009-0.017
			c-0.017-0.021-0.056-0.034-0.086-0.017c-0.193,0.103-0.359,0.244-0.518,0.394c-0.026,0.026-0.051,0.047-0.073,0.068l-0.004,0.004
			l-0.004,0.004c-0.026,0.026-0.051,0.047-0.077,0.073c0,0.004-0.004,0.009-0.009,0.009v0.004c-0.034,0.039-0.073,0.073-0.116,0.124
			c-0.026,0.03-0.034,0.047-0.064,0.073c-0.034,0.021-0.124,0.021-0.116-0.043v-0.009c-0.03,0.017-0.06,0.034-0.09,0.047
			c-0.03,0.013-0.056,0.03-0.081,0.043c-0.013-0.004-0.026-0.004-0.034-0.004c-0.017,0-0.03,0.004-0.034,0.013
			c-0.068,0.051-0.133,0.103-0.188,0.158c-0.111,0.094-0.21,0.201-0.304,0.317c0,0.004,0,0.004-0.004,0.004
			c-0.004,0.009-0.004,0.013-0.009,0.017c-0.009,0.004-0.013,0.013-0.017,0.021c-0.004,0.004-0.013,0.009-0.013,0.017
			c0,0.004-0.004,0.004-0.004,0.009c-0.013,0.017-0.026,0.034-0.038,0.051v0.004c-0.009,0.009-0.026,0.013-0.043,0.017
			c-0.009-0.009-0.013-0.017-0.021-0.03l-0.013-0.026c-0.017-0.026-0.034-0.051-0.047-0.081v-0.004l-0.013-0.026
			c0.056-0.06,0.111-0.12,0.163-0.184l0.013-0.013c0.013-0.021,0.034-0.043,0.051-0.068c0.03-0.034,0.06-0.073,0.086-0.111
			c0.013-0.009,0.021-0.026,0.034-0.039c0.056-0.073,0.111-0.145,0.163-0.218c0-0.004,0-0.004,0.004-0.004
			c0.004-0.009,0.013-0.021,0.021-0.034c0.021-0.034,0.043-0.073,0.068-0.111c0.021-0.034,0.038-0.068,0.056-0.103
			c0.004-0.004,0.004-0.004,0.004-0.009c0.004-0.004,0.004-0.004,0.009-0.009c0-0.009,0.004-0.013,0.009-0.017
			c0.017-0.043,0.034-0.081,0.043-0.124c0.004-0.004,0.004-0.009,0.009-0.013c0-0.013,0.004-0.021,0.009-0.03
			c0.009-0.021,0.013-0.039,0.017-0.06c0-0.004,0.004-0.009,0.004-0.013c0.004-0.026,0.013-0.051,0.017-0.077
			c0.004-0.013,0-0.026-0.004-0.034c0.056-0.094,0.124-0.188,0.205-0.278l-0.026,0.013c-0.073,0.047-0.12,0.116-0.193,0.167
			c-0.051,0.043-0.158-0.026-0.09-0.077c0.043-0.034,0.077-0.073,0.116-0.107c0-0.004,0.004-0.004,0.004-0.009
			c0.09-0.081,0.167-0.193,0.265-0.261c0.056-0.047,0.111-0.081,0.158-0.124c0.009-0.004,0.017-0.013,0.026-0.021
			c0.03-0.043,0.068-0.09,0.111-0.128c0.004,0,0.004-0.004,0.009-0.004c0.492-0.479,1.322-0.454,1.977-0.762
			c0.252-0.098,0.569,0.056,0.822,0c0.154,0,0.308,0,0.471,0.103C136.232,62.069,135.805,62.356,135.381,62.621 M136.438,59.031
			c-0.056-0.051,0.154,0,0.205-0.103h-0.415c-0.051,0-0.051-0.051-0.051-0.103c-0.257,0.051-0.565,0.154-0.826,0.205
			c-0.359,0.103-0.667,0.359-1.083,0.466c-0.569,0.205-1.031,0.672-1.652,0.877c-0.051,0-0.051-0.051-0.051-0.103
			c0.051-0.158,0.257-0.21,0.364-0.364c0-0.051,0-0.103-0.056-0.103c0.415-0.569,0.98-0.877,1.502-1.344v-0.154
			c0.154-0.205,0.411-0.308,0.513-0.565c0.051-0.158,0.257-0.364,0.518-0.466c-0.056-0.051-0.154-0.051-0.154-0.154
			c-0.21,0-0.415,0.103-0.625-0.051c0.103-0.098,0.21-0.15,0.325-0.184c-0.043-0.009-0.081-0.03-0.116-0.077
			c-0.051-0.103,0.098-0.218,0.261-0.257c0.201-0.051,0.462-0.051,0.616-0.205c-0.364-0.051-0.774,0.103-1.138-0.103
			c0.261-0.672,0.676-1.241,1.292-1.549c0.051,0,0.154,0,0.154,0.051c0,0.257-0.154,0.462-0.411,0.518
			c0.411,0.103,0.826,0.103,1.241,0.308c-0.056,0.103-0.154,0.051-0.21,0.051c0.257,0.154,0.569,0.051,0.826,0.257
			c-0.154,0.154-0.308,0-0.462,0c1.6,0.466,3.299,0.826,4.647,1.861c-1.138,0.565-2.323,0.826-3.564,1.083
			c-0.154,0-0.261,0-0.415-0.051c0,0.051,0,0.154-0.051,0.154c-0.205,0-0.364,0-0.518,0.103
			C136.9,59.134,136.592,59.185,136.438,59.031"/>
		<path style="fill:#C20E1A;" d="M189.526,39.459h-29.387c0,0,0.056,0.009,0.278,0.128c0.24,0.133,0.548,0.295,0.74,0.398
			c0.381,0.197,0.749,0.445,0.988,0.822c0.103,0.158,0.257,0.466,0.154,0.676c-0.107,0.257-0.154,0.668-0.415,0.77
			c-0.308,0.154-0.723,0.154-1.083,0.107c-0.21,0-0.415-0.051-0.616-0.107c0.77,0.312,1.493,0.676,2.007,1.395
			c0.056,0.103,0.261,0.158,0.466,0.158c0.051,0,0.051,0.103,0.051,0.154c-0.103,0.103-0.201,0.154-0.154,0.308h0.154
			c0.261-0.103,0.205-0.62,0.569-0.462c0.261,0.154,0.359,0.513,0.205,0.77c-0.205,0.21-0.415,0.364-0.616,0.518
			c-0.051,0.103-0.051,0.257,0,0.359c0.154,0.21,0.201,0.415,0.257,0.62c0.154,0.359,0.205,0.774,0.359,1.138
			c0.21,0.774,0.415,1.545,0.364,2.319c0,0.415-0.21,0.779-0.056,1.19c0.107,0.415,0.364,0.723,0.569,1.083
			c0.21,0.312,0.415,0.518,0.569,0.83c0.308,0.513,0.877,1.031,0.616,1.647c-0.154,0.364-0.719,0.312-1.078,0.518
			c-0.312,0.261-0.051,0.672,0.103,0.928c0.257,0.466-0.312,0.774-0.672,0.933c0.103,0.154,0.308,0.098,0.359,0.201
			c0.051,0.261,0.312,0.415,0.158,0.676c-0.21,0.308-0.83,0.462-0.518,0.924c0.205,0.364,0.068,0.766-0.051,1.138
			c-0.154,0.462-0.569,0.672-0.933,0.774c-0.308,0.103-0.667,0.103-0.976,0.051c-0.107-0.051-0.21-0.103-0.312-0.103
			c-0.881-0.103-1.759-0.359-2.636-0.359c-0.252,0.051-0.513,0.098-0.723,0.205c-0.227,0.171-0.436,0.355-0.62,0.552
			c-0.004,0-0.004,0.004-0.009,0.004c-0.039,0.043-0.077,0.086-0.111,0.128c-0.021,0.026-0.043,0.051-0.064,0.077
			c-0.017,0.017-0.03,0.034-0.047,0.056c-0.15,0.188-0.282,0.385-0.406,0.595l-0.021,0.038c-0.013,0.026-0.026,0.047-0.038,0.073
			c-0.171,0.312-0.3,0.633-0.394,0.946c-0.351,1.181-0.197,2.195,0.051,2.443c0.064,0.068,1.703,0.573,2.841,1.078
			c0.535,0.24,0.911,0.424,1.219,0.616h28.856V39.459z"/>
		<path style="fill:#9C9B9B;" d="M161.889,49.425c0.205,0.051,0.513,0.051,0.513,0.158c-0.103,0.411-0.723,0.513-1.031,0.924h-0.154
			c-0.154,0.107-0.107,0.364-0.261,0.364c-0.154-0.051-0.308,0-0.462,0.051c0.205,0.205,0.462,0.364,0.77,0.308
			c0.056,0,0.158,0.107,0.158,0.21c0,0,0.051,0,0.103-0.056c0.051,0,0.103,0,0.103,0.056v0.205c-0.154,0.205-0.411,0.103-0.62,0.154
			c0.415,0.103,0.826,0.103,1.189,0c0.312-0.103,0-0.616,0.205-0.877c-0.103,0,0-0.154-0.103-0.154
			c0.103-0.103,0.21-0.261,0.312-0.308c0.098,0,0.257-0.056,0.308-0.158c0-0.103-0.21-0.154-0.154-0.257
			c0.308-0.205,0.565-0.518,0.462-0.826c-0.051-0.154-0.462-0.154-0.719-0.257c-0.261-0.103-0.569,0-0.881,0.051
			c-0.257,0-0.518,0.154-0.774,0.205c-0.359,0.103-0.667,0.308-0.98,0.513c0.359-0.15,0.723-0.205,1.134-0.308
			C161.32,49.425,161.585,49.348,161.889,49.425"/>
		<path style="fill:#222221;" d="M180.869,276.106c0.556,0,1.035,0.419,0.779,1.489l-2.584,0.603
			C179.513,276.992,180.266,276.106,180.869,276.106 M182.299,280.274h-0.513c-0.646,0.766-1.339,1.369-2.032,1.369
			c-0.706,0-1.065-0.424-1.065-1.369c0-0.394,0.047-0.783,0.116-1.142l4.172-1.369c0.809-1.93-0.167-2.768-1.309-2.768
			c-1.973,0-4.215,3.295-4.215,6.183c0,1.292,0.616,1.998,1.583,1.998C180.163,283.175,181.332,282.08,182.299,280.274
			 M181.469,274.224l2.935-2.738v-0.317h-1.579l-1.806,3.055H181.469z M172.474,276.149h1.382l-2.199,6.007
			c-0.197,0.509,0.077,1.018,0.603,1.018c1.249,0,3.269-1.232,3.975-2.918h-0.394c-0.556,0.586-1.626,1.369-2.542,1.536l2.015-5.644
			h2.058l0.261-0.856h-2.002l0.766-2.165h-0.796l-1.433,2.165l-1.694,0.24V276.149z M170.605,275.863
			c0.167-0.556-0.21-0.869-0.496-0.869c-1.202,0-2.631,1.083-3.205,2.602h0.394c0.394-0.556,1.053-1.172,1.669-1.279l-2.302,5.99
			c-0.214,0.556,0.21,0.869,0.501,0.869c1.138,0,2.482-1.095,3.047-2.602h-0.385c-0.394,0.556-1.057,1.172-1.673,1.279
			L170.605,275.863z M171.028,272.855c0.543,0,0.993-0.436,0.993-0.993c0-0.543-0.449-0.993-0.993-0.993
			c-0.556,0-0.997,0.449-0.997,0.993C170.031,272.418,170.472,272.855,171.028,272.855 M157.772,282.063
			c-0.3,0.68,0.013,1.113,0.676,1.113c0.406,0,0.586-0.103,0.753-0.539l1.592-4.227c0.74-0.903,2.264-1.866,2.863-1.866
			c0.436,0,0.377,0.359,0.09,0.903l-2.456,4.711c-0.235,0.462,0.077,1.018,0.603,1.018c1.202,0,2.631-1.083,3.205-2.602h-0.389
			c-0.394,0.556-1.053,1.172-1.669,1.279l2.105-4.257c0.27-0.543,0.406-1.053,0.406-1.459c0-0.693-0.389-1.142-1.113-1.142
			c-1.04,0-2.092,1.172-3.342,2.619v-1.117c0-0.796-0.257-1.502-0.98-1.502c-0.449,0-0.886,0.389-1.292,0.946v0.15
			c0.783-0.043,1.13,1.13,0.573,2.362L157.772,282.063z M157.742,276.825c0.287-0.976,0.137-1.831-0.616-1.831
			c-0.89,0-1.117,0.676-2.02,2.619v-1.117c0-0.796-0.252-1.502-0.976-1.502c-0.843,0-1.609,1.305-2.195,2.602h0.389
			c0.402-0.586,0.779-0.933,1.087-0.933c0.359,0,0.556,0.556,0,1.789l-1.626,3.611c-0.304,0.68,0.013,1.113,0.676,1.113
			c0.406,0,0.586-0.103,0.753-0.539l1.592-4.227c0.449-0.556,0.86-1.04,1.369-1.583H157.742z M148.504,276.106
			c0.556,0,1.035,0.419,0.783,1.489l-2.593,0.603C147.148,276.992,147.905,276.106,148.504,276.106 M149.934,280.274h-0.513
			c-0.646,0.766-1.335,1.369-2.032,1.369c-0.706,0-1.07-0.424-1.07-1.369c0-0.394,0.047-0.783,0.124-1.142l4.168-1.369
			c0.813-1.93-0.167-2.768-1.309-2.768c-1.968,0-4.215,3.295-4.215,6.183c0,1.292,0.62,1.998,1.579,1.998
			C147.794,283.175,148.971,282.08,149.934,280.274 M140.105,276.149h1.386l-2.195,6.007c-0.197,0.509,0.073,1.018,0.599,1.018
			c1.249,0,3.265-1.232,3.975-2.918h-0.394c-0.556,0.586-1.626,1.369-2.542,1.536l2.015-5.644h2.062l0.252-0.856h-1.994l0.762-2.165
			h-0.796l-1.429,2.165l-1.703,0.24V276.149z M132.51,280.83c0-1.853,2.058-4.364,3.222-4.364c0.252,0,0.492,0.03,0.706,0.09
			l-1.202,3.205c-0.697,0.843-1.767,1.866-2.259,1.866C132.69,281.626,132.51,281.387,132.51,280.83 M138.843,274.647l-0.629-0.047
			l-0.706,0.693h-0.154c-3.432,0-6.393,3.851-6.393,6.649c0,0.783,0.479,1.232,1.232,1.232c0.89,0,1.763-1.262,2.738-2.619
			l-0.043,0.483c-0.124,1.386,0.3,2.135,1.023,2.135c0.839,0,1.609-1.305,2.191-2.602h-0.385c-0.406,0.586-0.783,0.933-1.083,0.933
			c-0.317,0-0.543-0.573,0-1.789L138.843,274.647z M131.53,276.825c0.287-0.976,0.137-1.831-0.616-1.831
			c-0.886,0-1.112,0.676-2.015,2.619v-1.117c0-0.796-0.252-1.502-0.976-1.502c-0.847,0-1.609,1.305-2.199,2.602h0.394
			c0.402-0.586,0.779-0.933,1.083-0.933c0.359,0,0.556,0.556,0,1.789l-1.626,3.611c-0.304,0.68,0.017,1.113,0.676,1.113
			c0.406,0,0.586-0.103,0.753-0.539l1.596-4.227c0.449-0.556,0.856-1.04,1.369-1.583H131.53z M120.008,282.876l0.15-0.466
			c-2.002-0.377-2.255-0.377-1.459-2.559l0.813-2.238h2.208c0.997,0,1.014,0.402,0.86,1.489h0.569l1.326-3.628h-0.573
			c-0.492,0.86-0.886,1.489-1.968,1.489h-2.182l1.16-3.175c0.359-1.006,0.573-1.219,1.925-1.219h0.963
			c1.399,0,1.566,0.377,1.566,1.793h0.556l0.466-2.469h-8.305l-0.15,0.466c1.609,0.334,1.759,0.483,1.006,2.559l-1.806,4.934
			c-0.753,2.062-1.07,2.229-2.918,2.559l-0.137,0.466H120.008z"/>
		<path style="fill:#222221;" d="M160.718,257.298c0.561,0,1.044,0.419,0.787,1.489l-2.593,0.603
			C159.365,258.183,160.118,257.298,160.718,257.298 M162.151,261.465h-0.513c-0.646,0.77-1.335,1.369-2.028,1.369
			c-0.706,0-1.07-0.419-1.07-1.369c0-0.389,0.043-0.783,0.12-1.142l4.172-1.369c0.809-1.925-0.171-2.768-1.314-2.768
			c-1.968,0-4.21,3.295-4.21,6.183c0,1.296,0.616,2.002,1.579,2.002C160.012,264.371,161.188,263.271,162.151,261.465
			 M161.321,255.415l2.94-2.734v-0.321h-1.583l-1.806,3.055H161.321z M152.322,257.34h1.386l-2.195,6.007
			c-0.197,0.509,0.077,1.023,0.603,1.023c1.249,0,3.26-1.237,3.966-2.922h-0.385c-0.556,0.59-1.626,1.369-2.546,1.536l2.015-5.644
			h2.062l0.257-0.856h-2.002l0.766-2.165h-0.796l-1.429,2.165l-1.703,0.24V257.34z M150.461,257.058
			c0.163-0.556-0.214-0.873-0.496-0.873c-1.207,0-2.636,1.083-3.205,2.601h0.389c0.389-0.556,1.057-1.172,1.669-1.279l-2.302,5.986
			c-0.21,0.561,0.214,0.877,0.496,0.877c1.147,0,2.482-1.1,3.055-2.606h-0.394c-0.389,0.56-1.053,1.177-1.664,1.279L150.461,257.058
			z M150.885,254.046c0.539,0,0.988-0.436,0.988-0.988c0-0.543-0.449-0.997-0.988-0.997c-0.561,0-0.997,0.454-0.997,0.997
			C149.888,253.609,150.324,254.046,150.885,254.046 M142.875,263.044l4.202-10.997l-0.137-0.167l-2.636,0.3v0.317l0.513,0.389
			c0.466,0.364,0.317,0.71-0.107,1.823l-3.278,8.639c-0.24,0.466,0.073,1.023,0.599,1.023c1.202,0,2.482-1.083,3.055-2.606h-0.389
			C144.304,262.325,143.495,262.941,142.875,263.044 M134.903,262.021c0-1.848,2.062-4.364,3.218-4.364
			c0.257,0,0.496,0.034,0.706,0.094l-1.202,3.205c-0.689,0.839-1.759,1.861-2.255,1.861
			C135.083,262.817,134.903,262.578,134.903,262.021 M141.24,255.839l-0.638-0.047l-0.706,0.693h-0.15
			c-3.432,0-6.393,3.851-6.393,6.649c0,0.783,0.479,1.237,1.232,1.237c0.886,0,1.759-1.267,2.738-2.619l-0.047,0.483
			c-0.116,1.382,0.304,2.135,1.023,2.135c0.843,0,1.613-1.309,2.199-2.606h-0.394c-0.406,0.586-0.783,0.933-1.083,0.933
			c-0.312,0-0.539-0.569,0-1.789L141.24,255.839z M125.922,265.83c0-0.8,0.766-1.292,1.861-1.729
			c0.364,0.18,0.903,0.372,1.626,0.616c1.147,0.377,1.579,0.526,1.579,0.873c0,0.736-1.245,1.292-2.944,1.292
			C126.615,266.882,125.922,266.583,125.922,265.83 M129.033,260.969c-0.496,0-0.689-0.419-0.689-0.903
			c0-1.339,0.719-3.312,1.853-3.312c0.492,0,0.689,0.424,0.689,0.903C130.886,258.996,130.162,260.969,129.033,260.969
			 M132.302,265.094c0-0.967-0.86-1.314-2.259-1.733c-1.207-0.359-1.746-0.466-1.746-0.856c0-0.317,0.257-0.693,0.766-0.967
			c1.973-0.103,3.252-1.878,3.252-3.367c0-0.317-0.06-0.586-0.163-0.83h1.664l0.261-0.856h-2.649
			c-0.321-0.197-0.693-0.299-1.07-0.299c-2.092,0-3.444,1.836-3.444,3.325c0,1.125,0.719,1.836,1.592,2.002
			c-0.976,0.436-1.515,0.946-1.515,1.549c0,0.342,0.116,0.586,0.402,0.813c-2.255,0.663-3.145,1.412-3.145,2.482
			c0,1.04,1.369,1.476,2.995,1.476C130,267.832,132.302,266.343,132.302,265.094 M121.785,258.654c0.988,0,1.006,0.402,0.856,1.489
			h0.573l1.322-3.628h-0.569c-0.501,0.86-0.89,1.489-1.973,1.489h-2.182l1.1-3.025c0.359-1.006,0.569-1.202,1.925-1.202h0.958
			c1.403,0,1.57,0.377,1.57,1.776h0.556l0.466-2.469h-8.305l-0.154,0.466c1.609,0.334,1.759,0.484,1.01,2.559l-1.806,4.938
			c-0.753,2.058-1.07,2.225-2.922,2.554l-0.133,0.466h9.238l1.656-2.619h-0.633c-1.053,0.993-2.375,1.943-4.227,1.943
			c-2.452,0-2.225-0.103-1.412-2.345l0.869-2.392H121.785z M122.987,252.347l2.935-2.015v-0.317h-1.776l-1.626,2.332H122.987z"/>
		<path style="fill:#222221;" d="M159.742,238.487c0.561,0,1.04,0.424,0.783,1.493l-2.589,0.599
			C158.386,239.377,159.139,238.487,159.742,238.487 M161.171,242.655h-0.509c-0.65,0.77-1.344,1.374-2.032,1.374
			c-0.706,0-1.07-0.424-1.07-1.374c0-0.389,0.047-0.779,0.12-1.142l4.168-1.365c0.813-1.93-0.163-2.773-1.309-2.773
			c-1.973,0-4.21,3.299-4.21,6.183c0,1.296,0.62,2.003,1.579,2.003C159.036,245.56,160.208,244.465,161.171,242.655
			 M160.341,236.609l2.94-2.738v-0.317h-1.583l-1.806,3.055H160.341z M151.723,238.535h1.1l-2.199,6.003
			c-0.197,0.513,0.077,1.023,0.603,1.023c1.249,0,3.265-1.232,3.971-2.918h-0.389c-0.556,0.586-1.626,1.369-2.542,1.536l2.011-5.644
			h2.067l0.252-0.856h-1.998l0.766-2.165h-0.796l-1.429,2.165l-1.416,0.24V238.535z M150.641,239.211
			c0.282-0.976,0.133-1.836-0.62-1.836c-0.886,0-1.108,0.68-2.011,2.619v-1.112c0-0.796-0.257-1.506-0.98-1.506
			c-0.843,0-1.613,1.309-2.199,2.606h0.394c0.406-0.59,0.783-0.933,1.083-0.933c0.359,0,0.556,0.556,0,1.789l-1.626,3.611
			c-0.3,0.676,0.017,1.113,0.68,1.113c0.402,0,0.582-0.103,0.749-0.539l1.596-4.232c0.454-0.552,0.86-1.035,1.369-1.579H150.641z
			 M141.403,238.487c0.556,0,1.035,0.424,0.779,1.493l-2.584,0.599C140.047,239.377,140.8,238.487,141.403,238.487 M142.832,242.655
			h-0.509c-0.65,0.77-1.344,1.374-2.032,1.374c-0.71,0-1.07-0.424-1.07-1.374c0-0.389,0.047-0.779,0.12-1.142l4.168-1.365
			c0.813-1.93-0.163-2.773-1.309-2.773c-1.973,0-4.21,3.299-4.21,6.183c0,1.296,0.612,2.003,1.579,2.003
			C140.697,245.56,141.869,244.465,142.832,242.655 M132.614,244.345c-0.406,0-0.988-0.377-0.988-0.71
			c0-0.103,0.18-0.569,0.402-1.155l0.68-1.793c0.719-0.86,1.814-1.776,2.435-1.776c0.377,0,0.663,0.24,0.663,0.8
			C135.806,241.35,134.27,244.345,132.614,244.345 M137.351,239.048c0-1.219-0.449-1.673-1.288-1.673
			c-1.053,0-2.05,1.112-3.042,2.469l2.516-6.606l-0.141-0.163l-2.631,0.3v0.317l0.513,0.389c0.466,0.364,0.317,0.736-0.107,1.823
			l-2.708,6.979c-0.197,0.513-0.432,1.112-0.432,1.279c0,0.723,0.976,1.399,1.861,1.399
			C133.941,245.56,137.351,241.876,137.351,239.048 M129.17,238.248c0.163-0.556-0.21-0.873-0.496-0.873
			c-1.202,0-2.631,1.087-3.205,2.606h0.389c0.394-0.556,1.053-1.172,1.673-1.279l-2.306,5.986c-0.205,0.556,0.214,0.873,0.501,0.873
			c1.142,0,2.482-1.095,3.055-2.602h-0.394c-0.389,0.556-1.053,1.172-1.669,1.279L129.17,238.248z M129.593,235.24
			c0.539,0,0.988-0.436,0.988-0.993c0-0.543-0.449-0.993-0.988-0.993c-0.561,0-0.993,0.449-0.993,0.993
			C128.601,234.803,129.033,235.24,129.593,235.24 M123.526,234.277h-5.473l-0.15,0.466c1.609,0.334,1.759,0.484,1.006,2.559
			l-1.776,4.933c-0.753,2.062-1.07,2.229-2.922,2.559l-0.133,0.466h8.335l1.806-3.222h-0.629c-1.027,1.13-2.229,2.546-4.078,2.546
			c-1.403,0-1.57-0.24-0.813-2.349l1.771-4.933c0.74-2.062,1.07-2.225,2.922-2.559L123.526,234.277z"/>
	</g>
</g>
<g id="svg13">
</g>
</svg>
