<svg width="212" height="212" viewBox="0 0 212 212" fill="none" xmlns="http://www.w3.org/2000/svg">
<path fill-rule="evenodd" clip-rule="evenodd" d="M185.312 182.419C183.854 182.419 182.668 181.233 182.668 179.775C182.668 178.317 183.854 177.131 185.312 177.131C186.77 177.131 187.956 178.317 187.956 179.775C187.956 181.233 186.77 182.419 185.312 182.419Z" fill="#F4C447"/>
<path fill-rule="evenodd" clip-rule="evenodd" d="M180.026 34.3687C178.568 34.3687 177.382 33.1827 177.382 31.7249C177.382 30.267 178.568 29.0812 180.026 29.0812C181.483 29.0812 182.669 30.267 182.669 31.7249C182.669 33.1827 181.483 34.3687 180.026 34.3687Z" fill="#F4C447"/>
<path fill-rule="evenodd" clip-rule="evenodd" d="M37.2619 182.419C35.8041 182.419 34.6182 181.233 34.6182 179.775C34.6182 178.317 35.8041 177.131 37.2619 177.131C38.7197 177.131 39.9057 178.317 39.9057 179.775C39.9057 181.233 38.7197 182.419 37.2619 182.419Z" fill="#F4C447"/>
<path fill-rule="evenodd" clip-rule="evenodd" d="M26.6872 44.9437C25.2294 44.9437 24.0435 43.7578 24.0435 42.3C24.0435 40.8421 25.2294 39.6562 26.6872 39.6562C28.145 39.6562 29.331 40.8421 29.331 42.3C29.331 43.7578 28.145 44.9437 26.6872 44.9437Z" fill="#F4C447"/>
<path fill-rule="evenodd" clip-rule="evenodd" d="M42.5503 87.2438C42.5503 82.8635 46.1012 79.3126 50.4815 79.3126C54.8619 79.3126 58.4128 82.8635 58.4128 87.2438C58.4128 91.6241 54.8619 95.1751 50.4815 95.1751C46.1012 95.1751 42.5503 91.6241 42.5503 87.2438ZM53.1253 87.2438C53.1253 85.7837 51.9416 84.6001 50.4815 84.6001C49.0214 84.6001 47.8378 85.7837 47.8378 87.2438C47.8378 88.7039 49.0214 89.8876 50.4815 89.8876C51.9416 89.8876 53.1253 88.7039 53.1253 87.2438Z" fill="#F4C447"/>
<path d="M50.4815 89.8876C51.8374 89.8876 52.9548 90.9082 53.1075 92.223L53.1253 92.5313V103.106C53.1253 104.566 51.9416 105.75 50.4815 105.75C49.1257 105.75 48.0083 104.729 47.8556 103.415L47.8378 103.106V92.5313C47.8378 91.0712 49.0214 89.8876 50.4815 89.8876Z" fill="#F4C447"/>
<path fill-rule="evenodd" clip-rule="evenodd" d="M100.713 76.6688C100.713 72.2885 104.264 68.7376 108.644 68.7376C113.024 68.7376 116.575 72.2885 116.575 76.6688C116.575 81.0491 113.024 84.6001 108.644 84.6001C104.264 84.6001 100.713 81.0491 100.713 76.6688ZM111.288 76.6688C111.288 75.2087 110.104 74.0251 108.644 74.0251C107.184 74.0251 106 75.2087 106 76.6688C106 78.1289 107.184 79.3126 108.644 79.3126C110.104 79.3126 111.288 78.1289 111.288 76.6688Z" fill="#F4C447"/>
<path d="M108.644 79.3126C110 79.3126 111.117 80.3332 111.27 81.648L111.288 81.9563V92.5313C111.288 93.9914 110.104 95.1751 108.644 95.1751C107.288 95.1751 106.171 94.1545 106.018 92.8396L106 92.5313V81.9563C106 80.4962 107.184 79.3126 108.644 79.3126Z" fill="#F4C447"/>
<path fill-rule="evenodd" clip-rule="evenodd" d="M148.3 44.9438C148.3 40.5635 151.851 37.0126 156.232 37.0126C160.612 37.0126 164.163 40.5635 164.163 44.9438C164.163 49.3241 160.612 52.8751 156.232 52.8751C151.851 52.8751 148.3 49.3241 148.3 44.9438ZM158.875 44.9438C158.875 43.4837 157.692 42.3001 156.232 42.3001C154.771 42.3001 153.588 43.4837 153.588 44.9438C153.588 46.4039 154.771 47.5876 156.232 47.5876C157.692 47.5876 158.875 46.4039 158.875 44.9438Z" fill="#F4C447"/>
<path d="M156.232 47.5876C157.587 47.5876 158.705 48.6082 158.858 49.923L158.875 50.2313V60.8063C158.875 62.2664 157.692 63.4501 156.232 63.4501C154.876 63.4501 153.758 62.4295 153.606 61.1146L153.588 60.8063V50.2313C153.588 48.7712 154.771 47.5876 156.232 47.5876Z" fill="#F4C447"/>
<path fill-rule="evenodd" clip-rule="evenodd" d="M127.15 103.106C127.15 98.726 130.701 95.1751 135.082 95.1751C139.462 95.1751 143.013 98.726 143.013 103.106C143.013 107.487 139.462 111.038 135.082 111.038C130.701 111.038 127.15 107.487 127.15 103.106ZM137.725 103.106C137.725 101.646 136.542 100.463 135.082 100.463C133.621 100.463 132.438 101.646 132.438 103.106C132.438 104.566 133.621 105.75 135.082 105.75C136.542 105.75 137.725 104.566 137.725 103.106Z" fill="#F4C447"/>
<path d="M135.082 105.75C136.437 105.75 137.555 106.771 137.708 108.085L137.725 108.394V118.969C137.725 120.429 136.542 121.613 135.082 121.613C133.726 121.613 132.608 120.592 132.456 119.277L132.438 118.969V108.394C132.438 106.934 133.621 105.75 135.082 105.75Z" fill="#F4C447"/>
<path fill-rule="evenodd" clip-rule="evenodd" d="M90.1378 129.544C90.1378 125.164 93.6887 121.613 98.069 121.613C102.449 121.613 106 125.164 106 129.544C106 133.924 102.449 137.475 98.069 137.475C93.6887 137.475 90.1378 133.924 90.1378 129.544ZM100.713 129.544C100.713 128.084 99.5291 126.9 98.069 126.9C96.6089 126.9 95.4253 128.084 95.4253 129.544C95.4253 131.004 96.6089 132.188 98.069 132.188C99.5291 132.188 100.713 131.004 100.713 129.544Z" fill="#F4C447"/>
<path d="M98.069 132.188C99.4249 132.188 100.542 133.208 100.695 134.523L100.713 134.831V145.406C100.713 146.866 99.5291 148.05 98.069 148.05C96.7132 148.05 95.5958 147.029 95.4431 145.715L95.4253 145.406V134.831C95.4253 133.371 96.6089 132.188 98.069 132.188Z" fill="#F4C447"/>
<path fill-rule="evenodd" clip-rule="evenodd" d="M132.438 155.981C132.438 151.601 135.989 148.05 140.369 148.05C144.749 148.05 148.3 151.601 148.3 155.981C148.3 160.362 144.749 163.913 140.369 163.913C135.989 163.913 132.438 160.362 132.438 155.981ZM143.013 155.981C143.013 154.521 141.829 153.338 140.369 153.338C138.909 153.338 137.725 154.521 137.725 155.981C137.725 157.441 138.909 158.625 140.369 158.625C141.829 158.625 143.013 157.441 143.013 155.981Z" fill="#F4C447"/>
<path d="M140.369 158.625C141.725 158.625 142.842 159.646 142.995 160.96L143.013 161.269V171.844C143.013 173.304 141.829 174.488 140.369 174.488C139.013 174.488 137.896 173.467 137.743 172.152L137.725 171.844V161.269C137.725 159.809 138.909 158.625 140.369 158.625Z" fill="#F4C447"/>
<path fill-rule="evenodd" clip-rule="evenodd" d="M166.913 63.4523L173.965 63.7405C174.418 63.759 174.857 63.8931 175.243 64.1302C178.645 66.2231 179.935 70.4852 178.279 74.0209L178.057 74.4589L175.977 78.2577L175.905 79.0219C175.864 79.4368 175.793 79.8366 175.688 80.2358L175.504 80.8358L173.991 85.0416L174.115 92.2855C174.161 94.5101 173.239 96.6193 171.59 98.1299L171.197 98.4677L168.124 100.937C167.646 101.32 167.124 101.647 166.57 101.912L166.256 102.049L163.413 105.581L163.6 105.743C164.471 106.55 165.159 107.552 165.591 108.69L165.76 109.185L166.181 110.578L166.707 111.224L168.437 113.709C169.802 115.689 170.142 118.129 169.472 120.333L169.32 120.769L170.182 121.761C171.367 123.143 172.031 124.862 172.069 126.659L172.061 127.2L171.914 129.912C171.841 131.154 171.465 132.346 170.842 133.397L170.684 133.642L170.896 133.994C171.544 135.167 171.878 136.495 171.85 137.858L171.826 138.279L172.223 138.32C174.677 138.651 176.911 140.082 178.167 142.324L178.391 142.753L179.279 144.608C180.456 147.084 180.222 149.958 178.743 152.149L178.7 152.206L178.697 152.538C178.609 154.56 177.715 156.484 176.177 157.898L175.779 158.241L170.352 162.581L170.093 162.764L168.875 163.513L168.85 163.688C168.77 164.088 168.658 164.481 168.516 164.863L168.279 165.427C167.475 167.169 166.018 168.566 164.229 169.343L163.733 169.539L158.93 171.247C158.489 171.394 158.101 171.498 157.717 171.57L157.334 171.63L153.777 172.119C152.771 172.259 151.726 172.208 150.737 171.97C149.318 171.628 148.444 170.2 148.786 168.78C149.104 167.462 150.358 166.615 151.672 166.775L151.976 166.83C152.205 166.885 152.45 166.911 152.693 166.908L153.054 166.882L156.629 166.39C156.743 166.375 156.858 166.351 156.992 166.314L157.209 166.248L161.954 164.56C162.642 164.313 163.202 163.809 163.484 163.199C163.608 162.935 163.682 162.653 163.704 162.368L163.71 162.082C163.674 161.233 164.047 160.426 164.702 159.904L164.96 159.722L167.186 158.342L172.468 154.119C173.097 153.611 173.432 152.893 173.416 152.156L173.388 151.84C173.296 151.26 173.399 150.67 173.677 150.16L173.864 149.864L174.215 149.387C174.717 148.747 174.862 147.939 174.629 147.197L174.506 146.884L173.626 145.045C173.082 143.918 171.775 143.32 170.493 143.602L170.173 143.691L169.493 143.924C168.824 144.153 168.096 144.103 167.47 143.795L167.166 143.619L166.526 143.191C165.301 142.37 164.998 140.724 165.795 139.53L165.983 139.282C166.315 138.891 166.512 138.422 166.555 137.916C166.611 137.269 166.41 136.644 165.985 136.145L165.755 135.906L165.373 135.556C164.23 134.508 164.244 132.73 165.336 131.693L165.586 131.483C166.118 131.089 166.478 130.52 166.596 129.917L166.635 129.613L166.781 126.929C166.806 126.415 166.663 125.908 166.372 125.47L166.179 125.217L164.144 122.874C163.401 122.018 163.293 120.795 163.843 119.831L164.028 119.55C164.589 118.805 164.67 117.827 164.265 117.016L164.091 116.72L162.498 114.417L161.764 113.528C161.616 113.348 161.492 113.15 161.396 112.938L161.274 112.612L160.7 110.721C160.467 109.954 159.858 109.336 159.057 109.045L158.749 108.952C156.972 108.519 156.19 106.48 157.131 104.984L157.315 104.726L162.587 98.1757C162.852 97.8464 163.191 97.5867 163.575 97.4165L163.87 97.306C164.106 97.2336 164.328 97.1341 164.529 97.0122L164.815 96.8131L167.883 94.3474C168.42 93.9157 168.742 93.3357 168.814 92.7042L168.828 92.3847L168.698 84.6513C168.694 84.4382 168.716 84.2259 168.763 84.0189L168.853 83.713L170.52 79.0721L170.598 78.7977L170.642 78.5151L170.762 77.2282C170.784 76.989 170.839 76.7545 170.924 76.5311L171.075 76.205L173.419 71.9193C173.889 71.0626 173.77 70.0209 173.172 69.2564L172.928 68.9887L166.697 68.7354C165.343 68.68 164.268 67.6146 164.169 66.2946L164.164 65.9858C164.219 64.6312 165.285 63.5563 166.605 63.4574L166.913 63.4523Z" fill="#404092"/>
<path fill-rule="evenodd" clip-rule="evenodd" d="M108.45 31.9556C111.533 31.2147 114.781 32.2943 116.722 34.6901L117.033 35.1015L117.885 36.304L118.351 36.3468C121.298 36.7005 123.813 38.6066 124.865 41.3538L124.897 41.4541C125.763 41.8287 126.536 42.3333 127.204 42.9567L127.303 43.0562L127.444 43.0987C127.617 43.1558 127.787 43.2186 127.954 43.2869L128.447 43.508L130.626 44.5557C131.312 44.8918 131.94 45.3147 132.494 45.8115L132.653 45.9669L132.834 45.9259C134.996 45.4029 137.318 45.817 139.185 47.0357L139.642 47.3571C141.029 48.4104 142.005 49.8505 142.458 51.4639L142.594 52.0396L144.496 53.3313C144.777 53.5219 145.018 53.7643 145.206 54.0444L145.376 54.3365L148.02 59.624C148.673 60.9299 148.144 62.518 146.838 63.1709C145.625 63.7773 144.169 63.3642 143.445 62.2564L143.291 61.9886L140.955 57.3166L138.615 55.73C137.981 55.2994 137.569 54.6184 137.476 53.8678L137.434 53.2175C137.348 52.5763 137.005 51.9937 136.448 51.5706C135.873 51.1356 135.127 50.9335 134.409 51.0096L134.053 51.071L132.275 51.4832C131.283 51.7131 130.259 51.3522 129.628 50.5776L129.433 50.3043C129.226 49.972 128.938 49.6847 128.59 49.4646L128.317 49.3125L126.138 48.2644C125.982 48.188 125.824 48.1273 125.662 48.0815L125.417 48.0242C124.902 47.9284 124.429 47.6823 124.057 47.3203L123.846 47.0895C123.535 46.7058 123.114 46.4115 122.633 46.2413L122.261 46.1374C121.431 45.9639 120.742 45.4049 120.396 44.6443L120.283 44.35L119.983 43.4077C119.674 42.4176 118.787 41.7129 117.689 41.593L117.354 41.5748H116.506C115.756 41.5748 115.047 41.2566 114.549 40.7084L114.349 40.4596L112.715 38.1532C112.148 37.3487 111.098 36.9082 110.057 37.029L109.711 37.0903L101.028 39.2709C100.331 39.4465 99.7555 39.8566 99.3947 40.4147L99.2326 40.7057L97.3313 44.7217C97.204 44.9966 97.1289 45.2951 97.1096 45.5938L97.1091 45.8917L97.4582 51.1462C97.5049 51.8477 97.2701 52.5338 96.8145 53.0571L96.5686 53.3046L94.1167 55.4662C93.9384 55.6235 93.7401 55.7555 93.5274 55.8593L93.1982 55.9933L84.0513 59.0171C83.1323 59.3182 82.4758 60.0361 82.2824 60.8875L82.232 61.2124L82.1812 61.801C82.0556 63.2577 80.7801 64.3148 79.3594 64.2113L79.0531 64.171L74.2369 63.2548C73.8078 63.1731 73.4073 62.9867 73.07 62.7144L72.8294 62.4942L69.1239 58.6575C68.6417 58.1608 67.9472 57.8476 67.2768 57.8124L66.9448 57.8184L62.6325 58.0297C61.784 58.0756 61.0329 58.4672 60.5538 59.0993C60.1604 59.6139 59.9906 60.2341 60.0625 60.8489L60.1186 61.1554L61.4916 66.5512L63.3194 70.7718C64.1149 72.6098 62.6624 74.5888 60.7325 74.4616L60.4397 74.4264L59.0025 74.1761C58.5908 74.1005 58.1637 74.1166 57.7558 74.2212L57.4539 74.3162L57.0432 74.4719C56.1868 74.7965 55.2321 74.6525 54.5136 74.1101L54.2559 73.8881L52.3009 71.9726C51.8233 71.5039 51.1521 71.2227 50.4257 71.1849L50.0585 71.1865L39.4871 72.1027C39.2741 72.1198 39.0673 72.1602 38.8581 72.2265L38.5412 72.3455L30.8794 75.7919C29.7149 76.3166 29.1326 77.4816 29.392 78.6091L29.4746 78.8898L30.6424 82.129C30.7867 82.5274 31.049 82.8986 31.4051 83.2012L31.6895 83.4147C32.5036 83.9536 32.947 84.8909 32.8641 85.8467L32.8168 86.1655C32.69 86.7657 32.7955 87.3934 33.1505 87.9736L33.3492 88.3107L33.7122 88.874C33.7686 88.9561 33.8228 89.0325 33.8748 89.1033L34.1584 89.4651L34.3811 89.7081L34.5364 89.8448C34.5763 89.874 34.6038 89.8876 34.6179 89.8876C36.078 89.8876 37.2617 91.0712 37.2617 92.5313C37.2617 93.9914 36.078 95.1751 34.6179 95.1751C32.1637 95.1751 30.2223 93.5008 28.6036 90.6712C27.9874 89.6682 27.6193 88.5432 27.5108 87.3898L27.4772 86.7626L27.4562 86.7428C26.7967 86.0737 26.2612 85.297 25.8797 84.4454L25.6696 83.9257L24.4998 80.6812C23.1758 76.9998 24.8121 72.9967 28.2674 71.1853L28.7087 70.9705L36.4042 67.5092C37.1063 67.2045 37.8053 67.0006 38.5143 66.8946L39.0481 66.8335L49.6682 65.9138C51.8798 65.778 54.0023 66.461 55.6115 67.8385L56.0029 68.1973L56.7646 68.9464L56.5579 68.461L56.4223 68.0637L54.9923 62.451C54.4193 60.1648 54.9177 57.7658 56.3464 55.8969C57.6576 54.1667 59.6274 53.0592 61.8105 52.797L62.3604 52.7492L66.5649 52.5459C68.6647 52.3461 70.888 53.129 72.5257 54.5981L72.9225 54.9795L76.0481 58.2154L77.5154 58.4957L77.5984 58.2929C78.4205 56.4457 79.9552 54.9555 81.903 54.1748L82.3984 53.9946L91.0223 51.1434L92.0931 50.1969L91.8324 46.23C91.7644 45.1301 91.9323 44.0291 92.3269 42.992L92.5431 42.4791L94.4541 38.4421C95.3933 36.461 97.1124 34.975 99.2073 34.2958L99.7386 34.143L108.45 31.9556Z" fill="#404092"/>
<path fill-rule="evenodd" clip-rule="evenodd" d="M54.1603 111.583C55.3194 110.695 56.9788 110.915 57.8667 112.074L57.6136 111.732L58.126 111.943L59.1782 112.323L62.0053 113.266L62.4634 113.436C62.5287 113.463 62.5894 113.488 62.6471 113.514L65.2831 114.813C65.9475 115.142 66.439 115.732 66.6464 116.433L66.7176 116.741C66.747 116.914 66.7962 117.084 66.8647 117.249L66.9817 117.492C67.5179 118.464 67.3847 119.656 66.6782 120.483L66.4492 120.72C65.8849 121.235 65.5783 121.928 65.5886 122.634C65.5929 122.936 65.6581 123.241 65.7792 123.528L65.9188 123.808C66.2143 124.318 66.3292 124.909 66.2512 125.486L66.1413 126.003L66.1134 126.183L64.5097 139.677C64.4732 139.976 64.4915 140.27 64.5627 140.551L64.6516 140.829C64.8761 141.405 64.8917 142.041 64.6956 142.627L64.643 142.802L64.6057 142.967L62.6676 153.178C62.6033 153.516 62.4737 153.838 62.2871 154.125L62.0818 154.4L58.5893 158.495C58.0964 159.075 57.902 159.816 58.0433 160.537C58.1705 161.163 58.5422 161.721 59.092 162.107L59.3814 162.285L61.6257 163.477C61.9698 163.66 62.2681 163.916 62.5005 164.226L62.6621 164.468L63.7345 166.284C63.9617 166.67 64.3029 167.003 64.7073 167.235L65.0217 167.39L70.2702 169.565C70.4902 169.657 70.6964 169.777 70.8834 169.923L71.1489 170.16L72.7213 171.769C73.1598 172.219 73.7689 172.511 74.4187 172.585L74.7464 172.604H77.0738C77.4174 172.604 77.7565 172.671 78.0727 172.8L78.3804 172.949L79.9423 173.837C80.1628 173.964 80.3929 174.059 80.6351 174.123L81.0078 174.196L90.1917 175.389C90.9995 175.502 91.8135 175.267 92.4173 174.756L92.5805 174.606L92.7242 174.45C93.2812 173.794 94.1179 173.455 94.963 173.526L95.2798 173.572L96.1689 173.758L96.5992 173.887L98.7235 174.724C99.3588 174.975 99.8683 175.459 100.152 176.071L100.275 176.387C100.456 176.963 100.858 177.47 101.397 177.803L101.677 177.955L104.247 179.158C104.677 179.355 105.177 179.443 105.665 179.412L106.028 179.367L108.228 178.934C108.438 178.892 108.653 178.877 108.867 178.887L109.186 178.922L113.786 179.725L114.359 179.775C114.528 179.775 114.698 179.761 114.857 179.734L115.085 179.684L120.86 178.205C121.573 178.017 122.182 177.563 122.522 176.979C122.804 176.502 122.912 175.938 122.835 175.401L122.766 175.082L121.363 170.326C121.203 169.784 121.222 169.208 121.411 168.682L121.545 168.373L122.988 165.554C123.653 164.254 125.246 163.739 126.546 164.404C127.753 165.022 128.283 166.439 127.82 167.679L127.695 167.962L126.731 169.84L127.84 173.594C128.385 175.465 128.195 177.477 127.333 179.196L127.081 179.657C126.121 181.303 124.551 182.553 122.701 183.17L122.189 183.322L116.43 184.798C115.913 184.937 115.352 185.023 114.683 185.048L114.161 185.055L113.141 184.967L108.772 184.214L107.032 184.558C105.535 184.842 103.978 184.71 102.553 184.176L102.026 183.956L99.4374 182.744C97.9278 182.039 96.6887 180.887 95.8851 179.474L95.7626 179.241L95.4295 179.109C93.8653 180.269 91.937 180.825 90.0113 180.685L89.4865 180.63L80.3304 179.44C79.4729 179.33 78.6484 179.087 77.8808 178.722L77.3161 178.426L76.376 177.89L74.7464 177.891C72.7416 177.891 70.8007 177.152 69.3276 175.836L68.9377 175.463L67.7468 174.242L62.9969 172.275C61.5774 171.686 60.3508 170.697 59.4864 169.449L59.1796 168.969L58.4857 167.796L56.8909 166.949C54.9607 165.913 53.5563 164.171 52.9837 162.097L52.8581 161.572C52.4381 159.429 52.937 157.24 54.2253 155.494L54.5638 155.067L57.6 151.503L59.4093 141.99L59.4401 141.85L59.4052 141.719C59.2414 141.021 59.1768 140.303 59.2135 139.584L59.26 139.045L60.8704 125.494L60.851 125.445C60.5729 124.75 60.3968 124.017 60.3306 123.271L60.3017 122.71C60.2816 121.336 60.6318 119.998 61.2932 118.817L61.3277 118.755L60.4697 118.332L57.4539 117.322L56.1601 116.858C54.8267 116.355 54.2158 116.003 53.6692 115.289C52.7813 114.13 53.0011 112.47 54.1603 111.583Z" fill="#404092"/>
<path fill-rule="evenodd" clip-rule="evenodd" d="M92.7804 95.1751C94.2405 95.1751 95.4242 96.3587 95.4242 97.8188C95.4242 99.1746 94.4036 100.292 93.0887 100.445L92.7804 100.463H87.4929C86.0328 100.463 84.8492 99.2789 84.8492 97.8188C84.8492 96.463 85.8698 95.3456 87.1846 95.1928L87.4929 95.1751H92.7804Z" fill="#404092"/>
<path fill-rule="evenodd" clip-rule="evenodd" d="M145.655 79.3126C147.116 79.3126 148.299 80.4962 148.299 81.9563C148.299 83.3121 147.279 84.4296 145.964 84.5823L145.655 84.6001H140.368C138.908 84.6001 137.724 83.4164 137.724 81.9563C137.724 80.6005 138.745 79.4831 140.06 79.3303L140.368 79.3126H145.655Z" fill="#404092"/>
<path fill-rule="evenodd" clip-rule="evenodd" d="M129.793 132.188C131.253 132.188 132.437 133.371 132.437 134.831C132.437 136.187 131.416 137.305 130.101 137.457L129.793 137.475H124.505C123.045 137.475 121.862 136.291 121.862 134.831C121.862 133.475 122.882 132.358 124.197 132.205L124.505 132.188H129.793Z" fill="#404092"/>
</svg>
