<svg width="550" height="448" viewBox="0 0 550 448" fill="none" xmlns="http://www.w3.org/2000/svg">
<circle cx="298.713" cy="211" r="207.429" fill="#FDFDFD" stroke="#F4F5FD"/>
<circle cx="298.713" cy="211" r="210.965" fill="url(#paint0_linear_674_5834)"/>
<g filter="url(#filter0_d_674_5834)">
<rect x="481.308" y="82.4172" width="38.5559" height="38.5559" rx="7.82293" fill="#FDCFBB"/>
</g>
<rect x="487.65" y="89.165" width="26.4303" height="25.0613" rx="4.47025" fill="white"/>
<path d="M500.586 94.947V108.442" stroke="#FDCFBB" stroke-width="2.23512" stroke-linecap="round"/>
<path d="M495.766 97.3561L495.766 108.441" stroke="#FDCFBB" stroke-width="2.23512" stroke-linecap="round"/>
<path d="M505.405 100.247V108.44" stroke="#FDCFBB" stroke-width="2.23512" stroke-linecap="round"/>
<g filter="url(#filter1_d_674_5834)">
<g clip-path="url(#clip0_674_5834)">
<rect x="140.332" y="42.5327" width="312.436" height="309.776" rx="10.1391" fill="white"/>
<rect x="153.006" y="72.3151" width="283.894" height="39.9227" rx="6.33693" fill="#F4F5FD"/>
<path d="M226.776 95.5706C227.681 95.5706 228.394 95.1291 228.847 94.4839L230.115 95.4574C229.39 96.4422 228.213 97.0761 226.776 97.0761C224.274 97.0761 222.565 95.1517 222.565 92.8877C222.565 90.6237 224.274 88.6993 226.776 88.6993C228.213 88.6993 229.39 89.3446 230.115 90.3068L228.847 91.2916C228.394 90.6464 227.681 90.2049 226.776 90.2049C225.281 90.2049 224.217 91.3709 224.217 92.8877C224.217 94.4046 225.281 95.5706 226.776 95.5706ZM233.924 90.9181C235.78 90.9181 237.048 92.2878 237.048 93.9971C237.048 95.7064 235.78 97.0761 233.924 97.0761C232.067 97.0761 230.799 95.7064 230.799 93.9971C230.799 92.2878 232.067 90.9181 233.924 90.9181ZM233.946 95.7177C234.863 95.7177 235.554 94.9819 235.554 93.9971C235.554 93.0009 234.863 92.2765 233.946 92.2765C232.996 92.2765 232.294 93.0009 232.294 93.9971C232.294 94.9933 232.996 95.7177 233.946 95.7177ZM238.359 96.8497V91.1445H239.797V91.5746C240.182 91.2011 240.669 90.9181 241.37 90.9181C242.095 90.9181 242.729 91.235 243.102 91.8463C243.51 91.3482 244.053 90.9181 245.016 90.9181C246.193 90.9181 247.121 91.7331 247.121 93.3405V96.8497H245.672V93.3971C245.672 92.7066 245.299 92.2765 244.653 92.2765C244.031 92.2765 243.691 92.7066 243.465 93.0915C243.476 93.1707 243.476 93.25 243.476 93.3405V96.8497H242.027V93.3971C242.027 92.7066 241.653 92.2765 241.008 92.2765C240.352 92.2765 240.012 92.7632 239.797 93.1255V96.8497H238.359ZM248.762 99.6345V91.1445H250.199V91.6086C250.641 91.1671 251.196 90.9181 251.977 90.9181C253.788 90.9181 254.875 92.3331 254.875 93.9971C254.875 95.6611 253.788 97.0761 251.977 97.0761C251.196 97.0761 250.641 96.8271 250.199 96.3856V99.6345H248.762ZM251.773 92.2765C251.105 92.2765 250.562 92.5708 250.199 93.1028V94.8914C250.584 95.4347 251.116 95.7177 251.773 95.7177C252.746 95.7177 253.38 94.9933 253.38 93.9971C253.38 93.0009 252.746 92.2765 251.773 92.2765ZM257.665 97.0195C256.522 97.0195 255.741 96.363 255.741 95.3102C255.741 94.4499 256.409 93.8047 257.631 93.6009L259.375 93.3066V93.1594C259.375 92.5595 258.922 92.1746 258.265 92.1746C257.711 92.1746 257.28 92.4349 256.975 92.8538L255.922 92.0501C256.431 91.3482 257.269 90.9181 258.311 90.9181C259.963 90.9181 260.812 91.9029 260.812 93.1594V96.8497H259.375V96.2951C259.012 96.7365 258.333 97.0195 257.665 97.0195ZM257.167 95.2423C257.167 95.6272 257.473 95.8762 257.96 95.8762C258.616 95.8762 259.092 95.5706 259.375 95.1178V94.3141L258.016 94.5405C257.416 94.6423 257.167 94.8914 257.167 95.2423ZM262.459 96.8497V91.1445H263.896V91.7105C264.27 91.3256 264.757 91.0313 265.402 91.0313C265.594 91.0313 265.764 91.0652 265.9 91.1105V92.5255C265.719 92.4802 265.526 92.4463 265.266 92.4463C264.564 92.4463 264.111 92.8311 263.896 93.1934V96.8497H262.459ZM268.388 97.0195C267.245 97.0195 266.464 96.363 266.464 95.3102C266.464 94.4499 267.132 93.8047 268.354 93.6009L270.098 93.3066V93.1594C270.098 92.5595 269.645 92.1746 268.988 92.1746C268.434 92.1746 268.004 92.4349 267.698 92.8538L266.645 92.0501C267.155 91.3482 267.992 90.9181 269.034 90.9181C270.686 90.9181 271.535 91.9029 271.535 93.1594V96.8497H270.098V96.2951C269.735 96.7365 269.056 97.0195 268.388 97.0195ZM267.89 95.2423C267.89 95.6272 268.196 95.8762 268.683 95.8762C269.339 95.8762 269.815 95.5706 270.098 95.1178V94.3141L268.739 94.5405C268.139 94.6423 267.89 94.8914 267.89 95.2423ZM273.906 90.1483C273.397 90.1483 272.967 89.7181 272.967 89.2087C272.967 88.6993 273.397 88.2692 273.906 88.2692C274.416 88.2692 274.834 88.6993 274.834 89.2087C274.834 89.7181 274.416 90.1483 273.906 90.1483ZM273.182 96.8497V91.1445H274.619V96.8497H273.182ZM275.768 96.0234L276.719 95.1631C277.07 95.6045 277.488 95.9215 278.032 95.9215C278.496 95.9215 278.734 95.6498 278.734 95.3102C278.734 94.3141 276.006 94.6876 276.006 92.684C276.006 91.6765 276.855 90.9181 278.043 90.9181C278.915 90.9181 279.707 91.3369 280.115 91.8916L279.164 92.7293C278.869 92.367 278.496 92.0727 278.054 92.0727C277.602 92.0727 277.387 92.3217 277.387 92.6161C277.387 93.5896 280.115 93.25 280.115 95.2197C280.092 96.4196 279.13 97.0761 278.054 97.0761C277.036 97.0761 276.311 96.6686 275.768 96.0234ZM284.134 90.9181C285.991 90.9181 287.258 92.2878 287.258 93.9971C287.258 95.7064 285.991 97.0761 284.134 97.0761C282.278 97.0761 281.01 95.7064 281.01 93.9971C281.01 92.2878 282.278 90.9181 284.134 90.9181ZM284.157 95.7177C285.074 95.7177 285.764 94.9819 285.764 93.9971C285.764 93.0009 285.074 92.2765 284.157 92.2765C283.206 92.2765 282.504 93.0009 282.504 93.9971C282.504 94.9933 283.206 95.7177 284.157 95.7177ZM288.57 96.8497V91.1445H290.007V91.5973C290.404 91.2124 290.936 90.9181 291.694 90.9181C292.928 90.9181 293.913 91.7671 293.913 93.4537V96.8497H292.464V93.5103C292.464 92.7519 292.034 92.2765 291.332 92.2765C290.607 92.2765 290.222 92.7632 290.007 93.1255V96.8497H288.57ZM298.189 93.9971C298.189 92.3331 299.287 90.9181 301.087 90.9181C301.857 90.9181 302.411 91.1558 302.853 91.5973V88.3597H304.302V96.8497H302.853V96.3969C302.411 96.8384 301.857 97.0761 301.087 97.0761C299.287 97.0761 298.189 95.6611 298.189 93.9971ZM299.694 93.9971C299.694 94.9933 300.317 95.7177 301.291 95.7177C301.936 95.7177 302.468 95.4461 302.853 94.9253V93.0689C302.468 92.5481 301.936 92.2765 301.291 92.2765C300.317 92.2765 299.694 93.0009 299.694 93.9971ZM311.278 95.9215C310.746 96.6347 309.863 97.0761 308.787 97.0761C306.761 97.0761 305.618 95.6611 305.618 93.9971C305.618 92.3104 306.682 90.9181 308.549 90.9181C310.134 90.9181 311.176 91.9935 311.176 93.4877C311.176 93.8047 311.13 94.099 311.085 94.2914H307.089C307.225 95.3555 307.882 95.7857 308.776 95.7857C309.398 95.7857 309.942 95.514 310.247 95.1065L311.278 95.9215ZM308.516 92.0953C307.78 92.0953 307.293 92.5029 307.134 93.25H309.761C309.738 92.6727 309.319 92.0953 308.516 92.0953ZM312.005 96.0234L312.956 95.1631C313.307 95.6045 313.726 95.9215 314.269 95.9215C314.733 95.9215 314.971 95.6498 314.971 95.3102C314.971 94.3141 312.243 94.6876 312.243 92.684C312.243 91.6765 313.092 90.9181 314.28 90.9181C315.152 90.9181 315.944 91.3369 316.352 91.8916L315.401 92.7293C315.107 92.367 314.733 92.0727 314.292 92.0727C313.839 92.0727 313.624 92.3217 313.624 92.6161C313.624 93.5896 316.352 93.25 316.352 95.2197C316.329 96.4196 315.367 97.0761 314.292 97.0761C313.273 97.0761 312.548 96.6686 312.005 96.0234ZM323.445 90.9181C325.301 90.9181 326.569 92.2878 326.569 93.9971C326.569 95.7064 325.301 97.0761 323.445 97.0761C321.588 97.0761 320.32 95.7064 320.32 93.9971C320.32 92.2878 321.588 90.9181 323.445 90.9181ZM323.467 95.7177C324.384 95.7177 325.075 94.9819 325.075 93.9971C325.075 93.0009 324.384 92.2765 323.467 92.2765C322.516 92.2765 321.815 93.0009 321.815 93.9971C321.815 94.9933 322.516 95.7177 323.467 95.7177ZM333.993 93.9971C333.993 95.6611 332.906 97.0761 331.095 97.0761C330.314 97.0761 329.759 96.8271 329.318 96.3856V96.8497H327.88V88.3597H329.318V91.6086C329.759 91.1671 330.314 90.9181 331.095 90.9181C332.906 90.9181 333.993 92.3331 333.993 93.9971ZM330.891 92.2765C330.223 92.2765 329.669 92.5708 329.318 93.0915V94.9027C329.703 95.4347 330.246 95.7177 330.891 95.7177C331.865 95.7177 332.499 94.9933 332.499 93.9971C332.499 93.0009 331.865 92.2765 330.891 92.2765ZM336.011 90.1483C335.501 90.1483 335.071 89.7181 335.071 89.2087C335.071 88.6993 335.501 88.2692 336.011 88.2692C336.509 88.2692 336.939 88.6993 336.939 89.2087C336.939 89.7181 336.509 90.1483 336.011 90.1483ZM336.747 97.461C336.747 98.8873 336.079 99.6797 334.641 99.6797C334.166 99.6797 333.837 99.6231 333.554 99.4986V98.2421C333.735 98.3213 334.007 98.3666 334.403 98.3666C334.969 98.3666 335.309 98.1176 335.309 97.461V91.1445H336.747V97.461ZM343.723 95.9215C343.191 96.6347 342.308 97.0761 341.233 97.0761C339.206 97.0761 338.063 95.6611 338.063 93.9971C338.063 92.3104 339.127 90.9181 340.995 90.9181C342.58 90.9181 343.621 91.9935 343.621 93.4877C343.621 93.8047 343.576 94.099 343.531 94.2914H339.535C339.671 95.3555 340.327 95.7857 341.221 95.7857C341.844 95.7857 342.387 95.514 342.693 95.1065L343.723 95.9215ZM340.961 92.0953C340.225 92.0953 339.738 92.5029 339.58 93.25H342.206C342.184 92.6727 341.765 92.0953 340.961 92.0953ZM347.721 95.7177C348.287 95.7177 348.74 95.4574 349.012 95.0612L350.132 95.9215C349.6 96.6233 348.763 97.0761 347.721 97.0761C345.752 97.0761 344.574 95.6611 344.574 93.9971C344.574 92.3331 345.752 90.9181 347.721 90.9181C348.763 90.9181 349.6 91.3709 350.132 92.0727L349.012 92.933C348.74 92.5368 348.287 92.2765 347.699 92.2765C346.759 92.2765 346.069 93.0009 346.069 93.9971C346.069 95.0046 346.759 95.7177 347.721 95.7177ZM351.623 94.7669V92.4349H350.559V91.1445H351.623V89.7181H353.072V91.1445H354.815V92.4349H353.072V94.7669C353.072 95.4008 353.412 95.6498 353.978 95.6498C354.374 95.6498 354.634 95.6045 354.827 95.5253V96.7818C354.544 96.9063 354.204 96.9629 353.729 96.9629C352.302 96.9629 351.623 96.1592 351.623 94.7669ZM356.827 90.1483C356.318 90.1483 355.888 89.7181 355.888 89.2087C355.888 88.6993 356.318 88.2692 356.827 88.2692C357.337 88.2692 357.756 88.6993 357.756 89.2087C357.756 89.7181 357.337 90.1483 356.827 90.1483ZM356.103 96.8497V91.1445H357.54V96.8497H356.103ZM358.563 91.1445H359.627V90.5445C359.627 89.3333 360.43 88.3597 361.857 88.3597C362.377 88.3597 362.819 88.4843 363.181 88.6767L362.57 89.8766C362.4 89.7521 362.174 89.6502 361.879 89.6502C361.393 89.6502 361.076 89.9898 361.076 90.5105V91.1445H362.819V92.4349H361.076V96.8497H359.627V92.4349H358.563V91.1445ZM363.111 96.0234L364.062 95.1631C364.413 95.6045 364.832 95.9215 365.375 95.9215C365.839 95.9215 366.077 95.6498 366.077 95.3102C366.077 94.3141 363.349 94.6876 363.349 92.684C363.349 91.6765 364.198 90.9181 365.386 90.9181C366.258 90.9181 367.05 91.3369 367.458 91.8916L366.507 92.7293C366.213 92.367 365.839 92.0727 365.398 92.0727C364.945 92.0727 364.73 92.3217 364.73 92.6161C364.73 93.5896 367.458 93.25 367.458 95.2197C367.435 96.4196 366.473 97.0761 365.398 97.0761C364.379 97.0761 363.654 96.6686 363.111 96.0234Z" fill="#404092"/>
<g clip-path="url(#clip1_674_5834)">
<rect x="153.006" y="121.744" width="283.261" height="211.02" rx="6.33693" fill="#F4F5FD" fill-opacity="0.5"/>
<rect x="177.5" y="157.962" width="114" height="41.1353" rx="4.44706" fill="#FBFCFE"/>
<path d="M220.336 180.423H223.637V181.928H220.336V180.423ZM224.556 182.025V180.533L228.225 175.739H230.157V180.533H231.025V182.025H230.157V184.3H228.506V182.025H224.556ZM226.256 180.533H228.506V177.611L226.256 180.533ZM231.865 182.025V180.533L235.534 175.739H237.466V180.533H238.334V182.025H237.466V184.3H235.815V182.025H231.865ZM233.565 180.533H235.815V177.611L233.565 180.533ZM241.252 175.47C242.487 175.47 243.331 176.363 243.331 177.513C243.331 178.662 242.487 179.555 241.252 179.555C240.005 179.555 239.149 178.662 239.149 177.513C239.149 176.363 240.005 175.47 241.252 175.47ZM239.87 184.288L246.156 175.727H247.746L241.46 184.288H239.87ZM241.252 178.516C241.79 178.516 242.182 178.1 242.182 177.513C242.182 176.913 241.79 176.51 241.252 176.51C240.702 176.51 240.311 176.913 240.311 177.513C240.311 178.112 240.702 178.516 241.252 178.516ZM246.413 180.448C247.648 180.448 248.492 181.341 248.492 182.49C248.492 183.64 247.648 184.532 246.413 184.532C245.166 184.532 244.31 183.64 244.31 182.49C244.31 181.341 245.166 180.448 246.413 180.448ZM246.413 183.493C246.951 183.493 247.343 183.077 247.343 182.49C247.343 181.891 246.951 181.487 246.413 181.487C245.863 181.487 245.471 181.891 245.471 182.49C245.471 183.089 245.863 183.493 246.413 183.493Z" fill="#5555C3"/>
<rect x="297.5" y="157.962" width="114" height="41.1353" rx="4.44706" fill="#FBFCFE"/>
<path d="M340.467 180.423H343.769V181.928H340.467V180.423ZM347.044 184.545C345.626 184.545 344.721 183.896 344.171 183.15L345.442 182.099C345.883 182.686 346.384 183.053 347.069 183.053C348.304 183.053 348.952 182.16 349.062 180.472C348.512 180.961 347.815 181.23 346.971 181.23C345.271 181.23 344.195 180.02 344.195 178.454C344.195 176.84 345.357 175.495 347.314 175.495C349.539 175.495 350.774 177.121 350.774 179.983C350.774 182.649 349.674 184.545 347.044 184.545ZM345.895 178.393C345.895 179.188 346.457 179.763 347.277 179.763C347.974 179.763 348.598 179.482 349.013 178.919C348.818 177.525 348.219 176.987 347.338 176.987C346.457 176.987 345.895 177.586 345.895 178.393ZM351.734 182.025V180.533L355.402 175.739H357.335V180.533H358.203V182.025H357.335V184.3H355.684V182.025H351.734ZM353.433 180.533H355.684V177.611L353.433 180.533ZM361.121 175.47C362.356 175.47 363.2 176.363 363.2 177.513C363.2 178.662 362.356 179.555 361.121 179.555C359.874 179.555 359.017 178.662 359.017 177.513C359.017 176.363 359.874 175.47 361.121 175.47ZM359.739 184.288L366.025 175.727H367.615L361.329 184.288H359.739ZM361.121 178.516C361.659 178.516 362.05 178.1 362.05 177.513C362.05 176.913 361.659 176.51 361.121 176.51C360.571 176.51 360.179 176.913 360.179 177.513C360.179 178.112 360.571 178.516 361.121 178.516ZM366.282 180.448C367.517 180.448 368.361 181.341 368.361 182.49C368.361 183.64 367.517 184.532 366.282 184.532C365.034 184.532 364.178 183.64 364.178 182.49C364.178 181.341 365.034 180.448 366.282 180.448ZM366.282 183.493C366.82 183.493 367.211 183.077 367.211 182.49C367.211 181.891 366.82 181.487 366.282 181.487C365.731 181.487 365.34 181.891 365.34 182.49C365.34 183.089 365.731 183.493 366.282 183.493Z" fill="#5555C3"/>
<rect x="177.5" y="212.962" width="114" height="52.8088" rx="4.44706" fill="#6CD3FA" fill-opacity="0.05"/>
<path d="M220.718 235.423H224.02V236.928H220.718V235.423ZM230.818 236.854C230.818 238.481 229.485 239.545 227.7 239.545C226.085 239.545 225.046 238.835 224.349 237.612L225.792 236.72C226.269 237.661 226.844 238.077 227.687 238.077C228.519 238.077 229.143 237.576 229.143 236.781C229.143 235.998 228.531 235.509 227.626 235.509H226.22V234.041H227.516C228.238 234.041 228.764 233.638 228.764 232.977C228.764 232.329 228.275 231.962 227.602 231.962C226.917 231.962 226.452 232.329 226.098 232.941L224.752 232.109C225.376 231.094 226.342 230.495 227.724 230.495C229.29 230.495 230.451 231.388 230.451 232.794C230.451 233.589 230.109 234.262 229.473 234.702C230.341 235.142 230.818 235.913 230.818 236.854ZM233.794 239.3H231.886L236.191 232.231H231.776V230.739H237.94V232.231L233.794 239.3ZM240.87 230.47C242.105 230.47 242.949 231.363 242.949 232.513C242.949 233.662 242.105 234.555 240.87 234.555C239.623 234.555 238.767 233.662 238.767 232.513C238.767 231.363 239.623 230.47 240.87 230.47ZM239.488 239.288L245.774 230.727H247.364L241.078 239.288H239.488ZM240.87 233.516C241.408 233.516 241.8 233.1 241.8 232.513C241.8 231.913 241.408 231.51 240.87 231.51C240.32 231.51 239.928 231.913 239.928 232.513C239.928 233.112 240.32 233.516 240.87 233.516ZM246.031 235.448C247.266 235.448 248.11 236.341 248.11 237.49C248.11 238.64 247.266 239.532 246.031 239.532C244.784 239.532 243.927 238.64 243.927 237.49C243.927 236.341 244.784 235.448 246.031 235.448ZM246.031 238.493C246.569 238.493 246.96 238.077 246.96 237.49C246.96 236.891 246.569 236.487 246.031 236.487C245.481 236.487 245.089 236.891 245.089 237.49C245.089 238.089 245.481 238.493 246.031 238.493Z" fill="#1E98C6"/>
<path d="M204.451 252.16C204.895 252.16 205.253 251.942 205.471 251.638L206.101 252.121C205.743 252.603 205.167 252.914 204.443 252.914C203.128 252.914 202.303 251.942 202.303 250.798C202.303 249.654 203.128 248.681 204.443 248.681C205.159 248.681 205.743 248.992 206.101 249.475L205.471 249.957C205.253 249.654 204.895 249.436 204.443 249.436C203.688 249.436 203.144 250.027 203.144 250.798C203.144 251.576 203.688 252.16 204.451 252.16ZM207.344 247.965C207.048 247.965 206.799 247.716 206.799 247.42C206.799 247.124 207.048 246.875 207.344 246.875C207.639 246.875 207.888 247.124 207.888 247.42C207.888 247.716 207.639 247.965 207.344 247.965ZM206.939 252.759V248.836H207.74V252.759H206.939ZM213.176 250.798C213.176 251.942 212.406 252.914 211.176 252.914C210.608 252.914 210.188 252.712 209.853 252.354V252.759H209.052V246.922H209.853V249.241C210.188 248.883 210.608 248.681 211.176 248.681C212.406 248.681 213.176 249.654 213.176 250.798ZM211.075 249.436C210.561 249.436 210.126 249.677 209.853 250.097V251.498C210.141 251.926 210.569 252.16 211.075 252.16C211.83 252.16 212.336 251.568 212.336 250.798C212.336 250.027 211.83 249.436 211.075 249.436ZM214.182 252.759V246.922H214.983V252.759H214.182ZM219.835 252.121C219.47 252.611 218.87 252.914 218.139 252.914C216.785 252.914 215.983 251.942 215.983 250.798C215.983 249.623 216.73 248.681 217.975 248.681C219.057 248.681 219.758 249.42 219.758 250.416C219.758 250.595 219.734 250.774 219.703 250.891H216.808C216.863 251.747 217.384 252.191 218.139 252.191C218.614 252.191 219.01 251.981 219.252 251.654L219.835 252.121ZM217.96 249.35C217.376 249.35 216.971 249.685 216.847 250.292H218.956C218.94 249.801 218.59 249.35 217.96 249.35ZM223.311 249.895C222.984 249.895 222.727 249.63 222.727 249.311C222.727 249 222.984 248.743 223.311 248.743C223.63 248.743 223.887 249 223.887 249.311C223.887 249.63 223.63 249.895 223.311 249.895ZM223.311 252.852C222.984 252.852 222.727 252.595 222.727 252.276C222.727 251.965 222.984 251.7 223.311 251.7C223.63 251.7 223.887 251.965 223.887 252.276C223.887 252.595 223.63 252.852 223.311 252.852ZM230.697 251.233C230.697 252.245 229.872 252.914 228.759 252.914C227.779 252.914 227.14 252.502 226.705 251.755L227.452 251.296C227.771 251.895 228.176 252.152 228.751 252.152C229.366 252.152 229.825 251.794 229.825 251.195C229.825 250.626 229.405 250.253 228.751 250.253H227.841V249.49H228.658C229.211 249.49 229.576 249.171 229.576 248.689C229.576 248.198 229.211 247.918 228.713 247.918C228.238 247.918 227.903 248.159 227.654 248.595L226.954 248.167C227.351 247.529 227.934 247.155 228.767 247.155C229.74 247.155 230.456 247.724 230.456 248.603C230.456 249.117 230.222 249.56 229.779 249.825C230.37 250.097 230.697 250.619 230.697 251.233ZM233.419 247.155C234.812 247.155 235.481 248.408 235.481 250.035C235.481 251.661 234.812 252.914 233.419 252.914C232.025 252.914 231.348 251.661 231.348 250.035C231.348 248.408 232.025 247.155 233.419 247.155ZM233.419 247.949C232.625 247.949 232.228 248.821 232.228 250.035C232.228 251.257 232.625 252.121 233.419 252.121C234.205 252.121 234.601 251.249 234.601 250.035C234.601 248.813 234.205 247.949 233.419 247.949ZM238.146 247.155C239.539 247.155 240.208 248.408 240.208 250.035C240.208 251.661 239.539 252.914 238.146 252.914C236.753 252.914 236.076 251.661 236.076 250.035C236.076 248.408 236.753 247.155 238.146 247.155ZM238.146 247.949C237.352 247.949 236.955 248.821 236.955 250.035C236.955 251.257 237.352 252.121 238.146 252.121C238.932 252.121 239.329 251.249 239.329 250.035C239.329 248.813 238.932 247.949 238.146 247.949ZM243.244 252.759V246.922H244.054V250.533L245.719 248.836H246.739L245.112 250.486L246.754 252.759H245.758L244.536 251.062L244.054 251.553V252.759H243.244ZM247.794 251.397V249.56H247.055V248.836H247.794V247.856H248.603V248.836H249.903V249.56H248.603V251.397C248.603 251.926 248.884 252.097 249.319 252.097C249.584 252.097 249.763 252.066 249.903 252.012V252.72C249.716 252.798 249.498 252.837 249.195 252.837C248.277 252.837 247.794 252.354 247.794 251.397ZM253.359 252.074C254.044 252.074 254.597 251.739 254.939 251.249L255.655 251.802C255.149 252.471 254.348 252.914 253.359 252.914C251.647 252.914 250.488 251.591 250.488 250.035C250.488 248.478 251.647 247.155 253.359 247.155C254.348 247.155 255.149 247.599 255.655 248.268L254.939 248.821C254.597 248.331 254.044 247.996 253.359 247.996C252.223 247.996 251.406 248.899 251.406 250.035C251.406 251.179 252.223 252.074 253.359 252.074ZM259.128 247.155C260.832 247.155 261.999 248.478 261.999 250.035C261.999 251.591 260.832 252.914 259.128 252.914C257.416 252.914 256.256 251.591 256.256 250.035C256.256 248.478 257.416 247.155 259.128 247.155ZM259.128 252.074C260.264 252.074 261.073 251.171 261.073 250.035C261.073 248.891 260.264 247.996 259.128 247.996C257.991 247.996 257.174 248.899 257.174 250.035C257.174 251.179 257.991 252.074 259.128 252.074ZM262.871 252.759V251.988L264.723 250.113C265.268 249.552 265.548 249.249 265.548 248.735C265.548 248.214 265.174 247.918 264.676 247.918C264.124 247.918 263.774 248.222 263.47 248.728L262.77 248.3C263.221 247.591 263.859 247.155 264.754 247.155C265.68 247.155 266.42 247.755 266.42 248.665C266.42 249.405 265.937 249.965 265.33 250.58L263.906 251.988H266.568V252.759H262.871Z" fill="#1E98C6"/>
<rect x="297.5" y="212.962" width="114" height="52.8088" rx="4.44706" fill="#6CD3FA" fill-opacity="0.05"/>
<path d="M340.365 235.423H343.667V236.928H340.365V235.423ZM347.755 230.495C349.675 230.495 350.653 231.596 350.653 232.806C350.653 233.589 350.274 234.262 349.528 234.665C350.506 235.069 351.032 235.864 351.032 236.903C351.032 238.395 349.883 239.545 347.755 239.545C345.639 239.545 344.477 238.395 344.477 236.903C344.477 235.864 345.003 235.069 345.994 234.665C345.235 234.262 344.856 233.589 344.856 232.806C344.856 231.596 345.847 230.495 347.755 230.495ZM347.779 234.041C348.488 234.041 348.953 233.626 348.953 232.99C348.953 232.342 348.488 231.913 347.779 231.913C347.009 231.913 346.556 232.342 346.556 232.99C346.556 233.626 347.021 234.041 347.779 234.041ZM347.767 238.114C348.733 238.114 349.332 237.6 349.332 236.817C349.332 236.01 348.733 235.46 347.767 235.46C346.788 235.46 346.177 236.01 346.177 236.817C346.177 237.612 346.788 238.114 347.767 238.114ZM354.574 239.545C353.156 239.545 352.251 238.896 351.701 238.15L352.972 237.099C353.413 237.686 353.914 238.053 354.599 238.053C355.834 238.053 356.482 237.16 356.592 235.472C356.042 235.961 355.345 236.23 354.501 236.23C352.801 236.23 351.725 235.02 351.725 233.454C351.725 231.84 352.887 230.495 354.843 230.495C357.069 230.495 358.304 232.121 358.304 234.983C358.304 237.649 357.204 239.545 354.574 239.545ZM353.425 233.393C353.425 234.188 353.987 234.763 354.807 234.763C355.504 234.763 356.128 234.482 356.543 233.919C356.348 232.525 355.748 231.987 354.868 231.987C353.987 231.987 353.425 232.586 353.425 233.393ZM361.222 230.47C362.458 230.47 363.301 231.363 363.301 232.513C363.301 233.662 362.458 234.555 361.222 234.555C359.975 234.555 359.119 233.662 359.119 232.513C359.119 231.363 359.975 230.47 361.222 230.47ZM359.841 239.288L366.126 230.727H367.716L361.43 239.288H359.841ZM361.222 233.516C361.761 233.516 362.152 233.1 362.152 232.513C362.152 231.913 361.761 231.51 361.222 231.51C360.672 231.51 360.281 231.913 360.281 232.513C360.281 233.112 360.672 233.516 361.222 233.516ZM366.383 235.448C367.618 235.448 368.462 236.341 368.462 237.49C368.462 238.64 367.618 239.532 366.383 239.532C365.136 239.532 364.28 238.64 364.28 237.49C364.28 236.341 365.136 235.448 366.383 235.448ZM366.383 238.493C366.921 238.493 367.313 238.077 367.313 237.49C367.313 236.891 366.921 236.487 366.383 236.487C365.833 236.487 365.442 236.891 365.442 237.49C365.442 238.089 365.833 238.493 366.383 238.493Z" fill="#1E98C6"/>
<path d="M326.834 252.16C327.277 252.16 327.635 251.942 327.853 251.638L328.484 252.121C328.126 252.603 327.55 252.914 326.826 252.914C325.511 252.914 324.686 251.942 324.686 250.798C324.686 249.654 325.511 248.681 326.826 248.681C327.542 248.681 328.126 248.992 328.484 249.475L327.853 249.957C327.635 249.654 327.277 249.436 326.826 249.436C326.071 249.436 325.526 250.027 325.526 250.798C325.526 251.576 326.071 252.16 326.834 252.16ZM329.726 247.965C329.43 247.965 329.181 247.716 329.181 247.42C329.181 247.124 329.43 246.875 329.726 246.875C330.022 246.875 330.271 247.124 330.271 247.42C330.271 247.716 330.022 247.965 329.726 247.965ZM329.321 252.759V248.836H330.123V252.759H329.321ZM335.559 250.798C335.559 251.942 334.788 252.914 333.559 252.914C332.991 252.914 332.57 252.712 332.236 252.354V252.759H331.434V246.922H332.236V249.241C332.57 248.883 332.991 248.681 333.559 248.681C334.788 248.681 335.559 249.654 335.559 250.798ZM333.458 249.436C332.944 249.436 332.508 249.677 332.236 250.097V251.498C332.524 251.926 332.952 252.16 333.458 252.16C334.213 252.16 334.718 251.568 334.718 250.798C334.718 250.027 334.213 249.436 333.458 249.436ZM336.564 252.759V246.922H337.366V252.759H336.564ZM342.218 252.121C341.852 252.611 341.253 252.914 340.521 252.914C339.167 252.914 338.366 251.942 338.366 250.798C338.366 249.623 339.113 248.681 340.358 248.681C341.44 248.681 342.14 249.42 342.14 250.416C342.14 250.595 342.117 250.774 342.086 250.891H339.191C339.245 251.747 339.767 252.191 340.521 252.191C340.996 252.191 341.393 251.981 341.634 251.654L342.218 252.121ZM340.342 249.35C339.759 249.35 339.354 249.685 339.23 250.292H341.339C341.323 249.801 340.973 249.35 340.342 249.35ZM345.694 249.895C345.367 249.895 345.11 249.63 345.11 249.311C345.11 249 345.367 248.743 345.694 248.743C346.013 248.743 346.27 249 346.27 249.311C346.27 249.63 346.013 249.895 345.694 249.895ZM345.694 252.852C345.367 252.852 345.11 252.595 345.11 252.276C345.11 251.965 345.367 251.7 345.694 251.7C346.013 251.7 346.27 251.965 346.27 252.276C346.27 252.595 346.013 252.852 345.694 252.852ZM349.593 250.245L349.749 247.311H352.862V248.082H350.566L350.488 249.482H351.111C352.473 249.482 353.087 250.159 353.087 251.163C353.087 252.237 352.255 252.914 351.15 252.914C350.185 252.914 349.531 252.51 349.095 251.755L349.842 251.296C350.169 251.895 350.581 252.152 351.15 252.152C351.764 252.152 352.216 251.794 352.216 251.195C352.216 250.619 351.803 250.245 351.072 250.245H349.593ZM354.191 250.245L354.347 247.311H357.46V248.082H355.164L355.086 249.482H355.709C357.071 249.482 357.685 250.159 357.685 251.163C357.685 252.237 356.853 252.914 355.748 252.914C354.783 252.914 354.129 252.51 353.693 251.755L354.44 251.296C354.767 251.895 355.179 252.152 355.748 252.152C356.362 252.152 356.814 251.794 356.814 251.195C356.814 250.619 356.401 250.245 355.67 250.245H354.191ZM360.862 252.759V246.922H361.671V250.533L363.336 248.836H364.356L362.729 250.486L364.371 252.759H363.375L362.154 251.062L361.671 251.553V252.759H360.862ZM365.412 251.397V249.56H364.672V248.836H365.412V247.856H366.221V248.836H367.521V249.56H366.221V251.397C366.221 251.926 366.501 252.097 366.937 252.097C367.201 252.097 367.38 252.066 367.521 252.012V252.72C367.334 252.798 367.116 252.837 366.812 252.837C365.894 252.837 365.412 252.354 365.412 251.397ZM370.977 252.074C371.662 252.074 372.214 251.739 372.557 251.249L373.273 251.802C372.767 252.471 371.965 252.914 370.977 252.914C369.265 252.914 368.105 251.591 368.105 250.035C368.105 248.478 369.265 247.155 370.977 247.155C371.965 247.155 372.767 247.599 373.273 248.268L372.557 248.821C372.214 248.331 371.662 247.996 370.977 247.996C369.841 247.996 369.023 248.899 369.023 250.035C369.023 251.179 369.841 252.074 370.977 252.074ZM376.745 247.155C378.449 247.155 379.617 248.478 379.617 250.035C379.617 251.591 378.449 252.914 376.745 252.914C375.033 252.914 373.873 251.591 373.873 250.035C373.873 248.478 375.033 247.155 376.745 247.155ZM376.745 252.074C377.881 252.074 378.691 251.171 378.691 250.035C378.691 248.891 377.881 247.996 376.745 247.996C375.609 247.996 374.792 248.899 374.792 250.035C374.792 251.179 375.609 252.074 376.745 252.074ZM380.488 252.759V251.988L382.341 250.113C382.885 249.552 383.165 249.249 383.165 248.735C383.165 248.214 382.792 247.918 382.294 247.918C381.741 247.918 381.391 248.222 381.088 248.728L380.387 248.3C380.839 247.591 381.477 247.155 382.372 247.155C383.298 247.155 384.037 247.755 384.037 248.665C384.037 249.405 383.555 249.965 382.948 250.58L381.523 251.988H384.185V252.759H380.488Z" fill="#1E98C6"/>
<rect x="177.5" y="270.962" width="114" height="52.8088" rx="4.44706" fill="#F5895B" fill-opacity="0.05"/>
<path d="M220.515 293.423H223.817V294.928H220.515V293.423ZM224.622 297.3V295.808L227.557 292.922C228.217 292.249 228.633 291.785 228.633 291.088C228.633 290.378 228.144 289.962 227.471 289.962C226.652 289.962 226.151 290.464 225.698 291.222L224.353 290.403C225.074 289.229 226.138 288.495 227.63 288.495C229.122 288.495 230.321 289.449 230.321 290.916C230.321 292.09 229.55 292.995 228.707 293.815L226.64 295.808H230.541V297.3H224.622ZM235.355 288.495C236.785 288.495 237.678 289.143 238.241 289.889L236.969 290.941C236.529 290.354 236.027 289.987 235.355 289.987C234.119 289.987 233.459 290.88 233.349 292.555C233.899 292.078 234.596 291.809 235.44 291.809C237.14 291.809 238.216 293.02 238.216 294.585C238.216 296.199 237.054 297.545 235.098 297.545C232.872 297.545 231.637 295.918 231.637 293.056C231.637 290.39 232.737 288.495 235.355 288.495ZM235.134 293.277C234.437 293.277 233.838 293.546 233.398 294.12C233.594 295.515 234.193 296.053 235.061 296.053C235.966 296.053 236.516 295.453 236.516 294.646C236.516 293.851 235.954 293.277 235.134 293.277ZM241.073 288.47C242.308 288.47 243.152 289.363 243.152 290.513C243.152 291.662 242.308 292.555 241.073 292.555C239.826 292.555 238.97 291.662 238.97 290.513C238.97 289.363 239.826 288.47 241.073 288.47ZM239.691 297.288L245.977 288.727H247.567L241.281 297.288H239.691ZM241.073 291.516C241.611 291.516 242.003 291.1 242.003 290.513C242.003 289.913 241.611 289.51 241.073 289.51C240.523 289.51 240.131 289.913 240.131 290.513C240.131 291.112 240.523 291.516 241.073 291.516ZM246.234 293.448C247.469 293.448 248.313 294.341 248.313 295.49C248.313 296.64 247.469 297.532 246.234 297.532C244.987 297.532 244.131 296.64 244.131 295.49C244.131 294.341 244.987 293.448 246.234 293.448ZM246.234 296.493C246.772 296.493 247.163 296.077 247.163 295.49C247.163 294.891 246.772 294.487 246.234 294.487C245.684 294.487 245.292 294.891 245.292 295.49C245.292 296.089 245.684 296.493 246.234 296.493Z" fill="#F5895B"/>
<path d="M204.52 310.16C204.963 310.16 205.321 309.942 205.539 309.638L206.169 310.121C205.811 310.603 205.236 310.914 204.512 310.914C203.197 310.914 202.372 309.942 202.372 308.798C202.372 307.654 203.197 306.681 204.512 306.681C205.228 306.681 205.811 306.992 206.169 307.475L205.539 307.957C205.321 307.654 204.963 307.436 204.512 307.436C203.757 307.436 203.212 308.027 203.212 308.798C203.212 309.576 203.757 310.16 204.52 310.16ZM207.412 305.965C207.116 305.965 206.867 305.716 206.867 305.42C206.867 305.124 207.116 304.875 207.412 304.875C207.708 304.875 207.957 305.124 207.957 305.42C207.957 305.716 207.708 305.965 207.412 305.965ZM207.007 310.759V306.836H207.809V310.759H207.007ZM213.245 308.798C213.245 309.942 212.474 310.914 211.245 310.914C210.677 310.914 210.256 310.712 209.922 310.354V310.759H209.12V304.922H209.922V307.241C210.256 306.883 210.677 306.681 211.245 306.681C212.474 306.681 213.245 307.654 213.245 308.798ZM211.143 307.436C210.63 307.436 210.194 307.677 209.922 308.097V309.498C210.21 309.926 210.638 310.16 211.143 310.16C211.898 310.16 212.404 309.568 212.404 308.798C212.404 308.027 211.898 307.436 211.143 307.436ZM214.25 310.759V304.922H215.052V310.759H214.25ZM219.904 310.121C219.538 310.611 218.939 310.914 218.207 310.914C216.853 310.914 216.052 309.942 216.052 308.798C216.052 307.623 216.799 306.681 218.044 306.681C219.126 306.681 219.826 307.42 219.826 308.416C219.826 308.595 219.803 308.774 219.772 308.891H216.876C216.931 309.747 217.452 310.191 218.207 310.191C218.682 310.191 219.079 309.981 219.32 309.654L219.904 310.121ZM218.028 307.35C217.445 307.35 217.04 307.685 216.915 308.292H219.024C219.009 307.801 218.659 307.35 218.028 307.35ZM223.379 307.895C223.053 307.895 222.796 307.63 222.796 307.311C222.796 307 223.053 306.743 223.379 306.743C223.699 306.743 223.955 307 223.955 307.311C223.955 307.63 223.699 307.895 223.379 307.895ZM223.379 310.852C223.053 310.852 222.796 310.595 222.796 310.276C222.796 309.965 223.053 309.7 223.379 309.7C223.699 309.7 223.955 309.965 223.955 310.276C223.955 310.595 223.699 310.852 223.379 310.852ZM230.765 309.233C230.765 310.245 229.94 310.914 228.828 310.914C227.847 310.914 227.209 310.502 226.773 309.755L227.52 309.296C227.839 309.895 228.244 310.152 228.82 310.152C229.435 310.152 229.894 309.794 229.894 309.195C229.894 308.626 229.474 308.253 228.82 308.253H227.909V307.49H228.726C229.279 307.49 229.645 307.171 229.645 306.689C229.645 306.198 229.279 305.918 228.781 305.918C228.306 305.918 227.972 306.159 227.723 306.595L227.022 306.167C227.419 305.529 228.003 305.155 228.835 305.155C229.808 305.155 230.524 305.724 230.524 306.603C230.524 307.117 230.291 307.56 229.847 307.825C230.439 308.097 230.765 308.619 230.765 309.233ZM231.854 308.245L232.01 305.311H235.123V306.082H232.827L232.749 307.482H233.372C234.734 307.482 235.348 308.159 235.348 309.163C235.348 310.237 234.516 310.914 233.411 310.914C232.446 310.914 231.792 310.51 231.356 309.755L232.103 309.296C232.43 309.895 232.842 310.152 233.411 310.152C234.025 310.152 234.477 309.794 234.477 309.195C234.477 308.619 234.064 308.245 233.333 308.245H231.854ZM238.077 305.155C239.47 305.155 240.14 306.408 240.14 308.035C240.14 309.661 239.47 310.914 238.077 310.914C236.684 310.914 236.007 309.661 236.007 308.035C236.007 306.408 236.684 305.155 238.077 305.155ZM238.077 305.949C237.283 305.949 236.887 306.821 236.887 308.035C236.887 309.257 237.283 310.121 238.077 310.121C238.863 310.121 239.26 309.249 239.26 308.035C239.26 306.813 238.863 305.949 238.077 305.949ZM243.176 310.759V304.922H243.985V308.533L245.651 306.836H246.67L245.044 308.486L246.686 310.759H245.69L244.468 309.062L243.985 309.553V310.759H243.176ZM247.726 309.397V307.56H246.986V306.836H247.726V305.856H248.535V306.836H249.835V307.56H248.535V309.397C248.535 309.926 248.815 310.097 249.251 310.097C249.516 310.097 249.695 310.066 249.835 310.012V310.72C249.648 310.798 249.43 310.837 249.127 310.837C248.208 310.837 247.726 310.354 247.726 309.397ZM253.291 310.074C253.976 310.074 254.528 309.739 254.871 309.249L255.587 309.802C255.081 310.471 254.279 310.914 253.291 310.914C251.579 310.914 250.419 309.591 250.419 308.035C250.419 306.478 251.579 305.155 253.291 305.155C254.279 305.155 255.081 305.599 255.587 306.268L254.871 306.821C254.528 306.331 253.976 305.996 253.291 305.996C252.155 305.996 251.338 306.899 251.338 308.035C251.338 309.179 252.155 310.074 253.291 310.074ZM259.059 305.155C260.764 305.155 261.931 306.478 261.931 308.035C261.931 309.591 260.764 310.914 259.059 310.914C257.347 310.914 256.188 309.591 256.188 308.035C256.188 306.478 257.347 305.155 259.059 305.155ZM259.059 310.074C260.196 310.074 261.005 309.171 261.005 308.035C261.005 306.891 260.196 305.996 259.059 305.996C257.923 305.996 257.106 306.899 257.106 308.035C257.106 309.179 257.923 310.074 259.059 310.074ZM262.802 310.759V309.988L264.655 308.113C265.199 307.552 265.48 307.249 265.48 306.735C265.48 306.214 265.106 305.918 264.608 305.918C264.055 305.918 263.705 306.222 263.402 306.728L262.701 306.3C263.153 305.591 263.791 305.155 264.686 305.155C265.612 305.155 266.351 305.755 266.351 306.665C266.351 307.405 265.869 307.965 265.262 308.58L263.838 309.988H266.499V310.759H262.802Z" fill="#F5895B"/>
<rect x="297.5" y="270.962" width="114" height="52.8088" rx="4.44706" fill="#F5895B" fill-opacity="0.05"/>
<path d="M341.422 293.423H344.724V294.928H341.422V293.423ZM348 297.545C346.581 297.545 345.676 296.896 345.126 296.15L346.398 295.099C346.838 295.686 347.34 296.053 348.024 296.053C349.26 296.053 349.908 295.16 350.018 293.472C349.467 293.961 348.77 294.23 347.927 294.23C346.227 294.23 345.15 293.02 345.15 291.454C345.15 289.84 346.312 288.495 348.269 288.495C350.495 288.495 351.73 290.121 351.73 292.983C351.73 295.649 350.629 297.545 348 297.545ZM346.85 291.393C346.85 292.188 347.413 292.763 348.232 292.763C348.929 292.763 349.553 292.482 349.969 291.919C349.773 290.525 349.174 289.987 348.293 289.987C347.413 289.987 346.85 290.586 346.85 291.393ZM354.639 297.288V290.427L352.866 291.43L352.046 290.256L354.688 288.727H356.29V297.288H354.639ZM360.166 288.47C361.401 288.47 362.245 289.363 362.245 290.513C362.245 291.662 361.401 292.555 360.166 292.555C358.918 292.555 358.062 291.662 358.062 290.513C358.062 289.363 358.918 288.47 360.166 288.47ZM358.784 297.288L365.069 288.727H366.659L360.373 297.288H358.784ZM360.166 291.516C360.704 291.516 361.095 291.1 361.095 290.513C361.095 289.913 360.704 289.51 360.166 289.51C359.615 289.51 359.224 289.913 359.224 290.513C359.224 291.112 359.615 291.516 360.166 291.516ZM365.326 293.448C366.561 293.448 367.405 294.341 367.405 295.49C367.405 296.64 366.561 297.532 365.326 297.532C364.079 297.532 363.223 296.64 363.223 295.49C363.223 294.341 364.079 293.448 365.326 293.448ZM365.326 296.493C365.864 296.493 366.256 296.077 366.256 295.49C366.256 294.891 365.864 294.487 365.326 294.487C364.776 294.487 364.385 294.891 364.385 295.49C364.385 296.089 364.776 296.493 365.326 296.493Z" fill="#F5895B"/>
<path d="M329.684 310.16C330.127 310.16 330.485 309.942 330.703 309.638L331.334 310.121C330.976 310.603 330.4 310.914 329.676 310.914C328.361 310.914 327.536 309.942 327.536 308.798C327.536 307.654 328.361 306.681 329.676 306.681C330.392 306.681 330.976 306.992 331.334 307.475L330.703 307.957C330.485 307.654 330.127 307.436 329.676 307.436C328.921 307.436 328.376 308.027 328.376 308.798C328.376 309.576 328.921 310.16 329.684 310.16ZM332.576 305.965C332.28 305.965 332.031 305.716 332.031 305.42C332.031 305.124 332.28 304.875 332.576 304.875C332.872 304.875 333.121 305.124 333.121 305.42C333.121 305.716 332.872 305.965 332.576 305.965ZM332.171 310.759V306.836H332.973V310.759H332.171ZM338.409 308.798C338.409 309.942 337.638 310.914 336.409 310.914C335.841 310.914 335.42 310.712 335.086 310.354V310.759H334.284V304.922H335.086V307.241C335.42 306.883 335.841 306.681 336.409 306.681C337.638 306.681 338.409 307.654 338.409 308.798ZM336.308 307.436C335.794 307.436 335.358 307.677 335.086 308.097V309.498C335.374 309.926 335.802 310.16 336.308 310.16C337.063 310.16 337.568 309.568 337.568 308.798C337.568 308.027 337.063 307.436 336.308 307.436ZM339.414 310.759V304.922H340.216V310.759H339.414ZM345.068 310.121C344.702 310.611 344.103 310.914 343.371 310.914C342.017 310.914 341.216 309.942 341.216 308.798C341.216 307.623 341.963 306.681 343.208 306.681C344.29 306.681 344.99 307.42 344.99 308.416C344.99 308.595 344.967 308.774 344.936 308.891H342.041C342.095 309.747 342.617 310.191 343.371 310.191C343.846 310.191 344.243 309.981 344.484 309.654L345.068 310.121ZM343.192 307.35C342.609 307.35 342.204 307.685 342.08 308.292H344.189C344.173 307.801 343.823 307.35 343.192 307.35ZM348.544 307.895C348.217 307.895 347.96 307.63 347.96 307.311C347.96 307 348.217 306.743 348.544 306.743C348.863 306.743 349.12 307 349.12 307.311C349.12 307.63 348.863 307.895 348.544 307.895ZM348.544 310.852C348.217 310.852 347.96 310.595 347.96 310.276C347.96 309.965 348.217 309.7 348.544 309.7C348.863 309.7 349.12 309.965 349.12 310.276C349.12 310.595 348.863 310.852 348.544 310.852ZM351.976 309.241V308.471L354.443 305.311H355.455V308.471H356.054V309.241H355.455V310.759H354.607V309.241H351.976ZM352.871 308.471H354.607V306.253L352.871 308.471ZM357.109 308.245L357.265 305.311H360.378V306.082H358.082L358.004 307.482H358.627C359.989 307.482 360.604 308.159 360.604 309.163C360.604 310.237 359.771 310.914 358.666 310.914C357.701 310.914 357.047 310.51 356.611 309.755L357.358 309.296C357.685 309.895 358.098 310.152 358.666 310.152C359.281 310.152 359.732 309.794 359.732 309.195C359.732 308.619 359.32 308.245 358.588 308.245H357.109ZM363.78 310.759V304.922H364.589V308.533L366.255 306.836H367.274L365.648 308.486L367.29 310.759H366.294L365.072 309.062L364.589 309.553V310.759H363.78ZM368.33 309.397V307.56H367.591V306.836H368.33V305.856H369.139V306.836H370.439V307.56H369.139V309.397C369.139 309.926 369.419 310.097 369.855 310.097C370.12 310.097 370.299 310.066 370.439 310.012V310.72C370.252 310.798 370.034 310.837 369.731 310.837C368.812 310.837 368.33 310.354 368.33 309.397ZM373.895 305.155C375.599 305.155 376.767 306.478 376.767 308.035C376.767 309.591 375.599 310.914 373.895 310.914C372.183 310.914 371.023 309.591 371.023 308.035C371.023 306.478 372.183 305.155 373.895 305.155ZM373.895 310.074C375.031 310.074 375.841 309.171 375.841 308.035C375.841 306.891 375.031 305.996 373.895 305.996C372.759 305.996 371.942 306.899 371.942 308.035C371.942 309.179 372.759 310.074 373.895 310.074ZM377.638 310.759V309.988L379.491 308.113C380.035 307.552 380.315 307.249 380.315 306.735C380.315 306.214 379.942 305.918 379.444 305.918C378.891 305.918 378.541 306.222 378.238 306.728L377.537 306.3C377.989 305.591 378.627 305.155 379.522 305.155C380.448 305.155 381.187 305.755 381.187 306.665C381.187 307.405 380.705 307.965 380.098 308.58L378.673 309.988H381.335V310.759H377.638Z" fill="#F5895B"/>
<path d="M223.156 147.962V146.742L225.556 144.382C226.096 143.832 226.436 143.452 226.436 142.882C226.436 142.302 226.036 141.962 225.486 141.962C224.816 141.962 224.406 142.372 224.036 142.992L222.936 142.322C223.526 141.362 224.396 140.762 225.616 140.762C226.836 140.762 227.816 141.542 227.816 142.742C227.816 143.702 227.186 144.442 226.496 145.112L224.806 146.742H227.996V147.962H223.156ZM231.572 140.762C233.412 140.762 234.272 142.362 234.272 144.462C234.272 146.562 233.412 148.162 231.572 148.162C229.732 148.162 228.872 146.562 228.872 144.462C228.872 142.362 229.732 140.762 231.572 140.762ZM231.572 142.012C230.682 142.012 230.252 142.992 230.252 144.462C230.252 145.942 230.682 146.912 231.572 146.912C232.452 146.912 232.882 145.932 232.882 144.462C232.882 142.982 232.452 142.012 231.572 142.012ZM239.961 145.962C239.961 147.292 238.871 148.162 237.411 148.162C236.091 148.162 235.241 147.582 234.671 146.582L235.851 145.852C236.241 146.622 236.711 146.962 237.401 146.962C238.081 146.962 238.591 146.552 238.591 145.902C238.591 145.262 238.091 144.862 237.351 144.862H236.201V143.662H237.261C237.851 143.662 238.281 143.332 238.281 142.792C238.281 142.262 237.881 141.962 237.331 141.962C236.771 141.962 236.391 142.262 236.101 142.762L235.001 142.082C235.511 141.252 236.301 140.762 237.431 140.762C238.711 140.762 239.661 141.492 239.661 142.642C239.661 143.292 239.381 143.842 238.861 144.202C239.571 144.562 239.961 145.192 239.961 145.962ZM243.428 140.762C245.268 140.762 246.128 142.362 246.128 144.462C246.128 146.562 245.268 148.162 243.428 148.162C241.588 148.162 240.728 146.562 240.728 144.462C240.728 142.362 241.588 140.762 243.428 140.762ZM243.428 142.012C242.538 142.012 242.108 142.992 242.108 144.462C242.108 145.942 242.538 146.912 243.428 146.912C244.308 146.912 244.738 145.932 244.738 144.462C244.738 142.982 244.308 142.012 243.428 142.012Z" fill="#5555C3"/>
<path d="M343.102 147.962V146.742L345.502 144.382C346.042 143.832 346.382 143.452 346.382 142.882C346.382 142.302 345.982 141.962 345.432 141.962C344.762 141.962 344.352 142.372 343.982 142.992L342.882 142.322C343.472 141.362 344.342 140.762 345.562 140.762C346.782 140.762 347.762 141.542 347.762 142.742C347.762 143.702 347.132 144.442 346.442 145.112L344.752 146.742H347.942V147.962H343.102ZM351.519 140.762C353.359 140.762 354.219 142.362 354.219 144.462C354.219 146.562 353.359 148.162 351.519 148.162C349.679 148.162 348.819 146.562 348.819 144.462C348.819 142.362 349.679 140.762 351.519 140.762ZM351.519 142.012C350.629 142.012 350.199 142.992 350.199 144.462C350.199 145.942 350.629 146.912 351.519 146.912C352.399 146.912 352.829 145.932 352.829 144.462C352.829 142.982 352.399 142.012 351.519 142.012ZM355.395 144.862L355.605 140.962H359.775V142.182H356.895L356.815 143.642H357.355C359.215 143.642 360.035 144.492 360.035 145.852C360.035 147.282 358.915 148.162 357.475 148.162C356.175 148.162 355.315 147.592 354.735 146.582L355.915 145.852C356.315 146.622 356.795 146.962 357.475 146.962C358.165 146.962 358.655 146.552 358.655 145.902C358.655 145.242 358.165 144.862 357.295 144.862H355.395ZM363.481 140.762C365.321 140.762 366.181 142.362 366.181 144.462C366.181 146.562 365.321 148.162 363.481 148.162C361.641 148.162 360.781 146.562 360.781 144.462C360.781 142.362 361.641 140.762 363.481 140.762ZM363.481 142.012C362.591 142.012 362.161 142.992 362.161 144.462C362.161 145.942 362.591 146.912 363.481 146.912C364.361 146.912 364.791 145.932 364.791 144.462C364.791 142.982 364.361 142.012 363.481 142.012Z" fill="#5555C3"/>
</g>
<circle cx="156.808" cy="59.0088" r="3.80216" fill="#FF4443" stroke="#DF3A3B" stroke-width="0.633693"/>
<circle cx="169.482" cy="59.0083" r="3.80216" fill="#FFBF00" stroke="#E9A113" stroke-width="0.633693"/>
<circle cx="182.156" cy="59.0083" r="3.80216" fill="#00D544" stroke="#12B62F" stroke-width="0.633693"/>
</g>
</g>
<g filter="url(#filter2_d_674_5834)">
<rect x="66.5" y="244.369" width="158.423" height="130.541" rx="6.33693" fill="#FBFEFF"/>
<path d="M80.0876 266.042V259.832H81.6579L83.175 262.44L84.692 259.832H86.2623V266.042H85.0025V261.589L83.6186 263.913H82.7314L81.3474 261.589V266.042H80.0876ZM91.9006 265.315C91.4836 265.874 90.7916 266.22 89.9488 266.22C88.3608 266.22 87.4647 265.111 87.4647 263.807C87.4647 262.485 88.2987 261.393 89.7625 261.393C91.0045 261.393 91.8207 262.236 91.8207 263.407C91.8207 263.656 91.7852 263.886 91.7497 264.037H88.618C88.7245 264.871 89.2391 265.208 89.9399 265.208C90.4279 265.208 90.8537 264.995 91.0932 264.676L91.9006 265.315ZM89.7359 262.316C89.1592 262.316 88.7777 262.636 88.6535 263.221H90.7118C90.694 262.769 90.3658 262.316 89.7359 262.316ZM92.4707 265.395L93.2159 264.72C93.491 265.066 93.8192 265.315 94.2451 265.315C94.6088 265.315 94.7951 265.102 94.7951 264.836C94.7951 264.055 92.657 264.348 92.657 262.777C92.657 261.988 93.3224 261.393 94.2539 261.393C94.937 261.393 95.5581 261.722 95.8774 262.156L95.1322 262.813C94.9016 262.529 94.6088 262.298 94.2628 262.298C93.9079 262.298 93.7394 262.494 93.7394 262.724C93.7394 263.487 95.8774 263.221 95.8774 264.765C95.8597 265.705 95.1056 266.22 94.2628 266.22C93.4643 266.22 92.8966 265.9 92.4707 265.395ZM99.8611 264.108V261.571H100.997V264.055C100.997 265.395 100.216 266.22 98.903 266.22C97.59 266.22 96.8181 265.395 96.8181 264.055V261.571H97.9537V264.108C97.9537 264.756 98.2908 265.155 98.9118 265.155C99.524 265.155 99.8611 264.756 99.8611 264.108ZM102.244 266.042V261.571H103.371V262.014C103.663 261.713 104.045 261.482 104.551 261.482C104.701 261.482 104.834 261.509 104.941 261.544V262.653C104.799 262.618 104.648 262.591 104.444 262.591C103.894 262.591 103.539 262.893 103.371 263.177V266.042H102.244ZM109.774 265.315C109.357 265.874 108.665 266.22 107.822 266.22C106.234 266.22 105.338 265.111 105.338 263.807C105.338 262.485 106.172 261.393 107.636 261.393C108.878 261.393 109.694 262.236 109.694 263.407C109.694 263.656 109.659 263.886 109.623 264.037H106.491C106.598 264.871 107.112 265.208 107.813 265.208C108.301 265.208 108.727 264.995 108.967 264.676L109.774 265.315ZM107.609 262.316C107.033 262.316 106.651 262.636 106.527 263.221H108.585C108.567 262.769 108.239 262.316 107.609 262.316ZM112.867 263.807C112.867 262.502 113.727 261.393 115.138 261.393C115.741 261.393 116.176 261.58 116.522 261.926V259.388H117.658V266.042H116.522V265.687C116.176 266.033 115.741 266.22 115.138 266.22C113.727 266.22 112.867 265.111 112.867 263.807ZM114.047 263.807C114.047 264.587 114.535 265.155 115.298 265.155C115.803 265.155 116.22 264.942 116.522 264.534V263.079C116.22 262.671 115.803 262.458 115.298 262.458C114.535 262.458 114.047 263.026 114.047 263.807ZM123.125 265.315C122.708 265.874 122.016 266.22 121.173 266.22C119.585 266.22 118.689 265.111 118.689 263.807C118.689 262.485 119.523 261.393 120.987 261.393C122.229 261.393 123.045 262.236 123.045 263.407C123.045 263.656 123.009 263.886 122.974 264.037H119.842C119.949 264.871 120.463 265.208 121.164 265.208C121.652 265.208 122.078 264.995 122.317 264.676L123.125 265.315ZM120.96 262.316C120.383 262.316 120.002 262.636 119.878 263.221H121.936C121.918 262.769 121.59 262.316 120.96 262.316ZM126.537 266.042V261.571H127.664V261.908C127.965 261.615 128.347 261.393 128.897 261.393C129.465 261.393 129.962 261.642 130.254 262.121C130.574 261.731 131 261.393 131.754 261.393C132.676 261.393 133.404 262.032 133.404 263.292V266.042H132.268V263.336C132.268 262.795 131.976 262.458 131.47 262.458C130.982 262.458 130.716 262.795 130.538 263.097C130.547 263.159 130.547 263.221 130.547 263.292V266.042H129.412V263.336C129.412 262.795 129.119 262.458 128.613 262.458C128.099 262.458 127.832 262.84 127.664 263.123V266.042H126.537ZM135.95 266.175C135.054 266.175 134.441 265.661 134.441 264.836C134.441 264.161 134.965 263.656 135.923 263.496L137.289 263.265V263.15C137.289 262.68 136.934 262.378 136.42 262.378C135.985 262.378 135.648 262.582 135.408 262.911L134.583 262.281C134.983 261.731 135.639 261.393 136.455 261.393C137.751 261.393 138.416 262.165 138.416 263.15V266.042H137.289V265.608C137.005 265.954 136.473 266.175 135.95 266.175ZM135.559 264.782C135.559 265.084 135.799 265.279 136.18 265.279C136.695 265.279 137.067 265.04 137.289 264.685V264.055L136.225 264.232C135.754 264.312 135.559 264.507 135.559 264.782ZM142.381 264.41V262.582H141.547V261.571H142.381V260.453H143.517V261.571H144.883V262.582H143.517V264.41C143.517 264.907 143.783 265.102 144.227 265.102C144.537 265.102 144.741 265.066 144.892 265.004V265.989C144.67 266.087 144.404 266.131 144.031 266.131C142.913 266.131 142.381 265.501 142.381 264.41ZM145.892 266.042V261.571H147.019V262.014C147.311 261.713 147.693 261.482 148.199 261.482C148.349 261.482 148.483 261.509 148.589 261.544V262.653C148.447 262.618 148.296 262.591 148.092 262.591C147.542 262.591 147.187 262.893 147.019 263.177V266.042H145.892ZM150.539 266.175C149.643 266.175 149.031 265.661 149.031 264.836C149.031 264.161 149.555 263.656 150.513 263.496L151.879 263.265V263.15C151.879 262.68 151.524 262.378 151.01 262.378C150.575 262.378 150.238 262.582 149.998 262.911L149.173 262.281C149.572 261.731 150.229 261.393 151.045 261.393C152.34 261.393 153.006 262.165 153.006 263.15V266.042H151.879V265.608C151.595 265.954 151.063 266.175 150.539 266.175ZM150.149 264.782C150.149 265.084 150.389 265.279 150.77 265.279C151.285 265.279 151.657 265.04 151.879 264.685V264.055L150.814 264.232C150.344 264.312 150.149 264.507 150.149 264.782ZM154.846 260.79C154.447 260.79 154.11 260.453 154.11 260.054C154.11 259.655 154.447 259.317 154.846 259.317C155.236 259.317 155.573 259.655 155.573 260.054C155.573 260.453 155.236 260.79 154.846 260.79ZM155.423 266.521C155.423 267.639 154.899 268.26 153.772 268.26C153.4 268.26 153.143 268.216 152.921 268.118V267.133C153.063 267.196 153.276 267.231 153.586 267.231C154.03 267.231 154.296 267.036 154.296 266.521V261.571H155.423V266.521ZM160.89 265.315C160.473 265.874 159.781 266.22 158.938 266.22C157.35 266.22 156.454 265.111 156.454 263.807C156.454 262.485 157.288 261.393 158.752 261.393C159.994 261.393 160.81 262.236 160.81 263.407C160.81 263.656 160.775 263.886 160.739 264.037H157.608C157.714 264.871 158.229 265.208 158.93 265.208C159.417 265.208 159.843 264.995 160.083 264.676L160.89 265.315ZM158.725 262.316C158.149 262.316 157.767 262.636 157.643 263.221H159.701C159.684 262.769 159.355 262.316 158.725 262.316ZM164.024 265.155C164.467 265.155 164.822 264.951 165.035 264.641L165.913 265.315C165.496 265.865 164.84 266.22 164.024 266.22C162.48 266.22 161.557 265.111 161.557 263.807C161.557 262.502 162.48 261.393 164.024 261.393C164.84 261.393 165.496 261.748 165.913 262.298L165.035 262.973C164.822 262.662 164.467 262.458 164.006 262.458C163.27 262.458 162.728 263.026 162.728 263.807C162.728 264.596 163.27 265.155 164.024 265.155ZM167.082 264.41V262.582H166.248V261.571H167.082V260.453H168.217V261.571H169.583V262.582H168.217V264.41C168.217 264.907 168.483 265.102 168.927 265.102C169.237 265.102 169.441 265.066 169.592 265.004V265.989C169.371 266.087 169.104 266.131 168.732 266.131C167.614 266.131 167.082 265.501 167.082 264.41ZM172.635 261.393C174.09 261.393 175.084 262.467 175.084 263.807C175.084 265.146 174.09 266.22 172.635 266.22C171.18 266.22 170.186 265.146 170.186 263.807C170.186 262.467 171.18 261.393 172.635 261.393ZM172.653 265.155C173.371 265.155 173.913 264.578 173.913 263.807C173.913 263.026 173.371 262.458 172.653 262.458C171.908 262.458 171.357 263.026 171.357 263.807C171.357 264.587 171.908 265.155 172.653 265.155ZM176.679 260.79C176.28 260.79 175.943 260.453 175.943 260.054C175.943 259.655 176.28 259.317 176.679 259.317C177.078 259.317 177.407 259.655 177.407 260.054C177.407 260.453 177.078 260.79 176.679 260.79ZM176.111 266.042V261.571H177.238V266.042H176.111ZM178.589 266.042V261.571H179.716V262.014C180.009 261.713 180.39 261.482 180.896 261.482C181.047 261.482 181.18 261.509 181.286 261.544V262.653C181.144 262.618 180.993 262.591 180.789 262.591C180.239 262.591 179.884 262.893 179.716 263.177V266.042H178.589ZM186.119 265.315C185.702 265.874 185.01 266.22 184.167 266.22C182.579 266.22 181.683 265.111 181.683 263.807C181.683 262.485 182.517 261.393 183.981 261.393C185.223 261.393 186.039 262.236 186.039 263.407C186.039 263.656 186.004 263.886 185.968 264.037H182.837C182.943 264.871 183.458 265.208 184.158 265.208C184.646 265.208 185.072 264.995 185.312 264.676L186.119 265.315ZM183.954 262.316C183.378 262.316 182.996 262.636 182.872 263.221H184.93C184.913 262.769 184.584 262.316 183.954 262.316Z" fill="#20209A"/>
<rect opacity="0.06" x="79.1738" y="276.053" width="133.076" height="0.633693" fill="#060640"/>
<rect x="79.1738" y="286.192" width="133.076" height="34.8531" rx="6.33693" fill="#F4F5FD"/>
<path d="M89.4777 312.766C89.972 312.766 90.3775 312.532 90.631 312.17L90.8021 312.304C90.5106 312.703 90.048 312.963 89.4714 312.963C88.4638 312.963 87.7667 312.17 87.7667 311.239C87.7667 310.307 88.4638 309.515 89.4714 309.515C90.0417 309.515 90.5106 309.781 90.8021 310.174L90.631 310.307C90.3775 309.946 89.9656 309.712 89.4777 309.712C88.6032 309.712 87.9822 310.409 87.9822 311.239C87.9822 312.069 88.6032 312.766 89.4777 312.766ZM91.8302 308.463C91.7225 308.463 91.6338 308.387 91.6338 308.273C91.6338 308.165 91.7225 308.083 91.8302 308.083C91.9443 308.083 92.0267 308.165 92.0267 308.273C92.0267 308.387 91.9443 308.463 91.8302 308.463ZM91.7288 312.836V309.642H91.9316V312.836H91.7288ZM96.4818 311.239C96.4818 312.17 95.8038 312.963 94.8152 312.963C94.3019 312.963 93.814 312.722 93.5035 312.304V312.836H93.3007V308.083H93.5035V310.174C93.814 309.756 94.3019 309.515 94.8152 309.515C95.8038 309.515 96.4818 310.307 96.4818 311.239ZM94.8152 309.712C94.2829 309.712 93.7886 309.978 93.5035 310.453V312.025C93.795 312.506 94.2893 312.766 94.8152 312.766C95.658 312.766 96.2537 312.069 96.2537 311.239C96.2537 310.409 95.658 309.712 94.8152 309.712ZM97.5274 312.836V308.083H97.7302V312.836H97.5274ZM101.805 312.304C101.514 312.703 101.051 312.963 100.474 312.963C99.4668 312.963 98.7697 312.17 98.7697 311.239C98.7697 310.238 99.4224 309.515 100.341 309.515C101.184 309.515 101.723 310.124 101.723 310.852C101.723 310.916 101.716 310.979 101.704 311.049H99.0042C98.9979 311.112 98.9979 311.176 98.9979 311.239C98.9979 312.069 99.6125 312.766 100.481 312.766C100.969 312.766 101.374 312.532 101.628 312.17L101.805 312.304ZM100.341 309.718C99.6696 309.718 99.169 310.149 99.0359 310.852H101.495C101.476 310.206 101.032 309.718 100.341 309.718ZM104.685 310.01C104.552 310.01 104.464 309.921 104.464 309.794C104.464 309.667 104.552 309.579 104.685 309.579C104.818 309.579 104.907 309.667 104.907 309.794C104.907 309.921 104.818 310.01 104.685 310.01ZM104.685 312.899C104.552 312.899 104.464 312.81 104.464 312.684C104.464 312.557 104.552 312.468 104.685 312.468C104.818 312.468 104.907 312.557 104.907 312.684C104.907 312.81 104.818 312.899 104.685 312.899ZM110.598 311.663C110.598 312.43 109.99 312.963 109.141 312.963C108.456 312.963 107.987 312.715 107.651 312.189L107.835 312.069C108.146 312.563 108.577 312.76 109.134 312.76C109.838 312.76 110.37 312.361 110.37 311.657C110.37 311.036 109.952 310.567 109.236 310.567H108.444V310.371H109.103C109.774 310.371 110.161 309.946 110.161 309.401C110.161 308.806 109.724 308.476 109.141 308.476C108.678 308.476 108.291 308.691 108.038 309.173L107.848 309.059C108.152 308.546 108.583 308.273 109.141 308.273C109.857 308.273 110.389 308.736 110.389 309.414C110.389 309.87 110.129 310.282 109.641 310.453C110.275 310.599 110.598 311.099 110.598 311.663ZM111.67 310.555L111.803 308.4H113.989V308.596H112.005L111.904 310.358H112.905C113.792 310.358 114.261 310.966 114.261 311.663C114.261 312.43 113.653 312.963 112.804 312.963C112.119 312.963 111.651 312.715 111.315 312.189L111.498 312.069C111.803 312.563 112.24 312.76 112.798 312.76C113.501 312.76 114.033 312.361 114.033 311.657C114.033 311.03 113.615 310.555 112.905 310.555H111.67ZM116.579 308.273C117.618 308.273 118.176 309.312 118.176 310.618C118.176 311.923 117.618 312.963 116.579 312.963C115.546 312.963 114.988 311.923 114.988 310.618C114.988 309.312 115.546 308.273 116.579 308.273ZM116.579 308.482C115.685 308.482 115.21 309.452 115.21 310.618C115.21 311.784 115.685 312.753 116.579 312.753C117.472 312.753 117.948 311.784 117.948 310.618C117.948 309.452 117.472 308.482 116.579 308.482ZM120.876 312.836V308.083H121.079V311.448L122.993 309.642H123.284L121.916 310.935L123.36 312.836H123.094L121.763 311.08L121.079 311.727V312.836H120.876ZM124.395 311.892V309.832H123.786V309.642H124.395V308.844H124.604V309.642H125.89V309.832H124.604V311.892C124.604 312.563 124.946 312.703 125.421 312.703C125.612 312.703 125.751 312.677 125.89 312.627V312.829C125.751 312.88 125.599 312.899 125.421 312.899C124.826 312.899 124.395 312.665 124.395 311.892ZM128.721 312.76C129.43 312.76 130.02 312.418 130.387 311.898L130.565 312.044C130.159 312.595 129.513 312.963 128.721 312.963C127.352 312.963 126.42 311.885 126.42 310.618C126.42 309.351 127.352 308.273 128.721 308.273C129.506 308.273 130.159 308.647 130.565 309.198L130.381 309.338C130.02 308.818 129.424 308.476 128.721 308.476C127.51 308.476 126.648 309.452 126.648 310.618C126.648 311.784 127.51 312.76 128.721 312.76ZM133.535 308.273C134.898 308.273 135.829 309.351 135.829 310.618C135.829 311.885 134.898 312.963 133.535 312.963C132.166 312.963 131.235 311.885 131.235 310.618C131.235 309.351 132.166 308.273 133.535 308.273ZM133.535 312.76C134.739 312.76 135.601 311.778 135.601 310.618C135.601 309.452 134.739 308.476 133.535 308.476C132.325 308.476 131.463 309.452 131.463 310.618C131.463 311.784 132.325 312.76 133.535 312.76ZM136.727 312.836V312.639L138.21 311.036C138.939 310.25 139.205 309.991 139.205 309.395C139.205 308.806 138.761 308.476 138.191 308.476C137.665 308.476 137.304 308.679 137.018 309.16L136.828 309.046C137.164 308.533 137.601 308.273 138.191 308.273C138.888 308.273 139.433 308.736 139.433 309.408C139.433 310.01 139.053 310.44 138.394 311.15L137.012 312.639H139.566V312.836H136.727Z" fill="black"/>
<path d="M87.6492 299.616H90.8531V301.443H87.6492V299.616ZM91.6905 303.555V301.752L94.5502 299.01C94.9537 298.631 95.3334 298.192 95.3334 297.658C95.3334 297.112 94.9656 296.791 94.4553 296.791C93.7196 296.791 93.3043 297.302 92.889 297.99L91.2752 296.993C91.999 295.807 93.0907 295.011 94.657 295.011C96.164 295.011 97.3625 295.961 97.3625 297.444C97.3625 298.583 96.6031 299.473 95.9267 300.102L94.1586 301.752H97.5761V303.555H91.6905ZM102.223 295.011C103.683 295.011 104.596 295.688 105.118 296.329L103.588 297.61C103.196 297.159 102.781 296.815 102.199 296.815C101.25 296.815 100.692 297.408 100.562 298.69C101.048 298.322 101.642 298.12 102.377 298.12C104.086 298.12 105.118 299.307 105.118 300.862C105.118 302.463 103.944 303.793 101.962 303.793C99.6481 303.793 98.4733 302.06 98.4733 299.366C98.4733 296.851 99.5413 295.011 102.223 295.011ZM101.974 299.889C101.428 299.889 100.953 300.102 100.609 300.529C100.775 301.574 101.226 301.989 101.926 301.989C102.615 301.989 103.066 301.562 103.066 300.933C103.066 300.304 102.638 299.889 101.974 299.889ZM107.712 294.988C108.923 294.988 109.753 295.83 109.753 296.969C109.753 298.109 108.923 298.951 107.712 298.951C106.49 298.951 105.66 298.109 105.66 296.969C105.66 295.83 106.49 294.988 107.712 294.988ZM106.241 303.543L112.34 295.237H114.239L108.14 303.543H106.241ZM107.712 297.729C108.104 297.729 108.401 297.444 108.401 296.969C108.401 296.483 108.104 296.222 107.712 296.222C107.321 296.222 107.024 296.483 107.024 296.969C107.024 297.456 107.321 297.729 107.712 297.729ZM112.815 299.817C114.025 299.817 114.856 300.66 114.856 301.799C114.856 302.938 114.025 303.781 112.815 303.781C111.593 303.781 110.762 302.938 110.762 301.799C110.762 300.66 111.593 299.817 112.815 299.817ZM112.815 302.558C113.207 302.558 113.503 302.274 113.503 301.799C113.503 301.312 113.207 301.051 112.815 301.051C112.423 301.051 112.127 301.312 112.127 301.799C112.127 302.285 112.423 302.558 112.815 302.558Z" fill="#4380F5"/>
<path d="M153.316 310.591C153.316 310.591 168.435 294.152 178.663 298.234C183.704 300.246 183.434 306.94 188.802 307.74C195.608 308.753 202.744 296.967 202.744 296.967" stroke="#4380F5" stroke-width="1.63" stroke-linecap="round"/>
<rect x="79.1738" y="327.382" width="133.076" height="34.8531" rx="6.33693" fill="#F4F5FD"/>
<path d="M89.4777 352.957C89.972 352.957 90.3775 352.723 90.631 352.361L90.8021 352.495C90.5106 352.894 90.048 353.154 89.4714 353.154C88.4638 353.154 87.7667 352.361 87.7667 351.43C87.7667 350.498 88.4638 349.706 89.4714 349.706C90.0417 349.706 90.5106 349.972 90.8021 350.365L90.631 350.498C90.3775 350.137 89.9656 349.903 89.4777 349.903C88.6032 349.903 87.9822 350.6 87.9822 351.43C87.9822 352.26 88.6032 352.957 89.4777 352.957ZM91.8302 348.654C91.7225 348.654 91.6338 348.578 91.6338 348.464C91.6338 348.357 91.7225 348.274 91.8302 348.274C91.9443 348.274 92.0267 348.357 92.0267 348.464C92.0267 348.578 91.9443 348.654 91.8302 348.654ZM91.7288 353.027V349.833H91.9316V353.027H91.7288ZM96.4818 351.43C96.4818 352.361 95.8038 353.154 94.8152 353.154C94.3019 353.154 93.814 352.913 93.5035 352.495V353.027H93.3007V348.274H93.5035V350.365C93.814 349.947 94.3019 349.706 94.8152 349.706C95.8038 349.706 96.4818 350.498 96.4818 351.43ZM94.8152 349.903C94.2829 349.903 93.7886 350.169 93.5035 350.644V352.216C93.795 352.697 94.2893 352.957 94.8152 352.957C95.658 352.957 96.2537 352.26 96.2537 351.43C96.2537 350.6 95.658 349.903 94.8152 349.903ZM97.5274 353.027V348.274H97.7302V353.027H97.5274ZM101.805 352.495C101.514 352.894 101.051 353.154 100.474 353.154C99.4668 353.154 98.7697 352.361 98.7697 351.43C98.7697 350.429 99.4224 349.706 100.341 349.706C101.184 349.706 101.723 350.315 101.723 351.043C101.723 351.107 101.716 351.17 101.704 351.24H99.0042C98.9979 351.303 98.9979 351.367 98.9979 351.43C98.9979 352.26 99.6125 352.957 100.481 352.957C100.969 352.957 101.374 352.723 101.628 352.361L101.805 352.495ZM100.341 349.909C99.6696 349.909 99.169 350.34 99.0359 351.043H101.495C101.476 350.397 101.032 349.909 100.341 349.909ZM104.685 350.201C104.552 350.201 104.464 350.112 104.464 349.985C104.464 349.858 104.552 349.77 104.685 349.77C104.818 349.77 104.907 349.858 104.907 349.985C104.907 350.112 104.818 350.201 104.685 350.201ZM104.685 353.09C104.552 353.09 104.464 353.002 104.464 352.875C104.464 352.748 104.552 352.659 104.685 352.659C104.818 352.659 104.907 352.748 104.907 352.875C104.907 353.002 104.818 353.09 104.685 353.09ZM107.518 351.62V351.424L109.838 348.591H110.142V351.424H110.731V351.62H110.142V353.027H109.933V351.62H107.518ZM107.785 351.424H109.933V348.8L107.785 351.424ZM111.793 350.746L111.926 348.591H114.113V348.787H112.129L112.028 350.549H113.029C113.916 350.549 114.385 351.157 114.385 351.855C114.385 352.621 113.777 353.154 112.928 353.154C112.243 353.154 111.774 352.906 111.438 352.38L111.622 352.26C111.926 352.754 112.364 352.951 112.921 352.951C113.625 352.951 114.157 352.552 114.157 351.848C114.157 351.221 113.739 350.746 113.029 350.746H111.793ZM117.231 353.027V348.274H117.434V351.639L119.348 349.833H119.639L118.271 351.126L119.715 353.027H119.449L118.118 351.272L117.434 351.918V353.027H117.231ZM120.75 352.083V350.023H120.142V349.833H120.75V349.035H120.959V349.833H122.245V350.023H120.959V352.083C120.959 352.754 121.301 352.894 121.776 352.894C121.967 352.894 122.106 352.868 122.245 352.818V353.021C122.106 353.071 121.954 353.09 121.776 353.09C121.181 353.09 120.75 352.856 120.75 352.083ZM125.076 348.464C126.438 348.464 127.37 349.542 127.37 350.809C127.37 352.076 126.438 353.154 125.076 353.154C123.707 353.154 122.775 352.076 122.775 350.809C122.775 349.542 123.707 348.464 125.076 348.464ZM125.076 352.951C126.28 352.951 127.141 351.969 127.141 350.809C127.141 349.643 126.28 348.667 125.076 348.667C123.865 348.667 123.003 349.643 123.003 350.809C123.003 351.975 123.865 352.951 125.076 352.951ZM128.267 353.027V352.83L129.75 351.227C130.479 350.441 130.745 350.182 130.745 349.586C130.745 348.997 130.302 348.667 129.731 348.667C129.205 348.667 128.844 348.87 128.559 349.351L128.369 349.237C128.705 348.724 129.142 348.464 129.731 348.464C130.428 348.464 130.973 348.927 130.973 349.599C130.973 350.201 130.593 350.631 129.934 351.341L128.553 352.83H131.106V353.027H128.267Z" fill="black"/>
<path d="M87.6492 340.806H90.8531V342.634H87.6492V340.806ZM94.1349 344.983C92.6754 344.983 91.7617 344.307 91.2396 343.666L92.7703 342.384C93.1619 342.835 93.5891 343.179 94.1586 343.179C95.1079 343.179 95.6657 342.586 95.7962 341.305C95.3097 341.672 94.7164 341.874 93.9807 341.874C92.2719 341.874 91.2396 340.687 91.2396 339.133C91.2396 337.531 92.4143 336.202 94.396 336.202C96.7099 336.202 97.8846 337.935 97.8846 340.628C97.8846 343.144 96.8167 344.983 94.1349 344.983ZM93.2924 339.062C93.2924 339.691 93.7196 340.106 94.3841 340.106C94.93 340.106 95.4046 339.892 95.7487 339.465C95.5826 338.421 95.1317 338.006 94.4316 338.006C93.7433 338.006 93.2924 338.433 93.2924 339.062ZM100.364 344.734V338.516L98.9996 339.311L98.0147 337.887L100.459 336.428H102.37V344.734H100.364ZM105.905 336.178C107.115 336.178 107.946 337.021 107.946 338.16C107.946 339.299 107.115 340.142 105.905 340.142C104.683 340.142 103.852 339.299 103.852 338.16C103.852 337.021 104.683 336.178 105.905 336.178ZM104.433 344.734L110.533 336.428H112.431L106.332 344.734H104.433ZM105.905 338.919C106.296 338.919 106.593 338.635 106.593 338.16C106.593 337.673 106.296 337.412 105.905 337.412C105.513 337.412 105.216 337.673 105.216 338.16C105.216 338.646 105.513 338.919 105.905 338.919ZM111.007 341.008C112.218 341.008 113.048 341.85 113.048 342.99C113.048 344.129 112.218 344.971 111.007 344.971C109.785 344.971 108.954 344.129 108.954 342.99C108.954 341.85 109.785 341.008 111.007 341.008ZM111.007 343.749C111.399 343.749 111.695 343.464 111.695 342.99C111.695 342.503 111.399 342.242 111.007 342.242C110.616 342.242 110.319 342.503 110.319 342.99C110.319 343.476 110.616 343.749 111.007 343.749Z" fill="#4380F5"/>
<path d="M151.415 349.628C151.415 349.628 160.357 335.163 168.841 336.32C177.132 337.451 173.794 353.577 182.149 353.113C189.413 352.709 187.238 338.849 194.506 339.172C198.046 339.329 202.744 342.974 202.744 342.974" stroke="#4380F5" stroke-width="1.63" stroke-linecap="round"/>
<g opacity="0.2">
<circle cx="211.299" cy="259.894" r="0.95054" fill="#060640"/>
<circle cx="211.299" cy="263.696" r="0.95054" fill="#060640"/>
</g>
</g>
<g filter="url(#filter3_d_674_5834)">
<rect x="402.5" y="141.962" width="128" height="189" rx="6.33693" fill="#FBFEFF"/>
<g opacity="0.4" clip-path="url(#clip2_674_5834)">
<path d="M413.15 193.962V209.235L615.8 243.662V229.115L508.785 209.235L465.06 202.447L438.706 193.962H413.15Z" fill="#FCDC9D"/>
<path d="M413.15 201.662V216.828L615.8 251.012V236.568L507.587 220.92L465.06 210.087L438.706 201.662H413.15Z" fill="#EB3D67"/>
<path d="M445.377 278.312H412.45V298.962H615.8V281.914H557.928H503.848L476.109 280.233L445.377 278.312Z" fill="#F4C447"/>
<path d="M412.8 212.512V245.253L615.8 266.762V239.039L566.497 233.304L527.973 228.046L490.247 223.505L463.5 218.009L440.545 212.512H412.8Z" fill="#91B2EE"/>
<path d="M412.8 212.512V245.253L615.8 266.762V239.039L566.497 233.304L527.973 228.046L490.247 223.505L463.5 218.009L440.545 212.512H412.8Z" fill="#1CC272"/>
<path d="M412.8 227.562V260.514L615.8 282.162V254.26L566.497 248.488L527.973 243.196L490.247 238.626L463.5 233.094L440.545 227.562H412.8Z" fill="#9ED4FC"/>
<path d="M412.45 256.612V284.36L616.15 289.862V274.313L539.862 267.376L501.319 264.506L442.805 257.569H430.024L412.45 256.612Z" fill="#FF8956"/>
</g>
<path d="M413.5 198.962L459.794 226.993L521.5 294.962" stroke="#F5895B" stroke-linecap="round"/>
<path d="M413.624 198.988L437.8 203.486" stroke="#6A6AF4" stroke-linecap="round"/>
<rect x="418.5" y="305.962" width="16" height="3" rx="1.5" fill="#F4F5FD"/>
<circle cx="415" cy="307.462" r="1.5" fill="#F8E7B5"/>
<rect x="447.5" y="305.962" width="16" height="3" rx="1.5" fill="#F4F5FD"/>
<circle cx="444" cy="307.462" r="1.5" fill="#FDCFBB"/>
<rect x="476.5" y="305.962" width="16" height="3" rx="1.5" fill="#F4F5FD"/>
<circle cx="473" cy="307.462" r="1.5" fill="#D6EDFE"/>
<rect x="505.5" y="305.962" width="16" height="3" rx="1.5" fill="#F4F5FD"/>
<circle cx="502" cy="307.462" r="1.5" fill="#A2E6C7"/>
<rect x="418.5" y="316.962" width="16" height="3" rx="1.5" fill="#F4F5FD"/>
<circle cx="415" cy="318.462" r="1.5" fill="#F5B1C2"/>
<rect x="447.5" y="316.962" width="16" height="3" rx="1.5" fill="#F4F5FD"/>
<circle cx="444" cy="318.462" r="1.5" fill="#FBF0D8"/>
<rect x="476.5" y="316.962" width="16" height="3" rx="1.5" fill="#F4F5FD"/>
<circle cx="473" cy="318.462" r="1.5" fill="#F5895B"/>
<rect x="505.5" y="316.962" width="16" height="3" rx="1.5" fill="#F4F5FD"/>
<circle cx="502" cy="318.462" r="1.5" fill="#6A6AF4"/>
<rect x="413.5" y="166.7" width="41" height="5.36932" rx="2.68466" fill="#8888F6"/>
<rect x="413.5" y="155.962" width="91" height="6.44318" rx="3.22159" fill="#91B2EE"/>
<rect x="412.5" y="176.365" width="109" height="5.36932" rx="2.68466" fill="#F4F5FD"/>
</g>
<g filter="url(#filter4_d_674_5834)">
<rect x="81.1245" y="178.142" width="38.5559" height="38.5559" rx="7.82293" fill="#4380F5"/>
</g>
<rect x="85.1128" y="183.459" width="30.5788" height="29.2493" rx="4.47025" fill="white"/>
<path d="M100.308 187.78C100.308 187.735 100.299 187.691 100.281 187.649C100.264 187.608 100.238 187.571 100.206 187.54C100.174 187.509 100.135 187.485 100.094 187.469C100.052 187.453 100.007 187.446 99.9626 187.448C97.8063 187.538 95.7377 188.327 94.0691 189.696C92.4005 191.066 91.2223 192.941 90.7123 195.038C90.2024 197.136 90.3883 199.343 91.2421 201.326C92.0959 203.308 93.5712 204.959 95.4454 206.03C95.4842 206.052 95.5271 206.066 95.5715 206.071C95.6159 206.077 95.6609 206.073 95.7038 206.06C95.7466 206.047 95.7865 206.026 95.8209 205.998C95.8554 205.969 95.8838 205.934 95.9043 205.894L97.6577 202.501C97.6962 202.427 97.7051 202.34 97.6824 202.259C97.6597 202.178 97.6071 202.109 97.5354 202.065C96.5431 201.462 95.7685 200.558 95.3237 199.485C94.879 198.412 94.7872 197.225 95.0616 196.096C95.336 194.967 95.9624 193.955 96.8501 193.206C97.7378 192.457 98.8407 192.01 99.9993 191.93C100.083 191.924 100.162 191.887 100.219 191.825C100.276 191.764 100.308 191.683 100.308 191.599V187.78Z" fill="#91B1EE"/>
<path d="M96.1119 206.001C96.0916 206.041 96.0794 206.084 96.0761 206.129C96.0728 206.174 96.0785 206.219 96.0929 206.262C96.1072 206.304 96.1299 206.344 96.1595 206.377C96.1892 206.411 96.2252 206.438 96.2654 206.457C98.0569 207.302 100.057 207.583 102.008 207.262C102.051 207.254 102.093 207.238 102.131 207.214C102.168 207.19 102.2 207.159 102.226 207.122C102.251 207.084 102.268 207.043 102.277 206.999C102.286 206.954 102.286 206.909 102.277 206.865L101.515 203.099C101.498 203.016 101.451 202.943 101.383 202.894C101.315 202.845 101.232 202.824 101.149 202.836C100.172 202.969 99.1786 202.829 98.274 202.433C98.1976 202.399 98.1114 202.396 98.033 202.425C97.9545 202.453 97.8896 202.511 97.8514 202.586L96.1119 206.001Z" fill="#F9E2AF"/>
<path d="M102.403 206.751C102.412 206.795 102.429 206.836 102.455 206.873C102.481 206.909 102.513 206.94 102.551 206.964C102.589 206.988 102.632 207.004 102.676 207.011C102.72 207.018 102.765 207.016 102.809 207.005C105.204 206.413 107.293 204.961 108.672 202.93C110.051 200.9 110.622 198.434 110.274 196.01C110.268 195.966 110.253 195.924 110.23 195.886C110.206 195.848 110.176 195.815 110.139 195.789C110.103 195.763 110.062 195.744 110.018 195.735C109.974 195.725 109.929 195.724 109.885 195.732L106.118 196.423C106.035 196.438 105.961 196.484 105.911 196.551C105.861 196.618 105.839 196.702 105.848 196.785C105.996 198.072 105.677 199.369 104.948 200.443C104.218 201.517 103.127 202.298 101.869 202.646C101.787 202.668 101.718 202.72 101.674 202.792C101.63 202.863 101.615 202.948 101.632 203.03L102.403 206.751Z" fill="#B68BE2"/>
<path d="M109.821 195.589C109.865 195.581 109.907 195.564 109.944 195.539C109.981 195.514 110.012 195.482 110.037 195.445C110.061 195.407 110.078 195.365 110.086 195.321C110.094 195.277 110.093 195.232 110.083 195.188C109.599 193.056 108.432 191.144 106.762 189.745C105.092 188.346 103.011 187.539 100.84 187.448C100.796 187.446 100.751 187.454 100.71 187.469C100.668 187.485 100.63 187.509 100.598 187.54C100.566 187.571 100.54 187.609 100.523 187.65C100.505 187.691 100.496 187.735 100.496 187.78V191.607C100.496 191.691 100.528 191.772 100.585 191.834C100.642 191.895 100.72 191.933 100.803 191.939C101.945 192.018 103.032 192.457 103.911 193.193C104.79 193.93 105.417 194.926 105.702 196.041C105.723 196.122 105.774 196.193 105.845 196.238C105.915 196.283 106 196.3 106.082 196.285L109.821 195.589Z" fill="#7CD4A5"/>
<defs>
<filter id="filter0_d_674_5834" x="458.957" y="64.5362" width="83.2584" height="83.2584" filterUnits="userSpaceOnUse" color-interpolation-filters="sRGB">
<feFlood flood-opacity="0" result="BackgroundImageFix"/>
<feColorMatrix in="SourceAlpha" type="matrix" values="0 0 0 0 0 0 0 0 0 0 0 0 0 0 0 0 0 0 127 0" result="hardAlpha"/>
<feOffset dy="4.47025"/>
<feGaussianBlur stdDeviation="11.1756"/>
<feColorMatrix type="matrix" values="0 0 0 0 0.429448 0 0 0 0 0.311235 0 0 0 0 0.332927 0 0 0 0.26 0"/>
<feBlend mode="normal" in2="BackgroundImageFix" result="effect1_dropShadow_674_5834"/>
<feBlend mode="normal" in="SourceGraphic" in2="effect1_dropShadow_674_5834" result="shape"/>
</filter>
<filter id="filter1_d_674_5834" x="121.321" y="26.0567" width="350.457" height="347.798" filterUnits="userSpaceOnUse" color-interpolation-filters="sRGB">
<feFlood flood-opacity="0" result="BackgroundImageFix"/>
<feColorMatrix in="SourceAlpha" type="matrix" values="0 0 0 0 0 0 0 0 0 0 0 0 0 0 0 0 0 0 127 0" result="hardAlpha"/>
<feOffset dy="2.53477"/>
<feGaussianBlur stdDeviation="9.5054"/>
<feComposite in2="hardAlpha" operator="out"/>
<feColorMatrix type="matrix" values="0 0 0 0 0.0235294 0 0 0 0 0.0235294 0 0 0 0 0.25098 0 0 0 0.03 0"/>
<feBlend mode="normal" in2="BackgroundImageFix" result="effect1_dropShadow_674_5834"/>
<feBlend mode="normal" in="SourceGraphic" in2="effect1_dropShadow_674_5834" result="shape"/>
</filter>
<filter id="filter2_d_674_5834" x="0.0243454" y="184.23" width="291.375" height="263.492" filterUnits="userSpaceOnUse" color-interpolation-filters="sRGB">
<feFlood flood-opacity="0" result="BackgroundImageFix"/>
<feColorMatrix in="SourceAlpha" type="matrix" values="0 0 0 0 0 0 0 0 0 0 0 0 0 0 0 0 0 0 127 0" result="hardAlpha"/>
<feOffset dy="6.33693"/>
<feGaussianBlur stdDeviation="33.2378"/>
<feComposite in2="hardAlpha" operator="out"/>
<feColorMatrix type="matrix" values="0 0 0 0 0.551433 0 0 0 0 0.551433 0 0 0 0 0.635327 0 0 0 0.2 0"/>
<feBlend mode="normal" in2="BackgroundImageFix" result="effect1_dropShadow_674_5834"/>
<feBlend mode="normal" in="SourceGraphic" in2="effect1_dropShadow_674_5834" result="shape"/>
</filter>
<filter id="filter3_d_674_5834" x="383.489" y="129.288" width="166.022" height="227.022" filterUnits="userSpaceOnUse" color-interpolation-filters="sRGB">
<feFlood flood-opacity="0" result="BackgroundImageFix"/>
<feColorMatrix in="SourceAlpha" type="matrix" values="0 0 0 0 0 0 0 0 0 0 0 0 0 0 0 0 0 0 127 0" result="hardAlpha"/>
<feOffset dy="6.33693"/>
<feGaussianBlur stdDeviation="9.5054"/>
<feComposite in2="hardAlpha" operator="out"/>
<feColorMatrix type="matrix" values="0 0 0 0 0.450557 0 0 0 0 0.450557 0 0 0 0 0.799656 0 0 0 0.2 0"/>
<feBlend mode="normal" in2="BackgroundImageFix" result="effect1_dropShadow_674_5834"/>
<feBlend mode="normal" in="SourceGraphic" in2="effect1_dropShadow_674_5834" result="shape"/>
</filter>
<filter id="filter4_d_674_5834" x="58.7733" y="160.261" width="83.2584" height="83.2584" filterUnits="userSpaceOnUse" color-interpolation-filters="sRGB">
<feFlood flood-opacity="0" result="BackgroundImageFix"/>
<feColorMatrix in="SourceAlpha" type="matrix" values="0 0 0 0 0 0 0 0 0 0 0 0 0 0 0 0 0 0 127 0" result="hardAlpha"/>
<feOffset dy="4.47025"/>
<feGaussianBlur stdDeviation="11.1756"/>
<feColorMatrix type="matrix" values="0 0 0 0 0.820014 0 0 0 0 0.820014 0 0 0 0 0.959084 0 0 0 1 0"/>
<feBlend mode="normal" in2="BackgroundImageFix" result="effect1_dropShadow_674_5834"/>
<feBlend mode="normal" in="SourceGraphic" in2="effect1_dropShadow_674_5834" result="shape"/>
</filter>
<linearGradient id="paint0_linear_674_5834" x1="298.713" y1="0.0351562" x2="298.713" y2="421.965" gradientUnits="userSpaceOnUse">
<stop offset="0.33" stop-color="#E1E1FD" stop-opacity="0"/>
<stop offset="1" stop-color="#F0F0FE"/>
</linearGradient>
<clipPath id="clip0_674_5834">
<rect x="140.332" y="42.5327" width="312.436" height="309.776" rx="10.1391" fill="white"/>
</clipPath>
<clipPath id="clip1_674_5834">
<rect x="153.006" y="121.744" width="283.261" height="211.02" rx="6.33693" fill="white"/>
</clipPath>
<clipPath id="clip2_674_5834">
<rect width="108" height="105" fill="white" transform="translate(413.5 193.962)"/>
</clipPath>
</defs>
</svg>
