<svg width="213" height="212" viewBox="0 0 213 212" fill="none" xmlns="http://www.w3.org/2000/svg">
<mask id="mask0_796_8097" style="mask-type:alpha" maskUnits="userSpaceOnUse" x="22" y="20" width="175" height="151">
<path d="M41.7278 145.406L29.831 150.694L24.5435 54.1968L151.443 22.4718L193.743 63.4499L195.065 149.372C180.084 155.981 149.593 169.2 147.478 169.2H101.212L73.4528 120.291L69.4872 113.681H62.8778L58.9122 116.325L41.7278 145.406Z" fill="#D9D9D9"/>
<path d="M147.478 169.2C149.593 169.2 180.084 155.981 195.065 149.372L193.743 63.4499L151.443 22.4718L24.5435 54.1968L29.831 150.694L41.7278 145.406L58.9122 116.325L62.8778 113.681H69.4872L73.4528 120.291L101.212 169.2M147.478 169.2C145.363 169.2 115.753 169.2 101.212 169.2M147.478 169.2H101.212" stroke="black" stroke-width="3.11029"/>
</mask>
<g mask="url(#mask0_796_8097)">
<g clip-path="url(#clip0_796_8097)">
<path fill-rule="evenodd" clip-rule="evenodd" d="M152.917 57.037C152.234 53.5009 147.436 50.7693 138.307 48.7072C129.786 46.7821 118.49 45.7219 106.499 45.7219C99.9746 45.7219 93.6805 46.0321 87.7922 46.6435C86.5796 46.7694 85.6987 47.8543 85.8244 49.0669C85.9503 50.2798 87.037 51.1587 88.2478 51.0348C93.9854 50.439 100.126 50.1368 106.499 50.1368C118.172 50.1368 129.123 51.1584 137.334 53.0135C146.585 55.1035 148.587 57.464 148.587 57.9364C148.587 58.4087 146.585 60.7692 137.335 62.8592C121.27 66.666 91.7285 66.666 75.664 62.8592C66.4134 60.7692 64.4109 58.4085 64.4109 57.9364C64.4109 57.3886 66.8255 54.7038 77.9809 52.527C79.1774 52.2936 79.9582 51.1342 79.7248 49.9375C79.4911 48.7414 78.3347 47.96 77.1354 48.1937C65.6023 50.4443 59.996 53.631 59.996 57.9364V64.5581L59.9854 64.5583V68.9747L59.996 68.9744V78.0966L59.9854 78.0963V82.5122L59.996 82.5127V94.5785L59.9854 94.5782V98.9943L59.996 98.9948V111.061L59.9854 111.061V115.477L59.996 115.478V127.544L59.9854 127.544V131.96L59.996 131.96V144.025L59.9854 144.025V148.441L59.996 148.441V150.943C59.996 154.919 64.8026 157.938 74.691 160.172C91.3894 164.122 121.609 164.122 138.308 160.172C147.435 158.11 152.233 155.379 152.917 151.844V57.037ZM74.691 113.669C70.2435 112.664 66.8273 111.5 64.4109 110.162V127.691C64.4109 128.163 66.4134 130.524 75.6643 132.614C91.7288 136.421 121.27 136.421 137.335 132.614C146.585 130.524 148.588 128.163 148.588 127.691V110.162C146.171 111.5 142.755 112.664 138.308 113.669C121.609 117.619 91.3894 117.619 74.691 113.669ZM138.308 67.1655C121.609 71.1153 91.3894 71.1153 74.691 67.1655C70.2435 66.1609 66.8273 64.9966 64.4109 63.6586V81.1879C64.4109 81.66 66.4134 84.0208 75.6637 86.1111C83.8754 87.9662 94.8263 88.9878 106.499 88.9878C111.607 88.9878 116.609 88.7912 121.363 88.4033C122.577 88.3085 123.643 89.2088 123.742 90.4241C123.841 91.6391 122.937 92.7045 121.722 92.8037C116.848 93.201 111.727 93.4027 106.499 93.4027C94.5087 93.4027 83.2123 92.3422 74.691 90.4173C70.2435 89.4125 66.8273 88.2482 64.4109 86.9102V104.44C64.4109 104.912 66.4134 107.272 75.6643 109.362C91.7288 113.169 121.27 113.169 137.335 109.362C146.585 107.272 148.588 104.911 148.588 104.439V86.8996C145.121 88.8386 139.624 90.4067 132.119 91.5873C130.942 91.7806 129.78 90.9601 129.596 89.7495C129.406 88.5451 130.229 87.4155 131.434 87.226C145.535 85.008 148.588 81.8505 148.588 81.1876V63.6583C146.171 64.9966 142.755 66.1606 138.308 67.1655ZM75.664 155.865C91.7285 159.672 121.27 159.672 137.335 155.865C146.585 153.776 148.587 151.415 148.588 150.943V133.413C146.171 134.752 142.755 135.916 138.308 136.92C121.609 140.87 91.3894 140.87 74.691 136.92C70.2435 135.916 66.8273 134.751 64.4109 133.413V150.943C64.4109 151.415 66.4134 153.776 75.664 155.865Z" fill="#C3C3FB"/>
<path d="M59.9966 64.5582C52.8913 64.7424 46.3031 65.4785 41.259 66.6658C34.4584 68.2664 31.1528 70.5135 31.1528 73.5356V139.464C31.1528 142.486 34.4584 144.733 41.259 146.334C46.3031 147.521 52.8913 148.257 59.9966 148.441V144.026C53.8199 143.859 48.012 143.257 43.4506 142.299C37.8949 141.132 35.9335 139.807 35.5677 139.313V128.007C37.0623 128.694 38.9395 129.303 41.2099 129.84C42.3648 130.123 43.5904 129.395 43.8659 128.2C44.1463 127.013 43.412 125.824 42.2256 125.544C37.5753 124.445 35.8982 123.271 35.5677 122.831V111.526C42.9552 114.518 50.4719 115.065 59.9966 115.478V111.061C52.4892 110.86 39.5013 109.718 35.5677 106.348V95.0431C42.9552 98.0349 50.4719 98.582 59.9966 98.9949V94.5786C52.4892 94.3776 39.5013 93.2362 35.5677 89.8662V78.5609C42.9555 81.5524 50.4714 82.0999 59.9966 82.5128V78.0968C52.2261 77.8516 40.2639 76.8509 35.7048 73.5359C36.3123 72.9576 38.3914 71.7632 43.4506 70.701C48.012 69.743 53.8199 69.1408 59.9966 68.9745V64.5582Z" fill="#E1E1FD"/>
<path d="M59.9966 127.544C57.3291 127.473 54.7293 127.322 52.2447 127.09C51.0347 126.979 49.9554 127.869 49.8421 129.083C49.7291 130.297 50.6215 131.373 51.8353 131.486C54.453 131.73 57.1905 131.887 59.9966 131.96V127.544Z" fill="#E1E1FD"/>
<path fill-rule="evenodd" clip-rule="evenodd" d="M152.993 151.264C153 151.158 153.003 151.051 153.003 150.943V148.442C155.911 148.367 158.744 148.2 161.447 147.941C162.661 147.824 163.55 146.746 163.434 145.533C163.317 144.319 162.234 143.43 161.026 143.546C158.459 143.792 155.768 143.951 153.003 144.025V131.959C162.527 131.547 170.045 130.999 177.432 128.007V139.313C177.1 139.754 175.412 140.934 170.729 142.036C169.543 142.315 168.807 143.504 169.086 144.69C169.361 145.886 170.585 146.615 171.741 146.334C178.541 144.733 181.847 142.486 181.847 139.464V73.5356C181.847 70.5135 178.541 68.2664 171.74 66.6658C166.697 65.4788 160.108 64.7424 153.003 64.5582V57.9365C153.003 57.8301 152.999 57.7244 152.993 57.6194V151.264ZM153.003 111.061C160.552 110.851 173.456 109.728 177.432 106.348V95.0431C170.045 98.0349 162.527 98.5823 153.003 98.9949V111.061ZM153.003 94.5786C160.552 94.3691 173.456 93.2456 177.432 89.8662V78.5609C170.045 81.5527 162.527 82.0999 153.003 82.5128V94.5786ZM177.295 73.5356C176.687 72.9576 174.608 71.7635 169.549 70.701C164.987 69.743 159.18 69.1408 153.003 68.9742V78.0968C160.807 77.8451 172.701 76.858 177.295 73.5356ZM153.003 127.543C159.18 127.377 164.987 126.775 169.549 125.817C175.105 124.65 177.066 123.325 177.432 122.83V111.525C170.045 114.517 162.527 115.064 153.003 115.477V127.543Z" fill="#E1E1FD"/>
</g>
</g>
<path d="M64.8961 132.363C63.1095 132.363 61.6606 133.811 61.6606 135.598V155.483C61.6606 157.27 63.1095 158.718 64.8961 158.718C66.6828 158.718 68.1316 157.27 68.1316 155.483V135.598C68.1316 133.811 66.6828 132.363 64.8961 132.363Z" fill="#E1E1FD"/>
<path d="M65.2868 165.214L65.2842 165.214C63.5141 164.992 61.8954 166.25 61.6737 168.023C61.4521 169.796 62.711 171.414 64.4844 171.635C64.6206 171.652 64.7559 171.661 64.8898 171.661C66.4979 171.661 67.8914 170.463 68.0962 168.826C68.3175 167.053 67.0599 165.436 65.2868 165.214Z" fill="#E1E1FD"/>
<path fill-rule="evenodd" clip-rule="evenodd" d="M99.2418 170.522L69.4776 118.969C67.4424 115.444 62.3545 115.444 60.3193 118.969L30.5551 170.522C28.52 174.047 31.0639 178.453 35.1342 178.453H94.6627C98.733 178.453 101.277 174.047 99.2418 170.522ZM74.0567 116.325C69.9863 109.275 59.8105 109.275 55.7402 116.325L25.976 167.878C21.9057 174.928 26.9936 183.74 35.1342 183.74H94.6627C102.803 183.74 107.891 174.928 103.821 167.878L74.0567 116.325Z" fill="#E1E1FD"/>
<defs>
<clipPath id="clip0_796_8097">
<rect width="150.694" height="150.694" fill="white" transform="translate(31.1528 29.0812)"/>
</clipPath>
</defs>
</svg>
