<svg
  width="16"
  height="10"
  viewBox="0 0 16 10"
  fill="none"
  xmlns="http://www.w3.org/2000/svg"
>
  <path
    d="M10.6674 7.66589C10.1758 7.66589 9.77859 8.06306 9.77859 8.55466C9.77859 9.04626 10.1758 9.44343 10.6674 9.44343H15.1112C15.6028 9.44343 16 9.04626 16 8.55466V4.11079C16 3.61919 15.6028 3.22202 15.1112 3.22202C14.6196 3.22202 14.2225 3.61919 14.2225 4.11079V6.40772L9.51751 1.70555C9.17033 1.35838 8.60652 1.35838 8.25934 1.70555L5.33472 4.63017L1.51855 0.816779C1.17138 0.469602 0.60756 0.469602 0.260383 0.816779C-0.0867942 1.16396 -0.0867942 1.72777 0.260383 2.07495L4.70425 6.51882C5.05143 6.86599 5.61524 6.86599 5.96242 6.51882L8.88981 3.59142L12.9643 7.66589H10.6674Z"
  />
</svg>
