<svg
  width="16"
  height="10"
  viewBox="0 0 16 10"
  fill="none"
  xmlns="http://www.w3.org/2000/svg"
>
  <path
    d="M10.6674 2.33394C10.1758 2.33394 9.77859 1.93677 9.77859 1.44517C9.77859 0.953567 10.1758 0.556396 10.6674 0.556396H15.1112C15.6028 0.556396 16 0.953567 16 1.44517V5.88904C16 6.38064 15.6028 6.77781 15.1112 6.77781C14.6196 6.77781 14.2225 6.38064 14.2225 5.88904V3.59211L9.51751 8.29428C9.17033 8.64145 8.60652 8.64145 8.25934 8.29428L5.33472 5.36966L1.51855 9.18305C1.17138 9.53023 0.60756 9.53023 0.260383 9.18305C-0.0867943 8.83587 -0.0867943 8.27206 0.260383 7.92488L4.70425 3.48102C5.05143 3.13384 5.61524 3.13384 5.96242 3.48102L8.88981 6.40841L12.9643 2.33394H10.6674Z"
  />
</svg>
