<svg width="81" height="80" viewBox="0 0 81 80" fill="none" xmlns="http://www.w3.org/2000/svg">
<path fill-rule="evenodd" clip-rule="evenodd" d="M5.28784 60C4.73644 60 4.28784 59.5514 4.28784 59C4.28784 58.4486 4.73644 58 5.28784 58C5.83924 58 6.28784 58.4486 6.28784 59C6.28784 59.5514 5.83924 60 5.28784 60Z" fill="#E1E1FD"/>
<path fill-rule="evenodd" clip-rule="evenodd" d="M16.2878 6C15.7364 6 15.2878 5.5514 15.2878 5C15.2878 4.44855 15.7364 4 16.2878 4C16.8392 4 17.2878 4.44855 17.2878 5C17.2878 5.5514 16.8392 6 16.2878 6Z" fill="#E1E1FD"/>
<path fill-rule="evenodd" clip-rule="evenodd" d="M3.28784 26C2.73644 26 2.28784 25.5514 2.28784 25C2.28784 24.4486 2.73644 24 3.28784 24C3.83924 24 4.28784 24.4486 4.28784 25C4.28784 25.5514 3.83924 26 3.28784 26Z" fill="#E1E1FD"/>
<path fill-rule="evenodd" clip-rule="evenodd" d="M77.2878 56C76.7364 56 76.2878 55.5514 76.2878 55C76.2878 54.4486 76.7364 54 77.2878 54C77.8392 54 78.2878 54.4486 78.2878 55C78.2878 55.5514 77.8392 56 77.2878 56Z" fill="#E1E1FD"/>
<path fill-rule="evenodd" clip-rule="evenodd" d="M75.2878 22C74.7364 22 74.2878 21.5514 74.2878 21C74.2878 20.4486 74.7364 20 75.2878 20C75.8392 20 76.2878 20.4486 76.2878 21C76.2878 21.5514 75.8392 22 75.2878 22Z" fill="#E1E1FD"/>
<path d="M40.2878 19C40.2878 18.4477 39.8401 18 39.2878 18H23.2878L23.1712 18.0067C22.6739 18.0645 22.2878 18.4872 22.2878 19C22.2878 19.5523 22.7356 20 23.2878 20H39.2878L39.4045 19.9933C39.9018 19.9355 40.2878 19.5128 40.2878 19Z" fill="#E1E1FD"/>
<path d="M51.2878 66L51.1712 66.0067C50.6739 66.0645 50.2878 66.4872 50.2878 67C50.2878 67.5523 50.7356 68 51.2878 68H59.2878L59.4045 67.9933C59.9018 67.9355 60.2878 67.5128 60.2878 67C60.2878 66.4477 59.8401 66 59.2878 66H51.2878Z" fill="#E1E1FD"/>
<path d="M55.2878 54C55.8007 54 56.2234 54.386 56.2811 54.8834L56.2878 55V60.5858L58.5807 58.2929C58.9713 57.9024 59.6044 57.9024 59.9949 58.2929C60.3554 58.6534 60.3832 59.2206 60.0781 59.6129L59.9949 59.7071L55.9949 63.7071C55.8985 63.8036 55.7872 63.8762 55.6685 63.925C55.5662 63.9672 55.4553 63.9928 55.3393 63.9987L55.3168 63.9996C55.3072 63.9999 55.2975 64 55.2878 64C55.2709 64 55.254 63.9996 55.2373 63.9987C55.12 63.9929 55.0081 63.9669 54.9049 63.924C54.8239 63.8905 54.7465 63.846 54.6749 63.7903C54.6423 63.7649 54.6108 63.7371 54.5807 63.7071L50.5807 59.7071C50.1902 59.3166 50.1902 58.6834 50.5807 58.2929C50.9412 57.9324 51.5084 57.9047 51.9007 58.2097L51.9949 58.2929L54.2878 60.5858V55C54.2878 54.4477 54.7356 54 55.2878 54Z" fill="#E1E1FD"/>
<path fill-rule="evenodd" clip-rule="evenodd" d="M55.2878 48C48.1081 48 42.2878 53.8203 42.2878 61C42.2878 68.1797 48.1081 74 55.2878 74C62.4675 74 68.2878 68.1797 68.2878 61C68.2878 53.8203 62.4675 48 55.2878 48ZM55.2878 50C61.363 50 66.2878 54.9249 66.2878 61C66.2878 67.0751 61.363 72 55.2878 72C49.2127 72 44.2878 67.0751 44.2878 61C44.2878 54.9249 49.2127 50 55.2878 50Z" fill="#E1E1FD"/>
<path d="M49.2878 24C49.8401 24 50.2878 24.4477 50.2878 25C50.2878 25.5128 49.9018 25.9355 49.4045 25.9933L49.2878 26H23.2878C22.7356 26 22.2878 25.5523 22.2878 25C22.2878 24.4872 22.6739 24.0645 23.1712 24.0067L23.2878 24H49.2878Z" fill="#E1E1FD"/>
<path d="M44.2878 31C44.2878 30.4477 43.8401 30 43.2878 30H23.2878L23.1712 30.0067C22.6739 30.0645 22.2878 30.4872 22.2878 31C22.2878 31.5523 22.7356 32 23.2878 32H43.2878L43.4045 31.9933C43.9018 31.9355 44.2878 31.5128 44.2878 31Z" fill="#E1E1FD"/>
<path d="M55.2878 12C55.8007 12 56.2233 12.386 56.2811 12.8834L56.2878 13V45C56.2878 45.5523 55.8401 46 55.2878 46C54.775 46 54.3523 45.614 54.2946 45.1166L54.2878 45V14H18.2878V66H39.2878C39.8007 66 40.2233 66.386 40.2811 66.8834L40.2878 67C40.2878 67.5128 39.9018 67.9355 39.4045 67.9933L39.2878 68H17.2878C16.775 68 16.3523 67.614 16.2946 67.1166L16.2878 67V13C16.2878 12.4872 16.6739 12.0645 17.1712 12.0067L17.2878 12H55.2878Z" fill="#C3C3FB"/>
<path d="M49.2878 36C49.8401 36 50.2878 36.4477 50.2878 37C50.2878 37.5128 49.9018 37.9355 49.4045 37.9933L49.2878 38H23.2878C22.7356 38 22.2878 37.5523 22.2878 37C22.2878 36.4872 22.6739 36.0645 23.1712 36.0067L23.2878 36H49.2878Z" fill="#C3C3FB"/>
<path d="M42.2878 49C42.2878 48.4477 41.8401 48 41.2878 48H23.2878L23.1712 48.0067C22.6739 48.0645 22.2878 48.4872 22.2878 49C22.2878 49.5523 22.7356 50 23.2878 50H41.2878L41.4045 49.9933C41.9018 49.9355 42.2878 49.5128 42.2878 49Z" fill="#C3C3FB"/>
<path d="M59.2878 12C59.8007 12 60.2234 12.386 60.2811 12.8834L60.2878 13V45C60.2878 45.5523 59.8401 46 59.2878 46C58.775 46 58.3523 45.614 58.2946 45.1166L58.2878 45V13C58.2878 12.4477 58.7356 12 59.2878 12Z" fill="#C3C3FB"/>
<path d="M46.2878 43C46.2878 42.4477 45.8401 42 45.2878 42H23.2878L23.1712 42.0067C22.6739 42.0645 22.2878 42.4872 22.2878 43C22.2878 43.5523 22.7356 44 23.2878 44H45.2878L45.4045 43.9933C45.9018 43.9355 46.2878 43.5128 46.2878 43Z" fill="#C3C3FB"/>
<path d="M33.2878 60C33.8401 60 34.2878 60.4477 34.2878 61C34.2878 61.5128 33.9018 61.9355 33.4045 61.9933L33.2878 62H23.2878C22.7356 62 22.2878 61.5523 22.2878 61C22.2878 60.4872 22.6739 60.0645 23.1712 60.0067L23.2878 60H33.2878Z" fill="#C3C3FB"/>
<path d="M38.2878 55C38.2878 54.4477 37.8401 54 37.2878 54H23.2878L23.1712 54.0067C22.6739 54.0645 22.2878 54.4872 22.2878 55C22.2878 55.5523 22.7356 56 23.2878 56H37.2878L37.4045 55.9933C37.9018 55.9355 38.2878 55.5128 38.2878 55Z" fill="#C3C3FB"/>
</svg>
