<svg viewBox="0 0 167 151" fill="none" xmlns="http://www.w3.org/2000/svg"><rect width="55" height="20" transform="translate(20 20)" fill="white"></rect><path d="M37.7649 37.5888C37.7716 37.5888 37.7782 37.579 37.7782 37.579C37.8313 37.5397 37.8844 37.4907 37.9309 37.4319C37.9243 37.4319 37.9176 37.4319 37.911 37.4221C37.8645 37.4711 37.8114 37.5299 37.7649 37.5888Z" fill="#000091"></path><path d="M45.1222 35.1098L45.006 35.2098C45.0724 35.1932 45.1222 35.1765 45.1222 35.1098Z" fill="#000091"></path><path fill-rule="evenodd" clip-rule="evenodd" d="M42.7435 37.6421C42.9566 37.4277 43.1697 37.2004 43.3828 36.9665H43.3764C43.7767 36.5119 44.1642 36.0766 44.6291 35.6804C44.7712 35.5505 44.9068 35.4401 45.0359 35.3491C45.0549 35.3301 45.0646 35.3016 45.0741 35.2738C45.084 35.2447 45.0937 35.2163 45.1134 35.1997C45.0214 35.2349 44.948 35.2904 44.8743 35.3463C44.7979 35.4041 44.7211 35.4622 44.6227 35.4985C44.5839 35.4985 44.5452 35.4596 44.5839 35.4206C44.7195 35.3232 44.8551 35.2192 44.9843 35.1153H44.9585C44.9197 35.1153 44.9197 35.0763 44.9197 35.0374C44.439 34.961 44.0698 35.2898 43.7392 35.5841L43.7186 35.6025C43.6671 35.6283 43.6185 35.6027 43.5803 35.5825C43.561 35.5723 43.5444 35.5635 43.5313 35.5635C43.2389 35.6615 42.9867 35.8423 42.7329 36.0243C42.499 36.1919 42.2638 36.3605 41.9944 36.4664V36.3884C41.903 36.42 41.8126 36.4611 41.7219 36.5023C41.5886 36.563 41.4548 36.6238 41.3164 36.6548C41.0637 36.7134 40.8292 36.7059 40.602 36.6985C40.5274 36.6961 40.4535 36.6937 40.38 36.6937C39.9665 36.7347 39.5581 36.8233 39.1503 36.9118L39.0175 36.9406C39.011 36.9438 39.0046 36.9454 38.9981 36.9471C38.9917 36.9487 38.9852 36.9503 38.9788 36.9536C38.7334 37.0185 38.5074 37.1095 38.2813 37.2394L38.2555 37.2524C38.2466 37.2643 38.2378 37.2748 38.2295 37.2846C38.2197 37.2962 38.2108 37.3068 38.2038 37.3173C38.1264 37.4083 38.0553 37.4862 37.9455 37.5447C37.7834 37.6262 37.6433 37.752 37.5054 37.8757C37.4457 37.9293 37.3861 37.9827 37.3256 38.0318C37.3127 38.0448 37.2869 38.0513 37.2675 38.0513C37.0673 38.2462 36.8671 38.4411 36.6605 38.6294C36.6476 38.6424 36.5895 38.6489 36.5443 38.6424C36.5443 38.6424 36.5507 38.6424 36.5507 38.6359L36.5701 38.5969L36.667 38.4411C36.6863 38.4118 36.7041 38.3826 36.7218 38.3534C36.7396 38.3241 36.7574 38.2949 36.7767 38.2657C36.8283 38.1878 36.8801 38.1097 36.9382 38.0383C36.9511 38.0188 36.9511 37.9994 36.9382 37.9864C36.9253 37.9734 36.9059 37.9669 36.8865 37.9669C37.0738 37.785 37.2933 37.6291 37.5193 37.4927V37.4862C37.4935 37.4927 37.4548 37.4732 37.4741 37.4472C37.4931 37.4234 37.5086 37.3961 37.5231 37.3704L37.5387 37.3433C37.5419 37.3368 37.5436 37.3319 37.5452 37.3271C37.5468 37.3222 37.5484 37.3173 37.5516 37.3108C37.5484 37.3043 37.5436 37.2994 37.5387 37.2946C37.5339 37.2897 37.529 37.2848 37.5258 37.2783L37.4866 37.3042C37.4398 37.3348 37.3917 37.3663 37.3515 37.4018C37.3229 37.4263 37.2963 37.46 37.2691 37.4945C37.2098 37.5694 37.1472 37.6486 37.0544 37.6486C37.0479 37.6486 37.0157 37.6486 36.9963 37.6421C36.9769 37.6421 36.964 37.6356 36.9575 37.6291C36.9575 37.6259 36.9575 37.6242 36.9583 37.6234C36.9592 37.6226 36.9608 37.6226 36.964 37.6226C36.964 37.6226 36.9705 37.6161 36.9705 37.6096C36.9705 37.6096 36.9705 37.6031 36.9769 37.6031C36.9801 37.5966 36.9834 37.5918 36.9866 37.5869C36.9898 37.582 36.9931 37.5771 36.9963 37.5706C36.9995 37.5641 37.0027 37.5593 37.006 37.5544C37.0092 37.5495 37.0124 37.5447 37.0157 37.5382C37.0189 37.5349 37.0205 37.53 37.0221 37.5252C37.0237 37.5203 37.0253 37.5154 37.0286 37.5122L37.0359 37.4988C37.0423 37.4874 37.0499 37.4738 37.0544 37.4602C37.0576 37.4537 37.0609 37.4489 37.0641 37.444C37.0673 37.4391 37.0706 37.4342 37.0738 37.4277C37.0835 37.4147 37.0915 37.4001 37.0996 37.3855C37.1077 37.3709 37.1158 37.3563 37.1254 37.3433C37.1319 37.3303 37.1384 37.3173 37.1513 37.3043C37.1577 37.2913 37.1642 37.28 37.1706 37.2686C37.1771 37.2572 37.1836 37.2459 37.19 37.2329C37.2094 37.2004 37.19 37.1744 37.1642 37.1679C37.2352 37.077 37.3192 36.999 37.4225 36.9406H37.4096C37.4987 36.8957 37.5904 36.8432 37.6815 36.7911C37.7352 36.7603 37.7896 36.7291 37.8422 36.7002C37.8616 36.6807 37.881 36.6613 37.9068 36.6483C37.6937 36.7197 37.5 36.8172 37.3127 36.9471C37.3127 36.9471 37.261 36.9665 37.2481 36.9795C37.2481 36.9795 37.2094 36.9925 37.1577 36.9471C37.1513 36.9406 37.1513 36.9341 37.1513 36.9211C37.1737 36.8759 37.22 36.846 37.27 36.8137C37.3064 36.7902 37.3447 36.7655 37.3773 36.7327C37.416 36.7327 37.4483 36.7327 37.4483 36.7717C38.192 36.1885 39.1091 36.0536 40.0292 35.9182C40.5951 35.8349 41.1622 35.7515 41.6909 35.5635C41.7458 35.5245 41.8023 35.4872 41.8588 35.4498C41.9153 35.4125 41.9718 35.3751 42.0267 35.3361C42.1209 35.2969 42.2053 35.2298 42.2947 35.1587C42.383 35.0884 42.4762 35.0143 42.5885 34.9594C42.8856 34.7321 43.1116 34.4722 43.2278 34.089C43.2278 34.05 43.1891 34.011 43.1891 34.011C42.6983 34.5372 42.1365 34.9529 41.5359 35.2582C40.9633 35.5604 40.3497 35.6052 39.7423 35.6495C39.5141 35.6661 39.2867 35.6827 39.0627 35.7129C39.1014 35.6349 39.1789 35.6349 39.25 35.6349C39.25 35.5427 39.2942 35.503 39.3509 35.4521C39.366 35.4385 39.3821 35.424 39.3985 35.4076H39.5083C39.5276 35.4076 39.5373 35.3881 39.547 35.3686C39.5567 35.3491 39.5664 35.3297 39.5858 35.3297C39.6633 35.3297 39.773 35.2907 39.7343 35.2907C39.6751 35.2145 39.589 35.2447 39.494 35.2779C39.4027 35.3099 39.3031 35.3448 39.2112 35.2907C39.2454 35.2532 39.2556 35.2082 39.265 35.1673C39.2751 35.1231 39.2841 35.0836 39.321 35.0633H39.4695C39.4695 34.9854 39.547 34.9139 39.547 34.9139C39.8838 34.7114 40.209 34.5346 40.5281 34.3611C40.7413 34.2452 40.952 34.1307 41.1614 34.011C41.119 34.011 41.0815 34.0285 41.045 34.0454C40.987 34.0723 40.9318 34.0979 40.8644 34.05C40.9031 34.05 40.9031 34.0224 40.9031 33.9948C40.9031 33.9672 40.9031 33.9396 40.9419 33.9396C41.1841 33.8749 41.3997 33.77 41.62 33.6628C41.7754 33.5872 41.9332 33.5104 42.1042 33.4459C42.0534 33.4459 42.0065 33.4596 41.9607 33.4729C41.8725 33.4985 41.7887 33.5229 41.6909 33.4459C41.7166 33.433 41.7373 33.4166 41.7577 33.4003C41.799 33.3675 41.8392 33.3355 41.9169 33.3355V33.2251C41.9169 33.1861 41.9557 33.1861 41.9944 33.1861C41.9557 33.1861 41.9169 33.1471 41.9169 33.1471C41.9375 33.1059 41.9779 33.0974 42.0229 33.0879C42.0629 33.0795 42.1065 33.0703 42.143 33.0367C42.1042 33.0367 42.0332 33.0367 42.0332 32.9977C42.143 32.8483 42.3302 32.8094 42.5175 32.7704C42.4981 32.7314 42.461 32.7314 42.4287 32.7314C42.3964 32.7314 42.369 32.7314 42.369 32.6924C42.369 32.6535 42.4077 32.6535 42.4465 32.6535H42.369C42.3082 32.6229 42.3189 32.5683 42.3264 32.5305C42.3284 32.5202 42.3302 32.5111 42.3302 32.5041C42.4819 32.3253 42.5318 32.1144 42.5814 31.9046C42.6057 31.8019 42.6299 31.6994 42.666 31.6012C42.6273 31.6012 42.5885 31.6012 42.5885 31.5622C42.2254 31.9652 41.6499 32.1179 41.1032 32.263L41.0516 32.2767H40.8644C40.6771 32.3547 40.4123 32.3547 40.2251 32.2377C40.136 32.191 40.0725 32.1326 40.0039 32.0695C39.9581 32.0274 39.91 31.9832 39.8505 31.9389C39.547 31.7506 39.25 31.6012 38.9142 31.4842C37.9778 31.1855 37.0027 31.0296 36.0277 31.0685C36.2999 30.9187 36.5891 30.8592 36.8821 30.7988C37.0338 30.7676 37.1865 30.7361 37.3385 30.6918C37.4344 30.6635 37.5294 30.6344 37.6239 30.6054C38.1595 30.4412 38.6791 30.2819 39.25 30.315C39.1753 30.2885 39.0796 30.2981 38.9915 30.3069C38.9502 30.3111 38.9105 30.315 38.8754 30.315C38.4438 30.2829 38.0078 30.379 37.5528 30.4793C37.4564 30.5005 37.3592 30.5219 37.261 30.5424C37.0829 30.5795 36.9134 30.6327 36.7438 30.6861C36.5568 30.7448 36.3695 30.8037 36.1697 30.8412C36.0831 30.8711 36.0135 30.9219 35.9458 30.9715C35.8368 31.0512 35.7324 31.1275 35.5692 31.1075V30.9906C35.9437 30.5359 36.3957 30.0877 36.9963 30.0487C37.5768 29.9542 38.1242 30.0215 38.6952 30.0918C38.7911 30.1036 38.8877 30.1155 38.9852 30.1267C39.4533 30.1643 39.8912 30.2687 40.3632 30.3813L40.4123 30.393C40.5157 30.393 40.5738 30.4839 40.63 30.572C40.6758 30.6436 40.7203 30.7133 40.7869 30.7308C40.8788 30.7625 40.9707 30.7684 41.0627 30.7743C41.1968 30.7829 41.3308 30.7915 41.4649 30.8802C41.4649 30.8539 41.4605 30.8284 41.4562 30.8032C41.4476 30.7534 41.4392 30.7045 41.4649 30.6528C41.5482 30.569 41.6437 30.5915 41.7378 30.6136C41.8114 30.6309 41.884 30.6481 41.9492 30.6138C42.154 30.4867 41.9619 30.2916 41.7697 30.0964C41.677 30.0022 41.5843 29.908 41.5359 29.8214C41.5359 29.7824 41.5747 29.7434 41.5747 29.7434C41.6595 29.8195 41.7385 29.8981 41.8168 29.9761C42.0129 30.1713 42.2047 30.3623 42.4723 30.4969C42.6596 30.5749 43.1116 30.6853 43.0341 30.4579C42.9015 30.1635 42.6749 29.9082 42.4461 29.6504C42.3519 29.5442 42.2573 29.4376 42.1688 29.3277V29.1783C42.1099 29.1783 42.0958 29.1558 42.0782 29.1279C42.0727 29.1191 42.0668 29.1097 42.059 29.1004V28.951C41.9643 28.9013 41.9431 28.8226 41.9218 28.7434C41.9097 28.6984 41.8975 28.6532 41.8717 28.6132C41.807 28.5083 41.8024 28.3792 41.7976 28.2462C41.7937 28.1403 41.7898 28.0319 41.7555 27.9311C41.678 27.7038 41.6457 27.5154 41.607 27.2881C41.5649 27.0555 41.5187 26.8331 41.4734 26.6154C41.3934 26.2311 41.3165 25.8614 41.2712 25.4758C41.2114 24.9247 41.4897 24.4586 41.7742 23.9821C41.8586 23.8408 41.9435 23.6987 42.0203 23.5531C42.285 23.0984 42.5821 22.6502 43.0728 22.3449C43.1799 21.9014 43.4713 21.5321 43.7612 21.1646L43.7832 21.1367C44.0693 20.7801 44.5471 20.5621 44.8993 20.4014L44.9391 20.3832C45.4621 20.1494 45.9335 20 45.94 20H20V40H38.404C38.8962 39.6432 39.3854 39.418 39.9677 39.15C40.2334 39.0278 40.5185 38.8966 40.8321 38.7399C40.8985 38.7065 40.9774 38.6676 41.065 38.6245C41.5906 38.3659 42.428 37.9539 42.7435 37.6421ZM36.9037 34.9438C36.8307 34.9511 36.7533 34.9589 36.7825 34.9002C36.8096 34.7688 36.9442 34.7293 37.0757 34.6909C37.132 34.6744 37.1877 34.6581 37.2341 34.6348L37.2554 34.6238L37.2709 34.6156C37.3437 34.5769 37.4328 34.5295 37.4986 34.5571C37.543 34.6202 37.598 34.6365 37.6514 34.6523C37.6912 34.6641 37.7301 34.6756 37.7631 34.706C37.6236 34.8461 37.4607 34.8599 37.2955 34.8739C37.1858 34.8832 37.0752 34.8926 36.9696 34.9391C36.9506 34.9391 36.9274 34.9414 36.9037 34.9438ZM31.1906 34.0304C31.1906 34.0693 31.2293 34.1083 31.2293 34.1083C32.1334 33.0885 32.9535 32.2181 34.1159 31.4971C34.147 31.484 34.1354 31.5003 34.12 31.5219C34.0971 31.5542 34.0657 31.5983 34.1546 31.575C34.5394 31.4873 34.7123 31.1576 34.8804 30.8369C34.9239 30.7539 34.967 30.6716 35.0135 30.5942C35.1898 30.3073 35.4403 30.1236 35.6927 29.9384C35.8747 29.8049 36.0577 29.6706 36.2146 29.4964C36.2146 29.5354 36.2146 29.5744 36.1758 29.6133C36.2146 29.6523 36.2533 29.6523 36.2921 29.6523C36.3602 29.6009 36.4346 29.5796 36.5058 29.5592C36.5967 29.5333 36.6826 29.5087 36.7441 29.425C36.4471 29.308 36.0661 29.2691 35.769 29.386C34.9812 29.7627 34.3096 30.3668 33.6703 31.0489C33.2828 31.4581 32.8825 31.8413 32.3917 32.1076C32.0559 32.7832 31.6814 33.3873 31.1906 34.0304ZM34.3432 31.6145C34.3229 31.6552 34.3027 31.6763 34.2834 31.6965C34.2658 31.7149 34.2489 31.7326 34.2335 31.7635C34.1948 31.8411 34.1561 31.8735 34.0851 31.9124C34.0464 31.9124 34.0077 31.9124 34.0077 31.8735C34.0464 31.7246 34.1561 31.5757 34.3045 31.5368C34.3432 31.5433 34.3432 31.5822 34.3432 31.6145ZM35.9945 37.3831C36.0267 37.3506 36.0654 37.3116 36.0848 37.2726C36.1171 37.1947 35.9171 37.2142 35.8848 37.2337C35.8555 37.2572 35.8369 37.2808 35.8144 37.3093L35.8074 37.3181C35.7805 37.3491 35.749 37.3777 35.717 37.4068C35.6953 37.4266 35.6734 37.4465 35.6526 37.4675C35.5622 37.5585 35.4719 37.6494 35.3751 37.7338C35.3106 37.7923 35.5171 37.8183 35.5622 37.7793C35.6138 37.7403 35.659 37.6949 35.7042 37.6494C35.7214 37.6494 35.7386 37.6465 35.75 37.6446L35.7579 37.6433L35.7622 37.6429C35.8692 37.607 35.9488 37.5325 36.0262 37.4601L36.0461 37.4415C36.0719 37.4155 36.0396 37.3896 35.9945 37.3831ZM35.4106 36.9607C35.4099 36.9608 35.4094 36.961 35.409 36.9613C35.4082 36.9621 35.4082 36.9638 35.4082 36.967C35.3686 36.9942 35.3295 37.0219 35.2905 37.0495C35.1895 37.1209 35.0891 37.1919 34.982 37.2528C34.8796 37.3105 34.7746 37.3604 34.6686 37.4107C34.6075 37.4397 34.5462 37.4688 34.4848 37.4997C34.4848 37.4997 34.4848 37.4932 34.4783 37.4932C34.4654 37.4737 34.4396 37.4672 34.4138 37.4802C34.2717 37.5581 34.149 37.6621 34.0392 37.7725C34.0199 37.7855 34.0005 37.805 33.9876 37.8244L33.9294 37.8829V37.8894C33.9036 37.9154 33.8778 37.9414 33.8455 37.9803C33.8388 37.9871 33.8336 37.9938 33.8287 38.0003C33.8193 38.0125 33.8107 38.0238 33.7938 38.0323C33.768 38.0453 33.7034 38.0453 33.7099 38.0063V37.9998C33.6905 38.0128 33.6647 38.0258 33.6453 38.0323C33.6356 38.0388 33.6259 38.0437 33.6163 38.0485C33.6066 38.0534 33.5969 38.0583 33.5872 38.0648C33.5807 38.0583 33.5678 38.0583 33.5614 38.0583C33.5549 38.0583 33.542 38.0583 33.5355 38.0648C33.5205 38.0778 33.5054 38.09 33.4903 38.1023C33.4602 38.1269 33.4301 38.1514 33.3999 38.1817C33.3224 38.2532 33.2514 38.3311 33.1804 38.4155C33.1804 38.4155 33.1804 38.422 33.1739 38.422C33.1739 38.4253 33.1723 38.4269 33.1707 38.4285C33.1691 38.4302 33.1675 38.4318 33.1675 38.435L33.1545 38.448C33.1521 38.4505 33.1505 38.453 33.1492 38.4551C33.1471 38.4585 33.1456 38.461 33.1416 38.461L33.1352 38.4675C33.1287 38.4805 33.1223 38.4935 33.1093 38.5065C33.1029 38.513 33.09 38.5195 33.0771 38.5195C33.0706 38.513 33.0641 38.5065 33.0641 38.5C33.0609 38.4967 33.0593 38.4935 33.0577 38.4902C33.0561 38.487 33.0544 38.4837 33.0512 38.4805C33.0448 38.4708 33.0399 38.461 33.0351 38.4513C33.0302 38.4415 33.0254 38.4318 33.0189 38.422V38.4155C33.0189 38.4123 33.0173 38.409 33.0157 38.4058C33.0141 38.4026 33.0125 38.3993 33.0125 38.3961L33.1287 38.2596L33.1352 38.2532C33.1416 38.2467 33.1481 38.2386 33.1545 38.2304C33.161 38.2223 33.1675 38.2142 33.1739 38.2077C33.1836 38.1947 33.1949 38.1817 33.2062 38.1687C33.2175 38.1557 33.2288 38.1427 33.2385 38.1297C33.2417 38.1232 33.2449 38.1184 33.2482 38.1135C33.2514 38.1086 33.2546 38.1038 33.2579 38.0973C33.2966 38.0453 33.3354 37.9933 33.3741 37.9349V37.9284C33.3806 37.9219 33.387 37.9154 33.387 37.9024C33.4064 37.8764 33.4258 37.8504 33.4387 37.8244L33.4774 37.7465V37.74L33.4839 37.7335C33.4839 37.7303 33.4855 37.7286 33.4871 37.727C33.4887 37.7254 33.4903 37.7238 33.4903 37.7205C33.4968 37.7043 33.5032 37.6897 33.5097 37.6751C33.5161 37.6605 33.5226 37.6458 33.5291 37.6296V37.6231L33.5355 37.5971C33.5388 37.5906 33.5404 37.5841 33.542 37.5776C33.5436 37.5711 33.5452 37.5646 33.5485 37.5581V37.5516C33.5517 37.5419 33.5533 37.5321 33.5549 37.5224C33.5565 37.5127 33.5581 37.5029 33.5614 37.4932C33.5614 37.4867 33.5614 37.4737 33.5549 37.4672C33.5937 37.3957 33.6453 37.3308 33.7034 37.2658C33.7002 37.2658 33.697 37.2674 33.6937 37.2691C33.6919 37.27 33.69 37.2709 33.6882 37.2716C33.6868 37.272 33.6854 37.2723 33.6841 37.2723C33.6553 37.2904 33.6306 37.3145 33.6054 37.339C33.5853 37.3586 33.5649 37.3784 33.542 37.3957C33.5032 37.4282 33.4258 37.3762 33.4774 37.3373C33.5097 37.3113 33.5355 37.2853 33.5613 37.2593C33.5613 37.2593 33.5614 37.2528 33.5678 37.2528C33.5936 37.2295 33.6183 37.2031 33.6432 37.1765C33.6808 37.1364 33.7188 37.0957 33.7615 37.0645C33.8068 37.032 33.839 37.006 33.8778 36.9735C33.8842 36.967 33.8907 36.9605 33.8972 36.9605C33.923 36.928 33.9488 36.8956 33.9811 36.8631C33.9811 36.8631 33.9876 36.8631 33.9876 36.8566C34.2093 36.6415 34.5209 36.5656 34.839 36.4882C35.0396 36.4394 35.2428 36.3899 35.4276 36.3045C35.532 36.261 35.6484 36.2781 35.7635 36.295C35.8548 36.3084 35.9453 36.3217 36.0282 36.3045C36.1379 36.3045 36.2542 36.3045 36.3639 36.3824C36.1086 36.5184 35.8649 36.6739 35.6238 36.8277C35.554 36.8723 35.4843 36.9168 35.4147 36.9605C35.4129 36.9605 35.4116 36.9605 35.4106 36.9607ZM36.2176 34.3132C36.1874 34.3167 36.1678 34.3189 36.1846 34.3358C36.2943 34.4463 36.5204 34.4073 36.6753 34.3228C36.7851 34.2449 36.9014 34.2449 37.0499 34.2449C37.0886 34.2449 37.0886 34.1734 37.0886 34.1345C37.1984 34.1734 37.2759 34.1734 37.3857 34.1734C38.2833 33.9851 39.1486 33.7967 39.9751 33.381C39.1388 32.7347 38.1077 32.4468 37.0978 32.1649C36.9302 32.1181 36.7632 32.0715 36.5978 32.0234C36.6342 32.0234 36.6706 32.0355 36.7072 32.0477C36.781 32.0723 36.8559 32.0973 36.9336 32.0234C36.8312 31.9417 36.7171 31.926 36.6041 31.9106C36.5106 31.8977 36.4179 31.885 36.3331 31.835C36.3419 31.835 36.3525 31.8371 36.3639 31.8393C36.4026 31.8467 36.4517 31.8562 36.4816 31.7961C36.2855 31.6974 36.0893 31.6639 35.8913 31.6301C35.7894 31.6127 35.6871 31.5952 35.584 31.5687C35.7713 31.5297 35.8875 31.3803 35.8875 31.192C35.8875 31.153 35.81 31.153 35.7713 31.153C35.3257 31.3803 35.0222 31.7961 34.8349 32.2832C35.0038 32.3826 35.1857 32.3711 35.3641 32.3598C35.4654 32.3534 35.5656 32.347 35.6615 32.3612C35.5768 32.4416 35.4545 32.4635 35.3368 32.4845C35.293 32.4923 35.2498 32.5 35.2095 32.5106C35.0932 32.5366 34.9835 32.621 35.0222 32.6989C35.048 32.7314 35.0739 32.7444 35.1062 32.7509C35.0222 32.7769 34.9447 32.8159 34.8737 32.8873C34.98 32.971 35.0896 32.9549 35.1978 32.9389C35.2408 32.9326 35.2835 32.9263 35.3257 32.9263C35.3257 32.9735 35.3567 32.9895 35.3889 33.0062C35.4054 33.0147 35.4223 33.0235 35.4355 33.0367C35.2482 33.1082 35.0997 33.2641 35.0609 33.3745C35.0147 33.487 34.9292 33.5601 34.8445 33.6326C34.7874 33.6815 34.7306 33.73 34.6864 33.7902V33.9071C34.5617 34.0177 34.4334 34.1165 34.307 34.2139C34.0472 34.414 33.7949 34.6084 33.5951 34.888C33.6338 34.888 33.6338 34.9269 33.6338 34.9659C33.5981 35.0198 33.5473 35.0572 33.4991 35.0926C33.4427 35.134 33.3899 35.1727 33.3691 35.2322C33.3691 35.2712 33.3691 35.3102 33.4078 35.3102C33.6448 35.2319 33.8498 35.1 34.0508 34.9707C34.2332 34.8534 34.4123 34.7382 34.6089 34.6671C34.7696 34.6285 34.9095 34.5556 35.046 34.4845C35.1618 34.4242 35.2752 34.3651 35.3967 34.3293C35.4904 34.3099 35.5937 34.2823 35.697 34.2546C35.8003 34.227 35.9037 34.1994 35.9973 34.1799C35.9973 34.2189 35.9973 34.2579 36.036 34.2579H36.3331C36.3148 34.3021 36.2571 34.3087 36.2176 34.3132Z" fill="#000091"></path><path d="M75 20H53.4884C53.4884 20 53.5274 20.0065 53.69 20.091C53.8656 20.1821 54.0932 20.3056 54.2297 20.3771C54.5094 20.5202 54.776 20.7022 54.9516 20.9818C55.0296 21.0923 55.1401 21.3199 55.0686 21.4694C54.9906 21.658 54.9516 21.9636 54.763 22.0351C54.5354 22.1521 54.2362 22.1521 53.9696 22.1131C53.8201 22.1131 53.6705 22.0741 53.5144 22.0351C54.0802 22.2627 54.6134 22.5293 54.9906 23.0559C55.0296 23.1339 55.1792 23.1665 55.3287 23.1665C55.3677 23.1665 55.3677 23.2445 55.3677 23.277C55.2897 23.355 55.2182 23.394 55.2572 23.5046H55.3677C55.5563 23.4265 55.5173 23.0494 55.7839 23.1665C55.9725 23.277 56.0505 23.5436 55.9335 23.7321C55.7839 23.8817 55.6344 23.9987 55.4783 24.1092C55.4393 24.1873 55.4393 24.2978 55.4783 24.3758C55.5888 24.5254 55.6279 24.6749 55.6669 24.8309C55.7839 25.0975 55.8164 25.3966 55.9335 25.6632C56.0831 26.2289 56.2326 26.7945 56.2001 27.3667C56.2001 27.6658 56.0505 27.9324 56.1611 28.238C56.2391 28.5371 56.4277 28.7646 56.5773 29.0312C56.7268 29.2588 56.8764 29.4083 56.9935 29.6359C57.2211 30.013 57.6373 30.3901 57.4487 30.8453C57.3381 31.1118 56.9219 31.0728 56.6553 31.2224C56.4277 31.4109 56.6163 31.7165 56.7334 31.9051C56.9219 32.2432 56.5057 32.4707 56.2391 32.5878C56.3172 32.7048 56.4667 32.6658 56.5057 32.7373C56.5448 32.9259 56.7334 33.0364 56.6163 33.2315C56.4667 33.459 56.0115 33.5696 56.2391 33.9142C56.3887 34.1808 56.2912 34.4733 56.2001 34.7464C56.0896 35.0845 55.7839 35.2341 55.5173 35.3121C55.2897 35.3901 55.0231 35.3901 54.802 35.3511C54.724 35.3121 54.6524 35.2731 54.5744 35.2731C53.9306 35.1951 53.2868 35.013 52.6495 35.013C52.461 35.052 52.2724 35.0845 52.1228 35.1625C51.9537 35.2861 51.7977 35.4226 51.6676 35.5657C51.6676 35.5657 51.6676 35.5657 51.6611 35.5722C51.6351 35.6047 51.6026 35.6307 51.5766 35.6632C51.5636 35.6827 51.544 35.7022 51.531 35.7217C51.518 35.7347 51.5115 35.7477 51.4985 35.7607C51.388 35.8973 51.2904 36.0468 51.1994 36.1964C51.1929 36.2094 51.1864 36.2159 51.1799 36.2224C51.1734 36.2419 51.1604 36.2549 51.1474 36.2744C51.0238 36.5019 50.9328 36.736 50.8612 36.9701C50.6011 37.8349 50.7182 38.5761 50.9003 38.7581C50.9523 38.8101 52.1488 39.1808 52.9812 39.5514C53.3714 39.7269 53.6445 39.857 53.8721 40H74.9935V20H75Z" fill="#E1000F"></path><path d="M54.7665 27.2945C54.9161 27.3335 55.1437 27.3335 55.1437 27.4114C55.0657 27.7101 54.6169 27.788 54.3892 28.0932H54.2722C54.1616 28.1712 54.1941 28.3595 54.0835 28.3595C53.973 28.3205 53.8559 28.3595 53.7453 28.3984C53.8949 28.5478 54.0835 28.6647 54.3112 28.6257C54.3502 28.6257 54.4218 28.7036 54.4218 28.775C54.4218 28.775 54.4608 28.775 54.4998 28.7361C54.5388 28.7361 54.5779 28.7361 54.5779 28.775V28.9244C54.4673 29.0737 54.2722 29.0023 54.1226 29.0348C54.4283 29.1127 54.7275 29.1127 54.9941 29.0348C55.2218 28.9569 54.9941 28.5802 55.1437 28.3919C55.0657 28.3919 55.1437 28.2751 55.0657 28.2751C55.1437 28.1971 55.2153 28.0867 55.2933 28.0478C55.3714 28.0478 55.4819 28.0088 55.521 27.9309C55.521 27.853 55.3714 27.8205 55.4039 27.7426C55.6315 27.5932 55.8202 27.366 55.7421 27.1387C55.7031 27.0218 55.4039 27.0218 55.2153 26.9504C55.0267 26.879 54.799 26.9504 54.5714 26.9893C54.3827 26.9893 54.1941 27.1062 54.0055 27.1387C53.7388 27.2166 53.5112 27.366 53.29 27.5153C53.5567 27.4049 53.8169 27.366 54.1226 27.288C54.3502 27.2945 54.5388 27.2426 54.7665 27.2945Z" fill="#808080"></path><path d="M22.06 65V51H26.34C29.42 51 31.32 52.58 31.32 55.18C31.32 56.88 30.5 58.14 29.06 58.8L33.44 65H30.1L26.36 59.34H24.9V65H22.06ZM26.5 53.36H24.9V56.98H26.5C27.7 56.98 28.4 56.28 28.4 55.14C28.4 54.08 27.7 53.36 26.5 53.36ZM40.8789 49.8H38.2989L40.5589 47.1H43.4789L40.8789 49.8ZM35.5389 65V51H43.6989V53.36H38.3789V56.68H42.8989V59.04H38.3789V62.64H43.6989V65H35.5389ZM47.2991 65V51H51.9191C54.9991 51 56.8791 52.58 56.8791 55.18C56.8791 57.76 54.9991 59.34 51.9191 59.34H50.1391V65H47.2991ZM52.0391 53.36H50.1391V56.98H52.0391C53.2391 56.98 53.9591 56.28 53.9591 55.14C53.9591 54.08 53.2391 53.36 52.0391 53.36ZM67.7842 59.76V51H70.6242V59.52C70.6242 63.2 68.4642 65.4 64.9442 65.4C61.4442 65.4 59.2842 63.2 59.2842 59.52V51H62.1242V59.76C62.1242 61.64 63.1842 62.74 64.9642 62.74C66.7042 62.74 67.7842 61.64 67.7842 59.76ZM74.4522 65V51H78.5722C81.4922 51 83.2722 52.44 83.2722 54.8C83.2722 55.94 82.7522 56.92 81.7722 57.56C83.2522 58.22 84.0722 59.42 84.0722 60.88C84.0722 63.44 82.0922 65 78.8722 65H74.4522ZM78.6322 53.36H77.2922V56.52H78.6322C79.7122 56.52 80.3522 55.94 80.3522 54.92C80.3522 53.94 79.7122 53.36 78.6322 53.36ZM79.0322 58.88H77.2922V62.64H79.0322C80.3522 62.64 81.1522 61.94 81.1522 60.76C81.1522 59.56 80.3522 58.88 79.0322 58.88ZM87.2866 65V51H90.1266V62.42H95.4466V65H87.2866ZM98.2459 65V51H101.086V65H98.2459ZM117.039 64.64C118.119 65.62 119.079 65.98 119.979 65.98C120.279 65.98 120.679 65.94 120.979 65.82V68.22C120.519 68.4 120.119 68.48 119.499 68.48C117.939 68.48 116.499 67.84 115.119 66.64L113.459 65.16C112.859 65.32 112.219 65.4 111.539 65.4C107.119 65.4 104.099 62 104.099 58C104.099 54 107.119 50.6 111.539 50.6C115.939 50.6 118.959 54 118.959 58C118.959 60.34 117.919 62.48 116.199 63.84L117.039 64.64ZM111.539 62.74C114.159 62.74 116.039 60.68 116.039 58C116.039 55.32 114.159 53.26 111.539 53.26C108.899 53.26 107.019 55.32 107.019 58C107.019 60.68 108.899 62.74 111.539 62.74ZM130.237 59.76V51H133.077V59.52C133.077 63.2 130.917 65.4 127.397 65.4C123.897 65.4 121.737 63.2 121.737 59.52V51H124.577V59.76C124.577 61.64 125.637 62.74 127.417 62.74C129.157 62.74 130.237 61.64 130.237 59.76ZM136.905 65V51H145.065V53.36H139.745V56.68H144.265V59.04H139.745V62.64H145.065V65H136.905ZM22.06 86V72H30.22V74.36H24.9V77.68H29.42V80.04H24.9V86H22.06ZM33.0194 86V72H37.2994C40.3794 72 42.2794 73.58 42.2794 76.18C42.2794 77.88 41.4594 79.14 40.0194 79.8L44.3994 86H41.0594L37.3194 80.34H35.8594V86H33.0194ZM37.4594 74.36H35.8594V77.98H37.4594C38.6594 77.98 39.3594 77.28 39.3594 76.14C39.3594 75.08 38.6594 74.36 37.4594 74.36ZM45.3438 86L50.6438 72H54.3638L59.6638 86H56.6438L55.3038 82.36H49.7038L48.3638 86H45.3438ZM50.5838 79.94H54.4238L52.5038 74.68L50.5838 79.94ZM62.1256 86V72H65.7656L72.0256 82.12V72H74.8656V86H71.2256L64.9656 75.88V86H62.1256ZM85.3211 83.74C86.9211 83.74 88.1811 82.96 88.9811 81.82L91.2211 83.54C90.1411 85.02 88.4611 86.06 86.4211 86.32L84.6811 89.22H82.1611L83.9211 86.28C80.2811 85.64 77.8811 82.56 77.8811 79C77.8811 75 80.9011 71.6 85.3211 71.6C87.8611 71.6 89.9411 72.74 91.2211 74.44L88.9811 76.18C88.1811 75.04 86.9211 74.26 85.3211 74.26C82.6811 74.26 80.8011 76.32 80.8011 79C80.8011 81.68 82.6811 83.74 85.3211 83.74ZM92.1281 86L97.4281 72H101.148L106.448 86H103.428L102.088 82.36H96.4881L95.1481 86H92.1281ZM97.3681 79.94H101.208L99.2881 74.68L97.3681 79.94ZM108.91 86V72H111.75V86H108.91ZM114.703 84.06L116.763 82.16C117.603 83.24 118.723 83.88 119.863 83.88C120.983 83.88 121.663 83.28 121.663 82.28C121.663 79.7 115.303 80.4 115.303 75.66C115.303 73.44 117.143 71.6 119.823 71.6C121.923 71.6 123.523 72.54 124.723 73.96L122.643 75.84C121.823 74.78 120.903 74.08 119.843 74.08C118.843 74.08 118.183 74.72 118.183 75.56C118.183 78.1 124.543 77.38 124.543 82.18C124.503 84.82 122.463 86.4 119.883 86.4C117.523 86.4 115.943 85.54 114.703 84.06ZM127.821 86V72H135.981V74.36H130.661V77.68H135.181V80.04H130.661V83.64H135.981V86H127.821Z" fill="#161616"></path><path fill-rule="evenodd" clip-rule="evenodd" d="M71.96 121.7L70.1 123.4H69.62L70.72 121.46H71.96V121.7ZM70.62 128.279H70.22C69.72 128.879 69.16 129.359 68.62 129.359C68.06 129.359 67.78 129.019 67.78 128.279C67.78 127.979 67.82 127.659 67.88 127.379L71.14 126.299C71.78 124.779 71.02 124.119 70.12 124.119C68.58 124.119 66.82 126.819 66.82 128.979C66.82 129.999 67.3 130.559 68.06 130.559C68.94 130.539 69.86 129.679 70.62 128.279ZM69.5012 125C69.9412 125 70.3213 125.34 70.1213 126.12L68.1012 126.66C68.4212 125.7 69.0212 125 69.5012 125ZM63.1421 125.039H64.2221L62.5021 129.759C62.3421 130.159 62.5621 130.559 62.9821 130.559C64.2021 130.559 65.6621 129.519 66.2221 128.039H65.9221C65.4821 128.659 64.5221 129.339 63.8021 129.459L65.3821 125.039H67.0021L67.2021 124.359H65.6221L66.2221 122.659H65.6021L64.4821 124.359L63.1421 124.539V125.039ZM61.6409 124.14C61.8609 124.14 62.161 124.38 62.021 124.82L60.0809 129.52C60.5809 129.44 61.1009 128.96 61.4009 128.52H61.7209C61.2609 129.7 60.2209 130.56 59.3209 130.56C59.1009 130.56 58.7809 130.32 58.9409 129.88L60.7409 125.18C60.2409 125.26 59.7209 125.74 59.4209 126.18H59.1209C59.5809 124.98 60.7009 124.14 61.6409 124.14ZM62.2023 122.94C62.6023 122.94 62.9423 122.62 62.9423 122.2C62.9423 121.8 62.6023 121.46 62.2023 121.46C61.7823 121.46 61.4623 121.8 61.4623 122.2C61.4623 122.6 61.8023 122.94 62.2023 122.94ZM53.4619 126.84C53.9019 125.88 53.7419 125.44 53.4619 125.44C53.2219 125.44 52.9418 125.7 52.6618 126.18H52.3618C52.8218 125.16 53.4219 124.14 54.0819 124.14C54.6419 124.14 54.8419 124.7 54.8419 125.32V126.2C54.9319 126.096 55.0195 125.993 55.1051 125.892L55.1067 125.89L55.108 125.889C55.9529 124.897 56.5981 124.14 57.3419 124.14C57.9219 124.14 58.2219 124.5 58.2219 125.04C58.2219 125.36 58.1219 125.76 57.9019 126.18L56.2419 129.52C56.7419 129.44 57.2619 128.96 57.5619 128.52H57.8619C57.4019 129.72 56.2819 130.56 55.3419 130.56C54.9219 130.56 54.6819 130.12 54.8619 129.76L56.7819 126.06C57.0019 125.64 57.0419 125.36 56.7019 125.36C56.2419 125.36 55.1619 126.12 54.5819 126.82L53.3219 130.14C53.1819 130.48 53.0419 130.56 52.7218 130.56C52.2018 130.56 51.9418 130.22 52.1818 129.68L53.4619 126.84ZM52.1604 125.559C52.3804 124.799 52.2604 124.119 51.6803 124.119C50.957 124.119 50.7305 124.597 50.0296 126.075L49.9803 126.179V125.299C49.9803 124.679 49.7803 124.119 49.2203 124.119C48.5603 124.119 47.9603 125.139 47.5003 126.159H47.8003C48.1203 125.699 48.4203 125.419 48.6603 125.419C48.9403 125.419 49.1003 125.859 48.6603 126.819L47.3803 129.659C47.1403 130.199 47.4003 130.539 47.9203 130.539C48.2403 130.539 48.3803 130.459 48.5203 130.119L49.7803 126.799C50.1403 126.359 50.4603 125.979 50.8603 125.559H52.1604ZM45.8407 126.12C46.0407 125.34 45.6607 125 45.2207 125C44.7407 125 44.1407 125.7 43.8207 126.66L45.8407 126.12ZM46.3395 128.279H45.9395C45.4395 128.879 44.8795 129.359 44.3394 129.359C43.7794 129.359 43.4994 129.019 43.4994 128.279C43.4994 127.979 43.5394 127.659 43.5994 127.379L46.8595 126.299C47.4995 124.779 46.7395 124.119 45.8395 124.119C44.2994 124.119 42.5394 126.819 42.5394 128.979C42.5394 129.999 43.0194 130.559 43.7794 130.559C44.6595 130.539 45.5795 129.679 46.3395 128.279ZM39.9415 125.039H38.8615V124.539L40.2016 124.359L41.3216 122.659H41.9416L41.3416 124.359H42.9216L42.7216 125.039H41.1016L39.5215 129.459C40.2416 129.339 41.2016 128.659 41.6416 128.039H41.9416C41.3816 129.519 39.9215 130.559 38.7015 130.559C38.2815 130.559 38.0615 130.159 38.2215 129.759L39.9415 125.039ZM33.1424 128.699C33.1424 127.239 34.7625 125.28 35.6625 125.28C35.8625 125.28 36.0625 125.3 36.2225 125.36L35.2825 127.879C34.7425 128.539 33.9025 129.339 33.5024 129.339C33.2824 129.339 33.1424 129.139 33.1424 128.699ZM37.603 123.82L38.103 123.86L36.363 127.859C35.943 128.819 36.123 129.259 36.363 129.259C36.603 129.259 36.903 128.979 37.223 128.519H37.523C37.063 129.539 36.463 130.559 35.803 130.559C35.243 130.559 34.903 129.959 35.003 128.879L35.043 128.499L34.9341 128.652C34.2176 129.653 33.5693 130.559 32.9029 130.559C32.3229 130.559 32.0229 130.199 32.0229 129.659C32.0229 127.34 34.563 124.38 36.943 124.38H37.043L37.603 123.82ZM33.0217 125.559C33.2417 124.799 33.1217 124.119 32.5417 124.119C31.8183 124.119 31.5918 124.597 30.8909 126.075L30.8417 126.179V125.299C30.8417 124.679 30.6417 124.119 30.0816 124.119C29.4216 124.119 28.8216 125.139 28.3616 126.159H28.6616C28.9816 125.699 29.2816 125.419 29.5016 125.419C29.7816 125.419 29.9416 125.859 29.5016 126.819L28.2216 129.679C27.9816 130.219 28.2416 130.559 28.7616 130.559C29.0816 130.559 29.2216 130.479 29.3616 130.139L30.6217 126.819C30.9817 126.379 31.3017 125.999 31.7017 125.579H33.0217V125.559ZM24.7801 129.958L24.6601 130.318H20L20.12 129.938C21.56 129.678 21.8 129.558 22.4 127.938L23.7001 124.458C24.2801 122.838 24.1601 122.718 22.9 122.458L23.02 122.098H29.0801L28.7201 124.038H28.2801C28.2801 122.878 28.1601 122.578 27.0601 122.578H26.7801C25.7001 122.578 25.5601 122.738 25.2601 123.578L24.4001 125.918H25.6601C26.5001 125.918 26.8201 125.398 27.2001 124.718H27.6401L26.6001 127.558H26.1601C26.2601 126.698 26.2601 126.358 25.4801 126.358H24.2201L23.6401 127.958C23.0131 129.623 23.1923 129.657 24.6852 129.94C24.7163 129.946 24.7479 129.952 24.7801 129.958Z" fill="black"></path><path fill-rule="evenodd" clip-rule="evenodd" d="M28.7397 106.4L26.8797 107.74V107.76H26.3997L27.4997 106.16H28.7397V106.4ZM41.7415 115.78L44.7214 107.86L44.6214 107.74L42.5615 107.98V108.22L42.9615 108.52C43.3029 108.786 43.2125 109.033 42.9292 109.809L42.8815 109.94L40.6015 116.02C40.4215 116.38 40.6615 116.82 41.0815 116.82C42.0215 116.82 43.0215 115.96 43.4815 114.78H43.1815C42.8615 115.22 42.2215 115.7 41.7415 115.78ZM55.4 109.68L57.26 107.98V107.74H56.02L54.92 109.68H55.4ZM55.5187 114.54H55.9187C55.1787 115.96 54.2587 116.82 53.3787 116.82C52.6187 116.82 52.1387 116.26 52.1387 115.24C52.1387 113.08 53.8987 110.38 55.4387 110.38C56.3187 110.38 57.0987 111.04 56.4587 112.56L53.1787 113.64C53.1187 113.92 53.0787 114.24 53.0787 114.54C53.0787 115.28 53.3587 115.62 53.9187 115.62C54.4587 115.62 55.0187 115.14 55.5187 114.54ZM55.4177 112.38C55.6177 111.62 55.2377 111.28 54.7977 111.28C54.3377 111.28 53.7377 111.98 53.3977 112.92L55.4177 112.38ZM49.5377 111.32H48.4577V110.82L49.7977 110.64L50.9177 108.94H51.5377L50.9377 110.64H52.5177L52.3177 111.32H50.6977L49.1177 115.739C49.8377 115.619 50.7977 114.939 51.2377 114.32H51.5377C50.9777 115.799 49.5177 116.839 48.2977 116.839C47.8777 116.839 47.6577 116.439 47.8177 116.039L49.5377 111.32ZM47.3376 111.079C47.4576 110.639 47.1776 110.399 46.9376 110.399C45.9976 110.399 44.8776 111.259 44.4176 112.439H44.7176C45.0176 111.999 45.5376 111.519 46.0376 111.439L44.2376 116.139C44.0776 116.579 44.3976 116.819 44.6176 116.819C45.5176 116.819 46.5576 115.959 47.0176 114.779H46.7176C46.4176 115.219 45.8976 115.699 45.3976 115.779L47.3376 111.079ZM48.2591 108.48C48.2591 108.88 47.9191 109.22 47.5191 109.22C47.1191 109.22 46.7791 108.88 46.7791 108.48C46.7791 108.08 47.0991 107.74 47.5191 107.74C47.9191 107.74 48.2591 108.08 48.2591 108.48ZM38.1612 111.56C37.2612 111.56 35.6412 113.52 35.6412 114.98C35.6412 115.42 35.7812 115.62 36.0212 115.62C36.4012 115.62 37.2412 114.82 37.7812 114.16L38.7212 111.64C38.5412 111.58 38.3612 111.56 38.1612 111.56ZM40.6017 110.14L40.1017 110.1L39.5417 110.66H39.4417C37.0617 110.66 34.5217 113.62 34.5217 115.94C34.5217 116.48 34.8217 116.84 35.4017 116.84C36.0681 116.84 36.7164 115.934 37.4328 114.932L37.5417 114.78L37.5017 115.16C37.4017 116.24 37.7417 116.84 38.3017 116.84C38.9617 116.84 39.5617 115.82 40.0217 114.8H39.7217C39.4017 115.26 39.1017 115.54 38.8617 115.54C38.6217 115.54 38.4417 115.1 38.8617 114.14L40.6017 110.14ZM30.5206 116.62C29.6606 116.96 29.0606 117.36 29.0606 117.98C29.0606 118.56 29.6006 118.8 30.7206 118.8C32.2206 118.8 33.0406 118.36 33.0406 117.78C33.0406 117.52 32.7006 117.4 31.8006 117.1C31.2206 116.92 30.8006 116.76 30.5206 116.62ZM31.5193 114.16C31.1193 114.16 30.9793 113.82 30.9793 113.46C30.9793 112.3 31.5393 110.86 32.4393 110.86C32.8393 110.86 32.9793 111.2 32.9793 111.56C32.9593 112.74 32.3993 114.16 31.5193 114.16ZM32.2813 116.04C33.3813 116.38 34.0613 116.64 34.0613 117.4C34.0613 118.38 32.2613 119.54 30.0813 119.52C28.8213 119.52 27.7413 119.18 27.7413 118.36C27.7413 117.58 28.4613 116.94 30.2213 116.42C29.9813 116.26 29.8813 116.06 29.8813 115.78C29.8813 115.3 30.3213 114.92 31.0813 114.56C30.3413 114.46 29.8613 113.9 29.8613 113.08C29.8613 111.82 30.9013 110.38 32.5413 110.38C32.8813 110.38 33.1813 110.46 33.4213 110.62H35.2213L35.0213 111.3H33.9613C34.0213 111.48 34.0613 111.68 34.0613 111.9C34.0613 113.12 33.0813 114.52 31.5213 114.6C31.1213 114.82 30.9213 115.12 30.9213 115.36C30.9213 115.642 31.2485 115.738 31.9715 115.949C32.0677 115.977 32.1709 116.007 32.2813 116.04ZM25.94 112.62C26.72 112.62 26.74 112.96 26.62 113.82H27.06L28.1 110.98H27.66C27.28 111.66 26.96 112.18 26.12 112.18H24.4L25.24 109.84C25.54 109 25.68 108.84 26.76 108.84H27.52C28.62 108.84 28.74 109.14 28.74 110.3H29.18L29.54 108.36H23.02L22.9 108.72C24.16 108.98 24.28 109.1 23.7 110.72L22.4 114.22C21.8 115.84 21.56 115.96 20.1 116.22L20 116.6H27.24L28.54 114.54H28.04C27.2 115.36 26.36 116.12 24.72 116.12C22.9161 116.12 22.9482 116.032 23.4895 114.545C23.5243 114.449 23.5613 114.348 23.6 114.24L24.2 112.64H25.94V112.62Z" fill="black"></path><path fill-rule="evenodd" clip-rule="evenodd" d="M31.9182 95.4799C32.3182 95.4799 32.6582 95.1399 32.6582 94.7399C32.6582 94.34 32.3182 94 31.9182 94C31.4982 94 31.1782 94.34 31.1782 94.7399C31.1782 95.1599 31.4982 95.4799 31.9182 95.4799ZM37.8403 97.9992C37.8403 97.0392 37.6003 96.6793 36.9203 96.6793C36.0803 96.6793 35.3003 97.5792 34.5203 98.6591L36.2003 94.1595L36.1003 94.0195L34.0403 94.2595V94.4994L34.4403 94.7994C34.7886 95.0703 34.6876 95.3411 34.391 96.1371L34.3603 96.2193L32.5403 100.979C32.3803 101.379 32.2003 101.859 32.2003 101.979C32.2003 102.539 32.9603 103.079 33.6603 103.079C35.2203 103.099 37.8403 100.219 37.8403 97.9992ZM55.18 95.9593L57.04 94.2595V94.0195H55.8L54.7 95.9593H55.18ZM55.3005 100.819H55.7005C54.9405 102.239 54.0205 103.099 53.1405 103.079C52.3805 103.079 51.9005 102.539 51.9005 101.519C51.9005 99.3591 53.6605 96.6593 55.2005 96.6593C56.0805 96.6593 56.8605 97.3192 56.2205 98.8391L52.9605 99.919C52.9005 100.199 52.8605 100.519 52.8605 100.819C52.8605 101.559 53.1405 101.899 53.7005 101.899C54.2405 101.899 54.8005 101.419 55.3005 100.819ZM55.1986 98.6592C55.3985 97.8993 55.0186 97.5593 54.5786 97.5593C54.0986 97.5593 53.4986 98.2592 53.1786 99.1992L55.1986 98.6592ZM49.2964 97.6004H48.2164V97.1005L49.5564 96.9205L50.6764 95.2206H51.2964L50.6964 96.9205H52.2764L52.0764 97.6004H50.4564L48.8764 102.02C49.5964 101.9 50.5564 101.22 50.9964 100.6H51.2964C50.7364 102.08 49.2764 103.12 48.0564 103.12C47.6364 103.12 47.4164 102.72 47.5764 102.32L49.2964 97.6004ZM47.6602 98.1203C47.8802 97.3604 47.7602 96.6805 47.1802 96.6805C46.4569 96.6805 46.2304 97.1582 45.5295 98.6365L45.4802 98.7403V97.8604C45.4802 97.2404 45.2802 96.6805 44.7202 96.6805C44.0603 96.6805 43.4603 97.7004 43.0003 98.7203H43.3003C43.6203 98.2603 43.9203 97.9804 44.1403 97.9804C44.4203 97.9804 44.5803 98.4203 44.1403 99.3802L42.8603 102.22C42.6203 102.76 42.8803 103.1 43.4003 103.1C43.7203 103.1 43.8603 103.02 44.0003 102.68L45.2602 99.3602C45.6202 98.9203 45.9402 98.5403 46.3402 98.1203H47.6602ZM41.3208 98.6592C41.5208 97.8993 41.1408 97.5593 40.7008 97.5593C40.2208 97.5593 39.6408 98.2592 39.3008 99.1992L41.3208 98.6592ZM41.8195 100.819H41.4195C40.9195 101.419 40.3595 101.899 39.8195 101.899C39.2595 101.899 38.9796 101.559 38.9796 100.819C38.9796 100.519 39.0196 100.199 39.0795 99.919L42.3395 98.8391C42.9795 97.3192 42.2195 96.6593 41.3195 96.6593C39.7795 96.6593 38.0196 99.3591 38.0196 101.519C38.0196 102.539 38.4996 103.079 39.2595 103.079C40.1395 103.099 41.0595 102.239 41.8195 100.819ZM33.4211 101.58C33.4211 101.84 33.8811 102.14 34.2011 102.14C35.5011 102.14 36.7211 99.7998 36.7011 98.4999C36.7011 98.0599 36.4811 97.8799 36.1811 97.8799C35.7011 97.8799 34.8211 98.5999 34.2611 99.2798L33.7411 100.68C33.5611 101.14 33.4211 101.5 33.4211 101.58ZM31.3215 96.6805C31.5615 96.6805 31.8415 96.9204 31.7215 97.3604L29.8015 102.06C30.3015 101.98 30.8215 101.5 31.1215 101.06H31.4215C30.9615 102.24 29.9215 103.1 29.0215 103.1C28.7815 103.1 28.4615 102.86 28.6215 102.42L30.4215 97.7204C29.9215 97.8004 29.4015 98.2803 29.1015 98.7203H28.8015C29.2615 97.5404 30.3815 96.6805 31.3215 96.6805ZM23.02 94.6005H27.3199L27.1999 94.9805C25.7399 95.2405 25.4999 95.3605 24.8999 96.9804L23.6199 100.5C23 102.18 23.16 102.38 24.2599 102.38C25.619 102.38 26.5101 101.392 27.2882 100.53C27.346 100.466 27.4032 100.402 27.4599 100.34H27.9599L26.5399 102.86H20L20.12 102.5C21.56 102.24 21.8 102.12 22.4 100.5L23.6999 96.9604C24.2799 95.3405 24.1599 95.2205 22.9 94.9605L23.02 94.6005Z" fill="black"></path></svg>
