<svg viewBox="0 0 160 160" fill="none" xmlns="http://www.w3.org/2000/svg">
  <path
    d="M96.0207 145.99C96.0207 147.1 95.1206 148 94.0104 148C92.9001 148 92 147.1 92 145.99C92 144.88 92.9001 143.979 94.0104 143.979C95.1206 143.979 96.0207 144.88 96.0207 145.99Z"
    fill="#E1E1FD"
  />
  <path
    d="M135.999 21.9898C135.999 23.1001 135.099 24.0002 133.989 24.0002C132.879 24.0002 131.979 23.1001 131.979 21.9898C131.979 20.8796 132.879 19.9795 133.989 19.9795C135.099 19.9795 135.999 20.8796 135.999 21.9898Z"
    fill="#E1E1FD"
  />
  <path
    d="M28.0207 30.0104C28.0207 31.1206 27.1206 32.0207 26.0104 32.0207C24.9001 32.0207 24 31.1206 24 30.0104C24 28.9001 24.9001 28 26.0104 28C27.1206 28 28.0207 28.9001 28.0207 30.0104Z"
    fill="#E1E1FD"
  />
  <path
    fill-rule="evenodd"
    clip-rule="evenodd"
    d="M40.1759 120.177H47.5975C48.7021 120.177 49.5975 121.073 49.5975 122.177C49.5975 123.282 48.7021 124.177 47.5975 124.177H39.7759C37.7876 124.177 36.1759 122.565 36.1759 120.577L36.1758 27.4689C36.1758 25.4806 37.7876 23.8689 39.7758 23.8689H112.543C114.531 23.8689 116.143 25.4806 116.143 27.4689V37.0824C116.143 38.187 115.247 39.0824 114.143 39.0824C113.038 39.0824 112.143 38.187 112.143 37.0824V27.8689H40.1758L40.1759 120.177Z"
    fill="#C3C3FB"
  />
  <path
    fill-rule="evenodd"
    clip-rule="evenodd"
    d="M51.9571 132.027H61.3122C62.4168 132.027 63.3122 132.923 63.3122 134.027C63.3122 135.132 62.4168 136.027 61.3122 136.027H51.5571C49.5689 136.027 47.9571 134.416 47.9571 132.427L47.957 39.3887C47.957 37.4004 49.5688 35.7887 51.557 35.7887H124.451C126.439 35.7887 128.051 37.4005 128.051 39.3887V132.427C128.051 134.416 126.439 136.027 124.451 136.027H72.8254C71.7208 136.027 70.8254 135.132 70.8254 134.027C70.8254 132.923 71.7208 132.027 72.8254 132.027H124.051V39.7887H51.957L51.9571 132.027Z"
    fill="#C3C3FB"
  />
  <path
    fill-rule="evenodd"
    clip-rule="evenodd"
    d="M88 88H64V120H88V88ZM92 85.6V122.4C92 123.284 91.2837 124 90.4 124H61.6C60.7163 124 60 123.284 60 122.4V85.6C60 84.7163 60.7163 84 61.6 84H90.4C91.2837 84 92 84.7163 92 85.6Z"
    fill="#A5A5F8"
  />
  <path
    fill-rule="evenodd"
    clip-rule="evenodd"
    d="M112 88H104V120H112V88ZM116 85.6V122.4C116 123.284 115.284 124 114.4 124H101.6C100.716 124 100 123.284 100 122.4V85.6C100 84.7163 100.716 84 101.6 84H114.4C115.284 84 116 84.7163 116 85.6Z"
    fill="#A5A5F8"
  />
  <path
    fill-rule="evenodd"
    clip-rule="evenodd"
    d="M89.5665 100H63.2656V96H89.5665V100Z"
    fill="#A5A5F8"
  />
  <path
    fill-rule="evenodd"
    clip-rule="evenodd"
    d="M115.286 100H101.143V96H115.286V100Z"
    fill="#A5A5F8"
  />
  <path
    fill-rule="evenodd"
    clip-rule="evenodd"
    d="M89.5665 112H63.2656V108H89.5665V112Z"
    fill="#A5A5F8"
  />
  <path
    fill-rule="evenodd"
    clip-rule="evenodd"
    d="M115.286 112H101.143V108H115.286V112Z"
    fill="#A5A5F8"
  />
  <path
    fill-rule="evenodd"
    clip-rule="evenodd"
    d="M60.002 51.4882C60.002 49.5 61.6137 47.8882 63.602 47.8882H72.3816C74.3699 47.8882 75.9816 49.5 75.9816 51.4882V57.9595C75.9816 59.064 75.0862 59.9595 73.9816 59.9595C72.8771 59.9595 71.9816 59.064 71.9816 57.9595V51.8882H64.002V72.102H71.9816V66.8154C71.9816 65.7109 72.8771 64.8154 73.9816 64.8154C75.0862 64.8154 75.9816 65.7109 75.9816 66.8154V72.502C75.9816 74.4902 74.3698 76.102 72.3816 76.102H63.602C61.6137 76.102 60.002 74.4902 60.002 72.502V51.4882Z"
    fill="#C3C3FB"
  />
  <path
    fill-rule="evenodd"
    clip-rule="evenodd"
    d="M99.5879 59.4477C99.5879 57.4594 101.2 55.8477 103.188 55.8477H114.143C115.248 55.8477 116.143 56.7431 116.143 57.8477C116.143 58.9522 115.248 59.8477 114.143 59.8477H103.588V72.1023H112.143V69.2109C112.143 68.1063 113.039 67.2109 114.143 67.2109C115.248 67.2109 116.143 68.1063 116.143 69.2109V72.5023C116.143 74.4905 114.531 76.1023 112.543 76.1023H103.188C101.2 76.1023 99.5879 74.4905 99.5879 72.5023V59.4477Z"
    fill="#C3C3FB"
  />
  <path
    fill-rule="evenodd"
    clip-rule="evenodd"
    d="M81.9668 47.8882C83.0714 47.8882 83.9668 48.7836 83.9668 49.8882V72.102H91.9465V66.8154C91.9465 65.7109 92.8419 64.8154 93.9465 64.8154C95.0511 64.8154 95.9465 65.7109 95.9465 66.8154V72.502C95.9465 74.4902 94.3347 76.102 92.3465 76.102H83.5668C81.5786 76.102 79.9668 74.4902 79.9668 72.502V49.8882C79.9668 48.7836 80.8622 47.8882 81.9668 47.8882Z"
    fill="#C3C3FB"
  />
</svg>
