<svg xmlns="http://www.w3.org/2000/svg" width="47" height="58" viewBox="0 0 47 58" fill="none">
  <path fill-rule="evenodd" clip-rule="evenodd" d="M2.95219 49.0886H6.66301C7.2153 49.0886 7.66301 49.5363 7.66301 50.0886C7.66301 50.6409 7.2153 51.0886 6.66301 51.0886H2.75219C1.75808 51.0886 0.952189 50.2827 0.952189 49.2886L0.952148 2.73443C0.952148 1.74031 1.75804 0.934425 2.75215 0.934425H39.1355C40.1297 0.934425 40.9355 1.74031 40.9355 2.73443V7.5412C40.9355 8.09349 40.4878 8.5412 39.9355 8.5412C39.3833 8.5412 38.9355 8.09349 38.9355 7.5412V2.93443H2.95215L2.95219 49.0886Z" fill="#C3C3FB"/>
  <path fill-rule="evenodd" clip-rule="evenodd" d="M8.84257 55.0137H13.5201C14.0724 55.0137 14.5201 55.4614 14.5201 56.0137C14.5201 56.566 14.0724 57.0137 13.5201 57.0137H8.64257C7.64846 57.0137 6.84257 56.2078 6.84257 55.2137L6.84253 8.69434C6.84253 7.70022 7.64842 6.89434 8.64253 6.89434H45.0894C46.0835 6.89434 46.8894 7.70023 46.8894 8.69434V55.2137C46.8894 56.2078 46.0835 57.0137 45.0894 57.0137H19.2767C18.7244 57.0137 18.2767 56.566 18.2767 56.0137C18.2767 55.4614 18.7244 55.0137 19.2767 55.0137H44.8894V8.89434H8.84253L8.84257 55.0137Z" fill="#C3C3FB"/>
  <path fill-rule="evenodd" clip-rule="evenodd" d="M26.8635 33H14.8635V49H26.8635V33ZM28.8635 31.8V50.2C28.8635 50.6418 28.5054 51 28.0635 51H13.6635C13.2217 51 12.8635 50.6418 12.8635 50.2V31.8C12.8635 31.3582 13.2217 31 13.6635 31H28.0635C28.5054 31 28.8635 31.3582 28.8635 31.8Z" fill="#E1E1FD"/>
  <path fill-rule="evenodd" clip-rule="evenodd" d="M38.8635 33H34.8635V49H38.8635V33ZM40.8635 31.8V50.2C40.8635 50.6418 40.5054 51 40.0635 51H33.6635C33.2217 51 32.8635 50.6418 32.8635 50.2V31.8C32.8635 31.3582 33.2217 31 33.6635 31H40.0635C40.5054 31 40.8635 31.3582 40.8635 31.8Z" fill="#E1E1FD"/>
  <path fill-rule="evenodd" clip-rule="evenodd" d="M27.6465 39H14.4961V37H27.6465V39Z" fill="#E1E1FD"/>
  <path fill-rule="evenodd" clip-rule="evenodd" d="M40.5067 39H33.4348V37H40.5067V39Z" fill="#E1E1FD"/>
  <path fill-rule="evenodd" clip-rule="evenodd" d="M27.6465 45H14.4961V43H27.6465V45Z" fill="#E1E1FD"/>
  <path fill-rule="evenodd" clip-rule="evenodd" d="M40.5067 45H33.4348V43H40.5067V45Z" fill="#E1E1FD"/>
  <path fill-rule="evenodd" clip-rule="evenodd" d="M12.8647 14.7441C12.8647 13.75 13.6706 12.9441 14.6647 12.9441H19.0546C20.0487 12.9441 20.8546 13.75 20.8546 14.7441V17.9797C20.8546 18.532 20.4069 18.9797 19.8546 18.9797C19.3023 18.9797 18.8546 18.532 18.8546 17.9797V14.9441H14.8647V25.051H18.8546V22.4077C18.8546 21.8554 19.3023 21.4077 19.8546 21.4077C20.4069 21.4077 20.8546 21.8554 20.8546 22.4077V25.251C20.8546 26.2451 20.0487 27.051 19.0546 27.051H14.6647C13.6706 27.051 12.8647 26.2451 12.8647 25.251V14.7441Z" fill="#C3C3FB"/>
  <path fill-rule="evenodd" clip-rule="evenodd" d="M32.658 18.7238C32.658 17.7297 33.4638 16.9238 34.458 16.9238H39.9356C40.4879 16.9238 40.9356 17.3715 40.9356 17.9238C40.9356 18.4761 40.4879 18.9238 39.9356 18.9238H34.658V25.0512H38.9356V23.6054C38.9356 23.0531 39.3834 22.6054 39.9356 22.6054C40.4879 22.6054 40.9356 23.0531 40.9356 23.6054V25.2512C40.9356 26.2453 40.1297 27.0512 39.1356 27.0512H34.458C33.4638 27.0512 32.658 26.2453 32.658 25.2512V18.7238Z" fill="#C3C3FB"/>
  <path fill-rule="evenodd" clip-rule="evenodd" d="M23.8477 12.9441C24.3999 12.9441 24.8477 13.3918 24.8477 13.9441V25.051H28.8375V22.4077C28.8375 21.8554 29.2852 21.4077 29.8375 21.4077C30.3898 21.4077 30.8375 21.8554 30.8375 22.4077V25.251C30.8375 26.2451 30.0316 27.051 29.0375 27.051H24.6477C23.6535 27.051 22.8477 26.2451 22.8477 25.251V13.9441C22.8477 13.3918 23.2954 12.9441 23.8477 12.9441Z" fill="#C3C3FB"/>
</svg>