<svg width="81" height="80" viewBox="0 0 81 80" fill="none" xmlns="http://www.w3.org/2000/svg">
<path fill-rule="evenodd" clip-rule="evenodd" d="M77.1366 56C76.5852 56 76.1366 55.5514 76.1366 55C76.1366 54.4486 76.5852 54 77.1366 54C77.688 54 78.1366 54.4486 78.1366 55C78.1366 55.5514 77.688 56 77.1366 56Z" fill="#E1E1FD"/>
<path fill-rule="evenodd" clip-rule="evenodd" d="M5.1366 60C4.5852 60 4.1366 59.5514 4.1366 59C4.1366 58.4486 4.5852 58 5.1366 58C5.688 58 6.1366 58.4486 6.1366 59C6.1366 59.5514 5.688 60 5.1366 60Z" fill="#E1E1FD"/>
<path fill-rule="evenodd" clip-rule="evenodd" d="M75.1366 22C74.5852 22 74.1366 21.5514 74.1366 21C74.1366 20.4486 74.5852 20 75.1366 20C75.688 20 76.1366 20.4486 76.1366 21C76.1366 21.5514 75.688 22 75.1366 22Z" fill="#E1E1FD"/>
<path fill-rule="evenodd" clip-rule="evenodd" d="M3.1366 26C2.5852 26 2.1366 25.5514 2.1366 25C2.1366 24.4486 2.5852 24 3.1366 24C3.688 24 4.1366 24.4486 4.1366 25C4.1366 25.5514 3.688 26 3.1366 26Z" fill="#E1E1FD"/>
<path fill-rule="evenodd" clip-rule="evenodd" d="M17.1366 8C16.5852 8 16.1366 7.5514 16.1366 7C16.1366 6.44855 16.5852 6 17.1366 6C17.688 6 18.1366 6.44855 18.1366 7C18.1366 7.5514 17.688 8 17.1366 8Z" fill="#E1E1FD"/>
<path fill-rule="evenodd" clip-rule="evenodd" d="M55.1366 48C62.3163 48 68.1366 53.8203 68.1366 61C68.1366 68.1797 62.3163 74 55.1366 74C47.9569 74 42.1366 68.1797 42.1366 61C42.1366 53.8203 47.9569 48 55.1366 48ZM55.1366 50C49.0615 50 44.1366 54.9249 44.1366 61C44.1366 67.0751 49.0615 72 55.1366 72C61.2117 72 66.1366 67.0751 66.1366 61C66.1366 54.9249 61.2117 50 55.1366 50ZM55.1366 54C55.6494 54 56.0721 54.386 56.1299 54.8834L56.1366 55V60H61.1366C61.6889 60 62.1366 60.4477 62.1366 61C62.1366 61.5128 61.7506 61.9355 61.2532 61.9933L61.1366 62H56.1366V67C56.1366 67.5523 55.6889 68 55.1366 68C54.6238 68 54.2011 67.614 54.1433 67.1166L54.1366 67V62H49.1366C48.5843 62 48.1366 61.5523 48.1366 61C48.1366 60.4872 48.5226 60.0645 49.02 60.0067L49.1366 60H54.1366V55C54.1366 54.4477 54.5843 54 55.1366 54ZM43.1366 30C43.6889 30 44.1366 30.4477 44.1366 31C44.1366 31.5128 43.7506 31.9355 43.2532 31.9933L43.1366 32H23.1366C22.5843 32 22.1366 31.5523 22.1366 31C22.1366 30.4872 22.5226 30.0645 23.02 30.0067L23.1366 30H43.1366ZM49.1366 24C49.6889 24 50.1366 24.4477 50.1366 25C50.1366 25.5128 49.7506 25.9355 49.2532 25.9933L49.1366 26H23.1366C22.5843 26 22.1366 25.5523 22.1366 25C22.1366 24.4872 22.5226 24.0645 23.02 24.0067L23.1366 24H49.1366ZM39.1366 18C39.6889 18 40.1366 18.4477 40.1366 19C40.1366 19.5128 39.7506 19.9355 39.2532 19.9933L39.1366 20H23.1366C22.5843 20 22.1366 19.5523 22.1366 19C22.1366 18.4872 22.5226 18.0645 23.02 18.0067L23.1366 18H39.1366Z" fill="#E1E1FD"/>
<path fill-rule="evenodd" clip-rule="evenodd" d="M55.1366 12C55.6494 12 56.0721 12.386 56.1299 12.8834L56.1366 13V45C56.1366 45.5523 55.6889 46 55.1366 46C54.6238 46 54.2011 45.614 54.1433 45.1166L54.1366 45V14H18.1366V66H39.1366C39.6494 66 40.0721 66.386 40.1299 66.8834L40.1366 67C40.1366 67.5128 39.7506 67.9355 39.2532 67.9933L39.1366 68H17.1366C16.6238 68 16.2011 67.614 16.1433 67.1166L16.1366 67V13C16.1366 12.4872 16.5226 12.0645 17.02 12.0067L17.1366 12H55.1366ZM33.1366 60C33.6889 60 34.1366 60.4477 34.1366 61C34.1366 61.5128 33.7506 61.9355 33.2532 61.9933L33.1366 62H23.1366C22.5843 62 22.1366 61.5523 22.1366 61C22.1366 60.4872 22.5226 60.0645 23.02 60.0067L23.1366 60H33.1366ZM37.1366 54C37.6889 54 38.1366 54.4477 38.1366 55C38.1366 55.5128 37.7506 55.9355 37.2532 55.9933L37.1366 56H23.1366C22.5843 56 22.1366 55.5523 22.1366 55C22.1366 54.4872 22.5226 54.0645 23.02 54.0067L23.1366 54H37.1366ZM41.1366 48C41.6889 48 42.1366 48.4477 42.1366 49C42.1366 49.5128 41.7506 49.9355 41.2532 49.9933L41.1366 50H23.1366C22.5843 50 22.1366 49.5523 22.1366 49C22.1366 48.4872 22.5226 48.0645 23.02 48.0067L23.1366 48H41.1366ZM45.1366 42C45.6889 42 46.1366 42.4477 46.1366 43C46.1366 43.5128 45.7506 43.9355 45.2532 43.9933L45.1366 44H23.1366C22.5843 44 22.1366 43.5523 22.1366 43C22.1366 42.4872 22.5226 42.0645 23.02 42.0067L23.1366 42H45.1366ZM49.1366 36C49.6889 36 50.1366 36.4477 50.1366 37C50.1366 37.5128 49.7506 37.9355 49.2532 37.9933L49.1366 38H23.1366C22.5843 38 22.1366 37.5523 22.1366 37C22.1366 36.4872 22.5226 36.0645 23.02 36.0067L23.1366 36H49.1366ZM59.1366 12C59.6494 12 60.0721 12.386 60.1299 12.8834L60.1366 13V45C60.1366 45.5523 59.6889 46 59.1366 46C58.6238 46 58.2011 45.614 58.1433 45.1166L58.1366 45V13C58.1366 12.4477 58.5843 12 59.1366 12Z" fill="#C3C3FB"/>
</svg>
