<svg width="62" height="54" viewBox="0 0 62 54" fill="none" xmlns="http://www.w3.org/2000/svg">
<mask id="mask0_4799_53761" style="mask-type:luminance" maskUnits="userSpaceOnUse" x="0" y="-4" width="62" height="62">
<path d="M0.530396 -3.33326H61.8636V57.9999H0.530396V-3.33326Z" fill="white"/>
</mask>
<g mask="url(#mask0_4799_53761)">
<path d="M31.1971 24.9375C31.8583 24.9375 32.395 25.4742 32.395 26.1354C32.395 26.7966 31.8583 27.3333 31.1971 27.3333C30.5358 27.3333 29.9991 26.7966 29.9991 26.1354C29.9991 25.4742 30.5358 24.9375 31.1971 24.9375Z" fill="#C3C3FB"/>
<path fill-rule="evenodd" clip-rule="evenodd" d="M4.68843 27.2902C4.89786 27.3192 5.10959 27.3333 5.32193 27.3333H26.4052C27.0668 27.3333 27.6031 26.797 27.6031 26.1354C27.6031 25.4738 27.0668 24.9375 26.4052 24.9375H5.32193C5.21499 24.9375 5.11223 24.9303 5.0143 24.9166L5.0039 24.9152C3.8323 24.7622 2.9261 23.7572 2.9261 22.5417C2.9261 21.2183 3.99858 20.1458 5.32193 20.1458H57.0718C58.3952 20.1458 59.4676 21.2183 59.4676 22.5417C59.4676 23.7572 58.5615 24.7622 57.3898 24.9152L57.3794 24.9166C57.2815 24.9303 57.1788 24.9375 57.0718 24.9375H35.9885C35.3269 24.9375 34.7906 25.4738 34.7906 26.1354C34.7906 26.797 35.3269 27.3333 35.9885 27.3333H57.0718C57.2842 27.3333 57.4959 27.3192 57.7054 27.2902C60.0531 26.9809 61.8635 24.9731 61.8635 22.5417C61.8635 19.8951 59.7183 17.75 57.0718 17.75H5.32193C2.6754 17.75 0.530273 19.8951 0.530273 22.5417C0.530273 24.9732 2.34068 26.981 4.68843 27.2902Z" fill="#C3C3FB"/>
<path fill-rule="evenodd" clip-rule="evenodd" d="M3.32238 26.1354C3.32238 25.4738 3.8587 24.9375 4.52029 24.9375C4.68215 24.9375 4.84233 24.9482 5.00197 24.9699C6.52589 25.1752 7.77403 26.3389 8.05629 27.8876L12.1315 50.308C12.2352 50.8774 12.7318 51.2916 13.3106 51.2916H49.0826C49.6613 51.2916 50.158 50.8774 50.2616 50.308L54.3368 27.8882C54.6191 26.339 55.868 25.1747 57.3922 24.9697C57.5516 24.9481 57.7117 24.9375 57.873 24.9375C58.5346 24.9375 59.0709 25.4738 59.0709 26.1354C59.0709 26.797 58.5346 27.3333 57.873 27.3333C57.817 27.3333 57.7644 27.337 57.7137 27.3439L57.7114 27.3442C57.2043 27.4124 56.788 27.801 56.6939 28.317L52.6188 50.7368C52.3077 52.4459 50.8182 53.6874 49.0826 53.6874H13.3106C11.5748 53.6874 10.0855 52.4461 9.77442 50.7371L5.69929 28.3172C5.60503 27.8013 5.18882 27.4124 4.68173 27.3442L4.67966 27.3439C4.62857 27.337 4.57611 27.3333 4.52029 27.3333C3.8587 27.3333 3.32238 26.797 3.32238 26.1354Z" fill="#C3C3FB"/>
<path fill-rule="evenodd" clip-rule="evenodd" d="M50.0819 19.9169C50.617 19.5279 50.7355 18.7788 50.3465 18.2436L39.0905 2.75783C38.1089 1.07501 35.9554 0.483239 34.2439 1.43105L34.2426 1.43176C32.5075 2.3954 31.8831 4.58417 32.8475 6.31928C32.8748 6.36842 32.9055 6.41557 32.9394 6.46039L42.9408 19.671C43.3402 20.1985 44.0915 20.3023 44.619 19.903C45.1464 19.5037 45.2503 18.7523 44.851 18.2249L34.9092 5.09305C34.6351 4.525 34.8491 3.83592 35.4052 3.52661C35.9889 3.20382 36.7173 3.41618 37.0347 3.98913C37.0584 4.03196 37.0848 4.0733 37.1136 4.11291L48.4086 19.6522C48.7976 20.1874 49.5467 20.3059 50.0819 19.9169Z" fill="#C3C3FB"/>
<path fill-rule="evenodd" clip-rule="evenodd" d="M12.3118 19.9169C12.847 20.3059 13.5961 20.1874 13.9851 19.6523L25.2802 4.11291C25.3087 4.07379 25.3347 4.03298 25.3582 3.99071C25.6784 3.41492 26.406 3.20441 26.9887 3.52666C27.5447 3.83605 27.7586 4.5251 27.4845 5.09301L17.5427 18.2249C17.1434 18.7523 17.2472 19.5037 17.7747 19.903C18.3022 20.3023 19.0535 20.1985 19.4529 19.671L29.4542 6.46039C29.4882 6.4156 29.5189 6.36847 29.5462 6.31936C30.5108 4.58414 29.8861 2.39539 28.1512 1.43179L28.1499 1.43102C26.4369 0.482493 24.2868 1.0764 23.3038 2.75719L12.0471 18.2436C11.6582 18.7788 11.7766 19.5279 12.3118 19.9169Z" fill="#C3C3FB"/>
<path fill-rule="evenodd" clip-rule="evenodd" d="M27.6032 44.1041C27.6032 46.0894 29.2116 47.6979 31.1969 47.6979C33.1822 47.6979 34.7907 46.0894 34.7907 44.1041V34.5208C34.7907 33.5288 34.3867 32.6288 33.7378 31.9799C33.089 31.331 32.189 30.9271 31.1969 30.9271C29.2116 30.9271 27.6032 32.5355 27.6032 34.5208V44.1041ZM31.1969 45.302C30.5348 45.302 29.999 44.7662 29.999 44.1041V34.5208C29.999 33.8587 30.5348 33.3229 31.1969 33.3229C31.5274 33.3229 31.8253 33.4556 32.0437 33.674C32.2621 33.8924 32.3948 34.1904 32.3948 34.5208V44.1041C32.3948 44.7662 31.859 45.302 31.1969 45.302Z" fill="#E1E1FD"/>
<path fill-rule="evenodd" clip-rule="evenodd" d="M39.5823 44.1041C39.5823 46.0894 41.1907 47.6979 43.176 47.6979C45.1613 47.6979 46.7698 46.0894 46.7698 44.1041V34.5208C46.7698 33.5288 46.3658 32.6288 45.7169 31.9799C45.0681 31.331 44.1681 30.9271 43.176 30.9271C41.1907 30.9271 39.5823 32.5355 39.5823 34.5208V44.1041ZM43.176 45.302C42.5139 45.302 41.9781 44.7662 41.9781 44.1041V34.5208C41.9781 33.8587 42.5139 33.3229 43.176 33.3229C43.5065 33.3229 43.8044 33.4556 44.0228 33.674C44.2412 33.8924 44.3739 34.1904 44.3739 34.5208V44.1041C44.3739 44.7662 43.8381 45.302 43.176 45.302Z" fill="#E1E1FD"/>
<path fill-rule="evenodd" clip-rule="evenodd" d="M15.624 44.1041C15.624 46.0894 17.2325 47.6979 19.2178 47.6979C21.203 47.6979 22.8115 46.0894 22.8115 44.1041V34.5208C22.8115 33.5288 22.4075 32.6288 21.7587 31.9799C21.1098 31.331 20.2098 30.9271 19.2178 30.9271C17.2325 30.9271 15.624 32.5355 15.624 34.5208V44.1041ZM19.2178 45.302C18.5557 45.302 18.0199 44.7662 18.0199 44.1041V34.5208C18.0199 33.8587 18.5557 33.3229 19.2178 33.3229C19.5482 33.3229 19.8461 33.4556 20.0646 33.674C20.283 33.8924 20.4157 34.1904 20.4157 34.5208V44.1041C20.4157 44.7662 19.8799 45.302 19.2178 45.302Z" fill="#E1E1FD"/>
</g>
</svg>
