<?xml version="1.0" encoding="UTF-8" standalone="no"?><!DOCTYPE svg PUBLIC "-//W3C//DTD SVG 1.1//EN" "http://www.w3.org/Graphics/SVG/1.1/DTD/svg11.dtd"><svg width="100%" height="100%" viewBox="0 0 417 417" version="1.1" xmlns="http://www.w3.org/2000/svg" xmlns:xlink="http://www.w3.org/1999/xlink" xml:space="preserve" xmlns:serif="http://www.serif.com/" style="fill-rule:evenodd;clip-rule:evenodd;stroke-linecap:round;stroke-linejoin:round;stroke-miterlimit:1.5;"><rect id="Artboard6" x="0" y="0" width="416.667" height="416.667" style="fill:none;"/><g id="Artboard61" serif:id="Artboard6"><path d="M336.459,132.842c-0,-22.435 -18.215,-40.649 -40.65,-40.649l-174.952,-0c-22.435,-0 -40.649,18.214 -40.649,40.649l0,81.298c0,22.435 18.214,40.65 40.649,40.65l42.632,-0l-2.745,69.684l41.183,-69.684l93.882,-0c22.435,-0 40.65,-18.215 40.65,-40.65l-0,-81.298Z" style="fill:#fff;stroke:#0d0d0d;stroke-width:8.33px;"/><path d="M208.333,138.142c12.642,-23.673 37.927,-23.673 50.57,-11.837c12.643,11.837 12.643,35.51 -0,59.183c-8.85,17.755 -31.606,35.509 -50.57,47.346c-18.963,-11.837 -41.72,-29.591 -50.569,-47.346c-12.643,-23.673 -12.643,-47.346 -0,-59.183c12.642,-11.836 37.927,-11.836 50.569,11.837Z" style="fill:#00c600;stroke:#0d0d0d;stroke-width:8.33px;"/></g></svg>