<?xml version="1.0" encoding="UTF-8" standalone="no"?><!DOCTYPE svg PUBLIC "-//W3C//DTD SVG 1.1//EN" "http://www.w3.org/Graphics/SVG/1.1/DTD/svg11.dtd"><svg width="100%" height="100%" viewBox="0 0 417 417" version="1.1" xmlns="http://www.w3.org/2000/svg" xmlns:xlink="http://www.w3.org/1999/xlink" xml:space="preserve" xmlns:serif="http://www.serif.com/" style="fill-rule:evenodd;clip-rule:evenodd;stroke-linecap:round;stroke-linejoin:round;stroke-miterlimit:1.5;"><rect id="Artboard1" x="0" y="0" width="416.667" height="416.667" style="fill:none;"/><g id="Artboard11" serif:id="Artboard1"><rect x="149.263" y="55.655" width="213.745" height="283.898" style="fill:none;stroke:#000;stroke-width:8.33px;"/><path d="M151.431,210.494c2.078,-2.078 2.078,-5.452 0,-7.53l-7.529,-7.529c-2.078,-2.078 -5.452,-2.078 -7.529,0l-81.157,81.156c-2.077,2.078 -2.077,5.452 0,7.53l7.53,7.529c2.077,2.078 5.451,2.078 7.529,-0l81.156,-81.156Z" style="fill:#e38c00;stroke:#000;stroke-width:8.33px;"/><rect x="173.776" y="214.896" width="22.359" height="22.359" style="fill:#fff;stroke:#000;stroke-width:8.33px;"/><rect x="173.776" y="252.939" width="22.359" height="22.359" style="fill:#fff;stroke:#000;stroke-width:8.33px;"/><rect x="173.776" y="293.077" width="22.359" height="22.359" style="fill:#fff;stroke:#000;stroke-width:8.33px;"/><circle cx="201.724" cy="150.274" r="73.219" style="fill:#fff;stroke:#000;stroke-width:8.33px;"/><rect x="173.918" y="124.209" width="55.896" height="55.896" style="fill:#fff;stroke:#000;stroke-width:8.33px;"/><path d="M185.464,152.157l16.402,16.661l36.175,-44.609" style="fill:none;stroke:#00c600;stroke-width:8.33px;"/><path d="M211.753,297.758l116.753,-0" style="fill:none;stroke:#0d0d0d;stroke-width:8.33px;"/><path d="M211.753,257.62l116.753,-0" style="fill:none;stroke:#0d0d0d;stroke-width:8.33px;"/><path d="M235.423,216.995l93.083,-0" style="fill:none;stroke:#0d0d0d;stroke-width:8.33px;"/><path d="M268.848,117.712l59.658,-0" style="fill:none;stroke:#0d0d0d;stroke-width:8.33px;"/><path d="M274.943,168.711l53.563,0" style="fill:none;stroke:#0d0d0d;stroke-width:8.33px;"/><path d="M211.753,310.755l63.19,-0" style="fill:none;stroke:#0d0d0d;stroke-width:8.33px;"/><path d="M211.753,270.617l63.19,0" style="fill:none;stroke:#0d0d0d;stroke-width:8.33px;"/><path d="M211.753,229.992l63.19,0" style="fill:none;stroke:#0d0d0d;stroke-width:8.33px;"/><path d="M271.896,130.709l3.047,0" style="fill:none;stroke:#0d0d0d;stroke-width:8.33px;"/><path d="M268.848,181.709l6.095,-0" style="fill:none;stroke:#0d0d0d;stroke-width:8.33px;"/></g></svg>