<svg
  width="282"
  height="260"
  viewBox="0 0 282 260"
  fill="none"
  xmlns="http://www.w3.org/2000/svg"
>
  <path
    fill-rule="evenodd"
    clip-rule="evenodd"
    d="M227.941 31.1506C256.169 43.0344 276.034 71.3457 280.843 100.88C285.652 130.415 275.197 161.173 254.497 183.018C233.796 204.863 202.849 217.97 171.066 226.708C139.074 235.621 106.245 240.165 81.1534 230.903C56.0615 221.64 38.7063 198.397 23.6512 174.804C8.59603 151.386 -4.15902 127.619 1.27756 107.346C6.92323 87.0742 30.5514 70.4719 54.3887 58.0639C78.2261 45.6558 101.854 37.2673 132.174 30.8011C162.493 24.1602 199.504 19.4416 227.941 31.1506Z"
    fill="#F6F6F6"
  />
  <path
    fill-rule="evenodd"
    clip-rule="evenodd"
    d="M195 175C194.173 175 193.5 174.327 193.5 173.5C193.5 172.673 194.173 172 195 172C195.827 172 196.5 172.673 196.5 173.5C196.5 174.327 195.827 175 195 175Z"
    fill="#CACAFB"
  />
  <path
    fill-rule="evenodd"
    clip-rule="evenodd"
    d="M139.5 76C138.673 76 138 75.3271 138 74.5C138 73.6728 138.673 73 139.5 73C140.327 73 141 73.6728 141 74.5C141 75.3271 140.327 76 139.5 76Z"
    fill="#CACAFB"
  />
  <path
    fill-rule="evenodd"
    clip-rule="evenodd"
    d="M87 163C86.1729 163 85.5 162.327 85.5 161.5C85.5 160.673 86.1729 160 87 160C87.8271 160 88.5 160.673 88.5 161.5C88.5 162.327 87.8271 163 87 163Z"
    fill="#CACAFB"
  />
  <path
    fill-rule="evenodd"
    clip-rule="evenodd"
    d="M162.377 134.793L168.203 120.751C168.838 119.22 170.593 118.494 172.123 119.129C172.854 119.432 173.436 120.012 173.741 120.742L179.618 134.787C179.955 135.592 179.925 136.505 179.534 137.286L177.256 141.842C177.182 141.991 177.096 142.132 177 142.264V147.757L179.923 156.526C179.975 156.683 180.001 156.847 180 157.011L179.99 157.176L177.869 175.176C177.787 175.873 177.235 176.412 176.552 176.49L176.379 176.5H165.621C164.919 176.5 164.319 176.015 164.161 175.347L164.131 175.176L163.435 169.269C163.338 168.447 163.927 167.701 164.75 167.604C165.513 167.514 166.211 168.015 166.384 168.746L166.415 168.918L166.955 173.5H175.044L176.97 157.155L174.418 149.5H167.58L164.923 157.475C164.68 158.204 163.93 158.623 163.195 158.469L163.026 158.423C162.296 158.18 161.878 157.43 162.031 156.695L162.077 156.526L165 147.757V142.264C164.904 142.132 164.818 141.991 164.744 141.842L162.465 137.284C162.076 136.505 162.044 135.596 162.377 134.793ZM168 143.5V146.5H174V143.5H168ZM169.5 125.452L165.148 135.942L167.427 140.5H174.573L176.851 135.945L172.5 125.548V133C172.5 133.829 171.828 134.5 171 134.5C170.231 134.5 169.597 133.921 169.51 133.175L169.5 133V125.452Z"
    fill="#6A6AF4"
  />
  <path
    d="M151.5 149.5C154.328 149.5 156 151.172 156 154C156 154.123 155.985 154.245 155.955 154.364C155.197 157.396 151.827 159.367 145.812 160.453L144.841 160.617C144.51 160.67 144.171 160.72 143.825 160.767L142.766 160.902C142.585 160.924 142.403 160.945 142.219 160.965L141.094 161.079L139.924 161.179L138.71 161.265L137.452 161.338C137.239 161.348 137.024 161.359 136.807 161.369L135.483 161.421L134.114 161.46L132.702 161.486L130.5 161.5C129.672 161.5 129 160.829 129 160C129 159.172 129.672 158.5 130.5 158.5L131.925 158.494C132.159 158.492 132.39 158.489 132.62 158.486L133.976 158.46L135.286 158.422L136.55 158.371L137.767 158.308L138.938 158.233L140.063 158.147L141.142 158.049C141.318 158.031 141.492 158.013 141.664 157.995L142.673 157.88C143.166 157.819 143.642 157.755 144.1 157.686L144.993 157.543L145.84 157.39L146.64 157.226C150.267 156.436 152.374 155.311 152.946 153.935L152.995 153.798L152.986 153.621C152.916 152.814 152.583 152.537 151.698 152.504L151.5 152.5C149.942 152.5 148.301 153.321 146.561 155.061C145.657 155.965 144.139 155.392 144.009 154.171L144 154C144 152.829 143.672 152.5 142.5 152.5C140.942 152.5 139.301 153.321 137.561 155.061C136.975 155.647 136.025 155.647 135.439 155.061C134.854 154.475 134.854 153.525 135.439 152.94C137.699 150.68 140.058 149.5 142.5 149.5C144.217 149.5 145.508 150.116 146.257 151.234L146.316 151.329L146.609 151.125C148.075 150.135 149.578 149.588 151.115 149.51L151.5 149.5Z"
    fill="#6A6AF4"
  />
  <path
    d="M164.99 87.8251C164.903 87.0791 164.269 86.5 163.5 86.5H106.5L106.325 86.5101C105.579 86.5967 105 87.2307 105 88V169L105.01 169.175C105.097 169.921 105.731 170.5 106.5 170.5H154.5L154.675 170.49C155.421 170.403 156 169.769 156 169L155.99 168.825C155.903 168.079 155.269 167.5 154.5 167.5H108V89.5H162V118L162.01 118.175C162.097 118.921 162.731 119.5 163.5 119.5C164.328 119.5 165 118.828 165 118V88L164.99 87.8251Z"
    fill="#000091"
  />
  <path
    d="M141 97C141 96.1716 140.328 95.5 139.5 95.5H115.5L115.325 95.5101C114.579 95.5967 114 96.2307 114 97C114 97.8284 114.672 98.5 115.5 98.5H139.5L139.675 98.4899C140.421 98.4033 141 97.7693 141 97Z"
    fill="#000091"
  />
  <path
    d="M154.5 104.5C155.328 104.5 156 105.172 156 106C156 106.769 155.421 107.403 154.675 107.49L154.5 107.5H115.5C114.672 107.5 114 106.828 114 106C114 105.231 114.579 104.597 115.325 104.51L115.5 104.5H154.5Z"
    fill="#000091"
  />
  <path
    d="M147 115C147 114.172 146.328 113.5 145.5 113.5H115.5L115.325 113.51C114.579 113.597 114 114.231 114 115C114 115.828 114.672 116.5 115.5 116.5H145.5L145.675 116.49C146.421 116.403 147 115.769 147 115Z"
    fill="#000091"
  />
  <path
    d="M154.5 122.5C155.328 122.5 156 123.172 156 124C156 124.769 155.421 125.403 154.675 125.49L154.5 125.5H115.5C114.672 125.5 114 124.828 114 124C114 123.231 114.579 122.597 115.325 122.51L115.5 122.5H154.5Z"
    fill="#000091"
  />
  <path
    d="M170.99 99.8251C170.903 99.0791 170.269 98.5 169.5 98.5C168.672 98.5 168 99.1716 168 100V112L168.01 112.175C168.097 112.921 168.731 113.5 169.5 113.5C170.328 113.5 171 112.828 171 112V100L170.99 99.8251Z"
    fill="#000091"
  />
  <path
    d="M157.5 173.5C158.328 173.5 159 174.172 159 175C159 175.769 158.421 176.403 157.675 176.49L157.5 176.5H118.5C117.672 176.5 117 175.828 117 175C117 174.231 117.579 173.597 118.325 173.51L118.5 173.5H157.5Z"
    fill="#000091"
  />
  <path
    d="M147 133C147 132.172 146.328 131.5 145.5 131.5H115.5L115.325 131.51C114.579 131.597 114 132.231 114 133C114 133.828 114.672 134.5 115.5 134.5H145.5L145.675 134.49C146.421 134.403 147 133.769 147 133Z"
    fill="#000091"
  />
</svg>
