<svg id="Calque_1" data-name="Calque 1" xmlns="http://www.w3.org/2000/svg" viewBox="0 0 228.13 260.38"><defs><style>.cls-1{fill:#004899;}.cls-2{fill:#fff;}.cls-3{fill:#80a4cc;}.cls-4{fill:#e3211b;}</style></defs><title>LogoAdeme2020_RVB</title><path class="cls-1" d="M204.24,236.49H23.89V23.89H204.24Z"/><rect class="cls-2" x="27.9" y="27.9" width="172.32" height="204.58"/><path class="cls-3" d="M78.64,143.35a42.76,42.76,0,1,0-6.78-28.59,41.81,41.81,0,0,0-.3,5,42.53,42.53,0,0,0,7.08,23.56"/><path class="cls-1" d="M100.45,105.89l2.28.36-.78,1.5-2-1.08Zm9.17-5-1.91,1.68v1.14l3,.75,6.05-4.11-.16-1.67-2.4-.83Zm.94-4.51-.55,0L109,98.29l-1.64.13-1.87,2.7,1,.64,2.52-1.6,1.93-2.06Zm3.4-5.3-3.87,3.08,1.38,1L114.56,92ZM84.21,108.27l1.34.17.42-3.17v-1l-.24-1-.69-.06Zm.71,2.09.43.67.81.12.37-1.64-1.34-.32ZM85.7,112l.13.87h.83l-.11-.94Zm.47,1.87.23.56.7-.31s-.19-.52-.21-.52Zm.42,1.6.6-.22-.23-.51s-.34.29-.33.33l0,.4M115,113s-1.09,2.65-1.09,2.67,1.71.16,1.71.17l.41-2.18-.3-.22.2-.75-.86-.47-.27.56Zm-2.51,1.84.93.26.28-.87-.66-.15Zm20.06,33.63-1.35.78-1.72.36-3.78,3.72.23.83.55-.08,2.16-.93a12.25,12.25,0,0,0,3.25-2.22,8.56,8.56,0,0,0,1.63-2.26Zm-1,5.19-.46-.51s-.72.43-.72.43.54.55.53.55l.65-.47m-14.33-32.19-.53-.07,0,1,.54.1.32-1.3-.17-.07Zm-31.92-5.6.19.81.77-.25-.25-.82Zm-6.66,27.51,3-2.45,2.43.62,6.49-4.89.31-2.6-4.26-6.22a55,55,0,0,0-1.17-6.89c-.44-1.52-1.43-5.94-1.47-6l-.56-1.13-4.06-6.09,2.63-6.58L84,101l.13-1-1.56-1.3,0-.28,0-1.23c0-.84,1.42-1.69,2.37-1.69a2.81,2.81,0,0,1,.79.12,6.57,6.57,0,0,1,1.86,1.14c.1.07,1.86,4.19,1.86,4.19l-1.49,1.21-.74,1.8,1,.81,1.43-2.47,5.92,2,3.62,2.06,1.1-1.2,3,.25,2.22-3-2-.76,2.11-2.54-.25-.86-3.22-.62L104.61,95,107,96.56l0,.69,1.51.18L109.7,95l-.89-.79,3.76-3.62L116,89l2.65-1.74.52-.41.1-1.86-.45-1.32-1.17-.46,1.5-1.18-.41-.22a14.62,14.62,0,0,1-7.55,2.61c-3,.2-8.94-1.11-8.94-1.11l-5.94-.89-2.08-.37A43,43,0,0,0,81.15,92.81L81,98.42,80.08,101,78,108.4l.69,2.09-3.37.48-3.41,3.79a44,44,0,0,0-.29,5,42.53,42.53,0,0,0,7.08,23.56m58.1-59.94A42.79,42.79,0,0,1,156.52,113h0l-3.34,2.86-2.13-.51-1,.88.07.59c0,.28.16.83.37,1.66a21.12,21.12,0,0,1,.64,5,12,12,0,0,1-.41,3.54h-1.82L143.78,123l-3.9.88-2.52-.43-3.19,1,1.44,1.24,2.51-.71,2.16,1.73-.34.76-.89,1.45-1.92,2.74-3,2.39-5.47-5.68-1.42.15,5.84,6.7,2.37-.48.59,1.21-2.38,3.9-4.64,4.43L127,149.51a1.2,1.2,0,0,1-.6.46,9.78,9.78,0,0,0-2.33,1.72c-1.12,1.05-1.74,1.63-1.88,1.74a32.81,32.81,0,0,1-3.32,2.53,37.66,37.66,0,0,1-3.83,2.27,16,16,0,0,1-7,1.77,14.05,14.05,0,0,1-4.49-.75c-.2-.07-.33-.17-.33-.26l1-2.86a33.8,33.8,0,0,1,2.51-2.87,8.52,8.52,0,0,0,1.75-3.17,23.09,23.09,0,0,1,1.29-3.48c.93-1.5,1.37-2.78,1.06-3.09l-6.06-6.09-2.54-4.73.27-1.12a24.69,24.69,0,0,1,2-4.4,4.64,4.64,0,0,1,1.74-2.15l4.06-2,7.87,1.19,2.4,1.6,1.12-.14,4.81,1.25,1.2-3.13-6.11-1.72-2.16-2.15-.3.08,1,2.55-1.22.25-.13-.3.43-.08s-.37-1.57-1.32-2a2,2,0,0,0-.91-.31,2.83,2.83,0,0,0-1.62.66,11.35,11.35,0,0,1-2.48,2l-2.51-1.89.93-2.34.39.09a2.76,2.76,0,0,0,.71.08,1.31,1.31,0,0,0,1.37-.91.8.8,0,0,0-.27-.83s-.24-.27-.24-.27a2.8,2.8,0,0,0,.35-.41,9.82,9.82,0,0,0,1.5.28,2.1,2.1,0,0,0,1.53-.39l.6-1,1-.29.18-1.35.63,0a3.56,3.56,0,0,1,.5,1.14l1.77-.46.52-1.81-.28-.32.77-1.74-.67-.47-1.14,3.2-.62.08-.28-.71-1.59.12-.89-1.43,1.93-2,1.89-2.53,2.67.84.65,1.32.81,0-.3-1.92,2.18-2-1.45-6.57.93-2.07,1,.06.15-1.62-7-7.61.23-2.06,5.75-1.31.83.25,3.27-.32.76.34,5.28-.52Zm-.1,1.27L130,86.11l4.62,2.66L136.13,87,138,85.74Z"/><path class="cls-4" d="M66.21,63.76,65.1,60.2H57.75l-1.17,3.56H50.44l8.69-23.9h4.53l8.68,23.9ZM61.54,48.92,59.4,55.3h4.16Z"/><path class="cls-4" d="M94.32,61.41a8.9,8.9,0,0,1-6.44,2.35H79V39.86h8.85a8.9,8.9,0,0,1,6.44,2.35c2.79,2.79,2.48,5.84,2.48,9.6S97.11,58.62,94.32,61.41Zm-4-15a3.06,3.06,0,0,0-2.82-1.34H84.9V58.52h2.58a3.06,3.06,0,0,0,2.82-1.34c.47-.67.63-1.31.63-5.37S90.77,47.11,90.3,46.44Z"/><path class="cls-4" d="M104.78,63.76V39.86H121V45.1H110.65v4h8.85v5.24h-8.85v4.19H121v5.24Z"/><path class="cls-4" d="M145.55,63.76V52.31l-3.39,5.91H138.4L135,52.31V63.76h-5.86V39.86h5.76l5.37,10.54,5.37-10.54h5.76v23.9Z"/><path class="cls-4" d="M160.12,63.76V39.86h16.23V45.1H166v4h8.85v5.24H166v4.19h10.36v5.24Z"/><path class="cls-4" d="M55.2,176l-3.8,10.46h2.48l.52-1.6h3.48l.5,1.6h2.48L57.05,176Zm-.14,6.92,1.14-3.39,1.07,3.39Z"/><path class="cls-4" d="M67.64,186.52a3.83,3.83,0,0,0,3-1.17h0c.76-.77,1-1.72,1-3.47v-1.37H67.76v2h1.58v.27A1.77,1.77,0,0,1,68.9,184a1.67,1.67,0,0,1-1.26.45,1.4,1.4,0,0,1-1.14-.5c-.25-.33-.42-.7-.42-2.72s.17-2.38.42-2.71a1.43,1.43,0,0,1,1.14-.51,1.49,1.49,0,0,1,1.63,1.2h2.4a4.13,4.13,0,0,0-6.92-2.13c-1,1-1,2.47-1,4v.36c0,1.5,0,2.92,1,4A3.82,3.82,0,0,0,67.64,186.52Z"/><polygon class="cls-4" points="78.11 182.2 82.08 182.2 82.08 180.11 78.11 180.11 78.11 178.07 82.76 178.07 82.76 175.97 75.73 175.97 75.73 186.43 82.76 186.43 82.76 184.33 78.11 184.33 78.11 182.2"/><polygon class="cls-4" points="94.94 186.43 94.94 175.97 92.55 175.97 92.55 181.66 88.93 175.97 86.83 175.97 86.83 186.43 89.21 186.43 89.21 180.74 92.83 186.43 94.94 186.43"/><path class="cls-4" d="M104.37,183.28a1.41,1.41,0,0,1-1.46,1.14,1.4,1.4,0,0,1-1.14-.5c-.25-.33-.43-.72-.43-2.72s.18-2.39.43-2.72a1.4,1.4,0,0,1,1.14-.5,1.41,1.41,0,0,1,1.46,1.14h2.43a3.71,3.71,0,0,0-3.91-3.24,3.81,3.81,0,0,0-2.88,1.17c-1.05,1-1.05,2.47-1.05,4v.36c0,1.5,0,2.92,1.05,4a3.81,3.81,0,0,0,2.88,1.17,3.71,3.71,0,0,0,3.91-3.24Z"/><polygon class="cls-4" points="112.8 182.2 116.77 182.2 116.77 180.11 112.8 180.11 112.8 178.07 117.44 178.07 117.44 175.97 110.42 175.97 110.42 186.43 117.44 186.43 117.44 184.33 112.8 184.33 112.8 182.2"/><path class="cls-4" d="M136.08,181.66v-.91c0-1.49,0-2.66-1.08-3.76a3.87,3.87,0,0,0-2.8-1h-3.84v10.45h3.84a3.83,3.83,0,0,0,2.8-1C136.1,184.32,136.09,183.14,136.08,181.66Zm-2.69,2a1.5,1.5,0,0,1-1.37.66h-1.28v-6.27H132a1.5,1.5,0,0,1,1.37.66c.24.34.3.71.3,2.47S133.62,183.36,133.39,183.68Z"/><polygon class="cls-4" points="142.48 182.21 146.45 182.21 146.45 180.11 142.48 180.11 142.48 178.07 147.13 178.07 147.13 175.98 140.1 175.98 140.1 186.43 147.13 186.43 147.13 184.34 142.48 184.34 142.48 182.21"/><polygon class="cls-4" points="160.43 175.97 158.05 175.97 158.05 186.43 164.92 186.43 164.92 184.33 160.43 184.33 160.43 175.97"/><path class="cls-4" d="M174.21,186.43h2.48L172.88,176H171l-3.8,10.46h2.48l.53-1.6h3.47Zm-3.32-3.54L172,179.5l1.07,3.39Z"/><polygon class="cls-4" points="54.43 203.47 56.81 203.47 56.81 195.11 59.45 195.11 59.45 193.01 51.79 193.01 51.79 195.11 54.43 195.11 54.43 203.47"/><path class="cls-4" d="M71.64,199a3,3,0,0,0,1.67-2.69A3.31,3.31,0,0,0,69.78,193H65.66v10.46h2.39v-4h1.09l1.9,4h2.77l-2.29-4.4Zm-2-1.48H68.05v-2.42h1.61a1.21,1.21,0,1,1,0,2.42Z"/><path class="cls-4" d="M82.68,193l-3.81,10.46h2.49l.53-1.6h3.48l.49,1.6h2.49L84.54,193Zm-.14,6.92,1.14-3.39,1.07,3.39Z"/><polygon class="cls-4" points="94.16 193.01 94.16 203.47 96.55 203.47 96.55 197.78 100.17 203.47 102.28 203.47 102.28 193.01 99.9 193.01 99.9 198.7 96.27 193.01 94.16 193.01"/><path class="cls-4" d="M113.27,197.21,112,197a1.35,1.35,0,0,1-.81-.35.88.88,0,0,1-.25-.59c0-.54.45-1.12,1.42-1.12h.09a2.78,2.78,0,0,1,1.94.58l1.49-1.47a4.68,4.68,0,0,0-3.44-1.16c-2.27,0-3.79,1.31-3.79,3.26a2.87,2.87,0,0,0,.7,2.06,3.47,3.47,0,0,0,2.08.91l1.3.18a1.41,1.41,0,0,1,.78.32,1,1,0,0,1,.24.72c0,.5-.28,1.09-1.66,1.09a3.89,3.89,0,0,1-2.39-.7l-1.51,1.51a5.14,5.14,0,0,0,3.89,1.29c2,0,4-1,4-3.24a3,3,0,0,0-.76-2.26A3.48,3.48,0,0,0,113.27,197.21Z"/><rect class="cls-4" x="122.48" y="193.01" width="2.38" height="10.45"/><polygon class="cls-4" points="133.72 203.47 136.1 203.47 136.1 195.11 138.73 195.11 138.73 193.01 131.08 193.01 131.08 195.11 133.72 195.11 133.72 203.47"/><rect class="cls-4" x="144.95" y="193.01" width="2.38" height="10.45"/><path class="cls-4" d="M161.74,198.06c0-1.5,0-2.92-1.05-4a4.19,4.19,0,0,0-5.81,0c-1,1-1,2.47-1,4v.36c0,1.5,0,2.92,1,4a4.19,4.19,0,0,0,5.81,0c1.05-1,1.05-2.47,1.05-4Zm-2.8,2.87a1.52,1.52,0,0,1-2.31,0c-.26-.34-.42-.69-.42-2.69s.17-2.38.42-2.71a1.56,1.56,0,0,1,2.31,0c.25.33.42.7.42,2.71S159.2,200.59,158.94,200.93Z"/><polygon class="cls-4" points="176.36 203.47 176.36 193.01 173.97 193.01 173.97 198.7 170.35 193.01 168.24 193.01 168.24 203.47 170.62 203.47 170.62 197.78 174.25 203.47 176.36 203.47"/><polygon class="cls-4" points="54.19 216.29 58.18 216.29 58.18 214.19 54.19 214.19 54.19 212.14 58.86 212.14 58.86 210.04 51.8 210.04 51.8 220.53 58.86 220.53 58.86 218.43 54.19 218.43 54.19 216.29"/><polygon class="cls-4" points="55.2 206.27 54.53 208.73 55.79 208.73 57.41 206.27 55.2 206.27"/><path class="cls-4" d="M70.21,213.2h2.44A3.73,3.73,0,0,0,68.73,210a3.85,3.85,0,0,0-2.9,1.17c-1,1-1,2.48-1,4v.35c0,1.51,0,2.94,1,4a3.85,3.85,0,0,0,2.9,1.17,3.73,3.73,0,0,0,3.92-3.25H70.21a1.42,1.42,0,0,1-1.47,1.15,1.41,1.41,0,0,1-1.14-.5c-.25-.34-.43-.73-.43-2.73s.18-2.4.43-2.74a1.44,1.44,0,0,1,1.14-.5A1.42,1.42,0,0,1,70.21,213.2Z"/><path class="cls-4" d="M82.08,210a3.79,3.79,0,0,0-2.91,1.17c-1.06,1-1.06,2.48-1,4v.35c0,1.51,0,2.94,1,4a4.2,4.2,0,0,0,5.82,0h0c1.06-1,1.05-2.47,1.05-4v-.37c0-1.5,0-2.93-1.05-4A3.79,3.79,0,0,0,82.08,210Zm1.16,8a1.53,1.53,0,0,1-2.32,0c-.26-.34-.41-.69-.41-2.7s.15-2.38.41-2.72a1.55,1.55,0,0,1,2.32,0c.26.34.41.69.41,2.72S83.5,217.65,83.24,218Z"/><polygon class="cls-4" points="94.66 210.04 92.27 210.04 92.27 220.53 99.17 220.53 99.17 218.43 94.66 218.43 94.66 210.04"/><path class="cls-4" d="M108.33,210a3.82,3.82,0,0,0-2.91,1.17c-1,1-1,2.48-1,4v.35c0,1.51,0,2.94,1,4a4.22,4.22,0,0,0,5.83,0h0c1-1,1-2.48,1-4v-.35c0-1.51,0-2.94-1-4A3.83,3.83,0,0,0,108.33,210Zm1.16,8a1.52,1.52,0,0,1-2.31,0c-.26-.34-.42-.7-.42-2.7s.16-2.39.42-2.72a1.44,1.44,0,0,1,1.15-.52,1.46,1.46,0,0,1,1.16.52c.26.34.42.69.42,2.72S109.75,217.65,109.49,218Z"/><path class="cls-4" d="M123.76,213.26h2.41a4.15,4.15,0,0,0-7-2.14c-1,1-1,2.48-1,4v.35c0,1.51,0,2.94,1,4a4.35,4.35,0,0,0,5.94,0h0c.76-.78,1-1.72,1-3.48V214.6h-4v2h1.58v.28a1.56,1.56,0,0,1-1.71,1.69A1.41,1.41,0,0,1,121,218c-.25-.33-.42-.7-.42-2.73s.17-2.39.42-2.72a1.42,1.42,0,0,1,1.14-.52A1.49,1.49,0,0,1,123.76,213.26Z"/><rect class="cls-4" x="132.43" y="210.04" width="2.39" height="10.49"/><path class="cls-4" d="M148.38,218.89a6.32,6.32,0,0,0,.59-3.43v-.35c0-1.51,0-2.94-1.05-4a4.2,4.2,0,0,0-5.82,0c-1,1-1,2.48-1,4v.35c0,1.51,0,2.94,1,4a3.82,3.82,0,0,0,2.91,1.17,4,4,0,0,0,2-.48l.08,0,.81.81,1.17-1.16-.77-.77Zm-1.86-2,0,.27-.61-.62-1.17,1.17.76.76-.23,0a1,1,0,0,1-.24,0,1.46,1.46,0,0,1-1.15-.53c-.26-.34-.42-.7-.42-2.7s.16-2.39.42-2.72a1.44,1.44,0,0,1,1.15-.52,1.46,1.46,0,0,1,1.16.52c.25.33.41.7.41,2.72C146.58,216.06,146.55,216.57,146.52,216.88Z"/><path class="cls-4" d="M157.41,216.83V210H155v6.85a4,4,0,0,0,7.9,0V210h-2.39v6.79a1.52,1.52,0,0,1-1.58,1.69A1.5,1.5,0,0,1,157.41,216.83Z"/><polygon class="cls-4" points="171.7 216.29 175.68 216.29 175.68 214.19 171.7 214.19 171.7 212.14 176.36 212.14 176.36 210.04 169.31 210.04 169.31 220.53 176.36 220.53 176.36 218.43 171.7 218.43 171.7 216.29"/></svg>