<?xml version="1.0" encoding="UTF-8" standalone="no"?><!DOCTYPE svg PUBLIC "-//W3C//DTD SVG 1.1//EN" "http://www.w3.org/Graphics/SVG/1.1/DTD/svg11.dtd"><svg width="100%" height="100%" viewBox="0 0 64 64" version="1.1" xmlns="http://www.w3.org/2000/svg" xmlns:xlink="http://www.w3.org/1999/xlink" xml:space="preserve" xmlns:serif="http://www.serif.com/" style="fill-rule:evenodd;clip-rule:evenodd;stroke-linejoin:round;stroke-miterlimit:2;"><rect id="Artboard1" x="0" y="0" width="64" height="64" style="fill:none;"/><g id="Artboard11" serif:id="Artboard1"><g><rect x="5.316" y="39.07" width="53.369" height="0.197" style="fill:#0054a6;fill-rule:nonzero;"/><path d="M51.332,39.065l-38.662,0c0.021,-0.42 0.057,-0.837 0.104,-1.25c0.44,-3.746 1.947,-7.162 4.21,-9.942c1.118,-1.37 2.415,-2.582 3.86,-3.602c0.655,-0.466 1.341,-0.89 2.055,-1.271c2.712,-1.447 5.812,-2.267 9.101,-2.267c3.729,0 7.208,1.053 10.162,2.879c0,-0 0.002,-0 0.002,0.002c3.813,2.357 6.748,6.001 8.195,10.325c0.335,0.998 0.591,2.032 0.759,3.094c0.106,0.667 0.178,1.345 0.214,2.032Z" style="fill:#8393ca;fill-rule:nonzero;"/><path d="M25.726,33.795l-0.208,0.354l0.884,0.49l0.354,-0.68l-1.03,-0.164Zm7.325,-3.26l-1.085,-0.375l-2.091,1.375l-0.863,0.762l-0,0.517l1.375,0.339l2.738,-1.86l-0.074,-0.758Zm-2.749,-1.039l-0.248,-0.01l-0.478,0.868l-0.744,0.058l-0.848,1.224l0.462,0.291l1.143,-0.727l0.873,-0.934l-0.16,-0.77Zm1.543,-2.402l-1.752,1.396l0.621,0.449l1.4,-1.426l-0.269,-0.419Zm-12.781,5.551l-0.313,-0.025l-0.38,2.256l0.607,0.074l0.19,-1.436l0.002,-0.431l-0.106,-0.438Zm-0.248,2.644l-0.123,0.532l0.191,0.303l0.369,0.055l0.165,-0.744l-0.602,-0.146Zm0.613,1.233l-0.384,0.032l0.06,0.396l0.373,-0.002l-0.049,-0.426Zm0.154,0.759l-0.326,0.119l0.106,0.256l0.314,-0.142c0,-0 -0.085,-0.233 -0.094,-0.233Zm0.032,0.517c-0,0 -0.15,0.129 -0.15,0.146l-0.017,0.184c0.008,-0 0.271,-0.103 0.271,-0.103l-0.104,-0.227Zm13.027,-0.596l0.091,-0.339l-0.39,-0.212l-0.125,0.253l0.091,0.099c0,-0 -0.492,1.202 -0.492,1.208c-0,-0 0.776,0.074 0.776,0.079l0.184,-0.988l-0.135,-0.1Zm-1.221,0.289l-0.25,0.345l0.422,0.119l0.127,-0.394l-0.299,-0.07Zm-12.238,0.694l-0.318,0.119l0.085,0.367l0.349,-0.115l-0.116,-0.371Zm14.853,-14.45l-0.532,-0.205l0.682,-0.534l-0.188,-0.1c-0.454,0.303 -1.534,1.043 -3.416,1.178c-1.341,0.094 -4.053,-0.502 -4.053,-0.502l-2.689,-0.404l-0.939,-0.164c-0.536,0.286 -1.057,0.594 -1.559,0.926c-0.169,0.112 -0.335,0.225 -0.498,0.341c-1.445,1.02 -2.742,2.232 -3.86,3.602l-0.079,2.539l-0.405,1.161l-0.965,3.362l0.311,0.947l-1.528,0.217l-1.542,1.716c-0.047,0.413 -0.081,0.83 -0.102,1.25l5.846,0c-0.147,-0.621 -0.274,-1.172 -0.284,-1.193l-0.254,-0.511l-1.837,-2.758l1.193,-2.982l0.949,-0.042l0.057,-0.438l-0.703,-0.589l-0.02,-0.125l-0.023,-0.558c-0,-0.381 0.644,-0.763 1.072,-0.763c0.113,-0 0.236,0.017 0.361,0.053c0.3,0.081 0.584,0.329 0.839,0.515c0.048,0.034 0.847,1.901 0.847,1.901l-0.678,0.544l-0.333,0.818l0.464,0.363l0.646,-1.115l2.677,0.899l1.644,0.934l0.496,-0.543l1.381,0.113l1.007,-1.371l-0.912,-0.346l0.956,-1.152l-0.114,-0.386l-1.458,-0.282l1.118,-1.171l1.06,0.691l-0.023,0.311l0.686,0.085l0.579,-1.1l-0.405,-0.356l1.708,-1.64l1.542,-0.722l1.202,-0.786l0.231,-0.183l0.05,-0.845l-0.205,-0.6Zm7.848,1.484l-0.704,0.822l-2.093,-1.204l3.032,-0.646l0.621,0.481l-0.856,0.547Zm8.475,8.72c-0.046,-0.135 -0.093,-0.269 -0.14,-0.404c-0.144,-0.401 -0.303,-0.795 -0.472,-1.183c-0.17,-0.391 -0.352,-0.771 -0.545,-1.146c-0.131,-0.25 -0.265,-0.496 -0.404,-0.741c-0.979,-1.702 -2.208,-3.242 -3.64,-4.569c-0.306,-0.284 -0.623,-0.559 -0.947,-0.824c-0.649,-0.529 -1.333,-1.015 -2.047,-1.457l0,-0.001l-2.391,0.236l-0.343,-0.153l-1.483,0.144l-0.373,-0.112l-2.606,0.593l-0.1,0.932l3.147,3.448l-0.064,0.735l-0.478,-0.028l-0.422,0.935l0.657,2.977l-0.986,0.926l0.134,0.869l-0.367,0.01l-0.296,-0.597l-1.206,-0.378l-0.854,1.145l-0.877,0.904l0.403,0.649l0.724,-0.055l0.123,0.324l0.284,-0.036l0.513,-1.452l0.303,0.216l-0.35,0.786l0.128,0.145l-0.236,0.82l-0.799,0.207c-0.067,-0.294 -0.226,-0.515 -0.226,-0.515l-0.286,-0.019l-0.081,0.611l-0.462,0.131l-0.275,0.434c-0.117,0.129 -0.399,0.195 -0.689,0.178c-0.248,-0.015 -0.684,-0.125 -0.684,-0.125c0,0.011 -0.144,0.184 -0.155,0.184c-0,-0 0.108,0.107 0.108,0.121c-0,-0 0.123,0.087 0.132,0.261l16.545,0c-0.031,-0.136 -0.05,-0.239 -0.057,-0.303l-0.032,-0.267l0.45,-0.4l0.968,0.23l1.511,-1.296l0.002,0.004c-0.168,-1.062 -0.424,-2.096 -0.759,-3.094Z" style="fill:#0054a6;fill-rule:nonzero;"/></g></g></svg>