<?xml version="1.0" encoding="UTF-8" standalone="no"?><!DOCTYPE svg PUBLIC "-//W3C//DTD SVG 1.1//EN" "http://www.w3.org/Graphics/SVG/1.1/DTD/svg11.dtd"><svg width="100%" height="100%" viewBox="0 0 417 417" version="1.1" xmlns="http://www.w3.org/2000/svg" xmlns:xlink="http://www.w3.org/1999/xlink" xml:space="preserve" xmlns:serif="http://www.serif.com/" style="fill-rule:evenodd;clip-rule:evenodd;stroke-linecap:round;stroke-linejoin:round;stroke-miterlimit:1.5;"><rect id="Artboard3" x="0" y="0" width="416.667" height="416.667" style="fill:none;"/><g id="Artboard31" serif:id="Artboard3"><circle cx="289.178" cy="155.652" r="30.91" style="fill:none;stroke:#0d0d0d;stroke-width:8.33px;"/><circle cx="122.571" cy="155.652" r="30.91" style="fill:none;stroke:#0d0d0d;stroke-width:8.33px;"/><path d="M332.658,218.466c-0,-11.999 -9.741,-21.74 -21.74,-21.74l-43.479,-0c-11.999,-0 -21.74,9.741 -21.74,21.74l0,69.826c0,11.999 86.959,11.999 86.959,0l-0,-69.826Z" style="fill:none;stroke:#0d0d0d;stroke-width:8.33px;"/><path d="M166.051,218.466c-0,-11.999 -9.741,-21.74 -21.74,-21.74l-43.479,-0c-11.999,-0 -21.74,9.741 -21.74,21.74l0,69.826c0,11.999 86.959,11.999 86.959,0l-0,-69.826Z" style="fill:none;stroke:#0d0d0d;stroke-width:8.33px;"/><path d="M268.56,175.285c0,0 7.719,2.616 15.882,-6.467" style="fill:none;stroke:#0d0d0d;stroke-width:8.33px;"/><path d="M146.206,175.285c-0,0 -7.718,2.616 -15.882,-6.467" style="fill:none;stroke:#0d0d0d;stroke-width:8.33px;"/><path d="M227.306,163.134l12.5,12.5l-12.5,12.5" style="fill:none;stroke:#0d0d0d;stroke-width:8.33px;stroke-linejoin:miter;stroke-miterlimit:10;"/><path d="M166.051,175.634l73.755,0" style="fill:none;stroke:#0d0d0d;stroke-width:8.33px;"/><path d="M184.443,153.642l-12.5,-12.5l12.5,-12.5" style="fill:none;stroke:#0d0d0d;stroke-width:8.33px;stroke-linejoin:miter;stroke-miterlimit:10;"/><path d="M245.699,141.142l-73.756,-0" style="fill:none;stroke:#0d0d0d;stroke-width:8.33px;"/><circle cx="205.087" cy="80.064" r="26.58" style="fill:#fff;stroke:#000;stroke-width:8.33px;"/><path d="M190.035,82.195l13.479,13.692l29.729,-36.66" style="fill:none;stroke:#00c600;stroke-width:8.33px;"/></g></svg>