<?xml version="1.0" encoding="UTF-8" standalone="no"?><!DOCTYPE svg PUBLIC "-//W3C//DTD SVG 1.1//EN" "http://www.w3.org/Graphics/SVG/1.1/DTD/svg11.dtd"><svg width="100%" height="100%" viewBox="0 0 417 417" version="1.1" xmlns="http://www.w3.org/2000/svg" xmlns:xlink="http://www.w3.org/1999/xlink" xml:space="preserve" xmlns:serif="http://www.serif.com/" style="fill-rule:evenodd;clip-rule:evenodd;stroke-linecap:round;stroke-linejoin:round;stroke-miterlimit:1.5;"><rect id="Artboard5" x="0" y="0" width="416.667" height="416.667" style="fill:none;"/><g id="Artboard51" serif:id="Artboard5"><path d="M248.737,134.49l-101.781,-0l0,214.224c33.927,-32.344 67.854,-33.37 101.781,0l-0,-214.224Z" style="fill:#fff;stroke:#000;stroke-width:8.33px;"/><path d="M204.034,44.164l51.877,21.488l-6.188,14.938l14.938,-6.188l21.488,51.876l-14.938,6.188l14.938,6.188l-21.488,51.876l-14.938,-6.188l6.188,14.939l-51.877,21.488l-6.187,-14.939l-6.188,14.939l-51.876,-21.488l6.187,-14.939l-14.938,6.188l-21.488,-51.876l14.939,-6.188l-14.939,-6.188l21.488,-51.876l14.938,6.188l-6.187,-14.938l51.876,-21.488l6.188,14.938l6.187,-14.938Z" style="fill:#fff;stroke:#000;stroke-width:8.33px;"/><circle cx="197.847" cy="132.466" r="64.265" style="fill:#e3c500;stroke:#000;stroke-width:8.33px;"/><path d="M177.925,120.219l22.276,-22.275l-0,68.463l-19.564,0.581l37.131,0" style="fill:none;stroke:#000;stroke-width:8.33px;"/></g></svg>