<?xml version="1.0" encoding="UTF-8" standalone="no"?><!DOCTYPE svg PUBLIC "-//W3C//DTD SVG 1.1//EN" "http://www.w3.org/Graphics/SVG/1.1/DTD/svg11.dtd"><svg width="100%" height="100%" viewBox="0 0 417 417" version="1.1" xmlns="http://www.w3.org/2000/svg" xmlns:xlink="http://www.w3.org/1999/xlink" xml:space="preserve" xmlns:serif="http://www.serif.com/" style="fill-rule:evenodd;clip-rule:evenodd;stroke-linecap:round;stroke-linejoin:round;stroke-miterlimit:1.5;"><rect id="Artboard4" x="0" y="0" width="416.667" height="416.667" style="fill:none;"/><g id="Artboard41" serif:id="Artboard4"><circle cx="235.54" cy="214.316" r="4.181" style="fill:#fff;stroke:#00c600;stroke-width:8.33px;"/><path d="M342.986,328.895l-269.306,0" style="fill:none;stroke:#0d0d0d;stroke-width:8.33px;"/><path d="M91.257,208.333l81.366,-41.345l54.887,41.345l57.54,33.269l57.936,17.075" style="fill:none;stroke:#00c600;stroke-width:8.33px;"/><path d="M91.257,179.777l38.282,-43.134l51.034,62.107l102.468,14.083l59.945,5.895" style="fill:none;stroke:#e38c00;stroke-width:8.33px;"/><circle cx="129.154" cy="136.643" r="4.181" style="fill:none;stroke:#e38c00;stroke-width:8.33px;"/><circle cx="178.558" cy="197.591" r="4.181" style="fill:none;stroke:#e38c00;stroke-width:8.33px;"/><circle cx="235.54" cy="205.953" r="4.181" style="fill:none;stroke:#e38c00;stroke-width:8.33px;"/><circle cx="170.195" cy="166.988" r="4.181" style="fill:#fff;stroke:#00c600;stroke-width:8.33px;"/><circle cx="130.156" cy="188.843" r="4.181" style="fill:#fff;stroke:#00c600;stroke-width:8.33px;"/><circle cx="285.49" cy="242.117" r="4.181" style="fill:#fff;stroke:#00c600;stroke-width:8.33px;"/><circle cx="342.986" cy="257.73" r="4.181" style="fill:#fff;stroke:#00c600;stroke-width:8.33px;"/><circle cx="285.49" cy="212.833" r="4.181" style="fill:none;stroke:#e38c00;stroke-width:8.33px;"/><circle cx="342.986" cy="218.728" r="4.181" style="fill:none;stroke:#e38c00;stroke-width:8.33px;"/><path d="M91.257,253.549l251.729,-0" style="fill:none;stroke:#808080;stroke-width:8.33px;stroke-dasharray:16.67,16.67,0,0;"/><path d="M91.257,73.68l0,269.306" style="fill:none;stroke:#0d0d0d;stroke-width:8.33px;"/></g></svg>