<svg width="56" height="56" viewBox="0 0 56 56" fill="none" xmlns="http://www.w3.org/2000/svg">
<path fill-rule="evenodd" clip-rule="evenodd" d="M41.3001 53.2001C40.9141 53.2001 40.6001 52.886 40.6001 52.5C40.6001 52.114 40.9141 51.8 41.3001 51.8C41.6861 51.8 42.0001 52.114 42.0001 52.5C42.0001 52.886 41.6861 53.2001 41.3001 53.2001Z" fill="#ECECFE"/>
<path fill-rule="evenodd" clip-rule="evenodd" d="M46.9002 8.4C46.5142 8.4 46.2002 8.08598 46.2002 7.7C46.2002 7.31399 46.5142 7 46.9002 7C47.2862 7 47.6002 7.31399 47.6002 7.7C47.6002 8.08598 47.2862 8.4 46.9002 8.4Z" fill="#ECECFE"/>
<path fill-rule="evenodd" clip-rule="evenodd" d="M6.3001 11.2C5.91412 11.2 5.6001 10.886 5.6001 10.5C5.6001 10.114 5.91412 9.80005 6.3001 9.80005C6.68608 9.80005 7.0001 10.114 7.0001 10.5C7.0001 10.886 6.68608 11.2 6.3001 11.2Z" fill="#ECECFE"/>
<path d="M25.9001 16.1C25.9001 15.7134 25.5867 15.4 25.2001 15.4H16.8001L16.7185 15.4047C16.3703 15.4452 16.1001 15.741 16.1001 16.1C16.1001 16.4866 16.4135 16.8 16.8001 16.8H25.2001L25.2817 16.7953C25.6299 16.7549 25.9001 16.459 25.9001 16.1Z" fill="#CECECE"/>
<path d="M27.3001 28C26.5269 28 25.9001 28.6268 25.9001 29.4C25.9001 31.1409 26.6061 32.2 28.0001 32.2C28.3867 32.2 28.7001 31.8866 28.7001 31.5C28.7001 31.1134 28.3867 30.8 28.0001 30.8L27.9342 30.7977C27.8507 30.7915 27.7756 30.7729 27.7088 30.7394C28.2826 30.5646 28.7001 30.031 28.7001 29.4C28.7001 28.6268 28.0733 28 27.3001 28Z" fill="#CECECE"/>
<path d="M30.1001 29.4C30.1001 28.6268 30.7269 28 31.5001 28C32.2733 28 32.9001 28.6268 32.9001 29.4C32.9001 30.031 32.4826 30.5646 31.9088 30.7394C31.9756 30.7729 32.0507 30.7915 32.1342 30.7977L32.2001 30.8C32.5867 30.8 32.9001 31.1134 32.9001 31.5C32.9001 31.8866 32.5867 32.2 32.2001 32.2C30.8061 32.2 30.1001 31.1409 30.1001 29.4Z" fill="#CECECE"/>
<path d="M23.8001 18.2C24.1867 18.2 24.5001 18.5134 24.5001 18.9C24.5001 19.259 24.2299 19.5549 23.8817 19.5953L23.8001 19.6H16.8001C16.4135 19.6 16.1001 19.2866 16.1001 18.9C16.1001 18.541 16.3703 18.2452 16.7185 18.2047L16.8001 18.2H23.8001Z" fill="#CECECE"/>
<path d="M21.7001 21.7C21.7001 21.3134 21.3867 21 21.0001 21H16.8001L16.7185 21.0047C16.3703 21.0452 16.1001 21.341 16.1001 21.7C16.1001 22.0866 16.4135 22.4 16.8001 22.4H21.0001L21.0817 22.3953C21.4299 22.3549 21.7001 22.059 21.7001 21.7Z" fill="#CECECE"/>
<path d="M39.2001 35C39.5867 35 39.9001 35.3134 39.9001 35.7C39.9001 36.059 39.6299 36.3549 39.2817 36.3953L39.2001 36.4H26.6001C26.2135 36.4 25.9001 36.0866 25.9001 35.7C25.9001 35.341 26.1703 35.0452 26.5185 35.0047L26.6001 35H39.2001Z" fill="#CECECE"/>
<path d="M37.1001 38.5C37.1001 38.1134 36.7867 37.8 36.4001 37.8H26.6001L26.5185 37.8047C26.1703 37.8452 25.9001 38.141 25.9001 38.5C25.9001 38.8866 26.2135 39.2 26.6001 39.2H36.4001L36.4817 39.1953C36.8299 39.1549 37.1001 38.859 37.1001 38.5Z" fill="#CECECE"/>
<path d="M22.4002 8.40002C27.198 8.40002 31.0018 11.24 32.8497 15.839C32.9939 16.1978 32.8199 16.6054 32.4612 16.7495C32.1025 16.8937 31.6948 16.7197 31.5507 16.361C29.9069 12.2701 26.5986 9.80002 22.4002 9.80002C16.6012 9.80002 11.9002 14.501 11.9002 20.3C11.9002 22.5511 12.6095 24.6934 13.9062 26.4741C14.0706 26.6998 14.0836 26.9987 13.9468 27.2357L13.8957 27.3123L11.2191 30.8H15.4002C15.7592 30.8 16.055 31.0702 16.0955 31.4184L16.1002 31.5C16.1002 31.859 15.83 32.1549 15.4818 32.1953L15.4002 32.2H9.8002C9.2462 32.2 8.9219 31.5935 9.20084 31.1379L9.24484 31.0739L12.4742 26.8646L12.4346 26.8061C11.2358 24.9737 10.5605 22.8404 10.504 20.6054L10.5002 20.3C10.5002 13.7278 15.828 8.40002 22.4002 8.40002Z" fill="#929292"/>
<path d="M32.9002 19.6C40.6322 19.6 46.9002 25.868 46.9002 33.6C46.9002 35.7915 46.3957 37.9123 45.4398 39.8322C45.2675 40.1783 44.8473 40.3192 44.5012 40.1468C44.1551 39.9745 44.0142 39.5543 44.1866 39.2082C45.0465 37.4811 45.5002 35.5737 45.5002 33.6C45.5002 26.6412 39.859 21 32.9002 21C25.9414 21 20.3002 26.6412 20.3002 33.6C20.3002 40.4815 25.8167 46.0745 32.6687 46.1979L32.9002 46.2H44.8919L42.8178 43.0883C42.6186 42.7896 42.6794 42.3935 42.9466 42.1668L43.0119 42.1176C43.3106 41.9185 43.7067 41.9792 43.9334 42.2464L43.9826 42.3117L46.7826 46.5117C47.078 46.9548 46.7896 47.541 46.2785 47.5959L46.2002 47.6H32.9002C25.1682 47.6 18.9002 41.332 18.9002 33.6C18.9002 25.868 25.1682 19.6 32.9002 19.6Z" fill="#929292"/>
<path d="M38.5002 13.3C38.5002 13.686 38.8142 14 39.2002 14C39.5862 14 39.9002 13.686 39.9002 13.3C39.9002 12.914 39.5862 12.6 39.2002 12.6C38.8142 12.6 38.5002 12.914 38.5002 13.3Z" fill="#929292"/>
<path d="M42.0002 14C41.6142 14 41.3002 13.686 41.3002 13.3C41.3002 12.914 41.6142 12.6 42.0002 12.6C42.3862 12.6 42.7002 12.914 42.7002 13.3C42.7002 13.686 42.3862 14 42.0002 14Z" fill="#929292"/>
<path d="M44.1002 13.3C44.1002 13.686 44.4142 14 44.8002 14C45.1862 14 45.5002 13.686 45.5002 13.3C45.5002 12.914 45.1862 12.6 44.8002 12.6C44.4142 12.6 44.1002 12.914 44.1002 13.3Z" fill="#929292"/>
<path fill-rule="evenodd" clip-rule="evenodd" d="M47.6002 9.80002H36.4002C36.0136 9.80002 35.7002 10.1134 35.7002 10.5V16.1L35.7049 16.1817C35.7453 16.5298 36.0412 16.8 36.4002 16.8H41.7097L44.3052 19.395L44.3644 19.4483C44.8103 19.8082 45.5002 19.4965 45.5002 18.9V16.8H47.6002C47.9868 16.8 48.3002 16.4866 48.3002 16.1V10.5C48.3002 10.1134 47.9868 9.80002 47.6002 9.80002ZM46.9002 11.2V15.4H44.8002L44.7186 15.4047C44.3704 15.4452 44.1002 15.741 44.1002 16.1V17.2095L42.4952 15.605L42.4258 15.5443C42.3043 15.4512 42.1549 15.4 42.0002 15.4H37.1002V11.2H46.9002Z" fill="#929292"/>
<path d="M11.2002 40.6C11.5868 40.6 11.9002 40.9134 11.9002 41.3C11.9002 41.659 11.63 41.9549 11.2818 41.9953L11.2002 42H8.4002C8.0136 42 7.7002 41.6866 7.7002 41.3C7.7002 40.941 7.97042 40.6452 8.31856 40.6047L8.4002 40.6H11.2002Z" fill="#929292"/>
<path d="M13.3002 41.3C13.3002 41.686 13.6142 42 14.0002 42C14.3862 42 14.7002 41.686 14.7002 41.3C14.7002 40.914 14.3862 40.6 14.0002 40.6C13.6142 40.6 13.3002 40.914 13.3002 41.3Z" fill="#929292"/>
<path d="M16.8002 42C16.4142 42 16.1002 41.686 16.1002 41.3C16.1002 40.914 16.4142 40.6 16.8002 40.6C17.1862 40.6 17.5002 40.914 17.5002 41.3C17.5002 41.686 17.1862 42 16.8002 42Z" fill="#929292"/>
</svg>
