<svg width="18" height="18" viewBox="1.5 1.5 15 15" fill="none" xmlns="http://www.w3.org/2000/svg">
<path fill-rule="evenodd" clip-rule="evenodd" d="M9.45881 1.90642C9.66705 1.85549 9.88628 1.93649 10.0049 2.10773L10.1581 2.32792H10.2378C10.4627 2.32792 10.6575 2.46964 10.7223 2.68089L10.75 2.76984C10.8654 2.79439 10.9685 2.85794 11.0413 2.94931C11.087 2.95796 11.1309 2.97286 11.173 2.99386L11.3762 3.09331C11.4644 3.13729 11.5357 3.20283 11.5844 3.28256L11.7516 3.24312C11.8991 3.2068 12.0605 3.24142 12.1828 3.33562C12.3057 3.43068 12.3761 3.57297 12.3761 3.72605V3.90367L12.7196 4.13194C12.7974 4.12755 12.8782 4.14145 12.9515 4.17323L13.0066 4.19664L13.0768 4.1684C13.1854 4.12556 13.3047 4.11974 13.4137 4.15181L13.6887 4.23267C13.7855 4.26119 13.8705 4.31666 13.9344 4.39327L14.1331 4.63119L14.3972 4.60466C14.5033 4.59586 14.6002 4.61501 14.6874 4.6607L14.8482 4.74568L15.0825 4.74979C15.1763 4.75178 15.2671 4.77873 15.3454 4.82782L15.5497 4.95465C15.7711 5.09326 15.8486 5.37927 15.7264 5.60612L15.5062 6.01599L15.4949 6.13913C15.491 6.17914 15.483 6.21588 15.4706 6.2522L15.3131 6.69853L15.3254 7.43853C15.3285 7.58862 15.2624 7.73064 15.1439 7.82768L14.8553 8.06375C14.8048 8.10489 14.7464 8.13596 14.6838 8.15554L14.1882 8.78233C14.358 8.82446 14.499 8.95087 14.5506 9.12381L14.6046 9.30498L14.6735 9.3901L14.8355 9.62688C14.9525 9.79968 14.9479 10.0272 14.8242 10.1944L15.0155 10.4185C15.0971 10.5153 15.1386 10.6366 15.1327 10.7606L15.1189 11.0188C15.1104 11.1655 15.0356 11.3002 14.9201 11.3874L14.9559 11.4208C15.067 11.5241 15.1237 11.6704 15.1108 11.8215C15.1023 11.9226 15.0631 12.0171 14.9988 12.0942L15.0589 12.1352L15.1228 12.1129C15.3707 12.0275 15.6411 12.1387 15.7517 12.3717L15.8349 12.5486C15.9124 12.7146 15.8908 12.9081 15.7789 13.0533L15.751 13.0922C15.7776 13.2625 15.7121 13.4344 15.5752 13.5469L15.065 13.9622L14.844 14.1013C14.8472 14.1781 14.8322 14.2553 14.7996 14.3261C14.7454 14.4457 14.6413 14.541 14.5146 14.5873L14.0679 14.749C14.0268 14.7629 13.9953 14.7707 13.9625 14.7751L13.6279 14.8219C13.5644 14.8308 13.4974 14.8277 13.4344 14.8123L12.7472 14.6551L12.2898 14.5243C12.2778 14.5209 12.2661 14.517 12.2547 14.5128C12.15 14.5258 12.0438 14.5065 11.951 14.4576L11.7937 14.3723C11.6652 14.3981 11.5309 14.3744 11.4198 14.3049L10.9888 14.5594L10.8531 14.8293L10.985 15.2844C11.0217 15.4127 11.0042 15.5517 10.9376 15.6663C10.8728 15.7794 10.7609 15.8645 10.6307 15.8994L10.0863 16.0414C10.0475 16.0521 10.002 16.058 9.95627 16.058L9.88382 16.0525L9.42787 15.9728L9.22108 16.0142C9.1132 16.035 8.99997 16.0216 8.90222 15.976L8.6587 15.86C8.53159 15.7995 8.436 15.6885 8.39522 15.5571L8.19552 15.4769L8.11193 15.4592C8.09443 15.4802 8.07535 15.4995 8.05452 15.5175C7.94361 15.6131 7.79625 15.6567 7.65005 15.636L6.78891 15.522C6.72051 15.5131 6.65602 15.4908 6.59673 15.4561L6.45111 15.3718H6.23231C6.09335 15.3718 5.95915 15.3149 5.864 15.2156L5.71635 15.0618L5.22295 14.8537C5.12245 14.8113 5.03713 14.7362 4.9829 14.6424L4.88225 14.4689L4.67127 14.3549C4.5391 14.2827 4.44727 14.1588 4.41849 14.0145C4.39029 13.8681 4.42876 13.719 4.52406 13.6049L4.85261 13.2128L5.03481 12.2357C5.03886 12.2136 5.04465 12.1918 5.05173 12.1702C5.02353 12.0966 5.0137 12.0173 5.02324 11.9375L5.17393 10.6471C5.17667 10.6232 5.18116 10.5995 5.18737 10.5764C5.1466 10.5048 5.12404 10.4235 5.12288 10.3409C5.12086 10.1998 5.18014 10.0646 5.28556 9.96907C5.25896 9.91984 5.24131 9.86863 5.23249 9.81571L5.00025 9.69881C4.93142 9.66419 4.87068 9.61383 4.82499 9.55311L4.42919 9.03755C4.3861 8.98137 4.35617 8.91824 4.34012 8.84986L4.22269 8.32777L4.22139 8.32181L4.1689 8.2862C4.12523 8.25669 4.08676 8.2208 4.05437 8.17937L3.88388 7.95791L2.93279 7.58692H2.65933C2.48031 7.58692 2.31285 7.49272 2.22247 7.34092L2.10621 7.14641C2.04258 7.041 2.02262 6.9146 2.04735 6.79543C1.95639 6.73414 1.88785 6.64717 1.85242 6.54758L1.74252 6.23731C1.6572 5.99584 1.77057 5.73253 2.00628 5.62442L2.72672 5.29457C2.78485 5.2689 2.84024 5.25457 2.89779 5.24989L3.88995 5.16235C4.04656 5.15256 4.19276 5.20562 4.2963 5.30905L4.47995 5.4922L4.51856 5.4773C4.60807 5.44311 4.70438 5.43432 4.79708 5.45163L4.92997 5.47518L4.75051 5.05311L4.61632 4.51698C4.58089 4.37312 4.61155 4.22274 4.70062 4.10414C4.78956 3.98468 4.92795 3.91119 5.08008 3.90282L5.48671 3.88254C5.62294 3.86934 5.77694 3.92907 5.88207 4.0393L6.23087 4.40689L6.68364 4.49457L6.68841 4.43824C6.70475 4.24161 6.83866 4.07321 7.02968 4.00951L7.88895 3.72038L8.11945 3.51353L8.08663 3.01074C8.08171 2.92973 8.09675 2.84872 8.13001 2.77566L8.30961 2.38949C8.37324 2.25287 8.49457 2.15299 8.64235 2.11511L9.45881 1.90642ZM9.32549 3.30802L9.0916 3.36523L9.06638 3.41712L9.10548 3.99455C9.11483 4.13651 9.05632 4.27248 8.94483 4.36801L8.46826 4.77779C8.41669 4.82196 8.35733 4.85483 8.29188 4.87545L7.76969 5.04362L7.93077 5.15498L7.73031 5.25091C7.68922 5.36559 7.60111 5.46272 7.48494 5.5182L7.14281 5.68198C7.04293 5.72855 6.92988 5.74345 6.82349 5.72416L5.98042 5.56823C5.98056 5.56969 5.9807 5.57115 5.98084 5.57262L6.02122 6.1382C6.03836 6.38074 5.85858 6.59189 5.60316 6.62954L5.38782 6.66107C5.33214 6.66905 5.27604 6.66852 5.22108 6.65881L4.804 6.5879L4.59221 6.66586C4.40592 6.73398 4.19582 6.69167 4.05699 6.55836L3.81204 6.32473L3.15796 6.37981L3.1309 6.39152C3.23673 6.48452 3.29311 6.61557 3.28759 6.74942C3.28985 6.75021 3.29212 6.75114 3.29439 6.75194L4.44643 7.18208C4.53413 7.21601 4.60524 7.26737 4.65936 7.33495L4.80556 7.51683C4.90204 7.50938 5.00036 7.52814 5.08621 7.57231L5.36827 7.71746C5.48189 7.77614 5.56646 7.87499 5.60415 7.99008L5.99614 8.19164L5.57468 8.33108C5.52666 8.42248 5.4476 8.49725 5.3507 8.54275L5.59862 8.85169L6.03468 9.06177C6.23769 9.16022 6.34309 9.37416 6.29138 9.58212L6.28657 9.60167L6.38106 9.76931C6.45671 9.90343 6.45685 10.0603 6.38871 10.1915L6.4288 10.2229C6.5019 10.2815 6.55474 10.3555 6.58279 10.4377L6.85692 11.2167C6.89829 11.3313 6.88837 11.4582 6.83142 11.5674L7.01743 12.0958L6.50601 11.8141C6.44268 11.8289 6.37695 11.8318 6.31306 11.8228C6.29988 11.8665 6.27991 11.9088 6.25327 11.948L6.03709 12.2677L5.85292 13.2132C5.8379 13.2913 5.80121 13.3652 5.74709 13.4265L5.69326 13.4881C5.70417 13.5022 5.71422 13.5171 5.72343 13.5325L5.80815 13.6722L6.23316 13.8439C6.29889 13.8715 6.3523 13.9067 6.3982 13.9523L6.46663 14.0207H6.60178C6.68904 14.0207 6.77546 14.0426 6.8514 14.084L7.02933 14.1827L7.30105 14.2169C7.32797 14.1802 7.36055 14.147 7.39767 14.1185C7.51469 14.0305 7.66443 13.9965 7.80908 14.0235L8.50339 14.1712L8.99201 14.3574C9.10931 14.4033 9.20139 14.4865 9.25367 14.5897L9.27719 14.5852C9.30963 14.5788 9.3432 14.5758 9.3765 14.5758L9.44945 14.5812L9.80816 14.6414L9.77303 14.5251C9.73931 14.4117 9.75149 14.2925 9.80688 14.1887L10.0877 13.6553C10.1295 13.5751 10.1953 13.5081 10.2779 13.4618L11.1029 12.9957C11.2484 12.912 11.428 12.9064 11.5789 12.9773C11.6977 12.9145 11.8332 12.9 11.9617 12.9352L12.1423 12.9871C12.1502 12.9894 12.1582 12.9918 12.1659 12.9946C12.3228 12.9345 12.503 12.9531 12.6434 13.0485L12.9125 13.2319C12.9838 13.28 13.0398 13.3452 13.075 13.4199L13.4496 13.5013L13.6349 13.4767L13.672 13.4636C13.69 13.4207 13.7149 13.3801 13.7455 13.3439L13.9075 13.1538C13.9433 13.1124 13.9824 13.0797 14.0276 13.0525L14.34 12.8645L14.4642 12.7666L14.0589 12.5022C13.9275 12.4169 13.8478 12.2761 13.8458 12.1254L13.8392 11.6744L13.6705 11.523C13.5731 11.4372 13.5169 11.3141 13.5169 11.1863V11.0222C13.5169 10.8348 13.6355 10.6667 13.8191 10.5934L13.7532 10.5196C13.6838 10.4405 13.6444 10.3465 13.6386 10.2468L13.6253 10.0409C13.6241 10.0216 13.6243 10.0024 13.6254 9.98339C13.5642 10.0237 13.4934 10.0511 13.4189 10.0623C13.2867 10.0817 13.1491 10.0499 13.0419 9.97421L12.8989 9.87163C12.725 9.7471 12.6582 9.5261 12.7369 9.33398L12.8122 9.15025L12.8332 8.91369C12.84 8.83732 12.8671 8.76321 12.9113 8.69908L13.2278 8.245L13.5547 7.84812C13.5469 7.7937 13.5493 7.73809 13.5622 7.6842C13.594 7.54983 13.6868 7.43607 13.8168 7.37234L13.9854 7.28999C14.0412 7.26258 14.1018 7.24568 14.1635 7.23969L14.1551 6.75168C14.1541 6.69593 14.1636 6.64098 14.1836 6.5883L14.344 6.15323L14.3585 6.00143C14.3624 5.96164 14.3717 5.92279 14.386 5.88528C14.3659 5.87809 14.3462 5.86971 14.3274 5.86L14.2006 5.79587L13.828 5.83179C13.6519 5.84363 13.4958 5.7815 13.3928 5.66242L13.1463 5.37943L13.0716 5.40804C12.9494 5.45553 12.8088 5.45434 12.6869 5.40471L12.5523 5.35003L12.5147 5.35295C12.4039 5.36134 12.292 5.33393 12.2007 5.27752L11.5911 4.88955C11.5555 4.86707 11.5232 4.84006 11.4951 4.80972C11.4481 4.81425 11.4002 4.81225 11.3532 4.80374L11.0271 4.74759C10.8116 4.71047 10.6456 4.5415 10.6235 4.33661L10.6152 4.26157C10.4773 4.23709 10.3534 4.15753 10.2793 4.03952L10.2723 4.02821C10.1946 4.01011 10.122 3.97446 10.0622 3.92456L9.94076 3.82318C9.91016 3.7975 9.88339 3.76916 9.86072 3.7379C9.71381 3.72686 9.57837 3.65448 9.49238 3.53726L9.32549 3.30802Z" fill="currentColor"/>
</svg>
