<svg xmlns="http://www.w3.org/2000/svg" width="18" height="18" viewBox="0 0 18 18" fill="none">
  <path fill-rule="evenodd" clip-rule="evenodd" d="M9.00004 9.70837C6.65192 9.70837 4.75004 7.8065 4.75004 5.45837C4.75004 3.11025 6.65192 1.20837 9.00004 1.20837C11.3482 1.20837 13.25 3.11025 13.25 5.45837C13.25 7.8065 11.3482 9.70837 9.00004 9.70837ZM11.8334 5.45837C11.8334 7.02379 10.5655 8.29171 9.00004 8.29171C7.43462 8.29171 6.16671 7.02379 6.16671 5.45837C6.16671 3.89296 7.43462 2.62504 9.00004 2.62504C10.5655 2.62504 11.8334 3.89296 11.8334 5.45837Z" fill="#666666"/>
  <path d="M3.33337 16.0834C3.33337 12.9538 5.87043 10.4167 9.00004 10.4167C12.1297 10.4167 14.6667 12.9538 14.6667 16.0834H13.25C13.25 13.7362 11.3473 11.8334 9.00004 11.8334C6.65283 11.8334 4.75004 13.7362 4.75004 16.0834H3.33337Z" fill="#666666"/>
</svg>