<svg xmlns="http://www.w3.org/2000/svg" xmlns:xlink="http://www.w3.org/1999/xlink" width="1080" zoomAndPan="magnify" viewBox="0 0 810 809.999993" height="1080" preserveAspectRatio="xMidYMid meet" version="1.0"><path fill="#e1e1fd" d="M 488.085938 332.292969 L 321.90625 332.292969 L 321.90625 477.699219 L 418.417969 381.175781 C 422.472656 377.121094 429.050781 377.117188 433.105469 381.175781 L 488.085938 436.261719 Z M 301.132812 321.839844 C 301.132812 316.140625 305.863281 311.519531 311.433594 311.519531 L 498.558594 311.519531 C 504.246094 311.519531 508.859375 316.140625 508.859375 321.839844 L 508.859375 488.15625 C 508.859375 493.851562 504.128906 498.472656 498.558594 498.472656 L 311.433594 498.472656 C 305.746094 498.472656 301.132812 493.851562 301.132812 488.15625 Z M 363.453125 394.609375 C 351.980469 394.609375 342.679688 385.308594 342.679688 373.835938 C 342.679688 362.367188 351.980469 353.066406 363.453125 353.066406 C 374.921875 353.066406 384.222656 362.367188 384.222656 373.835938 C 384.222656 385.308594 374.921875 394.609375 363.453125 394.609375 Z M 363.453125 394.609375 " fill-opacity="1" fill-rule="nonzero"/></svg>