<svg width="80" height="80" viewBox="0 0 80 80" fill="none" xmlns="http://www.w3.org/2000/svg">
<path fill-rule="evenodd" clip-rule="evenodd" d="M13 27.0083C13 26.456 13.4477 26.0083 14 26.0083L50.8938 26.0083C51.4461 26.0083 51.8938 26.456 51.8938 27.0083C51.8938 27.5606 51.4461 28.0083 50.8938 28.0083L14 28.0083C13.4477 28.0083 13 27.5606 13 27.0083Z" fill="#404092"/>
<path fill-rule="evenodd" clip-rule="evenodd" d="M55.9753 27.0083C55.9753 26.456 56.4231 26.0083 56.9753 26.0083L66.5156 26.0083C67.0679 26.0083 67.5156 26.456 67.5156 27.0083C67.5156 27.5606 67.0679 28.0083 66.5156 28.0083L56.9753 28.0083C56.4231 28.0083 55.9753 27.5606 55.9753 27.0083Z" fill="#404092"/>
<path fill-rule="evenodd" clip-rule="evenodd" d="M25.1399 22C25.6922 22 26.1399 22.4477 26.1399 23L26.1399 23.113C26.1399 23.6653 25.6922 24.113 25.1399 24.113C24.5876 24.113 24.1399 23.6653 24.1399 23.113L24.1399 23C24.1399 22.4477 24.5876 22 25.1399 22Z" fill="#404092"/>
<path fill-rule="evenodd" clip-rule="evenodd" d="M21.0699 22C21.6222 22 22.0699 22.4477 22.0699 23L22.0699 23.113C22.0699 23.6653 21.6222 24.113 21.0699 24.113C20.5177 24.113 20.0699 23.6653 20.0699 23.113L20.0699 23C20.0699 22.4477 20.5177 22 21.0699 22Z" fill="#404092"/>
<path fill-rule="evenodd" clip-rule="evenodd" d="M17 22C17.5523 22 18 22.4477 18 23L18 23.113C18 23.6653 17.5523 24.113 17 24.113C16.4477 24.113 16 23.6653 16 23.113L16 23C16 22.4477 16.4477 22 17 22Z" fill="#404092"/>
<path fill-rule="evenodd" clip-rule="evenodd" d="M40.1969 23C40.1969 22.4477 40.6446 22 41.1969 22H63.0803C63.6326 22 64.0803 22.4477 64.0803 23C64.0803 23.5523 63.6326 24 63.0803 24H41.1969C40.6446 24 40.1969 23.5523 40.1969 23Z" fill="#404092"/>
<path fill-rule="evenodd" clip-rule="evenodd" d="M66 20H14.3938V60H66V20ZM68 18.8V61.2C68 61.6418 67.6418 62 67.2 62H13.1938C12.752 62 12.3938 61.6418 12.3938 61.2V18.8C12.3938 18.3582 12.752 18 13.1938 18H67.2C67.6418 18 68 18.3582 68 18.8Z" fill="#404092"/>
<path fill-rule="evenodd" clip-rule="evenodd" d="M34 48H19.9999V50H34V48ZM19.9999 46C18.8953 46 17.9999 46.8954 17.9999 48V50C17.9999 51.1046 18.8953 52 19.9999 52H34C35.1046 52 36 51.1046 36 50V48C36 46.8954 35.1046 46 34 46H19.9999Z" fill="#404092"/>
<path fill-rule="evenodd" clip-rule="evenodd" d="M18.0404 55.0176C18.0404 54.4653 18.4881 54.0176 19.0404 54.0176H34.9594C35.5116 54.0176 35.9594 54.4653 35.9594 55.0176C35.9594 55.5699 35.5116 56.0176 34.9594 56.0176H19.0404C18.4881 56.0176 18.0404 55.5699 18.0404 55.0176Z" fill="#404092"/>
<path fill-rule="evenodd" clip-rule="evenodd" d="M20.0173 34.6955C20.0173 33.2595 21.1814 32.0955 22.6173 32.0955H23.4057C24.8416 32.0955 26.0057 33.2595 26.0057 34.6955V46.4431H24.0057V34.6955C24.0057 34.3641 23.737 34.0955 23.4057 34.0955H22.6173C22.286 34.0955 22.0173 34.3641 22.0173 34.6955V46.4431H20.0173V34.6955Z" fill="#404092"/>
<path fill-rule="evenodd" clip-rule="evenodd" d="M24.0057 37.159C24.0057 35.723 25.1698 34.559 26.6057 34.559H27.3941C28.83 34.559 29.9941 35.723 29.9941 37.159V46.4431H27.9941V37.159C27.9941 36.8276 27.7254 36.559 27.3941 36.559H26.6057C26.2744 36.559 26.0057 36.8276 26.0057 37.159V46.4431H24.0057V37.159Z" fill="#404092"/>
<path fill-rule="evenodd" clip-rule="evenodd" d="M27.994 42.0021C27.994 40.5662 29.1581 39.4021 30.594 39.4021H31.3823C32.8183 39.4021 33.9823 40.5662 33.9823 42.0021V46.4432H31.9823V42.0021C31.9823 41.6707 31.7137 41.4021 31.3823 41.4021H30.594C30.2626 41.4021 29.994 41.6707 29.994 42.0021V46.4432H27.994V42.0021Z" fill="#404092"/>
<path fill-rule="evenodd" clip-rule="evenodd" d="M50.1275 36.0753C45.6974 36.5721 42.2537 40.3306 42.2537 44.8934C42.2537 49.7944 46.2266 53.7674 51.1275 53.7674C55.6904 53.7674 59.4489 50.3236 59.9457 45.8934H56.5834V43.8934H61.0014C61.5537 43.8934 62.0014 44.3412 62.0014 44.8934C62.0014 50.8989 57.133 55.7674 51.1275 55.7674C45.1221 55.7674 40.2537 50.8989 40.2537 44.8934C40.2537 38.8879 45.1221 34.0195 51.1275 34.0195C51.6798 34.0195 52.1275 34.4672 52.1275 35.0195V39H50.1275V36.0753Z" fill="#F4C447"/>
<path fill-rule="evenodd" clip-rule="evenodd" d="M55.5848 34.9722C55.5848 34.4199 56.0326 33.9722 56.5848 33.9722C59.5842 33.9722 61.9699 36.4004 61.9699 39.3839C61.9699 39.6491 61.8645 39.9035 61.677 40.091C61.4894 40.2786 61.2351 40.3839 60.9699 40.3839L60.3464 40.3839C59.7941 40.3839 59.3464 39.9362 59.3464 39.3839C59.3464 39.0084 59.5534 38.6813 59.8594 38.5103C59.4797 37.0436 58.164 35.9722 56.5848 35.9722C56.0326 35.9722 55.5848 35.5245 55.5848 34.9722Z" fill="#F4C447"/>
<path fill-rule="evenodd" clip-rule="evenodd" d="M56.5848 39.105C56.0326 39.105 55.5848 38.6573 55.5848 38.105L55.5848 35.0447L57.5848 35.0447L57.5848 37.3351C58.0429 37.5585 58.415 37.9307 58.6384 38.3887L60.2039 38.3887L60.2039 40.3887L57.8685 40.3887C57.3162 40.3887 56.8685 39.941 56.8685 39.3887C56.8685 39.232 56.7415 39.105 56.5848 39.105Z" fill="#F4C447"/>
<path fill-rule="evenodd" clip-rule="evenodd" d="M52.1275 37.719V41.1914C52.1275 41.7437 51.6798 42.1914 51.1275 42.1914C49.6352 42.1914 48.4254 43.4011 48.4254 44.8935C48.4254 46.3858 49.6352 47.5956 51.1275 47.5956C52.6198 47.5956 53.8296 46.3858 53.8296 44.8935C53.8296 44.3412 54.2773 43.8935 54.8296 43.8935H57.5502V45.8935H55.723C55.2646 48.01 53.3812 49.5956 51.1275 49.5956C48.5306 49.5956 46.4254 47.4904 46.4254 44.8935C46.4254 42.6397 48.011 40.7563 50.1275 40.2979V37.719H52.1275Z" fill="#F4C447"/>
<path d="M40.0104 64.9948C40.0104 65.5499 39.5603 66 39.0052 66C38.45 66 38 65.5499 38 64.9948C38 64.4397 38.45 63.9896 39.0052 63.9896C39.5603 63.9896 40.0104 64.4397 40.0104 64.9948Z" fill="#E1E1FD"/>
<path d="M64.0104 15.5274C64.0104 16.0825 63.5603 16.5326 63.0052 16.5326C62.45 16.5326 62 16.0825 62 15.5274C62 14.9722 62.45 14.5222 63.0052 14.5222C63.5603 14.5222 64.0104 14.9722 64.0104 15.5274Z" fill="#E1E1FD"/>
<path d="M10.7044 16.9948C10.7044 17.5499 10.2544 18 9.69927 18C9.14412 18 8.69409 17.5499 8.69409 16.9948C8.69409 16.4397 9.14412 15.9896 9.69927 15.9896C10.2544 15.9896 10.7044 16.4397 10.7044 16.9948Z" fill="#E1E1FD"/>
</svg>
