<svg width="80" height="80" viewBox="0 0 80 80" fill="none" xmlns="http://www.w3.org/2000/svg">
<path fill-rule="evenodd" clip-rule="evenodd" d="M73 18C72.4486 18 72 17.5514 72 17C72 16.4486 72.4486 16 73 16C73.5514 16 74 16.4486 74 17C74 17.5514 73.5514 18 73 18Z" fill="#ECECFE"/>
<path fill-rule="evenodd" clip-rule="evenodd" d="M7 18C6.4486 18 6 17.5514 6 17C6 16.4486 6.4486 16 7 16C7.5514 16 8 16.4486 8 17C8 17.5514 7.5514 18 7 18Z" fill="#ECECFE"/>
<path fill-rule="evenodd" clip-rule="evenodd" d="M11 68C10.4486 68 10 67.5514 10 67C10 66.4486 10.4486 66 11 66C11.5514 66 12 66.4486 12 67C12 67.5514 11.5514 68 11 68Z" fill="#ECECFE"/>
<path fill-rule="evenodd" clip-rule="evenodd" d="M65 72C64.4486 72 64 71.5514 64 71C64 70.4486 64.4486 70 65 70C65.5514 70 66 70.4486 66 71C66 71.5514 65.5514 72 65 72Z" fill="#ECECFE"/>
<path fill-rule="evenodd" clip-rule="evenodd" d="M19 6C18.4486 6 18 5.5514 18 5C18 4.44855 18.4486 4 19 4C19.5514 4 20 4.44855 20 5C20 5.5514 19.5514 6 19 6Z" fill="#ECECFE"/>
<path fill-rule="evenodd" clip-rule="evenodd" d="M55 78C54.4486 78 54 77.5514 54 77C54 76.4486 54.4486 76 55 76C55.5514 76 56 76.4486 56 77C56 77.5514 55.5514 78 55 78Z" fill="#ECECFE"/>
<path fill-rule="evenodd" clip-rule="evenodd" d="M16.2675 31.3036C16.2675 29.097 18.0609 27.3036 20.2675 27.3036C22.474 27.3036 24.2675 29.097 24.2675 31.3036C24.2675 33.5101 22.4739 35.3036 20.2675 35.3036C18.061 35.3036 16.2675 33.5101 16.2675 31.3036ZM22.2675 31.3036C22.2675 30.2016 21.3694 29.3036 20.2675 29.3036C19.1655 29.3036 18.2675 30.2016 18.2675 31.3036C18.2675 32.4055 19.1655 33.3036 20.2675 33.3036C21.3694 33.3036 22.2675 32.4055 22.2675 31.3036Z" fill="#F4C447"/>
<path fill-rule="evenodd" clip-rule="evenodd" d="M26.2675 27.3036C26.2675 25.097 28.0609 23.3036 30.2675 23.3036C32.474 23.3036 34.2675 25.097 34.2675 27.3036C34.2675 29.5101 32.4739 31.3036 30.2675 31.3036C28.061 31.3036 26.2675 29.5101 26.2675 27.3036ZM32.2675 27.3036C32.2675 26.2016 31.3694 25.3036 30.2675 25.3036C29.1655 25.3036 28.2675 26.2016 28.2675 27.3036C28.2675 28.4055 29.1655 29.3036 30.2675 29.3036C31.3694 29.3036 32.2675 28.4055 32.2675 27.3036Z" fill="#F4C447"/>
<path d="M26.8202 27.4092C27.3142 27.1622 27.9149 27.3624 28.1619 27.8564C28.3912 28.3151 28.235 28.8658 27.816 29.1398L27.7147 29.198L23.7147 31.198C23.2207 31.445 22.62 31.2448 22.373 30.7508C22.1437 30.2921 22.2999 29.7414 22.7189 29.4673L22.8202 29.4092L26.8202 27.4092Z" fill="#F4C447"/>
<path d="M32.5603 28.5965C32.9208 28.236 33.4881 28.2083 33.8804 28.5133L33.9746 28.5965L37.9746 32.5965C38.3651 32.987 38.3651 33.6202 37.9746 34.0107C37.6141 34.3712 37.0468 34.3989 36.6546 34.0939L36.5603 34.0107L32.5603 30.0107C32.1698 29.6202 32.1698 28.987 32.5603 28.5965Z" fill="#F4C447"/>
<path fill-rule="evenodd" clip-rule="evenodd" d="M50.2675 35.3036C50.2675 29.7884 54.7524 25.3036 60.2675 25.3036C65.7825 25.3036 70.2675 29.7884 70.2675 35.3036C70.2675 40.8185 65.7823 45.3036 60.2675 45.3036C54.7526 45.3036 50.2675 40.8185 50.2675 35.3036ZM68.2675 35.3036C68.2675 30.893 64.6779 27.3036 60.2675 27.3036C55.857 27.3036 52.2675 30.893 52.2675 35.3036C52.2675 39.7139 55.8571 43.3036 60.2675 43.3036C64.6778 43.3036 68.2675 39.7139 68.2675 35.3036Z" fill="#F4C447"/>
<path d="M60.3041 30.0353C60.4523 29.5033 61.0037 29.1921 61.5357 29.3402C63.8752 29.9917 65.6688 31.8266 66.1437 34.1018C66.2565 34.6425 65.9097 35.1722 65.369 35.285C64.8284 35.3979 64.2987 35.0511 64.1858 34.5104C63.8673 32.984 62.6338 31.7221 60.9992 31.2669C60.4672 31.1188 60.156 30.5674 60.3041 30.0353Z" fill="#F4C447"/>
<path d="M66.2316 41.4376C66.6757 41.1811 67.2348 41.3041 67.5334 41.706L67.5976 41.8036L73.5976 52.1959C74.426 53.6308 73.9344 55.4655 72.4995 56.294C71.1159 57.0928 69.3604 56.6642 68.494 55.346L68.4014 55.1959L62.4014 44.8036C62.1253 44.3253 62.2892 43.7137 62.7675 43.4376C63.2116 43.1811 63.7707 43.3041 64.0693 43.706L64.1335 43.8036L70.1335 54.1959C70.4096 54.6742 71.0212 54.8381 71.4995 54.5619C71.9436 54.3055 72.1167 53.7598 71.918 53.3003L71.8655 53.1959L65.8655 42.8036C65.5894 42.3253 65.7533 41.7137 66.2316 41.4376Z" fill="#F4C447"/>
<path d="M44.8202 31.4092C45.3142 31.1622 45.9149 31.3624 46.1619 31.8564C46.3912 32.3151 46.235 32.8658 45.816 33.1398L45.7147 33.198L43.7147 34.198C43.2207 34.445 42.62 34.2448 42.373 33.7508C42.1437 33.2921 42.2999 32.7414 42.7189 32.4673L42.8202 32.4092L44.8202 31.4092Z" fill="#F4C447"/>
<path fill-rule="evenodd" clip-rule="evenodd" d="M36.2675 33.3036C36.2675 31.097 38.0609 29.3036 40.2675 29.3036C42.474 29.3036 44.2675 31.097 44.2675 33.3036C44.2675 35.5101 42.4739 37.3036 40.2675 37.3036C38.061 37.3036 36.2675 35.5101 36.2675 33.3036ZM42.2675 33.3036C42.2675 32.2016 41.3694 31.3036 40.2675 31.3036C39.1655 31.3036 38.2675 32.2016 38.2675 33.3036C38.2675 34.4055 39.1655 35.3036 40.2675 35.3036C41.3694 35.3036 42.2675 34.4055 42.2675 33.3036Z" fill="#F4C447"/>
<path d="M59 16C59.5128 16 59.9355 16.386 59.9933 16.8834L60 17V19C60 19.5523 59.5523 20 59 20C58.4872 20 58.0645 19.614 58.0067 19.1166L58 19V18H12V54H58V49C58 48.4872 58.386 48.0645 58.8834 48.0067L59 48C59.5128 48 59.9355 48.386 59.9933 48.8834L60 49V55C60 55.5128 59.614 55.9355 59.1166 55.9933L59 56H11C10.4872 56 10.0645 55.614 10.0067 55.1166L10 55V17C10 16.4872 10.386 16.0645 10.8834 16.0067L11 16H59Z" fill="#2A2A62"/>
<path d="M39 18C39.5128 18 39.9355 17.614 39.9933 17.1166L40 17V15C40 13.4023 38.7511 12.0963 37.1763 12.0051L37 12H33C31.4023 12 30.0963 13.2489 30.0051 14.8237L30 15V17C30 17.5523 30.4477 18 31 18C31.5128 18 31.9355 17.614 31.9933 17.1166L32 17V15C32 14.4872 32.386 14.0645 32.8834 14.0067L33 14H37C37.5128 14 37.9355 14.386 37.9933 14.8834L38 15V17C38 17.5523 38.4477 18 39 18Z" fill="#2A2A62"/>
<path d="M51 54C51.5128 54 51.9355 54.386 51.9933 54.8834L52 55V57C52 58.5977 50.7511 59.9037 49.1763 59.9949L49 60H21C19.4023 60 18.0963 58.7511 18.0051 57.1763L18 57V55C18 54.4477 18.4477 54 19 54C19.5128 54 19.9355 54.386 19.9933 54.8834L20 55V57C20 57.5128 20.386 57.9355 20.8834 57.9933L21 58H49C49.5128 58 49.9355 57.614 49.9933 57.1166L50 57V55C50 54.4477 50.4477 54 51 54Z" fill="#2A2A62"/>
<path d="M37.8 58.4C37.4686 57.9582 36.8418 57.8686 36.4 58.2C35.9922 58.5059 35.8845 59.0635 36.131 59.495L36.2 59.6L42.2 67.6C42.5314 68.0418 43.1582 68.1314 43.6 67.8C44.0078 67.4941 44.1155 66.9365 43.869 66.505L43.8 66.4L37.8 58.4Z" fill="#2A2A62"/>
<path d="M23 38C23.5128 38 23.9355 38.386 23.9933 38.8834L24 39V41C24 41.5523 23.5523 42 23 42C22.4872 42 22.0645 41.614 22.0067 41.1166L22 41V40H18V48H22V45C22 44.4872 22.386 44.0645 22.8834 44.0067L23 44C23.5128 44 23.9355 44.386 23.9933 44.8834L24 45V49C24 49.5128 23.614 49.9355 23.1166 49.9933L23 50H17C16.4872 50 16.0645 49.614 16.0067 49.1166L16 49V39C16 38.4872 16.386 38.0645 16.8834 38.0067L17 38H23Z" fill="#2A2A62"/>
<path d="M29 34C29.5523 34 30 34.4477 30 35C30 35.5128 29.614 35.9355 29.1166 35.9933L29 36H28V48H32V37C32 36.4872 32.386 36.0645 32.8834 36.0067L33 36C33.5128 36 33.9355 36.386 33.9933 36.8834L34 37V49C34 49.5128 33.614 49.9355 33.1166 49.9933L33 50H27C26.4872 50 26.0645 49.614 26.0067 49.1166L26 49V35C26 34.4872 26.386 34.0645 26.8834 34.0067L27 34H29Z" fill="#2A2A62"/>
<path d="M39 42C39.5523 42 40 42.4477 40 43C40 43.5128 39.614 43.9355 39.1166 43.9933L39 44H38V48H42V43C42 42.4872 42.386 42.0645 42.8834 42.0067L43 42C43.5128 42 43.9355 42.386 43.9933 42.8834L44 43V49C44 49.5128 43.614 49.9355 43.1166 49.9933L43 50H37C36.4872 50 36.0645 49.614 36.0067 49.1166L36 49V43C36 42.4872 36.386 42.0645 36.8834 42.0067L37 42H39Z" fill="#2A2A62"/>
<path d="M47 40C47.5128 40 47.9355 40.386 47.9933 40.8834L48 41V48H52V47C52 46.4872 52.386 46.0645 52.8834 46.0067L53 46C53.5128 46 53.9355 46.386 53.9933 46.8834L54 47V49C54 49.5128 53.614 49.9355 53.1166 49.9933L53 50H47C46.4872 50 46.0645 49.614 46.0067 49.1166L46 49V41C46 40.4477 46.4477 40 47 40Z" fill="#2A2A62"/>
<path d="M32.2 58.4C32.5314 57.9582 33.1582 57.8686 33.6 58.2C34.0078 58.5059 34.1155 59.0635 33.869 59.495L33.8 59.6L27.8 67.6C27.4686 68.0418 26.8418 68.1314 26.4 67.8C25.9922 67.4941 25.8845 66.9365 26.131 66.505L26.2 66.4L32.2 58.4Z" fill="#2A2A62"/>
</svg>
