<svg width="80" height="80" viewBox="0 0 80 80" fill="none" xmlns="http://www.w3.org/2000/svg">
<path d="M49.9645 66.8923C49.9645 67.4466 49.5152 67.8959 48.9609 67.8959C48.4066 67.8959 47.9573 67.4466 47.9573 66.8923C47.9573 66.338 48.4066 65.8887 48.9609 65.8887C49.5152 65.8887 49.9645 66.338 49.9645 66.8923Z" fill="#E1E1FD"/>
<path d="M63.9123 15.5036C63.9123 16.0579 63.463 16.5073 62.9087 16.5073C62.3544 16.5073 61.905 16.0579 61.905 15.5036C61.905 14.9493 62.3544 14.5 62.9087 14.5C63.463 14.5 63.9123 14.9493 63.9123 15.5036Z" fill="#E1E1FD"/>
<path d="M13.9786 14.9822C13.9786 15.5364 13.5292 15.9858 12.9749 15.9858C12.4207 15.9858 11.9713 15.5364 11.9713 14.9822C11.9713 14.4279 12.4207 13.9785 12.9749 13.9785C13.5292 13.9785 13.9786 14.4279 13.9786 14.9822Z" fill="#E1E1FD"/>
<path fill-rule="evenodd" clip-rule="evenodd" d="M23.7229 23.0469H22.7244C19.4489 23.0469 16.4474 23.4094 14.234 24.0156C13.1344 24.3167 12.1723 24.6932 11.4617 25.1533C10.7949 25.5851 10.0916 26.265 10.0916 27.2317C10.0916 28.1984 10.7949 28.8783 11.4617 29.31C12.1723 29.7701 13.1344 30.1466 14.234 30.4477C16.4474 31.0539 19.4489 31.4165 22.7244 31.4165H23.7229V29.4195H22.7244C19.5745 29.4195 16.7588 29.0687 14.7615 28.5217C13.7557 28.2463 13.014 27.9361 12.5471 27.6338C12.2241 27.4247 12.1263 27.2845 12.098 27.2317C12.1263 27.1788 12.2241 27.0386 12.5471 26.8295C13.014 26.5272 13.7557 26.2171 14.7615 25.9416C16.7588 25.3946 19.5745 25.0438 22.7244 25.0438H23.7229V23.0469Z" fill="#F4C447"/>
<path fill-rule="evenodd" clip-rule="evenodd" d="M10.0916 35.3374V36.3359C10.0916 37.3026 10.7949 37.9825 11.4617 38.4142C12.1723 38.8743 13.1344 39.2508 14.234 39.5519C16.4474 40.1582 19.4489 40.5207 22.7244 40.5207H23.7229V38.5237H22.7244C19.5745 38.5237 16.7588 38.1729 14.7615 37.6259C13.7557 37.3505 13.014 37.0403 12.5471 36.738C12.1663 36.4915 12.0985 36.3407 12.0886 36.316V35.3374H10.0916Z" fill="#F4C447"/>
<path fill-rule="evenodd" clip-rule="evenodd" d="M10.0916 43.4663V44.4648C10.0916 45.4315 10.7949 46.1114 11.4617 46.5431C12.1723 47.0032 13.1344 47.3797 14.234 47.6809C16.4474 48.2871 19.4489 48.6496 22.7244 48.6496H23.7229V46.6526H22.7244C19.5745 46.6526 16.7588 46.3019 14.7615 45.7548C13.7557 45.4794 13.014 45.1692 12.5471 44.8669C12.1663 44.6204 12.0985 44.4697 12.0886 44.4449V43.4663H10.0916Z" fill="#F4C447"/>
<path fill-rule="evenodd" clip-rule="evenodd" d="M10.0916 27.124V53.6767C10.0916 54.6325 10.8086 55.2865 11.4508 55.6899C12.1454 56.1262 13.0871 56.4868 14.1676 56.7813C16.3436 57.3745 19.3143 57.7608 22.609 57.8444L22.6597 55.8481C19.4691 55.7671 16.6677 55.393 14.6928 54.8547C13.698 54.5835 12.9696 54.2857 12.513 53.9989C12.1945 53.7988 12.1084 53.6715 12.0886 53.6364V27.124H10.0916Z" fill="#F4C447"/>
<path fill-rule="evenodd" clip-rule="evenodd" d="M55.9662 23.0469H56.9647C60.3376 23.0469 63.4265 23.409 65.7024 24.0136C66.833 24.3139 67.8198 24.6888 68.5476 25.1459C69.2245 25.571 69.9576 26.2503 69.9576 27.2317C69.9576 28.213 69.2245 28.8923 68.5476 29.3175C67.8198 29.7746 66.833 30.1494 65.7024 30.4497C63.4265 31.0543 60.3376 31.4165 56.9647 31.4165H55.9662V29.4195H56.9647C60.216 29.4195 63.1244 29.0684 65.1897 28.5197C66.2297 28.2435 66.9994 27.9317 67.4855 27.6264C67.8039 27.4264 67.9118 27.2891 67.9469 27.2317C67.9118 27.1742 67.8039 27.0369 67.4855 26.8369C66.9994 26.5316 66.2297 26.2199 65.1897 25.9436C63.1244 25.395 60.216 25.0438 56.9647 25.0438H55.9662V23.0469Z" fill="#F4C447"/>
<path fill-rule="evenodd" clip-rule="evenodd" d="M69.9576 35.3374V36.3359C69.9576 37.3172 69.2245 37.9965 68.5476 38.4217C67.8198 38.8788 66.833 39.2536 65.7024 39.5539C63.4265 40.1585 60.3376 40.5207 56.9647 40.5207H55.9662V38.5237H56.9647C60.216 38.5237 63.1244 38.1726 65.1897 37.6239C66.2297 37.3477 66.9994 37.0359 67.4855 36.7306C67.8718 36.488 67.9482 36.3377 67.9607 36.3102V35.3374H69.9576Z" fill="#F4C447"/>
<path fill-rule="evenodd" clip-rule="evenodd" d="M69.9576 43.4663V44.4648C69.9576 45.4461 69.2245 46.1254 68.5476 46.5506C67.8198 47.0077 66.833 47.3825 65.7024 47.6828C63.4265 48.2874 60.3376 48.6496 56.9647 48.6496H55.9662V46.6526H56.9647C60.216 46.6526 63.1244 46.3015 65.1897 45.7528C66.2297 45.4766 66.9994 45.1648 67.4855 44.8595C67.8718 44.6169 67.9482 44.4666 67.9607 44.4391V43.4663H69.9576Z" fill="#F4C447"/>
<path fill-rule="evenodd" clip-rule="evenodd" d="M69.9576 27.124V53.6767C69.9576 54.6222 69.247 55.2657 68.6191 55.66C67.9381 56.0876 67.0151 56.442 65.9555 56.7335C63.8213 57.3206 60.9007 57.7145 57.6418 57.8278L57.5724 55.8321C60.7336 55.7221 63.4889 55.341 65.4258 54.8081C66.4016 54.5396 67.1129 54.2478 67.5572 53.9688C67.8499 53.785 67.9378 53.6666 67.9606 53.6295V27.124H69.9576Z" fill="#F4C447"/>
<path fill-rule="evenodd" clip-rule="evenodd" d="M39.9387 17.9066C38.3185 17.9066 36.7533 17.9604 35.2743 18.0607C34.7241 18.098 34.2479 17.6822 34.2106 17.132C34.1733 16.5818 34.5891 16.1056 35.1392 16.0683C36.6645 15.9649 38.2747 15.9097 39.9387 15.9097C44.6885 15.9097 49.0204 16.3602 52.1927 17.1039C53.7708 17.4738 55.1174 17.9289 56.0936 18.4701C56.5815 18.7405 57.023 19.0574 57.3528 19.4352C57.6883 19.8196 57.9446 20.3124 57.9446 20.8954C57.9446 21.4784 57.6883 21.9712 57.3528 22.3555C57.023 22.7334 56.5815 23.0503 56.0936 23.3207C55.1174 23.8618 53.7708 24.3169 52.1927 24.6869C49.0204 25.4306 44.6885 25.8811 39.9387 25.8811C35.1888 25.8811 30.8569 25.4306 27.6847 24.6869C26.1065 24.3169 24.76 23.8618 23.7837 23.3207C23.2958 23.0503 22.8543 22.7334 22.5245 22.3555C22.189 21.9712 21.9327 21.4784 21.9327 20.8954C21.9327 20.269 22.2276 19.749 22.5993 19.3526C22.9664 18.961 23.4583 18.6326 24.0051 18.352C25.1013 17.7895 26.617 17.3194 28.3953 16.9462C28.935 16.833 29.4643 17.1787 29.5775 17.7184C29.6908 18.2581 29.3451 18.7874 28.8054 18.9006C27.1042 19.2576 25.7854 19.683 24.9169 20.1287C24.4813 20.3522 24.2083 20.5561 24.0561 20.7184C23.9655 20.815 23.9385 20.8733 23.9311 20.8955C23.9377 20.9151 23.9599 20.9632 24.029 21.0424C24.1523 21.1836 24.379 21.3675 24.7518 21.5741C25.4968 21.987 26.6409 22.3911 28.1405 22.7427C31.1237 23.4421 35.2955 23.8842 39.9387 23.8842C44.5818 23.8842 48.7536 23.4421 51.7369 22.7427C53.2364 22.3911 54.3806 21.987 55.1255 21.5741C55.4983 21.3675 55.7251 21.1836 55.8484 21.0424C55.9176 20.9631 55.9397 20.9149 55.9462 20.8954C55.9397 20.8758 55.9176 20.8277 55.8484 20.7484C55.7251 20.6071 55.4983 20.4233 55.1255 20.2167C54.3806 19.8037 53.2364 19.3996 51.7369 19.0481C48.7536 18.3487 44.5818 17.9066 39.9387 17.9066ZM55.9486 20.9055C55.9485 20.9055 55.9481 20.904 55.9479 20.9009C55.9487 20.904 55.9488 20.9055 55.9486 20.9055ZM55.9479 20.8899C55.9481 20.8868 55.9485 20.8853 55.9486 20.8853C55.9488 20.8852 55.9487 20.8868 55.9479 20.8899ZM23.9287 20.8853C23.9288 20.8853 23.9292 20.8868 23.9295 20.8899C23.9287 20.8868 23.9286 20.8852 23.9287 20.8853ZM23.9295 20.9012C23.9292 20.9043 23.9288 20.9059 23.9287 20.9059C23.9285 20.9059 23.9287 20.9043 23.9295 20.9012Z" fill="#2A2A62"/>
<path fill-rule="evenodd" clip-rule="evenodd" d="M22.9312 29.3696C23.4826 29.3696 23.9297 29.8167 23.9297 30.3681C23.9297 30.4343 23.9984 30.7601 24.7932 31.252C25.5335 31.7102 26.6711 32.1591 28.1654 32.5503C31.1392 33.3287 35.3021 33.8217 39.9387 33.8217C44.5753 33.8217 48.7382 33.3287 51.7119 32.5503C53.2062 32.1591 54.3438 31.7102 55.0841 31.252C55.879 30.7601 55.9477 30.4343 55.9477 30.3681C55.9477 29.8167 56.3947 29.3696 56.9461 29.3696C57.4976 29.3696 57.9446 29.8167 57.9446 30.3681C57.9446 31.5313 57.0615 32.3767 56.1351 32.9501C55.1541 33.5572 53.8011 34.0676 52.2176 34.4821C49.0359 35.315 44.695 35.8187 39.9387 35.8187C35.1823 35.8187 30.8415 35.315 27.6597 34.4821C26.0763 34.0676 24.7232 33.5572 23.7423 32.9501C22.8158 32.3767 21.9327 31.5313 21.9327 30.3681C21.9327 29.8167 22.3798 29.3696 22.9312 29.3696Z" fill="#2A2A62"/>
<path fill-rule="evenodd" clip-rule="evenodd" d="M22.9312 41.5273C23.4826 41.5273 23.9297 41.9744 23.9297 42.5258C23.9297 42.592 23.9984 42.9178 24.7932 43.4098C25.5335 43.8679 26.6711 44.3168 28.1654 44.708C31.1392 45.4865 35.3021 45.9795 39.9387 45.9795C44.5753 45.9795 48.7382 45.4865 51.7119 44.708C53.2062 44.3168 54.3438 43.8679 55.0841 43.4098C55.879 42.9178 55.9477 42.592 55.9477 42.5258C55.9477 41.9744 56.3947 41.5273 56.9461 41.5273C57.4976 41.5273 57.9446 41.9744 57.9446 42.5258C57.9446 43.689 57.0615 44.5344 56.1351 45.1078C55.1541 45.7149 53.8011 46.2253 52.2176 46.6398C49.0359 47.4727 44.695 47.9764 39.9387 47.9764C35.1823 47.9764 30.8415 47.4727 27.6597 46.6398C26.0763 46.2253 24.7232 45.7149 23.7423 45.1078C22.8158 44.5344 21.9327 43.689 21.9327 42.5258C21.9327 41.9744 22.3798 41.5273 22.9312 41.5273Z" fill="#2A2A62"/>
<path fill-rule="evenodd" clip-rule="evenodd" d="M57.9446 20.6821V58.1484C57.9446 59.3129 57.068 60.1643 56.1388 60.7451C55.1575 61.3584 53.8039 61.8741 52.2199 62.2928C49.0373 63.1341 44.6956 63.6428 39.9387 63.6428C35.1817 63.6428 30.84 63.1341 27.6574 62.2928C26.0735 61.8741 24.7199 61.3584 23.7386 60.7451C22.8093 60.1643 21.9327 59.3129 21.9327 58.1484V21.2152H23.9297V58.1484C23.9297 58.2254 24.0049 58.5567 24.7969 59.0517C25.5369 59.5142 26.674 59.9673 28.1678 60.3622C31.1406 61.1481 35.3027 61.6458 39.9387 61.6458C44.5747 61.6458 48.7367 61.1481 51.7096 60.3622C53.2034 59.9673 54.3405 59.5142 55.0804 59.0517C55.8724 58.5567 55.9477 58.2254 55.9477 58.1484V20.6821H57.9446Z" fill="#2A2A62"/>
</svg>
