<svg width="88" height="88" viewBox="0 0 88 88" fill="none" xmlns="http://www.w3.org/2000/svg">
<g clip-path="url(#clip0_3566_2826)">
<path fill-rule="evenodd" clip-rule="evenodd" d="M33.5559 31.7539C32.4659 30.6639 32.4659 28.8967 33.5559 27.8067L34.9701 29.2209C34.6611 29.5298 34.6611 30.0307 34.9701 30.3397L37.7198 33.0894L36.3056 34.5036L33.5559 31.7539Z" fill="#404092"/>
<path fill-rule="evenodd" clip-rule="evenodd" d="M37.5036 27.8071C36.4133 26.7169 34.6457 26.7169 33.5555 27.8071L34.9697 29.2214C35.2789 28.9122 35.7802 28.9122 36.0893 29.2214L38.8387 31.9707L40.2529 30.5565L37.5036 27.8071Z" fill="#404092"/>
<path fill-rule="evenodd" clip-rule="evenodd" d="M43.0025 33.3061C44.0925 34.3961 44.0925 36.1633 43.0025 37.2533L41.5883 35.839C41.8972 35.5301 41.8972 35.0292 41.5883 34.7203L38.8385 31.9705L40.2527 30.5563L43.0025 33.3061Z" fill="#404092"/>
<path fill-rule="evenodd" clip-rule="evenodd" d="M39.0553 37.2533C40.1453 38.3433 41.9125 38.3433 43.0025 37.2533L41.5883 35.8391C41.2794 36.1481 40.7785 36.1481 40.4695 35.8391L37.7198 33.0894L36.3056 34.5036L39.0553 37.2533Z" fill="#404092"/>
<path fill-rule="evenodd" clip-rule="evenodd" d="M58.4718 34.7704C59.5618 33.6804 61.329 33.6804 62.419 34.7704L61.0048 36.1846C60.6959 35.8756 60.195 35.8756 59.886 36.1846L55.7006 40.37C55.3101 40.7606 54.6769 40.7606 54.2864 40.37C53.8958 39.9795 53.8958 39.3463 54.2864 38.9558L58.4718 34.7704Z" fill="#404092"/>
<path fill-rule="evenodd" clip-rule="evenodd" d="M62.4116 38.7184C63.5018 37.6282 63.5018 35.8606 62.4116 34.7704L60.9974 36.1846C61.3066 36.4938 61.3066 36.995 60.9974 37.3042L58.2481 40.0535L59.6623 41.4677L62.4116 38.7184Z" fill="#404092"/>
<path fill-rule="evenodd" clip-rule="evenodd" d="M56.6486 31.5327C57.7386 30.4427 59.5058 30.4427 60.5958 31.5327L59.1816 32.9469C58.8726 32.638 58.3717 32.638 58.0628 32.9469L53.8773 37.1324C53.4868 37.5229 52.8537 37.5229 52.4631 37.1324C52.0726 36.7418 52.0726 36.1087 52.4631 35.7181L56.6486 31.5327Z" fill="#404092"/>
<path fill-rule="evenodd" clip-rule="evenodd" d="M60.5862 35.4807C61.6764 34.3905 61.6764 32.6229 60.5862 31.5327L59.1719 32.9469C59.4811 33.2561 59.4811 33.7573 59.1719 34.0665L56.4226 36.8158L57.8368 38.2301L60.5862 35.4807Z" fill="#404092"/>
<path fill-rule="evenodd" clip-rule="evenodd" d="M54.1188 28.9994C55.2088 27.9094 56.976 27.9094 58.066 28.9994L56.6518 30.4136C56.3429 30.1046 55.842 30.1046 55.533 30.4136L51.3476 34.599C50.957 34.9896 50.3239 34.9896 49.9333 34.599C49.5428 34.2085 49.5428 33.5753 49.9333 33.1848L54.1188 28.9994Z" fill="#404092"/>
<path fill-rule="evenodd" clip-rule="evenodd" d="M51.9683 26.0783C53.0583 24.9883 54.8255 24.9883 55.9155 26.0783L54.5013 27.4925C54.1923 27.1836 53.6914 27.1836 53.3825 27.4925L49.197 31.678C48.8065 32.0685 48.1734 32.0685 47.7828 31.678C47.3923 31.2875 47.3923 30.6543 47.7828 30.2638L51.9683 26.0783Z" fill="#404092"/>
<path fill-rule="evenodd" clip-rule="evenodd" d="M48.0973 24.884C49.1873 23.794 50.9545 23.794 52.0445 24.884L50.6303 26.2982C50.3214 25.9893 49.8205 25.9893 49.5115 26.2982L45.1207 30.6891C44.7301 31.0796 44.097 31.0796 43.7065 30.6891C43.3159 30.2986 43.3159 29.6654 43.7065 29.2749L48.0973 24.884Z" fill="#404092"/>
<path fill-rule="evenodd" clip-rule="evenodd" d="M58.0582 32.9473C59.1484 31.8571 59.1484 30.0895 58.0582 28.9992L56.644 30.4135C56.9532 30.7226 56.9532 31.2239 56.644 31.5331L53.8947 34.2824L55.3089 35.6966L58.0582 32.9473Z" fill="#404092"/>
<path fill-rule="evenodd" clip-rule="evenodd" d="M55.9175 30.0264C57.0077 28.9362 57.0077 27.1686 55.9175 26.0783L54.5032 27.4926C54.8124 27.8017 54.8124 28.303 54.5032 28.6122L51.7539 31.3615L53.1681 32.7757L55.9175 30.0264Z" fill="#404092"/>
<path fill-rule="evenodd" clip-rule="evenodd" d="M52.0436 28.8317C53.1338 27.7415 53.1338 25.9739 52.0436 24.8836L50.6293 26.2979C50.9385 26.607 50.9385 27.1083 50.6293 27.4175L47.88 30.1668L49.2942 31.581L52.0436 28.8317Z" fill="#404092"/>
<path fill-rule="evenodd" clip-rule="evenodd" d="M38.4359 52.443C39.1234 51.8014 40.1801 51.1986 40.8711 50.8432C41.3373 50.6035 41.8209 50.4765 42.264 50.4006C46.179 49.7299 49.9376 47.7309 51.6118 46.6249C51.7411 46.5394 51.8675 46.4338 51.9952 46.3062L58.9528 39.3486L60.367 40.7628L53.4094 47.7204C53.2055 47.9242 52.976 48.1206 52.7142 48.2936C50.9037 49.4897 46.8832 51.6384 42.6017 52.3719C42.2793 52.4271 42.0102 52.5064 41.7858 52.6218C41.1158 52.9664 40.272 53.4651 39.8005 53.9051L38.4359 52.443Z" fill="#404092"/>
<path fill-rule="evenodd" clip-rule="evenodd" d="M31.0229 34.1753C29.9329 33.0853 29.9329 31.318 31.0229 30.2281L32.4371 31.6423C32.1282 31.9512 32.1282 32.4521 32.4371 32.761L35.1869 35.5108L33.7727 36.925L31.0229 34.1753Z" fill="#404092"/>
<path fill-rule="evenodd" clip-rule="evenodd" d="M34.9706 30.2285C33.8804 29.1383 32.1128 29.1383 31.0226 30.2285L32.4368 31.6427C32.7459 31.3336 33.2472 31.3336 33.5564 31.6427L36.3057 34.3921L37.7199 32.9779L34.9706 30.2285Z" fill="#404092"/>
<path fill-rule="evenodd" clip-rule="evenodd" d="M40.4695 35.7275C41.5595 36.8174 41.5595 38.5847 40.4695 39.6746L39.0553 38.2604C39.3642 37.9515 39.3642 37.4506 39.0553 37.1417L36.3056 34.3919L37.7198 32.9777L40.4695 35.7275Z" fill="#404092"/>
<path fill-rule="evenodd" clip-rule="evenodd" d="M36.5224 39.6747C37.6124 40.7647 39.3796 40.7647 40.4696 39.6747L39.0554 38.2605C38.7464 38.5694 38.2455 38.5694 37.9366 38.2605L35.1868 35.5108L33.7726 36.925L36.5224 39.6747Z" fill="#404092"/>
<path fill-rule="evenodd" clip-rule="evenodd" d="M37.1823 30.0977C36.0923 29.0078 36.0924 27.2405 37.1823 26.1505L38.5966 27.5648C38.2876 27.8737 38.2876 28.3746 38.5966 28.6835L40.1662 30.2532L38.752 31.6674L37.1823 30.0977Z" fill="#404092"/>
<path fill-rule="evenodd" clip-rule="evenodd" d="M41.13 26.1509C40.0398 25.0607 38.2722 25.0607 37.182 26.1509L38.5962 27.5651C38.9054 27.2559 39.4066 27.2559 39.7158 27.5651L41.2851 29.1344L42.6993 27.7201L41.13 26.1509Z" fill="#404092"/>
<path fill-rule="evenodd" clip-rule="evenodd" d="M44.2688 29.2898C45.3588 30.3798 45.3588 32.147 44.2688 33.237L42.8546 31.8228C43.1636 31.5139 43.1636 31.013 42.8546 30.704L41.285 29.1344L42.6992 27.7202L44.2688 29.2898Z" fill="#404092"/>
<path fill-rule="evenodd" clip-rule="evenodd" d="M40.3216 33.2371C41.4116 34.3271 43.1788 34.3271 44.2688 33.2371L42.8546 31.8229C42.5456 32.1318 42.0447 32.1318 41.7358 31.8229L40.1661 30.2532L38.7519 31.6674L40.3216 33.2371Z" fill="#404092"/>
<path fill-rule="evenodd" clip-rule="evenodd" d="M29.7569 38.1915C28.6669 37.1015 28.6669 35.3343 29.7569 34.2443L31.1711 35.6585C30.8622 35.9675 30.8622 36.4683 31.1711 36.7773L32.7408 38.3469L31.3266 39.7612L29.7569 38.1915Z" fill="#404092"/>
<path fill-rule="evenodd" clip-rule="evenodd" d="M33.7046 34.2446C32.6144 33.1544 30.8468 33.1544 29.7566 34.2446L31.1708 35.6589C31.48 35.3497 31.9812 35.3497 32.2904 35.6589L33.8596 37.2281L35.2739 35.8139L33.7046 34.2446Z" fill="#404092"/>
<path fill-rule="evenodd" clip-rule="evenodd" d="M36.8433 37.3836C37.9333 38.4736 37.9333 40.2408 36.8433 41.3308L35.4291 39.9166C35.738 39.6076 35.738 39.1067 35.4291 38.7978L33.8594 37.2281L35.2736 35.8139L36.8433 37.3836Z" fill="#404092"/>
<path fill-rule="evenodd" clip-rule="evenodd" d="M32.8962 41.3308C33.9861 42.4208 35.7534 42.4208 36.8433 41.3308L35.4291 39.9166C35.1202 40.2256 34.6193 40.2256 34.3104 39.9166L32.7407 38.347L31.3265 39.7612L32.8962 41.3308Z" fill="#404092"/>
<path fill-rule="evenodd" clip-rule="evenodd" d="M16.0224 16.9924C16.4129 16.6019 17.0461 16.6019 17.4366 16.9924L23.9004 23.4562C24.291 23.8468 24.291 24.4799 23.9004 24.8704C23.5099 25.261 22.8768 25.261 22.4862 24.8704L16.0224 18.4066C15.6319 18.0161 15.6319 17.3829 16.0224 16.9924Z" fill="#F4C447"/>
<path fill-rule="evenodd" clip-rule="evenodd" d="M71.2151 17.0894C71.6057 17.4799 71.6057 18.1131 71.2151 18.5036L64.7513 24.9675C64.3608 25.358 63.7276 25.358 63.3371 24.9675C62.9466 24.5769 62.9466 23.9438 63.3371 23.5532L69.8009 17.0894C70.1914 16.6989 70.8246 16.6989 71.2151 17.0894Z" fill="#F4C447"/>
<path fill-rule="evenodd" clip-rule="evenodd" d="M30.6796 16.5404C31.2319 16.5404 31.6796 16.9881 31.6796 17.5404L31.6796 21.5949C31.6796 22.1472 31.2318 22.5949 30.6796 22.5949C30.1273 22.5949 29.6796 22.1472 29.6796 21.5949L29.6796 17.5404C29.6796 16.9881 30.1273 16.5404 30.6796 16.5404Z" fill="#F4C447"/>
<path fill-rule="evenodd" clip-rule="evenodd" d="M71.7797 31.6633C71.7797 32.2156 71.3319 32.6633 70.7797 32.6633L66.7252 32.6633C66.1729 32.6633 65.7252 32.2156 65.7252 31.6633C65.7252 31.111 66.1729 30.6633 66.7252 30.6633L70.7797 30.6633C71.3319 30.6633 71.7797 31.111 71.7797 31.6633Z" fill="#F4C447"/>
<path fill-rule="evenodd" clip-rule="evenodd" d="M21.7181 29.6055C21.7181 30.1578 21.2704 30.6055 20.7181 30.6055L16.7295 30.6055C16.1773 30.6055 15.7295 30.1578 15.7295 29.6055C15.7295 29.0532 16.1773 28.6055 16.7295 28.6055L20.7181 28.6055C21.2704 28.6055 21.7181 29.0532 21.7181 29.6055Z" fill="#F4C447"/>
<path fill-rule="evenodd" clip-rule="evenodd" d="M58.6897 22.6616C58.1374 22.6616 57.6897 22.2139 57.6897 21.6616L57.6897 17.673C57.6897 17.1207 58.1374 16.673 58.6897 16.673C59.242 16.673 59.6897 17.1207 59.6897 17.673L59.6897 21.6616C59.6897 22.2139 59.242 22.6616 58.6897 22.6616Z" fill="#F4C447"/>
<path fill-rule="evenodd" clip-rule="evenodd" d="M18.6152 56.1331C18.2247 55.7426 18.2247 55.1094 18.6152 54.7189L33.039 40.2951C33.4296 39.9045 34.0627 39.9045 34.4533 40.2951C34.8438 40.6856 34.8438 41.3188 34.4533 41.7093L20.0294 56.1331C19.6389 56.5237 19.0057 56.5237 18.6152 56.1331Z" fill="#404092"/>
<path fill-rule="evenodd" clip-rule="evenodd" d="M39.7746 52.4562C40.1679 52.8438 40.1726 53.477 39.7849 53.8704L21.8335 72.0866C21.4458 72.48 20.8127 72.4846 20.4193 72.097C20.0259 71.7093 20.0213 71.0762 20.4089 70.6828L38.3604 52.4665C38.7481 52.0732 39.3812 52.0685 39.7746 52.4562Z" fill="#404092"/>
<path fill-rule="evenodd" clip-rule="evenodd" d="M34.674 57.6807L26.2451 49.2519L27.6593 47.8376L36.0882 56.2665L34.674 57.6807Z" fill="#404092"/>
<path fill-rule="evenodd" clip-rule="evenodd" d="M38.3357 53.7515L29.9068 45.3227L31.321 43.9084L39.7499 52.3373L38.3357 53.7515Z" fill="#404092"/>
<path fill-rule="evenodd" clip-rule="evenodd" d="M48.9857 54.454C49.3836 54.1669 49.9309 54.211 50.2778 54.5579L66.5129 70.7929C66.9034 71.1834 66.9034 71.8166 66.5129 72.2071C66.1223 72.5976 65.4892 72.5976 65.0986 72.2071L49.3685 56.477C47.583 57.0936 44.458 56.5756 40.6609 53.0823L42.0151 51.6104C46.2105 55.4702 48.6305 54.7102 48.9857 54.454Z" fill="#404092"/>
<path fill-rule="evenodd" clip-rule="evenodd" d="M59.1416 39.9474C59.2918 39.4159 59.8444 39.1069 60.3759 39.2571C60.7657 39.3672 61.0569 39.6111 61.261 39.836C61.4702 40.0665 61.6453 40.3406 61.7934 40.618C62.0897 41.1729 62.3441 41.8674 62.5604 42.5837C62.9957 44.0252 63.3262 45.7233 63.5217 46.9809C63.5446 47.128 63.6119 47.2548 63.7083 47.3471L70.0214 53.3925C70.4203 53.7745 70.434 54.4075 70.052 54.8064C69.67 55.2053 69.037 55.219 68.6381 54.837L62.325 48.7916C61.9005 48.385 61.6335 47.8538 61.5455 47.2882C61.3574 46.0786 61.0439 44.4805 60.6458 43.1618C60.4453 42.4981 60.2356 41.9466 60.0292 41.5601C59.926 41.3669 59.8402 41.2464 59.7799 41.18C59.7716 41.1709 59.7647 41.1637 59.7589 41.158C59.2726 40.9799 58.9984 40.4541 59.1416 39.9474ZM59.7398 41.1409C59.7398 41.1409 59.7407 41.1414 59.7423 41.1428C59.7406 41.1416 59.7398 41.1409 59.7398 41.1409Z" fill="#404092"/>
<path fill-rule="evenodd" clip-rule="evenodd" d="M63.2328 47.1538L52.706 57.6807L51.2917 56.2665L61.8186 45.7396L63.2328 47.1538Z" fill="#404092"/>
<path fill-rule="evenodd" clip-rule="evenodd" d="M58.2198 60.0197L55.5376 62.6387L54.1404 61.2078L56.8225 58.5887C57.2176 58.2029 57.8508 58.2104 58.2366 58.6055C58.6225 59.0007 58.6149 59.6338 58.2198 60.0197Z" fill="#404092"/>
<path fill-rule="evenodd" clip-rule="evenodd" d="M62.4441 54.2729C62.0583 53.8777 62.0658 53.2446 62.4609 52.8587L65.8585 49.541L67.2558 50.972L63.8582 54.2897C63.4631 54.6755 62.83 54.668 62.4441 54.2729Z" fill="#404092"/>
<path d="M46.0141 63.5931C46.0141 64.1482 45.5641 64.5982 45.009 64.5982C44.4538 64.5982 44.0038 64.1482 44.0038 63.5931C44.0038 63.0379 44.4538 62.5879 45.009 62.5879C45.5641 62.5879 46.0141 63.0379 46.0141 63.5931Z" fill="#E1E1FD"/>
<path d="M72.0577 9.61724C72.0577 10.1724 71.6077 10.6224 71.0525 10.6224C70.4974 10.6224 70.0474 10.1724 70.0474 9.61724C70.0474 9.06209 70.4974 8.61206 71.0525 8.61206C71.6077 8.61206 72.0577 9.06209 72.0577 9.61724Z" fill="#E1E1FD"/>
<path d="M12.0292 11.6275C12.0292 12.1826 11.5791 12.6327 11.024 12.6327C10.4688 12.6327 10.0188 12.1826 10.0188 11.6275C10.0188 11.0723 10.4688 10.6223 11.024 10.6223C11.5791 10.6223 12.0292 11.0723 12.0292 11.6275Z" fill="#E1E1FD"/>
</g>
<defs>
<clipPath id="clip0_3566_2826">
<rect width="88" height="88" fill="white"/>
</clipPath>
</defs>
</svg>
