<svg width="80" height="80" viewBox="0 0 80 80" fill="none" xmlns="http://www.w3.org/2000/svg">
<path fill-rule="evenodd" clip-rule="evenodd" d="M20.0887 60.0887H23.7995C24.3518 60.0887 24.7995 60.5365 24.7995 61.0887C24.7995 61.641 24.3518 62.0887 23.7995 62.0887H19.8887C18.8945 62.0887 18.0887 61.2829 18.0887 60.2887L18.0886 13.7345C18.0886 12.7404 18.8945 11.9345 19.8886 11.9345H56.272C57.2661 11.9345 58.072 12.7404 58.072 13.7345V18.5413C58.072 19.0936 57.6243 19.5413 57.072 19.5413C56.5197 19.5413 56.072 19.0936 56.072 18.5413V13.9345H20.0886L20.0887 60.0887Z" fill="#404092"/>
<path fill-rule="evenodd" clip-rule="evenodd" d="M25.9792 66.0137H30.6567C31.209 66.0137 31.6567 66.4614 31.6567 67.0137C31.6567 67.566 31.209 68.0137 30.6567 68.0137H25.7792C24.7851 68.0137 23.9792 67.2078 23.9792 66.2137L23.9791 19.6943C23.9791 18.7002 24.785 17.8943 25.7791 17.8943H62.226C63.2201 17.8943 64.026 18.7002 64.026 19.6943V66.2137C64.026 67.2078 63.2201 68.0137 62.226 68.0137H36.4133C35.861 68.0137 35.4133 67.566 35.4133 67.0137C35.4133 66.4614 35.861 66.0137 36.4133 66.0137H62.026V19.8943H25.9791L25.9792 66.0137Z" fill="#404092"/>
<path fill-rule="evenodd" clip-rule="evenodd" d="M44 38H32V54H44V38ZM46 36.8V55.2C46 55.6418 45.6418 56 45.2 56H30.8C30.3582 56 30 55.6418 30 55.2V36.8C30 36.3582 30.3582 36 30.8 36H45.2C45.6418 36 46 36.3582 46 36.8Z" fill="#F4C447"/>
<path fill-rule="evenodd" clip-rule="evenodd" d="M56 38H52V54H56V38ZM58 36.8V55.2C58 55.6418 57.6418 56 57.2 56H50.8C50.3582 56 50 55.6418 50 55.2V36.8C50 36.3582 50.3582 36 50.8 36H57.2C57.6418 36 58 36.3582 58 36.8Z" fill="#F4C447"/>
<path fill-rule="evenodd" clip-rule="evenodd" d="M44.7829 44H31.6324V42H44.7829V44Z" fill="#F4C447"/>
<path fill-rule="evenodd" clip-rule="evenodd" d="M30.0498 27C30.0498 26.4477 30.4975 26 31.0498 26L57.0721 26.0013C57.6244 26.0014 58.072 26.4491 58.072 27.0014C58.072 27.5537 57.6243 28.0014 57.072 28.0013L31.0497 28C30.4974 28 30.0497 27.5523 30.0498 27Z" fill="#404092"/>
<path fill-rule="evenodd" clip-rule="evenodd" d="M30.0497 31.1586C30.0497 30.6063 30.4974 30.1586 31.0497 30.1586H49.1081C49.6604 30.1586 50.1081 30.6063 50.1081 31.1586C50.1081 31.7109 49.6604 32.1586 49.1081 32.1586H31.0497C30.4974 32.1586 30.0497 31.7109 30.0497 31.1586Z" fill="#404092"/>
<path fill-rule="evenodd" clip-rule="evenodd" d="M30.0497 61.0887C30.0497 60.5365 30.4974 60.0887 31.0497 60.0887H49.1081C49.6604 60.0887 50.1081 60.5365 50.1081 61.0887C50.1081 61.641 49.6604 62.0887 49.1081 62.0887H31.0497C30.4974 62.0887 30.0497 61.641 30.0497 61.0887Z" fill="#404092"/>
<path fill-rule="evenodd" clip-rule="evenodd" d="M57.6433 44H50.5714V42H57.6433V44Z" fill="#F4C447"/>
<path fill-rule="evenodd" clip-rule="evenodd" d="M44.7829 50H31.6324V48H44.7829V50Z" fill="#F4C447"/>
<path fill-rule="evenodd" clip-rule="evenodd" d="M57.6433 50H50.5714V48H57.6433V50Z" fill="#F4C447"/>
<path d="M48.0104 72.9949C48.0104 73.5501 47.5603 74.0001 47.0052 74.0001C46.45 74.0001 46 73.5501 46 72.9949C46 72.4398 46.45 71.9897 47.0052 71.9897C47.5603 71.9897 48.0104 72.4398 48.0104 72.9949Z" fill="#E1E1FD"/>
<path d="M68 10.9949C68 11.5501 67.5499 12.0001 66.9948 12.0001C66.4397 12.0001 65.9896 11.5501 65.9896 10.9949C65.9896 10.4398 66.4397 9.98975 66.9948 9.98975C67.5499 9.98975 68 10.4398 68 10.9949Z" fill="#E1E1FD"/>
<path d="M14.0104 15.0052C14.0104 15.5603 13.5603 16.0104 13.0052 16.0104C12.45 16.0104 12 15.5603 12 15.0052C12 14.45 12.45 14 13.0052 14C13.5603 14 14.0104 14.45 14.0104 15.0052Z" fill="#E1E1FD"/>
</svg>
