<svg width="80" height="80" viewBox="0 0 80 80" fill="none" xmlns="http://www.w3.org/2000/svg">
<path d="M42.0141 66.993C42.0141 67.5481 41.5641 67.9981 41.009 67.9981C40.4538 67.9981 40.0038 67.5481 40.0038 66.993C40.0038 66.4378 40.4538 65.9878 41.009 65.9878C41.5641 65.9878 42.0141 66.4378 42.0141 66.993Z" fill="#E1E1FD"/>
<path d="M68.0577 13.0171C68.0577 13.5723 67.6077 14.0223 67.0525 14.0223C66.4974 14.0223 66.0474 13.5723 66.0474 13.0171C66.0474 12.462 66.4974 12.012 67.0525 12.012C67.6077 12.012 68.0577 12.462 68.0577 13.0171Z" fill="#E1E1FD"/>
<path d="M8.02915 15.0274C8.02915 15.5825 7.57912 16.0326 7.02397 16.0326C6.46883 16.0326 6.0188 15.5825 6.0188 15.0274C6.0188 14.4722 6.46883 14.0222 7.02397 14.0222C7.57912 14.0222 8.02915 14.4722 8.02915 15.0274Z" fill="#E1E1FD"/>
<path fill-rule="evenodd" clip-rule="evenodd" d="M21.0139 32.0023C21.5662 32.0023 22.0139 32.45 22.0139 33.0023L22.0139 35.0158C22.0139 35.5681 21.5662 36.0158 21.0139 36.0158C20.4616 36.0158 20.0139 35.5681 20.0139 35.0158L20.0139 33.0023C20.0139 32.45 20.4616 32.0023 21.0139 32.0023Z" fill="#404092"/>
<path fill-rule="evenodd" clip-rule="evenodd" d="M27.0203 32.0023C27.5725 32.0023 28.0203 32.45 28.0203 33.0023L28.0203 35.0158C28.0203 35.5681 27.5725 36.0158 27.0203 36.0158C26.468 36.0158 26.0203 35.5681 26.0203 35.0158L26.0203 33.0023C26.0203 32.45 26.468 32.0023 27.0203 32.0023Z" fill="#404092"/>
<path fill-rule="evenodd" clip-rule="evenodd" d="M40.0188 26.372C40.0441 27.222 39.8334 28.3376 39.1241 29.464C39.0424 29.5937 38.9487 29.7121 38.8501 29.8166C37.9695 30.75 37.0449 31.3639 35.9946 31.7319C34.9605 32.0943 33.8612 32.1977 32.6666 32.1949C32.2573 32.1939 31.9757 32.5056 31.9757 32.8301V35.0912C31.9757 35.6434 31.5279 36.0912 30.9757 36.0912C30.4234 36.0912 29.9757 35.6434 29.9757 35.0912V32.8301C29.9757 31.3153 31.2414 30.1915 32.6714 30.1949C33.7604 30.1975 34.6036 30.1001 35.3333 29.8444C36.0467 29.5945 36.7073 29.1734 37.3954 28.4441C37.4118 28.4268 37.4241 28.4103 37.4317 28.3983C37.9158 27.6294 38.0339 26.9102 38.0196 26.4315C38.0189 26.407 38.0179 26.3835 38.0165 26.361C37.9026 27.85 36.6942 28.6779 35.7002 29.0941C34.6159 29.5482 33.3842 29.7048 32.6465 29.714L32.634 29.7141H28.9474C27.715 29.7141 26.6519 28.8488 26.4016 27.6421L26.1943 26.6422C26.0821 26.1014 26.4296 25.5721 26.9704 25.4599C27.5111 25.3478 28.0404 25.6953 28.1526 26.2361L28.3599 27.2359C28.4177 27.5144 28.663 27.7141 28.9474 27.7141H32.6274C33.1823 27.7063 34.1422 27.5782 34.9277 27.2493C35.7563 26.9024 36.0252 26.51 36.0252 26.1302C36.0252 25.5779 36.473 25.1302 37.0252 25.1302C37.2644 25.1302 37.484 25.2142 37.6561 25.3543C37.6696 24.9898 37.8828 24.6459 38.2366 24.4826C38.8436 24.2025 39.3256 24.5675 39.4826 24.7277C39.6543 24.9027 39.7535 25.1073 39.8113 25.2523C39.9363 25.5655 40.0064 25.9558 40.0188 26.372ZM38.8159 26.3779C38.9034 26.3637 38.9904 26.3375 39.0747 26.2985C38.9844 26.3402 38.8978 26.3653 38.8159 26.3779Z" fill="#404092"/>
<path fill-rule="evenodd" clip-rule="evenodd" d="M15.9833 63.0638C15.9833 62.5116 16.431 62.0638 16.9833 62.0638L63.0306 62.0638C63.5829 62.0638 64.0306 62.5116 64.0306 63.0638C64.0306 63.6161 63.5829 64.0638 63.0306 64.0638L16.9833 64.0638C16.431 64.0638 15.9833 63.6161 15.9833 63.0638Z" fill="#404092"/>
<path fill-rule="evenodd" clip-rule="evenodd" d="M23.8863 25.9551C24.4143 26.1167 24.7114 26.6759 24.5497 27.204L24.1472 28.5189C23.9707 29.0955 23.5146 29.5437 22.935 29.7101L19.9901 30.5556C19.9487 30.5675 19.9065 30.5767 19.8639 30.5832C19.3096 30.6672 18.8178 31.1493 18.4626 32.1319C18.1191 33.082 18.022 34.2146 18.073 34.96C18.1108 35.511 17.6947 35.9882 17.1437 36.026C16.5927 36.0637 16.1154 35.6476 16.0777 35.0966C16.011 34.1222 16.1287 32.7052 16.5817 31.452C17.0168 30.2485 17.8846 28.8951 19.495 28.617L22.2694 27.8204L22.6373 26.6185C22.799 26.0905 23.3582 25.7934 23.8863 25.9551Z" fill="#404092"/>
<path fill-rule="evenodd" clip-rule="evenodd" d="M25.3081 15.9048H24.6919C23.2052 15.9048 22 17.11 22 18.5967V22.9061C22 24.3928 23.2052 25.598 24.6919 25.598H25.3081C26.7948 25.598 28 24.3928 28 22.9061V18.5967C28 17.11 26.7948 15.9048 25.3081 15.9048ZM24.6919 13.9048C22.1006 13.9048 20 16.0054 20 18.5967V22.9061C20 25.4973 22.1006 27.598 24.6919 27.598H25.3081C27.8994 27.598 30 25.4973 30 22.9061V18.5967C30 16.0054 27.8994 13.9048 25.3081 13.9048H24.6919Z" fill="#404092"/>
<path fill-rule="evenodd" clip-rule="evenodd" d="M40.4383 44H40.1171C38.6304 44 37.4252 45.2052 37.4252 46.6919V49.5311C37.4252 51.0178 38.6304 52.223 40.1171 52.223H40.4383C41.925 52.223 43.1302 51.0178 43.1302 49.5311V46.6919C43.1302 45.2052 41.925 44 40.4383 44ZM40.1171 42C37.5258 42 35.4252 44.1006 35.4252 46.6919V49.5311C35.4252 52.1223 37.5258 54.223 40.1171 54.223H40.4383C43.0296 54.223 45.1302 52.1223 45.1302 49.5311V46.6919C45.1302 44.1006 43.0296 42 40.4383 42H40.1171Z" fill="#404092"/>
<path fill-rule="evenodd" clip-rule="evenodd" d="M43.1351 44.1977C43.5241 44.5897 43.5217 45.2229 43.1297 45.6119C41.7965 46.935 40.5494 47.6411 39.4359 47.9887C38.3206 48.3368 37.4049 48.3042 36.7868 48.2472C36.2368 48.1965 35.8321 47.7096 35.8828 47.1596C35.9335 46.6097 36.4205 46.205 36.9704 46.2557C37.4518 46.3 38.0743 46.3186 38.8399 46.0796C39.6073 45.8401 40.5838 45.3208 41.7209 44.1923C42.1129 43.8033 42.7461 43.8057 43.1351 44.1977Z" fill="#404092"/>
<path fill-rule="evenodd" clip-rule="evenodd" d="M38.6611 52.7806C39.2134 52.7806 39.6611 53.2284 39.6611 53.7806V54.8807C39.6611 55.6894 39.1165 56.3967 38.3347 56.6035L34.7615 57.5485C34.7229 57.5587 34.6836 57.5666 34.6441 57.5721C33.8155 57.6877 33.1683 58.3663 32.7246 59.5403C32.2894 60.6918 32.169 62.0468 32.2327 62.9036C32.2736 63.4544 31.8603 63.934 31.3096 63.975C30.7588 64.0159 30.2791 63.6026 30.2382 63.0519C30.156 61.9454 30.3018 60.2934 30.8538 58.8332C31.3911 57.4115 32.4346 55.892 34.3041 55.6007L37.6611 54.7129V53.7806C37.6611 53.2284 38.1088 52.7806 38.6611 52.7806Z" fill="#404092"/>
<path fill-rule="evenodd" clip-rule="evenodd" d="M41.5642 52.7806C41.012 52.7806 40.5642 53.2284 40.5642 53.7806V54.8807C40.5642 55.6894 41.1088 56.3967 41.8906 56.6035L45.464 57.5485C45.5026 57.5587 45.5418 57.5666 45.5814 57.5721C46.41 57.6877 47.0572 58.3663 47.501 59.5403C47.9362 60.6918 48.0566 62.0468 47.9929 62.9036C47.9519 63.4544 48.3652 63.934 48.916 63.975C49.4668 64.0159 49.9464 63.6026 49.9874 63.0519C50.0696 61.9454 49.9238 60.2934 49.3718 58.8332C48.8344 57.4115 47.7909 55.892 45.9214 55.6007L42.5642 54.7129V53.7806C42.5642 53.2284 42.1165 52.7806 41.5642 52.7806Z" fill="#404092"/>
<path fill-rule="evenodd" clip-rule="evenodd" d="M26.2048 44H25.8836C24.3969 44 23.1917 45.2052 23.1917 46.6919V49.5311C23.1917 51.0178 24.3969 52.223 25.8836 52.223H26.2048C27.6915 52.223 28.8967 51.0178 28.8967 49.5311V46.6919C28.8967 45.2052 27.6915 44 26.2048 44ZM25.8836 42C23.2923 42 21.1917 44.1006 21.1917 46.6919V49.5311C21.1917 52.1223 23.2923 54.223 25.8836 54.223H26.2048C28.796 54.223 30.8967 52.1223 30.8967 49.5311V46.6919C30.8967 44.1006 28.796 42 26.2048 42H25.8836Z" fill="#404092"/>
<path fill-rule="evenodd" clip-rule="evenodd" d="M28.9015 44.1977C29.2905 44.5897 29.2881 45.2229 28.8961 45.6119C27.5629 46.935 26.3158 47.6411 25.2022 47.9887C24.087 48.3368 23.1713 48.3042 22.5532 48.2472C22.0032 48.1965 21.5985 47.7096 21.6492 47.1596C21.6999 46.6097 22.1868 46.205 22.7368 46.2557C23.2181 46.3 23.8406 46.3186 24.6063 46.0796C25.3736 45.8401 26.3502 45.3208 27.4873 44.1923C27.8793 43.8033 28.5124 43.8057 28.9015 44.1977Z" fill="#404092"/>
<path fill-rule="evenodd" clip-rule="evenodd" d="M24.4275 52.7808C24.9797 52.7808 25.4275 53.2285 25.4275 53.7808V54.8809C25.4275 55.6896 24.8829 56.3969 24.1011 56.6036L20.5279 57.5486C20.4892 57.5588 20.45 57.5667 20.4104 57.5722C19.5819 57.6878 18.9347 58.3664 18.4909 59.5404C18.0557 60.6919 17.9354 62.0469 17.9991 62.9037C18.04 63.4545 17.6267 63.9342 17.0759 63.9751C16.5252 64.016 16.0455 63.6027 16.0046 63.052C15.9223 61.9455 16.0682 60.2935 16.6201 58.8333C17.1575 57.4117 18.2009 55.8922 20.0704 55.6008L23.4275 54.713V53.7808C23.4275 53.2285 23.8752 52.7808 24.4275 52.7808Z" fill="#404092"/>
<path fill-rule="evenodd" clip-rule="evenodd" d="M27.3306 52.7808C26.7783 52.7808 26.3306 53.2285 26.3306 53.7808V54.8179C26.3306 55.6916 26.964 56.4364 27.8264 56.5768L28.8458 56.7426C29.3909 56.8313 29.9048 56.4614 29.9935 55.9162C30.0822 55.3711 29.7122 54.8573 29.1671 54.7686L28.3306 54.6325V53.7808C28.3306 53.2285 27.8829 52.7808 27.3306 52.7808Z" fill="#404092"/>
<path fill-rule="evenodd" clip-rule="evenodd" d="M53.9798 44H54.3C55.7867 44 56.9919 45.2052 56.9919 46.6919V49.5311C56.9919 51.0178 55.7867 52.223 54.3 52.223H53.9798C52.4931 52.223 51.2879 51.0178 51.2879 49.5311V46.6919C51.2879 45.2052 52.4931 44 53.9798 44ZM54.3 42C56.8913 42 58.9919 44.1006 58.9919 46.6919V49.5311C58.9919 52.1223 56.8913 54.223 54.3 54.223H53.9798C51.3885 54.223 49.2879 52.1223 49.2879 49.5311V46.6919C49.2879 44.1006 51.3885 42 53.9798 42H54.3Z" fill="#404092"/>
<path fill-rule="evenodd" clip-rule="evenodd" d="M51.3671 44.1441C50.978 44.536 50.9804 45.1692 51.3724 45.5583C52.6974 46.8733 53.9162 47.5923 55.0051 47.9559C56.0995 48.3213 56.9977 48.3056 57.6306 48.2472C58.1805 48.1965 58.5852 47.7096 58.5345 47.1596C58.4838 46.6097 57.9969 46.205 57.4469 46.2557C56.9805 46.2987 56.3827 46.3073 55.6385 46.0588C54.8888 45.8085 53.9264 45.2753 52.7813 44.1388C52.3893 43.7497 51.7561 43.7521 51.3671 44.1441Z" fill="#404092"/>
<path fill-rule="evenodd" clip-rule="evenodd" d="M55.7564 52.7808C55.2041 52.7808 54.7564 53.2285 54.7564 53.7808V54.8809C54.7564 55.6896 55.301 56.3968 56.0827 56.6036L59.6555 57.5486C59.6942 57.5588 59.7334 57.5667 59.773 57.5722C60.6014 57.6878 61.2485 58.3664 61.6922 59.5404C62.1274 60.6919 62.2477 62.0469 62.184 62.9037C62.1431 63.4545 62.5564 63.9342 63.1072 63.9751C63.6579 64.016 64.1376 63.6027 64.1785 63.052C64.2608 61.9455 64.1149 60.2935 63.563 58.8333C63.0258 57.4117 61.9824 55.8922 60.113 55.6008L56.7564 54.713V53.7808C56.7564 53.2285 56.3087 52.7808 55.7564 52.7808Z" fill="#404092"/>
<path fill-rule="evenodd" clip-rule="evenodd" d="M52.8536 52.7808C53.4059 52.7808 53.8536 53.2285 53.8536 53.7808V54.8738C53.8536 55.69 53.2992 56.4018 52.5078 56.6016L51.292 56.9085C50.7565 57.0437 50.2128 56.7192 50.0776 56.1837C49.9425 55.6482 50.267 55.1045 50.8025 54.9693L51.8536 54.704V53.7808C51.8536 53.2285 52.3014 52.7808 52.8536 52.7808Z" fill="#404092"/>
<path fill-rule="evenodd" clip-rule="evenodd" d="M54.0177 16.9922C54.0177 16.4399 54.4654 15.9922 55.0177 15.9922L59.0024 15.9922C59.5547 15.9922 60.0024 16.4399 60.0024 16.9922C60.0024 17.5445 59.5547 17.9922 59.0024 17.9922L55.0177 17.9922C54.4654 17.9922 54.0177 17.5445 54.0177 16.9922Z" fill="#404092"/>
<path fill-rule="evenodd" clip-rule="evenodd" d="M54.0177 20.9783C54.0177 20.426 54.4654 19.9783 55.0177 19.9783L59.0024 19.9783C59.5547 19.9783 60.0024 20.426 60.0024 20.9783C60.0024 21.5306 59.5547 21.9783 59.0024 21.9783L55.0177 21.9783C54.4654 21.9783 54.0177 21.5306 54.0177 20.9783Z" fill="#404092"/>
<path fill-rule="evenodd" clip-rule="evenodd" d="M41.9966 31.0057C41.9954 30.4535 42.4422 30.0048 42.9945 30.0037L59.0003 29.9706C59.5526 29.9694 60.0012 30.4162 60.0024 30.9685C60.0035 31.5208 59.5567 31.9694 59.0045 31.9706L42.9986 32.0037C42.4464 32.0048 41.9977 31.558 41.9966 31.0057Z" fill="#F4C447"/>
<path fill-rule="evenodd" clip-rule="evenodd" d="M44.9999 25.9095C45.5522 25.9095 45.9999 26.3573 45.9999 26.9095L45.9999 31.2825L43.9999 31.2825L43.9999 26.9095C43.9999 26.3573 44.4476 25.9095 44.9999 25.9095Z" fill="#F4C447"/>
<path fill-rule="evenodd" clip-rule="evenodd" d="M53.0576 24.012C53.6099 24.012 54.0576 24.4597 54.0576 25.012L54.0576 31.2826L52.0576 31.2826L52.0576 25.012C52.0576 24.4597 52.5053 24.012 53.0576 24.012Z" fill="#F4C447"/>
<path fill-rule="evenodd" clip-rule="evenodd" d="M57.0101 24.012C57.5624 24.012 58.0101 24.4597 58.0101 25.012L58.0101 31.2826L56.0101 31.2826L56.0101 25.012C56.0101 24.4597 56.4578 24.012 57.0101 24.012Z" fill="#F4C447"/>
<path fill-rule="evenodd" clip-rule="evenodd" d="M48.9817 27.9624C49.534 27.9624 49.9817 28.4101 49.9817 28.9624L49.9817 31.5548L47.9817 31.5548L47.9817 28.9624C47.9817 28.4101 48.4294 27.9624 48.9817 27.9624Z" fill="#F4C447"/>
<path fill-rule="evenodd" clip-rule="evenodd" d="M34.0144 14.0364H37.0225C37.5748 14.0364 38.0225 13.5887 38.0225 13.0364C38.0225 12.4841 37.5748 12.0364 37.0225 12.0364H33.8144C32.8203 12.0364 32.0144 12.8423 32.0144 13.8364V25.0228C32.0144 25.5751 32.4621 26.0228 33.0144 26.0228C33.5667 26.0228 34.0144 25.5751 34.0144 25.0228V14.0364ZM41.999 13.0364C41.999 12.4841 42.4468 12.0364 42.999 12.0364H62.1819C63.176 12.0364 63.9819 12.8423 63.9819 13.8364V34.0842C63.9819 35.0783 63.176 35.8842 62.1819 35.8842H34.9939C34.4416 35.8842 33.9939 35.4365 33.9939 34.8842C33.9939 34.3319 34.4416 33.8842 34.9939 33.8842H61.9819V14.0364H42.999C42.4468 14.0364 41.999 13.5887 41.999 13.0364Z" fill="#404092"/>
<path fill-rule="evenodd" clip-rule="evenodd" d="M38.0253 18.0085H38.9917C39.5439 18.0085 39.9917 17.5608 39.9917 17.0085C39.9917 16.4563 39.5439 16.0085 38.9917 16.0085H37.8253C36.8312 16.0085 36.0253 16.8144 36.0253 17.8085V20.2056C36.0253 21.1997 36.8312 22.0056 37.8253 22.0056H46.232C47.2261 22.0056 48.032 21.1997 48.032 20.2056V17.8085C48.032 16.8144 47.2261 16.0085 46.232 16.0085H43.0337C42.4814 16.0085 42.0337 16.4563 42.0337 17.0085C42.0337 17.5608 42.4814 18.0085 43.0337 18.0085H46.032V20.0056H38.0253V18.0085Z" fill="#404092"/>
<path fill-rule="evenodd" clip-rule="evenodd" d="M39.9844 26C39.9844 24.9102 39.1063 24.012 38.0048 24.012C36.9034 24.012 36.0253 24.9102 36.0253 26H37.9844C37.9845 26.0005 37.9848 26.0013 37.9852 26.0021C37.9859 26.0037 37.9866 26.0047 37.9873 26.0054C37.9881 26.0061 37.9899 26.0078 37.9937 26.0094C37.9956 26.0102 37.9978 26.0109 38.0001 26.0114C38.0024 26.0119 38.0041 26.012 38.0048 26.012C38.0055 26.012 38.0072 26.0119 38.0096 26.0114C38.0118 26.0109 38.014 26.0102 38.016 26.0094C38.0197 26.0078 38.0216 26.0061 38.0223 26.0054C38.0231 26.0047 38.0238 26.0037 38.0245 26.0021C38.0248 26.0013 38.0252 26.0005 38.0253 26H39.9844Z" fill="#404092"/>
</svg>
