<svg width="80" height="80" viewBox="0 0 80 80" fill="none" xmlns="http://www.w3.org/2000/svg">
<path fill-rule="evenodd" clip-rule="evenodd" d="M21.1765 45.7445C21.4028 45.2407 21.9947 45.0158 22.4985 45.2421L29.3811 48.3345C29.3982 48.3421 29.4154 48.3498 29.4325 48.3576C29.8089 48.5268 30.196 48.7008 30.5802 48.8219C31.0005 48.9543 31.2736 48.9744 31.4212 48.943C32.0688 48.8056 32.8965 48.5531 33.6282 48.254C33.78 48.192 33.9469 48.1384 34.1282 48.1034C35.1381 47.9088 36.6276 47.685 37.9665 47.6259C38.6316 47.5965 39.3025 47.6055 39.8741 47.6945C40.1601 47.739 40.4552 47.8086 40.7254 47.9224C40.9891 48.0335 41.2994 48.2164 41.5265 48.5286C41.8513 48.9753 41.7526 49.6007 41.3059 49.9255C40.8822 50.2337 40.2976 50.1606 39.9613 49.7709C39.9576 49.7693 39.9535 49.7675 39.9488 49.7655C39.8801 49.7365 39.7574 49.7004 39.5664 49.6707C39.1839 49.6111 38.6633 49.597 38.0548 49.6239C36.8463 49.6773 35.4599 49.8836 34.5068 50.0673C34.4744 50.0735 34.4346 50.085 34.3849 50.1053C33.5484 50.4472 32.6067 50.736 31.8365 50.8994C31.1744 51.04 30.4963 50.8924 29.979 50.7294C29.4783 50.5716 28.9922 50.3527 28.6348 50.1918C28.6097 50.1805 28.5853 50.1695 28.5615 50.1588L21.6788 47.0665C21.175 46.8401 20.9501 46.2482 21.1765 45.7445ZM39.9865 49.7839C39.9865 49.7839 39.9854 49.7833 39.9834 49.7819C39.9856 49.7832 39.9866 49.7838 39.9865 49.7839Z" fill="#2A2A62"/>
<path fill-rule="evenodd" clip-rule="evenodd" d="M16.5631 57.0831C16.8262 56.5975 17.4332 56.4172 17.9188 56.6803L24.1424 60.0528C24.5583 60.2782 24.9048 60.6127 25.1447 61.0205L27.0017 64.1774C27.2817 64.6534 27.1228 65.2663 26.6468 65.5463C26.1707 65.8264 25.5578 65.6675 25.2778 65.1914L23.4208 62.0345C23.3654 61.9404 23.2855 61.8632 23.1895 61.8112L16.9659 58.4387C16.4803 58.1756 16.3 57.5687 16.5631 57.0831Z" fill="#2A2A62"/>
<path fill-rule="evenodd" clip-rule="evenodd" d="M44.8844 45.8351C48.0746 44.6669 51.7568 45.7861 53.7459 46.6977C54.0085 46.8181 54.2663 46.7975 54.4421 46.6946L56.4051 45.5464C56.8818 45.2675 57.4943 45.428 57.7732 45.9047C58.052 46.3814 57.8916 46.9939 57.4149 47.2728L55.4519 48.421C54.6419 48.8948 53.6883 48.8714 52.9126 48.5159C51.0525 47.6633 47.9957 46.8257 45.5722 47.7132C45.5553 47.7193 45.5297 47.7311 45.4951 47.7526L39.5223 51.4679C39.3978 51.5453 39.306 51.6656 39.2642 51.8061L37.4862 57.7751C37.4733 57.8183 37.4663 57.8599 37.4642 57.8961C37.9262 58.0395 38.9891 58.0655 40.7291 56.652C40.7918 56.601 40.851 56.5185 40.8857 56.4065L41.1197 55.6505C41.4247 54.6651 42.2834 53.9532 43.3082 53.8361L44.698 53.6772C45.8841 53.5417 46.9123 54.2261 47.4323 55.1325C48.6391 57.2358 51.2211 59.8542 55.1782 59.5132C55.2421 59.5077 55.3236 59.4812 55.4092 59.4209L56.9609 58.3276C57.3992 58.0188 57.9222 57.8531 58.4583 57.8531H62.1686C62.7209 57.8531 63.1686 58.3008 63.1686 58.8531C63.1686 59.4054 62.7209 59.8531 62.1686 59.8531H58.4583C58.3346 59.8531 58.2139 59.8913 58.1128 59.9626L56.5611 61.0558C56.2202 61.296 55.8057 61.4666 55.3499 61.5059C50.288 61.942 47.0945 58.5624 45.6976 56.1278C45.4981 55.7802 45.1752 55.6357 44.9251 55.6643L43.5353 55.8231C43.2988 55.8502 43.1007 56.0144 43.0303 56.2418L42.7963 56.9979C42.6558 57.4518 42.3872 57.8818 41.9901 58.2043C39.7515 60.0229 37.8629 60.2643 36.5445 59.6843C35.9854 59.4384 35.6698 58.9715 35.5405 58.5036C35.417 58.0571 35.453 57.595 35.5694 57.2041L37.3474 51.2351C37.5287 50.6264 37.9266 50.1051 38.4659 49.7697L44.4387 46.0543C44.5696 45.9729 44.7184 45.8959 44.8844 45.8351Z" fill="#2A2A62"/>
<path fill-rule="evenodd" clip-rule="evenodd" d="M20.7628 36.0649C20.4315 36.0649 20.1628 36.3336 20.1628 36.6649V43.3292C20.1628 43.8815 19.7151 44.3292 19.1628 44.3292C18.6106 44.3292 18.1628 43.8815 18.1628 43.3292V36.6649C18.1628 35.229 19.3269 34.0649 20.7628 34.0649H59.5933C61.0293 34.0649 62.1933 35.229 62.1933 36.6649V43.3292C62.1933 43.8815 61.7456 44.3292 61.1933 44.3292C60.641 44.3292 60.1933 43.8815 60.1933 43.3292V36.6649C60.1933 36.3336 59.9247 36.0649 59.5933 36.0649H20.7628Z" fill="#2A2A62"/>
<path fill-rule="evenodd" clip-rule="evenodd" d="M12.4798 40.7287C12.7519 40.5423 13.0985 40.5021 13.4061 40.6212L22.4453 44.1227C22.6986 44.2208 22.9011 44.4177 23.0062 44.6681C23.1113 44.9186 23.11 45.201 23.0026 45.4505L16.9098 59.6046C16.7518 59.9715 16.3907 60.2092 15.9913 60.2092L13.0449 60.2093C12.7797 60.2093 12.5254 60.1039 12.3378 59.9164C12.1503 59.7288 12.0449 59.4745 12.0449 59.2093V56.6282C12.0449 56.0759 12.4926 55.6282 13.0449 55.6282C13.5972 55.6282 14.0449 56.0759 14.0449 56.6282V58.2092L15.333 58.2092L20.7553 45.6128L14.0449 43.0135V50.9588C14.0449 51.5111 13.5972 51.9588 13.0449 51.9588C12.4926 51.9588 12.0449 51.5111 12.0449 50.9588V41.5537C12.0449 41.2238 12.2076 40.9152 12.4798 40.7287Z" fill="#2A2A62"/>
<path fill-rule="evenodd" clip-rule="evenodd" d="M67.624 40.6972C67.361 40.5095 67.0235 40.4605 66.7179 40.5656L56.415 44.1096C56.1518 44.2001 55.9383 44.3962 55.8257 44.6507C55.7132 44.9052 55.7117 45.1951 55.8218 45.4507L61.9155 59.6047C62.0735 59.9716 62.4346 60.2093 62.834 60.2093H67.0432C67.3084 60.2093 67.5628 60.1039 67.7503 59.9164C67.9379 59.7288 68.0432 59.4745 68.0432 59.2093L68.0432 57.0749C68.0432 56.5226 67.5955 56.0749 67.0432 56.0749C66.4909 56.0749 66.0432 56.5226 66.0432 57.0749L66.0432 58.2093H63.4922L58.0851 45.6501L66.0432 42.9127V50.9879C66.0432 51.5402 66.4909 51.9879 67.0432 51.9879C67.5955 51.9879 68.0432 51.5402 68.0432 50.9879V41.5112C68.0432 41.1881 67.8871 40.8849 67.624 40.6972Z" fill="#2A2A62"/>
<path fill-rule="evenodd" clip-rule="evenodd" d="M21.6514 25.1118C21.6515 24.5595 22.0993 24.1119 22.6516 24.112L56.9207 24.1188C57.473 24.1189 57.9206 24.5667 57.9205 25.1189C57.9204 25.6712 57.4726 26.1189 56.9203 26.1188L22.6512 26.112C22.0989 26.1119 21.6513 25.6641 21.6514 25.1118Z" fill="#2A2A62"/>
<path fill-rule="evenodd" clip-rule="evenodd" d="M24.0571 35.2768L24.0571 25.9958L26.0571 25.9958L26.0571 35.2768L24.0571 35.2768Z" fill="#2A2A62"/>
<path fill-rule="evenodd" clip-rule="evenodd" d="M53.9844 35.2768L53.9844 25.9958L55.9844 25.9958L55.9844 35.2768L53.9844 35.2768Z" fill="#2A2A62"/>
<path fill-rule="evenodd" clip-rule="evenodd" d="M29.0076 29.9949C29.5599 29.9953 30.0072 30.4433 30.0068 30.9956L30.0068 31.0528C30.0064 31.6051 29.5583 32.0525 29.006 32.0521C28.4537 32.0516 28.0064 31.6036 28.0068 31.0513L28.0068 30.9941C28.0072 30.4418 28.4553 29.9944 29.0076 29.9949Z" fill="#2A2A62"/>
<path fill-rule="evenodd" clip-rule="evenodd" d="M35.0051 29.9949C35.5574 29.9953 36.0048 30.4433 36.0044 30.9956L36.0043 31.0528C36.0039 31.6051 35.5559 32.0525 35.0036 32.0521C34.4513 32.0516 34.0039 31.6036 34.0043 31.0513L34.0044 30.9941C34.0048 30.4418 34.4528 29.9944 35.0051 29.9949Z" fill="#2A2A62"/>
<path fill-rule="evenodd" clip-rule="evenodd" d="M44.9507 29.9949C45.503 29.9953 45.9503 30.4433 45.9499 30.9956L45.9499 31.0528C45.9495 31.6051 45.5014 32.0525 44.9491 32.0521C44.3968 32.0516 43.9495 31.6036 43.9499 31.0513L43.9499 30.9941C43.9503 30.4418 44.3984 29.9944 44.9507 29.9949Z" fill="#2A2A62"/>
<path fill-rule="evenodd" clip-rule="evenodd" d="M50.9609 29.9949C51.5132 29.9953 51.9606 30.4433 51.9602 30.9956L51.9601 31.0528C51.9597 31.6051 51.5117 32.0525 50.9594 32.0521C50.4071 32.0516 49.9597 31.6036 49.9601 31.0513L49.9602 30.9941C49.9606 30.4418 50.4087 29.9944 50.9609 29.9949Z" fill="#2A2A62"/>
<path fill-rule="evenodd" clip-rule="evenodd" d="M30.001 19.0203L30.001 24.9023L28.001 24.9023L28.001 19.0203C28.001 18.468 28.4487 18.0203 29.001 18.0203C29.5533 18.0203 30.001 18.468 30.001 19.0203Z" fill="#2A2A62"/>
<path fill-rule="evenodd" clip-rule="evenodd" d="M39.7083 8C35.2881 8 31.61 10.3116 30.1288 13.4331C29.892 13.932 29.2956 14.1446 28.7966 13.9078C28.2977 13.671 28.0851 13.0746 28.3219 12.5757C30.181 8.6577 34.6313 6 39.7083 6C46.3378 6 52.0036 10.5873 52.0036 16.5773V24.9022C52.0036 25.4545 51.5559 25.9022 51.0036 25.9022C50.4513 25.9022 50.0036 25.4545 50.0036 24.9022V16.5773C50.0036 11.9885 45.5553 8 39.7083 8Z" fill="#2A2A62"/>
<path fill-rule="evenodd" clip-rule="evenodd" d="M52.1523 66.8754C52.6868 67.0144 53.0075 67.5604 52.8685 68.0949L52.6204 69.0487C52.6203 69.0493 52.6202 69.0498 52.62 69.0503C52.3005 70.2936 51.6359 71.1527 50.6652 71.5782C49.756 71.9767 48.7473 71.9167 47.8703 71.7361C46.9788 71.5526 46.0797 71.2126 45.3159 70.903C45.1003 70.8156 44.8998 70.7326 44.7131 70.6553C44.1954 70.441 43.7839 70.2707 43.4532 70.1726C42.9237 70.0156 42.6218 69.459 42.7789 68.9295C42.9359 68.4001 43.4925 68.0981 44.0219 68.2552C44.4619 68.3857 45.0181 68.6162 45.5691 68.8445C45.7368 68.914 45.904 68.9833 46.0674 69.0495C46.8168 69.3533 47.5729 69.6329 48.2737 69.7772C48.9891 69.9246 49.5099 69.9009 49.8623 69.7464C50.1528 69.6191 50.4817 69.3365 50.6832 68.5515L50.684 68.5484L50.9328 67.5916C51.0718 67.0571 51.6178 66.7365 52.1523 66.8754Z" fill="#2A2A62"/>
<path fill-rule="evenodd" clip-rule="evenodd" d="M54.3304 63.9088C54.8737 64.0081 55.2336 64.529 55.1343 65.0723C54.8752 66.4894 54.2427 67.5036 53.2661 68.0838C52.3293 68.6404 51.2448 68.694 50.2782 68.58C49.3023 68.4649 48.3183 68.163 47.4867 67.8717C47.1 67.7362 46.7664 67.6113 46.4727 67.5014C46.0828 67.3554 45.7633 67.2358 45.4837 67.1528C44.9542 66.9958 44.6523 66.4392 44.8094 65.9097C44.9664 65.3803 45.523 65.0784 46.0525 65.2354C46.3809 65.3328 46.824 65.4977 47.2854 65.6693C47.5736 65.7766 47.869 65.8864 48.148 65.9842C48.9418 66.2623 49.7594 66.505 50.5125 66.5938C51.2749 66.6837 51.8468 66.6007 52.2446 66.3643C52.6027 66.1516 52.9833 65.7167 53.1669 64.7127C53.2662 64.1694 53.7871 63.8095 54.3304 63.9088Z" fill="#2A2A62"/>
<path fill-rule="evenodd" clip-rule="evenodd" d="M55.0268 59.6724C55.5527 59.504 56.1157 59.7938 56.2841 60.3198L56.6137 61.3486C56.7188 61.6769 56.7793 62.0794 56.6953 62.5062C56.4658 63.6729 55.8242 64.4681 54.8775 64.8455C54.0198 65.1874 53.0446 65.1306 52.1924 64.9733C51.3183 64.812 50.4244 64.515 49.6567 64.2374C49.3752 64.1355 49.1181 64.0394 48.8833 63.9515C48.44 63.7857 48.0757 63.6495 47.7747 63.5602C47.2452 63.4032 46.9433 62.8466 47.1004 62.3171C47.2574 61.7877 47.814 61.4857 48.3435 61.6428C48.7113 61.7519 49.1867 61.9295 49.6763 62.1124C49.8965 62.1946 50.1196 62.2779 50.337 62.3566C51.0835 62.6266 51.8501 62.8764 52.5553 63.0065C53.2824 63.1407 53.8054 63.1198 54.137 62.9877C54.3795 62.891 54.6184 62.7021 54.7329 62.1201C54.7353 62.1079 54.7403 62.0565 54.709 61.9587L54.3794 60.9298C54.211 60.4038 54.5008 59.8409 55.0268 59.6724Z" fill="#2A2A62"/>
<path fill-rule="evenodd" clip-rule="evenodd" d="M36.8701 69.4637C37.5938 68.1026 39.2838 67.5859 40.6448 68.3096L39.7059 70.0755C39.3201 69.8704 38.8411 70.0168 38.636 70.4026L38.1125 71.387L36.3467 70.4481L36.8701 69.4637Z" fill="#2A2A62"/>
<path fill-rule="evenodd" clip-rule="evenodd" d="M41.7985 72.0848C42.5223 70.7235 42.0056 69.0331 40.6442 68.3093L39.7053 70.0752C40.0913 70.2804 40.2379 70.7598 40.0326 71.1458L39.5095 72.1297L41.2754 73.0687L41.7985 72.0848Z" fill="#2A2A62"/>
<path fill-rule="evenodd" clip-rule="evenodd" d="M40.752 74.0532C40.0283 75.4142 38.3383 75.9309 36.9773 75.2072L37.9162 73.4413C38.302 73.6465 38.781 73.5 38.9861 73.1143L39.5095 72.1298L41.2754 73.0688L40.752 74.0532Z" fill="#2A2A62"/>
<path fill-rule="evenodd" clip-rule="evenodd" d="M35.8233 71.4326C35.0996 72.7936 35.6163 74.4836 36.9773 75.2073L37.9163 73.4414C37.5305 73.2363 37.3841 72.7573 37.5892 72.3715L38.1126 71.3871L36.3467 70.4482L35.8233 71.4326Z" fill="#2A2A62"/>
<path fill-rule="evenodd" clip-rule="evenodd" d="M26.438 63.7261C27.1616 62.3651 28.8516 61.8484 30.2127 62.5721L29.2737 64.338C28.888 64.1328 28.409 64.2793 28.2038 64.665L27.6804 65.6495L25.9145 64.7105L26.438 63.7261Z" fill="#2A2A62"/>
<path fill-rule="evenodd" clip-rule="evenodd" d="M31.3664 66.3472C32.0902 64.9859 31.5734 63.2955 30.2121 62.5717L29.2731 64.3376C29.6592 64.5429 29.8058 65.0222 29.6005 65.4083L29.0773 66.3922L30.8432 67.3311L31.3664 66.3472Z" fill="#2A2A62"/>
<path fill-rule="evenodd" clip-rule="evenodd" d="M30.3199 68.3156C29.5962 69.6767 27.9062 70.1934 26.5451 69.4697L27.4841 67.7038C27.8698 67.9089 28.3488 67.7625 28.554 67.3767L29.0774 66.3923L30.8433 67.3312L30.3199 68.3156Z" fill="#2A2A62"/>
<path fill-rule="evenodd" clip-rule="evenodd" d="M25.3911 65.695C24.6675 67.0561 25.1842 68.7461 26.5452 69.4698L27.4841 67.7039C27.0984 67.4988 26.9519 67.0197 27.157 66.634L27.6805 65.6496L25.9146 64.7106L25.3911 65.695Z" fill="#2A2A62"/>
<path fill-rule="evenodd" clip-rule="evenodd" d="M29.9909 65.0784C30.7146 63.7174 32.4046 63.2007 33.7657 63.9244L32.8267 65.6902C32.4409 65.4851 31.9619 65.6316 31.7568 66.0173L30.7609 67.8904L28.995 66.9515L29.9909 65.0784Z" fill="#2A2A62"/>
<path fill-rule="evenodd" clip-rule="evenodd" d="M34.9194 67.6995C35.6432 66.3382 35.1264 64.6478 33.7651 63.924L32.8261 65.6899C33.2122 65.8952 33.3587 66.3745 33.1535 66.7606L32.1578 68.6332L33.9237 69.5721L34.9194 67.6995Z" fill="#2A2A62"/>
<path fill-rule="evenodd" clip-rule="evenodd" d="M32.9278 71.4453C32.2041 72.8063 30.5141 73.323 29.153 72.5993L30.092 70.8334C30.4778 71.0386 30.9568 70.8921 31.1619 70.5063L32.1578 68.6332L33.9237 69.5722L32.9278 71.4453Z" fill="#2A2A62"/>
<path fill-rule="evenodd" clip-rule="evenodd" d="M27.9991 68.8244C27.2754 70.1855 27.7921 71.8755 29.1531 72.5992L30.092 70.8333C29.7063 70.6281 29.5598 70.1491 29.765 69.7634L30.7609 67.8903L28.995 66.9513L27.9991 68.8244Z" fill="#2A2A62"/>
<path fill-rule="evenodd" clip-rule="evenodd" d="M33.6423 67.1646C34.366 65.8035 36.056 65.2869 37.417 66.0105L36.4781 67.7764C36.0923 67.5713 35.6133 67.7178 35.4082 68.1035L34.4122 69.9766L32.6464 69.0377L33.6423 67.1646Z" fill="#2A2A62"/>
<path fill-rule="evenodd" clip-rule="evenodd" d="M38.5707 69.7857C39.2946 68.4244 38.7778 66.734 37.4164 66.0102L36.4775 67.7761C36.8635 67.9813 37.0101 68.4607 36.8048 68.8468L35.8092 70.7193L37.5751 71.6583L38.5707 69.7857Z" fill="#2A2A62"/>
<path fill-rule="evenodd" clip-rule="evenodd" d="M36.5791 73.5315C35.8555 74.8925 34.1655 75.4092 32.8044 74.6855L33.7434 72.9196C34.1291 73.1247 34.6081 72.9783 34.8132 72.5925L35.8092 70.7194L37.5751 71.6584L36.5791 73.5315Z" fill="#2A2A62"/>
<path fill-rule="evenodd" clip-rule="evenodd" d="M31.6504 70.9106C30.9267 72.2717 31.4434 73.9617 32.8045 74.6853L33.7434 72.9194C33.3577 72.7143 33.2112 72.2353 33.4163 71.8496L34.4123 69.9765L32.6464 69.0375L31.6504 70.9106Z" fill="#2A2A62"/>
<path fill-rule="evenodd" clip-rule="evenodd" d="M22.001 40.9495C22.001 40.3972 22.4487 39.9495 23.001 39.9495L27.0147 39.9495C27.567 39.9495 28.0147 40.3972 28.0147 40.9495C28.0147 41.5017 27.567 41.9495 27.0147 41.9495L23.001 41.9495C22.4487 41.9495 22.001 41.5017 22.001 40.9495Z" fill="#F4C447"/>
<path fill-rule="evenodd" clip-rule="evenodd" d="M32.1033 40.9495C32.1033 40.3972 32.551 39.9495 33.1033 39.9495L37.117 39.9495C37.6693 39.9495 38.117 40.3972 38.117 40.9495C38.117 41.5017 37.6693 41.9495 37.117 41.9495L33.1033 41.9495C32.551 41.9495 32.1033 41.5017 32.1033 40.9495Z" fill="#F4C447"/>
<path fill-rule="evenodd" clip-rule="evenodd" d="M42.0352 40.9495C42.0352 40.3972 42.4829 39.9495 43.0352 39.9495L47.0489 39.9495C47.6012 39.9495 48.0489 40.3972 48.0489 40.9495C48.0489 41.5017 47.6012 41.9495 47.0489 41.9495L43.0352 41.9495C42.4829 41.9495 42.0352 41.5017 42.0352 40.9495Z" fill="#F4C447"/>
<path fill-rule="evenodd" clip-rule="evenodd" d="M51.9067 40.9495C51.9067 40.3972 52.3545 39.9495 52.9067 39.9495L56.9205 39.9495C57.4728 39.9495 57.9205 40.3972 57.9205 40.9495C57.9205 41.5017 57.4728 41.9495 56.9205 41.9495L52.9067 41.9495C52.3545 41.9495 51.9067 41.5017 51.9067 40.9495Z" fill="#F4C447"/>
<path d="M14.0501 24.9908C14.0501 25.5459 13.6001 25.9959 13.045 25.9959C12.4898 25.9959 12.0398 25.5459 12.0398 24.9908C12.0398 24.4356 12.4898 23.9856 13.045 23.9856C13.6001 23.9856 14.0501 24.4356 14.0501 24.9908Z" fill="#E1E1FD"/>
<path fill-rule="evenodd" clip-rule="evenodd" d="M47.3984 70.5775C47.9159 70.7704 48.179 71.3463 47.986 71.8638C47.4116 73.4043 45.8292 73.8067 44.6354 73.8734C43.3716 73.944 42.0301 73.685 41.1749 73.4313C40.6454 73.2743 40.3435 72.7177 40.5005 72.1883C40.6576 71.6588 41.2141 71.3569 41.7436 71.5139C42.4589 71.7261 43.5609 71.9303 44.5238 71.8765C45.5565 71.8188 45.9838 71.5091 46.1121 71.1651C46.305 70.6476 46.881 70.3845 47.3984 70.5775Z" fill="#2A2A62"/>
<path d="M62.1688 66.993C62.1688 67.5481 61.7188 67.9981 61.1636 67.9981C60.6085 67.9981 60.1584 67.5481 60.1584 66.993C60.1584 66.4378 60.6085 65.9878 61.1636 65.9878C61.7188 65.9878 62.1688 66.4378 62.1688 66.993Z" fill="#E1E1FD"/>
<path d="M68.0577 13.0171C68.0577 13.5723 67.6077 14.0223 67.0525 14.0223C66.4974 14.0223 66.0474 13.5723 66.0474 13.0171C66.0474 12.462 66.4974 12.012 67.0525 12.012C67.6077 12.012 68.0577 12.462 68.0577 13.0171Z" fill="#E1E1FD"/>
</svg>
