<svg width="80" height="80" viewBox="0 0 80 80" fill="none" xmlns="http://www.w3.org/2000/svg">
<path fill-rule="evenodd" clip-rule="evenodd" d="M17 8C16.4486 8 16 7.5514 16 7C16 6.44855 16.4486 6 17 6C17.5514 6 18 6.44855 18 7C18 7.5514 17.5514 8 17 8Z" fill="#ECECFE"/>
<path fill-rule="evenodd" clip-rule="evenodd" d="M7 64C6.4486 64 6 63.5514 6 63C6 62.4486 6.4486 62 7 62C7.5514 62 8 62.4486 8 63C8 63.5514 7.5514 64 7 64Z" fill="#ECECFE"/>
<path fill-rule="evenodd" clip-rule="evenodd" d="M77 58C76.4486 58 76 57.5514 76 57C76 56.4486 76.4486 56 77 56C77.5514 56 78 56.4486 78 57C78 57.5514 77.5514 58 77 58Z" fill="#ECECFE"/>
<path fill-rule="evenodd" clip-rule="evenodd" d="M61 6C60.4486 6 60 5.5514 60 5C60 4.44855 60.4486 4 61 4C61.5514 4 62 4.44855 62 5C62 5.5514 61.5514 6 61 6Z" fill="#ECECFE"/>
<path fill-rule="evenodd" clip-rule="evenodd" d="M39 42C35.6863 42 33 44.6863 33 48C33 50.2208 34.2066 52.1599 36 53.1973V57C36 58.6569 37.3431 60 39 60C40.6569 60 42 58.6569 42 57V53.1973C43.7934 52.1599 45 50.2208 45 48C45 44.6863 42.3137 42 39 42ZM39 52C41.2091 52 43 50.2091 43 48C43 45.7909 41.2091 44 39 44C36.7909 44 35 45.7909 35 48C35 50.2091 36.7909 52 39 52ZM38 54V57C38 57.5128 38.386 57.9355 38.8834 57.9933L39 58C39.5523 58 40 57.5523 40 57V54H38Z" fill="#F4C447"/>
<path d="M58.7338 62.5213L58.6429 63.4918H57.4221L57.2143 61.3279C58.7208 61.1705 59.7078 60.8426 59.7078 59.7279C59.7078 59.0459 59.1883 58.5738 58.513 58.5738C57.8247 58.5738 57.3961 58.941 56.9156 59.6623L55.5 58.7836C56.2273 57.6164 57.2143 57 58.5909 57C60.1234 57 61.5 58.0623 61.5 59.7279C61.5 61.2623 60.3442 62.2459 58.7338 62.5213Z" fill="#2A2A62"/>
<path d="M59.1753 65.459C59.1753 66.0754 58.6429 66.6 58.0455 66.6C57.4221 66.6 56.9026 66.0754 56.9026 65.459C56.9026 64.8426 57.4221 64.318 58.0455 64.318C58.6429 64.318 59.1753 64.8426 59.1753 65.459Z" fill="#2A2A62"/>
<path fill-rule="evenodd" clip-rule="evenodd" d="M39 10C48.7713 10 56 15.6566 56 24.1913C56 24.7435 55.5523 25.1913 55 25.1913C54.4477 25.1913 54 24.7435 54 24.1913C54 16.8835 47.7593 12 39 12C30.3624 12 24.1738 16.7488 24.0036 23.8882L24 24.1913V28H28C29.6569 28 31 29.3431 31 31V33C31 33.3506 30.9398 33.6872 30.8293 34H47.1707C47.0602 33.6872 47 33.3506 47 33V31C47 29.3431 48.3431 28 50 28V24.6228C50 19.4678 45.4031 16 38.8929 16C33.2186 16 28.8975 18.6801 27.9763 22.8343C27.8567 23.3735 27.3227 23.7136 26.7835 23.594C26.2443 23.4745 25.9041 22.9404 26.0237 22.4013C27.1729 17.2191 32.3631 14 38.8929 14C46.2891 14 51.8274 18.0921 51.996 24.3289L52 24.6228V28H55C56.6569 28 58 29.3431 58 31V33C58 33.3506 57.9398 33.6872 57.8293 34H58.0429C60.2011 34 61.8946 35.922 61.9953 38.2696L62 38.4909V45C62 45.5523 61.5523 46 61 46C60.4872 46 60.0645 45.614 60.0067 45.1166L60 45V38.4909C60 37.1431 59.1615 36.0947 58.1778 36.0061L58.0429 36H17.9571C16.9617 36 16.0799 36.9898 16.0051 38.309L16 38.4909V48H23C23.5523 48 24 48.4477 24 49C24 49.5128 23.614 49.9355 23.1166 49.9933L23 50H16V56H22L22.1763 56.0051C23.7511 56.0963 25 57.4023 25 59V66H48.8321C48.2969 64.7751 48 63.4222 48 62C48 56.4772 52.4772 52 58 52C63.5229 52 68 56.4772 68 62C68 67.5229 63.5229 72 58 72C54.7284 72 51.8237 70.4289 49.9993 68H17.9571C15.7989 68 14.1054 66.078 14.0047 63.7304L14 63.5091V38.4909C14 36.1182 15.6281 34.1243 17.7562 34.0056L17.9571 34H20.1707C20.0602 33.6872 20 33.3506 20 33V31C20 29.6887 20.8414 28.5738 22.0137 28.1659C22.011 28.1496 22.0087 28.1332 22.0067 28.1166L22 28V24.1913C22 15.6566 29.2287 10 39 10ZM55 34C55.5523 34 56 33.5523 56 33V31C56 30.4477 55.5523 30 55 30H50C49.4477 30 49 30.4477 49 31V33C49 33.5523 49.4477 34 50 34H55ZM29 33C29 33.5523 28.5523 34 28 34H23C22.4477 34 22 33.5523 22 33V31C22 30.4477 22.4477 30 23 30H28C28.5523 30 29 30.4477 29 31V33ZM16 63.5091V58H22C22.5128 58 22.9355 58.386 22.9933 58.8834L23 59V66H17.9571L17.8222 65.9939C16.8385 65.9053 16 64.8569 16 63.5091ZM58 54C62.4183 54 66 57.5817 66 62C66 66.4183 62.4183 70 58 70C53.5817 70 50 66.4183 50 62C50 57.5817 53.5817 54 58 54Z" fill="#2A2A62"/>
<path d="M62 49C62 49.5523 61.5523 50 61 50C60.4477 50 60 49.5523 60 49C60 48.4477 60.4477 48 61 48C61.5523 48 62 48.4477 62 49Z" fill="#2A2A62"/>
<path d="M26 49C26 48.4477 26.4477 48 27 48C27.5523 48 28 48.4477 28 49C28 49.5523 27.5523 50 27 50C26.4477 50 26 49.5523 26 49Z" fill="#2A2A62"/>
</svg>
