<svg width="422" height="328" viewBox="0 0 422 328" fill="none" xmlns="http://www.w3.org/2000/svg">
<g filter="url(#filter0_d_3566_2906)">
<g filter="url(#filter1_d_3566_2906)">
<mask id="mask0_3566_2906" style="mask-type:alpha" maskUnits="userSpaceOnUse" x="0" y="0" width="422" height="313">
<rect x="2.20429" y="2.20429" width="417.06" height="308.5" rx="12.491" fill="#F0F0FE" stroke="#5555C3" stroke-width="4.40857"/>
</mask>
<g mask="url(#mask0_3566_2906)">
<rect width="421.469" height="312.909" rx="14.6952" fill="#F4F5FD"/>
<rect x="-62.4395" y="-14.1909" width="582.535" height="78.0498" fill="white"/>
<rect x="22.8219" y="77.7842" width="182.581" height="95.0943" rx="8.08239" fill="white"/>
<line x1="45.9611" y1="162.238" x2="45.9611" y2="164.698" stroke="#E1E1E1" stroke-width="0.767857" stroke-linecap="round"/>
<line x1="75.1933" y1="162.238" x2="75.1933" y2="164.698" stroke="#E1E1E1" stroke-width="0.767857" stroke-linecap="round"/>
<line x1="104.425" y1="162.238" x2="104.425" y2="164.698" stroke="#E1E1E1" stroke-width="0.767857" stroke-linecap="round"/>
<line x1="133.658" y1="162.238" x2="133.658" y2="164.698" stroke="#E1E1E1" stroke-width="0.767857" stroke-linecap="round"/>
<line x1="162.89" y1="162.238" x2="162.89" y2="164.698" stroke="#E1E1E1" stroke-width="0.767857" stroke-linecap="round"/>
<line x1="192.122" y1="162.238" x2="192.122" y2="164.698" stroke="#E1E1E1" stroke-width="0.767857" stroke-linecap="round"/>
<line x1="39.7806" y1="113.42" x2="37.3214" y2="113.42" stroke="#E1E1E1" stroke-width="0.767857" stroke-linecap="round"/>
<line x1="39.7805" y1="122.864" x2="37.3212" y2="122.864" stroke="#E1E1E1" stroke-width="0.767857" stroke-linecap="round"/>
<line x1="39.7805" y1="132.309" x2="37.3212" y2="132.309" stroke="#E1E1E1" stroke-width="0.767857" stroke-linecap="round"/>
<line x1="39.7805" y1="141.754" x2="37.3212" y2="141.754" stroke="#E1E1E1" stroke-width="0.767857" stroke-linecap="round"/>
<line x1="39.7805" y1="151.198" x2="37.3212" y2="151.198" stroke="#E1E1E1" stroke-width="0.767857" stroke-linecap="round"/>
<line x1="39.7805" y1="160.643" x2="37.3212" y2="160.643" stroke="#E1E1E1" stroke-width="0.767857" stroke-linecap="round"/>
<line x1="36.2964" y1="164.969" x2="191.664" y2="164.969" stroke="#E1E1E1" stroke-width="0.917177" stroke-linecap="round"/>
<path d="M46.1055 157.789C63.695 153.474 91.8789 146.126 91.8789 146.126L135.438 152.146C145.27 146.032 164.935 133.805 164.935 133.805C173.643 133.805 191.06 133.805 191.06 133.805" stroke="#6A6AF4" stroke-width="3.45536" stroke-linecap="round" stroke-linejoin="round"/>
<path d="M42.3657 146.625C57.6136 140.982 88.6458 128.529 88.6458 128.529L125.608 138.584C133.925 131.43 153.33 114.8 153.33 114.8C161.647 116.54 184.162 121.812 184.162 121.812" stroke="#FFA903" stroke-width="3.45536" stroke-linecap="round" stroke-linejoin="round"/>
<line x1="36.5534" y1="165.043" x2="36.5534" y2="111.775" stroke="#E1E1E1" stroke-width="0.767857" stroke-linecap="round"/>
<rect x="22.1885" y="187.46" width="182.581" height="101.434" rx="8.08239" fill="white"/>
<rect x="222.521" y="80.3203" width="182.581" height="208.672" rx="8.08239" fill="white"/>
<path d="M272.307 207.324C265.22 207.324 258.366 209.849 252.974 214.448C247.581 219.046 244.005 225.415 242.885 232.413C241.766 239.411 243.177 246.578 246.865 252.629C250.554 258.68 256.279 263.218 263.012 265.429L266.544 254.671C262.369 253.301 258.82 250.487 256.533 246.735C254.246 242.984 253.371 238.54 254.065 234.202C254.759 229.863 256.977 225.914 260.32 223.063C263.663 220.212 267.913 218.646 272.307 218.646V207.324Z" fill="#6A6AF4"/>
<path d="M263.012 265.429C266.836 266.685 270.875 267.153 274.885 266.805C278.895 266.456 282.793 265.299 286.343 263.403L281.009 253.416C278.808 254.591 276.392 255.309 273.905 255.525C271.419 255.74 268.915 255.45 266.544 254.672L263.012 265.429Z" fill="#7CD4A5"/>
<path d="M286.343 263.403C290.721 261.066 294.445 257.672 297.178 253.53C299.911 249.387 301.566 244.628 301.993 239.684L290.713 238.71C290.448 241.775 289.422 244.726 287.727 247.294C286.033 249.862 283.724 251.967 281.01 253.416L286.343 263.403Z" fill="#F4F5FD"/>
<path d="M301.993 239.684C302.374 235.268 301.766 230.824 300.212 226.673C298.658 222.523 296.198 218.771 293.011 215.692L285.144 223.835C287.12 225.744 288.645 228.07 289.608 230.643C290.572 233.216 290.949 235.972 290.712 238.709L301.993 239.684Z" fill="#C3C3FB"/>
<path d="M293.011 215.692C287.456 210.324 280.032 207.324 272.307 207.324V218.646C277.097 218.646 281.699 220.506 285.144 223.835L293.011 215.692Z" fill="#C3C3FB"/>
<path d="M244.844 234.803V234.384L245.892 232.733H246.253V233.311H246.039L245.378 234.357V234.377H246.868V234.803H244.844ZM246.049 235.244V234.675L246.059 234.49V232.733H246.557V235.244H246.049ZM248.139 235.278C247.966 235.278 247.811 235.247 247.676 235.183C247.541 235.119 247.434 235.031 247.354 234.919C247.275 234.807 247.234 234.679 247.231 234.534H247.746C247.751 234.631 247.792 234.71 247.868 234.771C247.944 234.831 248.035 234.862 248.139 234.862C248.223 234.862 248.296 234.843 248.36 234.806C248.425 234.769 248.475 234.717 248.511 234.651C248.548 234.584 248.566 234.507 248.566 234.42C248.566 234.332 248.547 234.254 248.51 234.187C248.473 234.12 248.422 234.068 248.356 234.03C248.291 233.992 248.216 233.973 248.132 233.972C248.058 233.972 247.987 233.988 247.917 234.018C247.849 234.048 247.795 234.089 247.757 234.142L247.285 234.057L247.404 232.733H248.939V233.167H247.841L247.776 233.796H247.791C247.835 233.734 247.902 233.682 247.991 233.641C248.08 233.6 248.18 233.58 248.29 233.58C248.441 233.58 248.576 233.616 248.695 233.687C248.813 233.758 248.907 233.856 248.976 233.98C249.044 234.103 249.078 234.245 249.077 234.407C249.078 234.576 249.039 234.726 248.96 234.858C248.881 234.989 248.771 235.092 248.63 235.167C248.489 235.241 248.326 235.278 248.139 235.278ZM250.823 234.773V234.641C250.823 234.54 250.844 234.448 250.886 234.364C250.93 234.279 250.992 234.211 251.074 234.16C251.157 234.109 251.257 234.083 251.376 234.083C251.496 234.083 251.597 234.108 251.679 234.159C251.761 234.21 251.823 234.277 251.865 234.362C251.907 234.447 251.929 234.539 251.929 234.641V234.773C251.929 234.874 251.907 234.967 251.865 235.052C251.822 235.136 251.76 235.203 251.677 235.254C251.595 235.305 251.494 235.331 251.376 235.331C251.255 235.331 251.154 235.305 251.073 235.254C250.991 235.203 250.929 235.136 250.886 235.052C250.844 234.967 250.823 234.874 250.823 234.773ZM251.179 234.641V234.773C251.179 234.831 251.193 234.886 251.221 234.938C251.25 234.989 251.301 235.015 251.376 235.015C251.45 235.015 251.501 234.989 251.528 234.939C251.555 234.888 251.569 234.833 251.569 234.773V234.641C251.569 234.581 251.556 234.526 251.53 234.474C251.504 234.422 251.452 234.397 251.376 234.397C251.302 234.397 251.251 234.422 251.222 234.474C251.194 234.526 251.179 234.581 251.179 234.641ZM249.534 233.336V233.204C249.534 233.102 249.555 233.009 249.599 232.925C249.642 232.84 249.705 232.772 249.786 232.722C249.869 232.671 249.969 232.646 250.086 232.646C250.207 232.646 250.308 232.671 250.39 232.722C250.471 232.772 250.534 232.84 250.576 232.925C250.619 233.009 250.64 233.102 250.64 233.204V233.336C250.64 233.437 250.618 233.53 250.575 233.614C250.532 233.699 250.47 233.766 250.387 233.817C250.305 233.867 250.205 233.891 250.086 233.891C249.966 233.891 249.865 233.866 249.783 233.815C249.701 233.764 249.639 233.697 249.596 233.613C249.555 233.529 249.534 233.437 249.534 233.336ZM249.893 233.204V233.336C249.893 233.396 249.907 233.451 249.935 233.502C249.963 233.552 250.014 233.578 250.086 233.578C250.161 233.578 250.212 233.552 250.239 233.502C250.267 233.451 250.281 233.396 250.281 233.336V233.204C250.281 233.144 250.267 233.088 250.241 233.037C250.215 232.985 250.163 232.959 250.086 232.959C250.013 232.959 249.962 232.986 249.935 233.038C249.907 233.09 249.893 233.145 249.893 233.204ZM249.696 235.244L251.422 232.733H251.744L250.017 235.244H249.696Z" fill="#151531"/>
<path d="M288.066 221.735C287.883 221.735 287.72 221.704 287.576 221.641C287.434 221.577 287.322 221.489 287.239 221.378C287.157 221.266 287.115 221.137 287.113 220.991H287.648C287.651 221.052 287.671 221.106 287.708 221.153C287.745 221.198 287.795 221.234 287.857 221.259C287.919 221.285 287.989 221.297 288.067 221.297C288.148 221.297 288.219 221.283 288.282 221.254C288.344 221.226 288.392 221.186 288.428 221.135C288.463 221.085 288.48 221.026 288.48 220.96C288.48 220.893 288.461 220.834 288.424 220.782C288.387 220.73 288.334 220.689 288.264 220.66C288.196 220.63 288.114 220.615 288.019 220.615H287.785V220.225H288.019C288.099 220.225 288.17 220.211 288.231 220.184C288.293 220.156 288.342 220.117 288.376 220.068C288.41 220.019 288.428 219.961 288.428 219.894C288.428 219.831 288.412 219.776 288.382 219.729C288.353 219.68 288.311 219.643 288.257 219.616C288.204 219.589 288.142 219.575 288.071 219.575C287.999 219.575 287.933 219.589 287.873 219.615C287.814 219.64 287.766 219.676 287.73 219.724C287.694 219.771 287.675 219.827 287.672 219.891H287.163C287.166 219.746 287.207 219.618 287.287 219.508C287.367 219.398 287.475 219.311 287.611 219.249C287.747 219.186 287.901 219.155 288.073 219.155C288.246 219.155 288.398 219.186 288.528 219.249C288.658 219.312 288.759 219.397 288.831 219.504C288.904 219.611 288.94 219.73 288.939 219.862C288.94 220.003 288.896 220.12 288.808 220.214C288.72 220.308 288.606 220.368 288.466 220.393V220.413C288.65 220.437 288.791 220.501 288.887 220.606C288.985 220.709 289.033 220.839 289.032 220.996C289.033 221.139 288.992 221.266 288.908 221.377C288.826 221.488 288.712 221.576 288.566 221.639C288.421 221.703 288.254 221.735 288.066 221.735ZM290.342 221.735C290.159 221.735 289.996 221.704 289.853 221.641C289.711 221.577 289.598 221.489 289.516 221.378C289.434 221.266 289.392 221.137 289.389 220.991H289.924C289.927 221.052 289.947 221.106 289.984 221.153C290.022 221.198 290.072 221.234 290.134 221.259C290.196 221.285 290.266 221.297 290.343 221.297C290.424 221.297 290.496 221.283 290.558 221.254C290.62 221.226 290.669 221.186 290.704 221.135C290.739 221.085 290.757 221.026 290.757 220.96C290.757 220.893 290.738 220.834 290.7 220.782C290.663 220.73 290.61 220.689 290.541 220.66C290.472 220.63 290.39 220.615 290.296 220.615H290.061V220.225H290.296C290.376 220.225 290.446 220.211 290.508 220.184C290.57 220.156 290.618 220.117 290.652 220.068C290.687 220.019 290.704 219.961 290.704 219.894C290.704 219.831 290.689 219.776 290.659 219.729C290.629 219.68 290.587 219.643 290.533 219.616C290.48 219.589 290.418 219.575 290.347 219.575C290.275 219.575 290.209 219.589 290.15 219.615C290.09 219.64 290.042 219.676 290.006 219.724C289.97 219.771 289.951 219.827 289.948 219.891H289.44C289.442 219.746 289.483 219.618 289.563 219.508C289.644 219.398 289.751 219.311 289.887 219.249C290.024 219.186 290.178 219.155 290.349 219.155C290.523 219.155 290.674 219.186 290.804 219.249C290.934 219.312 291.035 219.397 291.107 219.504C291.18 219.611 291.216 219.73 291.215 219.862C291.216 220.003 291.172 220.12 291.084 220.214C290.997 220.308 290.883 220.368 290.742 220.393V220.413C290.927 220.437 291.067 220.501 291.164 220.606C291.261 220.709 291.309 220.839 291.308 220.996C291.309 221.139 291.268 221.266 291.185 221.377C291.102 221.488 290.988 221.576 290.842 221.639C290.697 221.703 290.53 221.735 290.342 221.735ZM293.065 221.23V221.097C293.065 220.997 293.086 220.904 293.129 220.82C293.172 220.735 293.235 220.667 293.316 220.617C293.399 220.565 293.499 220.539 293.618 220.539C293.738 220.539 293.839 220.565 293.921 220.615C294.003 220.666 294.066 220.734 294.107 220.819C294.15 220.903 294.171 220.996 294.171 221.097V221.23C294.171 221.33 294.15 221.423 294.107 221.508C294.065 221.592 294.002 221.66 293.92 221.71C293.837 221.762 293.737 221.788 293.618 221.788C293.498 221.788 293.397 221.762 293.315 221.71C293.233 221.66 293.171 221.592 293.129 221.508C293.086 221.423 293.065 221.33 293.065 221.23ZM293.422 221.097V221.23C293.422 221.288 293.436 221.343 293.463 221.394C293.492 221.446 293.544 221.471 293.618 221.471C293.692 221.471 293.743 221.446 293.77 221.395C293.798 221.345 293.812 221.289 293.812 221.23V221.097C293.812 221.038 293.799 220.982 293.773 220.931C293.746 220.879 293.695 220.853 293.618 220.853C293.544 220.853 293.493 220.879 293.465 220.931C293.436 220.982 293.422 221.038 293.422 221.097ZM291.776 219.793V219.66C291.776 219.559 291.798 219.466 291.841 219.382C291.884 219.297 291.947 219.229 292.029 219.178C292.111 219.127 292.211 219.102 292.328 219.102C292.449 219.102 292.55 219.127 292.632 219.178C292.714 219.229 292.776 219.297 292.818 219.382C292.861 219.466 292.882 219.559 292.882 219.66V219.793C292.882 219.894 292.861 219.987 292.817 220.071C292.775 220.155 292.712 220.223 292.63 220.273C292.548 220.323 292.447 220.348 292.328 220.348C292.209 220.348 292.108 220.323 292.025 220.272C291.943 220.22 291.881 220.153 291.839 220.07C291.797 219.985 291.776 219.893 291.776 219.793ZM292.135 219.66V219.793C292.135 219.852 292.149 219.907 292.177 219.958C292.206 220.009 292.256 220.034 292.328 220.034C292.403 220.034 292.454 220.009 292.481 219.958C292.509 219.907 292.523 219.852 292.523 219.793V219.66C292.523 219.6 292.51 219.545 292.484 219.493C292.457 219.442 292.406 219.416 292.328 219.416C292.255 219.416 292.205 219.442 292.177 219.495C292.149 219.547 292.135 219.602 292.135 219.66ZM291.938 221.701L293.665 219.189H293.986L292.259 221.701H291.938Z" fill="#151531"/>
<path d="M291.481 248.714V251.226H290.95V249.218H290.935L290.36 249.579V249.108L290.982 248.714H291.481ZM292.078 251.226V250.843L292.972 250.015C293.048 249.942 293.112 249.876 293.163 249.817C293.216 249.758 293.255 249.7 293.282 249.644C293.309 249.587 293.323 249.525 293.323 249.459C293.323 249.385 293.306 249.322 293.272 249.269C293.239 249.215 293.193 249.173 293.135 249.145C293.077 249.115 293.011 249.101 292.938 249.101C292.861 249.101 292.794 249.116 292.737 249.147C292.679 249.178 292.635 249.223 292.604 249.281C292.573 249.339 292.557 249.408 292.557 249.488H292.053C292.053 249.324 292.091 249.181 292.165 249.06C292.239 248.939 292.344 248.846 292.478 248.779C292.612 248.713 292.766 248.68 292.941 248.68C293.121 248.68 293.278 248.712 293.411 248.776C293.545 248.839 293.649 248.926 293.724 249.038C293.798 249.15 293.835 249.278 293.835 249.423C293.835 249.518 293.817 249.612 293.779 249.704C293.742 249.796 293.676 249.899 293.581 250.012C293.487 250.124 293.353 250.258 293.18 250.415L292.814 250.775V250.792H293.868V251.226H292.078ZM295.628 250.755V250.622C295.628 250.522 295.649 250.43 295.692 250.345C295.735 250.26 295.798 250.192 295.879 250.142C295.962 250.09 296.062 250.064 296.181 250.064C296.301 250.064 296.402 250.09 296.484 250.141C296.566 250.191 296.629 250.259 296.67 250.344C296.713 250.428 296.734 250.521 296.734 250.622V250.755C296.734 250.855 296.713 250.948 296.67 251.033C296.628 251.118 296.565 251.185 296.483 251.236C296.4 251.287 296.3 251.313 296.181 251.313C296.061 251.313 295.96 251.287 295.878 251.236C295.796 251.185 295.734 251.118 295.692 251.033C295.649 250.948 295.628 250.855 295.628 250.755ZM295.985 250.622V250.755C295.985 250.813 295.999 250.868 296.026 250.919C296.055 250.971 296.107 250.997 296.181 250.997C296.255 250.997 296.306 250.971 296.333 250.92C296.361 250.87 296.375 250.815 296.375 250.755V250.622C296.375 250.563 296.362 250.507 296.336 250.456C296.309 250.404 296.258 250.378 296.181 250.378C296.107 250.378 296.056 250.404 296.028 250.456C295.999 250.507 295.985 250.563 295.985 250.622ZM294.339 249.318V249.185C294.339 249.084 294.361 248.991 294.404 248.907C294.447 248.822 294.51 248.754 294.592 248.703C294.674 248.653 294.774 248.627 294.891 248.627C295.012 248.627 295.113 248.653 295.195 248.703C295.277 248.754 295.339 248.822 295.381 248.907C295.424 248.991 295.445 249.084 295.445 249.185V249.318C295.445 249.419 295.424 249.512 295.38 249.596C295.338 249.68 295.275 249.748 295.193 249.798C295.111 249.848 295.01 249.873 294.891 249.873C294.772 249.873 294.671 249.848 294.588 249.797C294.506 249.746 294.444 249.678 294.402 249.595C294.36 249.511 294.339 249.418 294.339 249.318ZM294.698 249.185V249.318C294.698 249.377 294.712 249.433 294.74 249.483C294.769 249.534 294.819 249.559 294.891 249.559C294.966 249.559 295.017 249.534 295.044 249.483C295.072 249.433 295.086 249.377 295.086 249.318V249.185C295.086 249.126 295.073 249.07 295.047 249.018C295.02 248.967 294.969 248.941 294.891 248.941C294.818 248.941 294.768 248.967 294.74 249.02C294.712 249.072 294.698 249.127 294.698 249.185ZM294.501 251.226L296.228 248.714H296.549L294.822 251.226H294.501Z" fill="#151531"/>
<path d="M271.978 259.008V261.519H271.447V259.512H271.432L270.857 259.872V259.401L271.479 259.008H271.978ZM273.559 261.574C273.348 261.574 273.167 261.522 273.015 261.419C272.864 261.316 272.747 261.167 272.665 260.971C272.584 260.776 272.544 260.541 272.545 260.266C272.545 259.992 272.586 259.759 272.667 259.566C272.748 259.373 272.865 259.226 273.016 259.125C273.168 259.024 273.349 258.973 273.559 258.973C273.77 258.973 273.95 259.024 274.101 259.125C274.254 259.227 274.37 259.374 274.452 259.567C274.534 259.759 274.574 259.992 274.574 260.266C274.574 260.541 274.533 260.777 274.451 260.972C274.37 261.168 274.254 261.317 274.103 261.42C273.951 261.523 273.77 261.574 273.559 261.574ZM273.559 261.134C273.703 261.134 273.818 261.062 273.904 260.917C273.99 260.772 274.032 260.555 274.032 260.266C274.032 260.075 274.012 259.917 273.973 259.79C273.934 259.663 273.88 259.568 273.808 259.504C273.738 259.441 273.655 259.409 273.559 259.409C273.416 259.409 273.302 259.48 273.216 259.623C273.13 259.766 273.087 259.981 273.086 260.266C273.086 260.459 273.105 260.62 273.144 260.749C273.183 260.878 273.238 260.974 273.309 261.039C273.38 261.102 273.464 261.134 273.559 261.134ZM276.327 261.048V260.916C276.327 260.815 276.348 260.723 276.391 260.639C276.434 260.554 276.497 260.486 276.578 260.435C276.661 260.384 276.761 260.358 276.88 260.358C277 260.358 277.101 260.383 277.183 260.434C277.266 260.485 277.328 260.553 277.369 260.638C277.412 260.722 277.433 260.815 277.433 260.916V261.048C277.433 261.149 277.412 261.242 277.369 261.327C277.327 261.411 277.264 261.478 277.182 261.529C277.099 261.581 276.999 261.606 276.88 261.606C276.76 261.606 276.659 261.581 276.577 261.529C276.495 261.478 276.433 261.411 276.391 261.327C276.348 261.242 276.327 261.149 276.327 261.048ZM276.684 260.916V261.048C276.684 261.106 276.698 261.161 276.726 261.213C276.754 261.264 276.806 261.29 276.88 261.29C276.954 261.29 277.005 261.265 277.032 261.214C277.06 261.163 277.074 261.108 277.074 261.048V260.916C277.074 260.856 277.061 260.801 277.035 260.749C277.008 260.698 276.957 260.672 276.88 260.672C276.806 260.672 276.755 260.698 276.727 260.749C276.698 260.801 276.684 260.856 276.684 260.916ZM275.038 259.611V259.479C275.038 259.377 275.06 259.284 275.103 259.2C275.146 259.115 275.209 259.047 275.291 258.997C275.373 258.946 275.473 258.921 275.59 258.921C275.711 258.921 275.812 258.946 275.894 258.997C275.976 259.047 276.038 259.115 276.08 259.2C276.123 259.284 276.144 259.377 276.144 259.479V259.611C276.144 259.712 276.123 259.805 276.079 259.889C276.037 259.974 275.974 260.041 275.892 260.092C275.81 260.142 275.709 260.167 275.59 260.167C275.471 260.167 275.37 260.141 275.287 260.091C275.205 260.039 275.143 259.972 275.101 259.888C275.059 259.804 275.038 259.712 275.038 259.611ZM275.397 259.479V259.611C275.397 259.671 275.411 259.726 275.439 259.777C275.468 259.827 275.518 259.853 275.59 259.853C275.665 259.853 275.716 259.827 275.743 259.777C275.771 259.726 275.785 259.671 275.785 259.611V259.479C275.785 259.419 275.772 259.363 275.746 259.312C275.72 259.26 275.668 259.235 275.59 259.235C275.517 259.235 275.467 259.261 275.439 259.313C275.411 259.365 275.397 259.421 275.397 259.479ZM275.2 261.519L276.927 259.008H277.248L275.521 261.519H275.2Z" fill="#151531"/>
<circle cx="320.805" cy="220.627" r="3.48679" fill="#6A6AF4"/>
<circle cx="320.805" cy="232.672" r="3.48679" fill="#7CD4A5"/>
<circle cx="320.805" cy="244.717" r="3.48679" fill="#F4F5FD"/>
<circle cx="320.805" cy="256.763" r="3.48679" fill="#C3C3FB"/>
<rect x="326.828" y="217.14" width="67.1002" height="6.97358" rx="3.48679" fill="#EEEEEE"/>
<rect x="326.828" y="229.186" width="67.1002" height="6.97358" rx="3.48679" fill="#EEEEEE"/>
<rect x="326.828" y="241.231" width="67.1002" height="6.97358" rx="3.48679" fill="#EEEEEE"/>
<rect x="326.828" y="253.276" width="67.1002" height="6.97358" rx="3.48679" fill="#EEEEEE"/>
<rect x="0.411181" y="0.411181" width="420.646" height="312.086" rx="14.2841" stroke="#C3C3FB" stroke-width="0.822362"/>
</g>
</g>
<path d="M49.8821 38.6489V36.848H57.8954V38.6489H54.88V46.6204H52.8976V38.6489H49.8821ZM64.868 45.4756C64.2119 46.3551 63.123 46.8996 61.7967 46.8996C59.2978 46.8996 57.8878 45.1545 57.8878 43.1023C57.8878 41.0222 59.2001 39.3051 61.5036 39.3051C63.458 39.3051 64.7424 40.6313 64.7424 42.4741C64.7424 42.865 64.6866 43.228 64.6307 43.4653H59.7027C59.8702 44.7776 60.6799 45.3081 61.7828 45.3081C62.5506 45.3081 63.2207 44.973 63.5976 44.4704L64.868 45.4756ZM61.4617 40.757C60.5543 40.757 59.954 41.2595 59.7585 42.1809H62.9973C62.9694 41.4689 62.4529 40.757 61.4617 40.757ZM66.4749 46.6204V39.5843H68.2479V40.2823C68.7086 39.8076 69.3089 39.4447 70.1046 39.4447C70.342 39.4447 70.5514 39.4866 70.7189 39.5424V41.2875C70.4955 41.2316 70.2582 41.1897 69.9371 41.1897C69.0716 41.1897 68.5131 41.6644 68.2479 42.1111V46.6204H66.4749ZM72.1464 46.6204V39.5843H73.9193V40.2823C74.38 39.8076 74.9803 39.4447 75.7761 39.4447C76.0134 39.4447 76.2228 39.4866 76.3903 39.5424V41.2875C76.167 41.2316 75.9297 41.1897 75.6086 41.1897C74.743 41.1897 74.1846 41.6644 73.9193 42.1111V46.6204H72.1464ZM78.7113 38.3558C78.0831 38.3558 77.5526 37.8253 77.5526 37.197C77.5526 36.5688 78.0831 36.0383 78.7113 36.0383C79.3395 36.0383 79.856 36.5688 79.856 37.197C79.856 37.8253 79.3395 38.3558 78.7113 38.3558ZM77.8178 46.6204V39.5843H79.5908V46.6204H77.8178ZM82.1637 44.0516V41.1758H80.8514V39.5843H82.1637V37.8253H83.9506V39.5843H86.1005V41.1758H83.9506V44.0516C83.9506 44.8334 84.3694 45.1405 85.0674 45.1405C85.5561 45.1405 85.8772 45.0847 86.1145 44.987V46.5366C85.7655 46.6902 85.3467 46.76 84.7603 46.76C83.0013 46.76 82.1637 45.7688 82.1637 44.0516ZM90.9025 39.3051C93.192 39.3051 94.7556 40.9943 94.7556 43.1023C94.7556 45.2104 93.192 46.8996 90.9025 46.8996C88.613 46.8996 87.0494 45.2104 87.0494 43.1023C87.0494 40.9943 88.613 39.3051 90.9025 39.3051ZM90.9304 45.2243C92.0612 45.2243 92.9128 44.3169 92.9128 43.1023C92.9128 41.8738 92.0612 40.9803 90.9304 40.9803C89.7577 40.9803 88.8922 41.8738 88.8922 43.1023C88.8922 44.3308 89.7577 45.2243 90.9304 45.2243ZM97.2662 38.3558C96.638 38.3558 96.1075 37.8253 96.1075 37.197C96.1075 36.5688 96.638 36.0383 97.2662 36.0383C97.8944 36.0383 98.4109 36.5688 98.4109 37.197C98.4109 37.8253 97.8944 38.3558 97.2662 38.3558ZM96.3727 46.6204V39.5843H98.1457V46.6204H96.3727ZM100.272 46.6204V39.5843H102.045V40.2823C102.506 39.8076 103.106 39.4447 103.902 39.4447C104.139 39.4447 104.348 39.4866 104.516 39.5424V41.2875C104.292 41.2316 104.055 41.1897 103.734 41.1897C102.868 41.1897 102.31 41.6644 102.045 42.1111V46.6204H100.272ZM112.121 45.4756C111.465 46.3551 110.376 46.8996 109.05 46.8996C106.551 46.8996 105.141 45.1545 105.141 43.1023C105.141 41.0222 106.453 39.3051 108.757 39.3051C110.711 39.3051 111.995 40.6313 111.995 42.4741C111.995 42.865 111.94 43.228 111.884 43.4653H106.956C107.123 44.7776 107.933 45.3081 109.036 45.3081C109.804 45.3081 110.474 44.973 110.851 44.4704L112.121 45.4756ZM108.715 40.757C107.807 40.757 107.207 41.2595 107.011 42.1809H110.25C110.222 41.4689 109.706 40.757 108.715 40.757ZM113.018 45.6012L114.191 44.5402C114.624 45.0847 115.14 45.4756 115.81 45.4756C116.383 45.4756 116.676 45.1405 116.676 44.7217C116.676 43.4932 113.311 43.9539 113.311 41.4829C113.311 40.2404 114.358 39.3051 115.824 39.3051C116.899 39.3051 117.876 39.8216 118.379 40.5057L117.206 41.5387C116.843 41.092 116.383 40.729 115.838 40.729C115.28 40.729 115.015 41.0362 115.015 41.3991C115.015 42.5997 118.379 42.1809 118.379 44.6101C118.351 46.0899 117.164 46.8996 115.838 46.8996C114.582 46.8996 113.688 46.397 113.018 45.6012ZM133.88 45.4756C133.224 46.3551 132.135 46.8996 130.808 46.8996C128.31 46.8996 126.899 45.1545 126.899 43.1023C126.899 41.0222 128.212 39.3051 130.515 39.3051C132.47 39.3051 133.754 40.6313 133.754 42.4741C133.754 42.865 133.698 43.228 133.642 43.4653H128.714C128.882 44.7776 129.692 45.3081 130.794 45.3081C131.562 45.3081 132.232 44.973 132.609 44.4704L133.88 45.4756ZM130.473 40.757C129.566 40.757 128.966 41.2595 128.77 42.1809H132.009C131.981 41.4689 131.465 40.757 130.473 40.757ZM135.487 46.6204V39.5843H137.26V40.1427C137.748 39.668 138.404 39.3051 139.34 39.3051C140.861 39.3051 142.076 40.3521 142.076 42.4322V46.6204H140.289V42.502C140.289 41.5667 139.759 40.9803 138.893 40.9803C137.999 40.9803 137.525 41.5806 137.26 42.0274V46.6204H135.487ZM147.224 38.6489V36.848H155.237V38.6489H152.222V46.6204H150.239V38.6489H147.224ZM155.827 46.6204V39.5843H157.6V40.2823C158.061 39.8076 158.661 39.4447 159.457 39.4447C159.695 39.4447 159.904 39.4866 160.071 39.5424V41.2875C159.848 41.2316 159.611 41.1897 159.29 41.1897C158.424 41.1897 157.866 41.6644 157.6 42.1111V46.6204H155.827ZM163.14 46.8298C161.73 46.8298 160.767 46.0201 160.767 44.7217C160.767 43.6607 161.591 42.865 163.099 42.6137L165.249 42.2507V42.0692C165.249 41.3293 164.69 40.8547 163.88 40.8547C163.196 40.8547 162.666 41.1758 162.289 41.6923L160.991 40.7011C161.619 39.8356 162.652 39.3051 163.936 39.3051C165.974 39.3051 167.021 40.5196 167.021 42.0692V46.6204H165.249V45.9363C164.802 46.4808 163.964 46.8298 163.14 46.8298ZM162.526 44.638C162.526 45.1126 162.903 45.4198 163.503 45.4198C164.313 45.4198 164.899 45.0428 165.249 44.4844V43.4932L163.573 43.7724C162.833 43.8981 162.526 44.2052 162.526 44.638ZM169.052 46.6204V39.5843H170.825V40.1427C171.313 39.668 171.969 39.3051 172.905 39.3051C174.427 39.3051 175.641 40.3521 175.641 42.4322V46.6204H173.854V42.502C173.854 41.5667 173.324 40.9803 172.458 40.9803C171.565 40.9803 171.09 41.5806 170.825 42.0274V46.6204H169.052ZM177.04 45.6012L178.213 44.5402C178.646 45.0847 179.162 45.4756 179.832 45.4756C180.405 45.4756 180.698 45.1405 180.698 44.7217C180.698 43.4932 177.333 43.9539 177.333 41.4829C177.333 40.2404 178.38 39.3051 179.846 39.3051C180.921 39.3051 181.898 39.8216 182.401 40.5057L181.228 41.5387C180.865 41.092 180.405 40.729 179.86 40.729C179.302 40.729 179.036 41.0362 179.036 41.3991C179.036 42.5997 182.401 42.1809 182.401 44.6101C182.373 46.0899 181.186 46.8996 179.86 46.8996C178.604 46.8996 177.71 46.397 177.04 45.6012ZM184.928 38.3558C184.3 38.3558 183.769 37.8253 183.769 37.197C183.769 36.5688 184.3 36.0383 184.928 36.0383C185.556 36.0383 186.073 36.5688 186.073 37.197C186.073 37.8253 185.556 38.3558 184.928 38.3558ZM184.035 46.6204V39.5843H185.808V46.6204H184.035ZM188.381 44.0516V41.1758H187.068V39.5843H188.381V37.8253H190.168V39.5843H192.317V41.1758H190.168V44.0516C190.168 44.8334 190.586 45.1405 191.284 45.1405C191.773 45.1405 192.094 45.0847 192.331 44.987V46.5366C191.982 46.6902 191.564 46.76 190.977 46.76C189.218 46.76 188.381 45.7688 188.381 44.0516ZM194.799 38.3558C194.17 38.3558 193.64 37.8253 193.64 37.197C193.64 36.5688 194.17 36.0383 194.799 36.0383C195.427 36.0383 195.943 36.5688 195.943 37.197C195.943 37.8253 195.427 38.3558 194.799 38.3558ZM193.905 46.6204V39.5843H195.678V46.6204H193.905ZM201.155 39.3051C203.444 39.3051 205.008 40.9943 205.008 43.1023C205.008 45.2104 203.444 46.8996 201.155 46.8996C198.865 46.8996 197.302 45.2104 197.302 43.1023C197.302 40.9943 198.865 39.3051 201.155 39.3051ZM201.183 45.2243C202.314 45.2243 203.165 44.3169 203.165 43.1023C203.165 41.8738 202.314 40.9803 201.183 40.9803C200.01 40.9803 199.145 41.8738 199.145 43.1023C199.145 44.3308 200.01 45.2243 201.183 45.2243ZM206.625 46.6204V39.5843H208.398V40.1427C208.887 39.668 209.543 39.3051 210.478 39.3051C212 39.3051 213.214 40.3521 213.214 42.4322V46.6204H211.427V42.502C211.427 41.5667 210.897 40.9803 210.031 40.9803C209.138 40.9803 208.663 41.5806 208.398 42.0274V46.6204H206.625ZM214.613 45.6012L215.786 44.5402C216.219 45.0847 216.735 45.4756 217.406 45.4756C217.978 45.4756 218.271 45.1405 218.271 44.7217C218.271 43.4932 214.907 43.9539 214.907 41.4829C214.907 40.2404 215.954 39.3051 217.419 39.3051C218.494 39.3051 219.472 39.8216 219.974 40.5057L218.802 41.5387C218.439 41.092 217.978 40.729 217.433 40.729C216.875 40.729 216.61 41.0362 216.61 41.3991C216.61 42.5997 219.974 42.1809 219.974 44.6101C219.946 46.0899 218.76 46.8996 217.433 46.8996C216.177 46.8996 215.284 46.397 214.613 45.6012Z" fill="#404092"/>
<path d="M36.4364 100.758V94.2381H37.759V100.758H36.4364ZM39.4231 100.758V96.0637H40.606V96.4362C40.932 96.1196 41.3698 95.8774 41.9938 95.8774C43.0091 95.8774 43.8194 96.576 43.8194 97.9638V100.758H42.6272V98.0104C42.6272 97.3863 42.2733 96.9951 41.6958 96.9951C41.0997 96.9951 40.783 97.3956 40.606 97.6937V100.758H39.4231ZM44.8273 98.4109C44.8273 97.0417 45.7308 95.8774 47.2118 95.8774C47.8451 95.8774 48.3015 96.073 48.6648 96.4362V93.7724H49.857V100.758H48.6648V100.385C48.3015 100.749 47.8451 100.944 47.2118 100.944C45.7308 100.944 44.8273 99.7801 44.8273 98.4109ZM46.0661 98.4109C46.0661 99.2305 46.5784 99.8266 47.3794 99.8266C47.9103 99.8266 48.3481 99.6031 48.6648 99.1746V97.6471C48.3481 97.2186 47.9103 96.9951 47.3794 96.9951C46.5784 96.9951 46.0661 97.5912 46.0661 98.4109ZM51.8712 95.244C51.4521 95.244 51.0982 94.8901 51.0982 94.4709C51.0982 94.0518 51.4521 93.6978 51.8712 93.6978C52.2904 93.6978 52.635 94.0518 52.635 94.4709C52.635 94.8901 52.2904 95.244 51.8712 95.244ZM51.2751 100.758V96.0637H52.458V100.758H51.2751ZM56.1306 99.8266C56.5963 99.8266 56.9689 99.6124 57.1924 99.2864L58.1146 99.9943C57.6768 100.572 56.9875 100.944 56.1306 100.944C54.5099 100.944 53.5413 99.7801 53.5413 98.4109C53.5413 97.0417 54.5099 95.8774 56.1306 95.8774C56.9875 95.8774 57.6768 96.25 58.1146 96.8274L57.1924 97.5353C56.9689 97.2093 56.5963 96.9951 56.112 96.9951C55.3389 96.9951 54.7707 97.5912 54.7707 98.4109C54.7707 99.2398 55.3389 99.8266 56.1306 99.8266ZM60.2384 100.898C59.2976 100.898 58.6549 100.358 58.6549 99.4913C58.6549 98.7834 59.2045 98.2525 60.2104 98.0849L61.6448 97.8427V97.7216C61.6448 97.228 61.2722 96.9113 60.732 96.9113C60.2756 96.9113 59.9217 97.1255 59.6702 97.4701L58.804 96.8088C59.2231 96.2313 59.9124 95.8774 60.7693 95.8774C62.1291 95.8774 62.8277 96.6877 62.8277 97.7216V100.758H61.6448V100.302C61.3467 100.665 60.7879 100.898 60.2384 100.898ZM59.8285 99.4354C59.8285 99.7521 60.08 99.957 60.4805 99.957C61.0207 99.957 61.4119 99.7055 61.6448 99.333V98.6717L60.5271 98.8579C60.0334 98.9418 59.8285 99.1467 59.8285 99.4354ZM64.4803 99.0442V97.1255H63.6048V96.0637H64.4803V94.8901H65.6726V96.0637H67.107V97.1255H65.6726V99.0442C65.6726 99.5658 65.952 99.7707 66.4177 99.7707C66.7437 99.7707 66.9579 99.7335 67.1163 99.6683V100.702C66.8834 100.805 66.604 100.851 66.2128 100.851C65.0392 100.851 64.4803 100.19 64.4803 99.0442ZM72.3972 99.9943C71.9594 100.581 71.2329 100.944 70.348 100.944C68.6808 100.944 67.74 99.7801 67.74 98.4109C67.74 97.023 68.6156 95.8774 70.1524 95.8774C71.4564 95.8774 72.3133 96.7622 72.3133 97.9917C72.3133 98.2525 72.2761 98.4947 72.2388 98.653H68.9509C69.0627 99.5286 69.6029 99.8825 70.3387 99.8825C70.851 99.8825 71.2981 99.659 71.5496 99.3237L72.3972 99.9943ZM70.1245 96.8461C69.5191 96.8461 69.1185 97.1814 68.9881 97.7961H71.1491C71.1304 97.3211 70.7858 96.8461 70.1245 96.8461ZM76.507 98.7275V96.0637H77.6992V98.6717C77.6992 100.078 76.8796 100.944 75.5011 100.944C74.1226 100.944 73.3122 100.078 73.3122 98.6717V96.0637H74.5044V98.7275C74.5044 99.4075 74.8584 99.8266 75.5104 99.8266C76.1531 99.8266 76.507 99.4075 76.507 98.7275ZM79.0087 100.758V96.0637H80.1916V96.5294C80.499 96.2127 80.8995 95.9705 81.4304 95.9705C81.5887 95.9705 81.7285 95.9985 81.8402 96.0357V97.2C81.6912 97.1628 81.5329 97.1348 81.3186 97.1348C80.7411 97.1348 80.3686 97.4515 80.1916 97.7496V100.758H79.0087ZM82.3828 100.078L83.1652 99.3702C83.4539 99.7335 83.7985 99.9943 84.2456 99.9943C84.6275 99.9943 84.8231 99.7707 84.8231 99.4913C84.8231 98.6717 82.5784 98.979 82.5784 97.3304C82.5784 96.5014 83.2769 95.8774 84.2549 95.8774C84.9721 95.8774 85.6241 96.222 85.9595 96.6784L85.1771 97.3677C84.9349 97.0696 84.6275 96.8274 84.2643 96.8274C83.8917 96.8274 83.7147 97.0324 83.7147 97.2745C83.7147 98.0756 85.9595 97.7961 85.9595 99.4168C85.9408 100.404 85.1491 100.944 84.2643 100.944C83.426 100.944 82.8299 100.609 82.3828 100.078Z" fill="#404092"/>
<path d="M40.0019 209.381C40.747 209.381 41.3338 209.017 41.7064 208.486L42.7496 209.287C42.1535 210.098 41.1848 210.619 40.0019 210.619C37.9434 210.619 36.537 209.036 36.537 207.173C36.537 205.31 37.9434 203.727 40.0019 203.727C41.1848 203.727 42.1535 204.258 42.7496 205.049L41.7064 205.86C41.3338 205.329 40.747 204.966 40.0019 204.966C38.7724 204.966 37.8969 205.925 37.8969 207.173C37.8969 208.421 38.7724 209.381 40.0019 209.381ZM43.7391 210.433V203.447H44.922V210.433H43.7391ZM46.9366 204.919C46.5175 204.919 46.1636 204.565 46.1636 204.146C46.1636 203.727 46.5175 203.373 46.9366 203.373C47.3558 203.373 47.7004 203.727 47.7004 204.146C47.7004 204.565 47.3558 204.919 46.9366 204.919ZM46.3405 210.433V205.739H47.5234V210.433H46.3405ZM48.942 210.433V205.739H50.1249V206.093C50.4416 205.785 50.8421 205.552 51.4196 205.552C52.0157 205.552 52.5373 205.813 52.8447 206.316C53.18 205.906 53.6271 205.552 54.4188 205.552C55.3874 205.552 56.1512 206.223 56.1512 207.546V210.433H54.959V207.592C54.959 207.024 54.6516 206.67 54.1207 206.67C53.6084 206.67 53.329 207.024 53.1427 207.341C53.152 207.406 53.152 207.471 53.152 207.546V210.433H51.9598V207.592C51.9598 207.024 51.6524 206.67 51.1215 206.67C50.5813 206.67 50.3019 207.071 50.1249 207.369V210.433H48.942ZM58.8239 210.573C57.8832 210.573 57.2405 210.033 57.2405 209.166C57.2405 208.458 57.79 207.928 58.796 207.76L60.2303 207.518V207.397C60.2303 206.903 59.8578 206.586 59.3176 206.586C58.8612 206.586 58.5072 206.801 58.2557 207.145L57.3895 206.484C57.8086 205.906 58.4979 205.552 59.3548 205.552C60.7147 205.552 61.4133 206.363 61.4133 207.397V210.433H60.2303V209.977C59.9323 210.34 59.3734 210.573 58.8239 210.573ZM58.4141 209.11C58.4141 209.427 58.6656 209.632 59.0661 209.632C59.6063 209.632 59.9975 209.381 60.2303 209.008V208.347L59.1126 208.533C58.619 208.617 58.4141 208.822 58.4141 209.11ZM63.0659 208.719V206.801H62.1903V205.739H63.0659V204.565H64.2581V205.739H65.6925V206.801H64.2581V208.719C64.2581 209.241 64.5375 209.446 65.0033 209.446C65.3293 209.446 65.5435 209.409 65.7018 209.343V210.377C65.469 210.48 65.1895 210.526 64.7983 210.526C63.6247 210.526 63.0659 209.865 63.0659 208.719ZM68.6942 210.433L71.1625 203.913H72.8949L75.3632 210.433H73.9567L73.3327 208.738H70.7247L70.1006 210.433H68.6942ZM71.1345 207.611H72.9228L72.0287 205.161L71.1345 207.611ZM77.0897 204.919C76.6706 204.919 76.3167 204.565 76.3167 204.146C76.3167 203.727 76.6706 203.373 77.0897 203.373C77.5089 203.373 77.8535 203.727 77.8535 204.146C77.8535 204.565 77.5089 204.919 77.0897 204.919ZM76.4936 210.433V205.739H77.6765V210.433H76.4936ZM79.0951 210.433V205.739H80.278V206.204C80.5853 205.888 80.9859 205.646 81.5168 205.646C81.6751 205.646 81.8148 205.674 81.9266 205.711V206.875C81.7776 206.838 81.6192 206.81 81.405 206.81C80.8275 206.81 80.4549 207.127 80.278 207.425V210.433H79.0951ZM88.1279 203.354H86.9263L87.9788 202.097H89.3387L88.1279 203.354ZM85.641 210.433V203.913H89.4412V205.012H86.9636V206.558H89.0686V207.657H86.9636V209.334H89.4412V210.433H85.641ZM90.8016 210.433V205.739H91.9845V206.111C92.3105 205.795 92.7482 205.552 93.3723 205.552C94.3876 205.552 95.1979 206.251 95.1979 207.639V210.433H94.0057V207.685C94.0057 207.061 93.6517 206.67 93.0742 206.67C92.4781 206.67 92.1614 207.071 91.9845 207.369V210.433H90.8016ZM100.863 209.669C100.425 210.256 99.6986 210.619 98.8138 210.619C97.1465 210.619 96.2058 209.455 96.2058 208.086C96.2058 206.698 97.0813 205.552 98.6182 205.552C99.9222 205.552 100.779 206.437 100.779 207.667C100.779 207.928 100.742 208.17 100.705 208.328H97.4166C97.5284 209.204 98.0686 209.558 98.8045 209.558C99.3168 209.558 99.7638 209.334 100.015 208.999L100.863 209.669ZM98.5902 206.521C97.9848 206.521 97.5843 206.856 97.4539 207.471H99.6148C99.5962 206.996 99.2516 206.521 98.5902 206.521ZM101.935 210.433V205.739H103.118V206.204C103.425 205.888 103.826 205.646 104.357 205.646C104.515 205.646 104.655 205.674 104.767 205.711V206.875C104.618 206.838 104.459 206.81 104.245 206.81C103.667 206.81 103.295 207.127 103.118 207.425V210.433H101.935ZM105.162 211.253C105.162 210.787 105.395 210.414 105.814 210.107C105.628 209.921 105.526 209.669 105.526 209.427C105.526 209.055 105.684 208.757 106.038 208.496C105.628 208.188 105.404 207.723 105.404 207.201C105.404 206.288 106.112 205.552 107.286 205.552C107.649 205.552 107.966 205.618 108.236 205.739H109.95V206.745H109.121C109.167 206.894 109.186 207.043 109.186 207.201C109.186 208.123 108.497 208.868 107.286 208.868C107.128 208.868 106.979 208.859 106.839 208.831C106.736 208.924 106.68 209.027 106.68 209.129C106.68 209.315 106.783 209.409 106.997 209.409H108.18C109.363 209.409 110.006 210.042 110.006 210.917C110.006 211.961 109.009 212.762 107.547 212.762C106.047 212.762 105.162 212.24 105.162 211.253ZM107.305 207.974C107.798 207.974 108.115 207.667 108.115 207.201C108.115 206.735 107.798 206.437 107.305 206.437C106.792 206.437 106.485 206.745 106.485 207.201C106.485 207.667 106.792 207.974 107.305 207.974ZM106.28 211.085C106.28 211.532 106.708 211.812 107.537 211.812C108.394 211.812 108.832 211.495 108.832 211.029C108.832 210.675 108.618 210.424 108.05 210.424H106.597C106.42 210.591 106.28 210.796 106.28 211.085ZM111.4 204.919C110.981 204.919 110.627 204.565 110.627 204.146C110.627 203.727 110.981 203.373 111.4 203.373C111.819 203.373 112.163 203.727 112.163 204.146C112.163 204.565 111.819 204.919 111.4 204.919ZM110.804 210.433V205.739H111.986V210.433H110.804ZM117.727 209.669C117.289 210.256 116.563 210.619 115.678 210.619C114.01 210.619 113.07 209.455 113.07 208.086C113.07 206.698 113.945 205.552 115.482 205.552C116.786 205.552 117.643 206.437 117.643 207.667C117.643 207.928 117.606 208.17 117.568 208.328H114.281C114.392 209.204 114.933 209.558 115.668 209.558C116.181 209.558 116.628 209.334 116.879 208.999L117.727 209.669ZM115.454 206.521C114.849 206.521 114.448 206.856 114.318 207.471H116.479C116.46 206.996 116.115 206.521 115.454 206.521Z" fill="#404092"/>
<path d="M236.159 100.758V94.2381H238.311C239.745 94.2381 240.621 94.9739 240.621 96.1848C240.621 97.3863 239.745 98.1221 238.311 98.1221H237.482V100.758H236.159ZM238.367 95.3372H237.482V97.023H238.367C238.926 97.023 239.261 96.697 239.261 96.1661C239.261 95.6725 238.926 95.3372 238.367 95.3372ZM241.557 100.758V93.7724H242.739V100.758H241.557ZM245.481 100.898C244.54 100.898 243.897 100.358 243.897 99.4913C243.897 98.7834 244.447 98.2525 245.453 98.0849L246.887 97.8427V97.7216C246.887 97.228 246.514 96.9113 245.974 96.9113C245.518 96.9113 245.164 97.1255 244.912 97.4701L244.046 96.8088C244.465 96.2313 245.155 95.8774 246.012 95.8774C247.371 95.8774 248.07 96.6877 248.07 97.7216V100.758H246.887V100.302C246.589 100.665 246.03 100.898 245.481 100.898ZM245.071 99.4354C245.071 99.7521 245.322 99.957 245.723 99.957C246.263 99.957 246.654 99.7055 246.887 99.333V98.6717L245.769 98.8579C245.276 98.9418 245.071 99.1467 245.071 99.4354ZM249.425 100.758V96.0637H250.607V96.4362C250.933 96.1196 251.371 95.8774 251.995 95.8774C253.011 95.8774 253.821 96.576 253.821 97.9638V100.758H252.629V98.0104C252.629 97.3863 252.275 96.9951 251.697 96.9951C251.101 96.9951 250.784 97.3956 250.607 97.6937V100.758H249.425ZM254.754 100.078L255.537 99.3702C255.825 99.7335 256.17 99.9943 256.617 99.9943C256.999 99.9943 257.195 99.7707 257.195 99.4913C257.195 98.6717 254.95 98.979 254.95 97.3304C254.95 96.5014 255.648 95.8774 256.626 95.8774C257.344 95.8774 257.996 96.222 258.331 96.6784L257.549 97.3677C257.306 97.0696 256.999 96.8274 256.636 96.8274C256.263 96.8274 256.086 97.0324 256.086 97.2745C256.086 98.0756 258.331 97.7961 258.331 99.4168C258.312 100.404 257.521 100.944 256.636 100.944C255.797 100.944 255.201 100.609 254.754 100.078ZM261.596 98.4109C261.596 97.0417 262.5 95.8774 263.981 95.8774C264.614 95.8774 265.07 96.073 265.434 96.4362V93.7724H266.626V100.758H265.434V100.385C265.07 100.749 264.614 100.944 263.981 100.944C262.5 100.944 261.596 99.7801 261.596 98.4109ZM262.835 98.4109C262.835 99.2305 263.347 99.8266 264.148 99.8266C264.679 99.8266 265.117 99.6031 265.434 99.1746V97.6471C265.117 97.2186 264.679 96.9951 264.148 96.9951C263.347 96.9951 262.835 97.5912 262.835 98.4109ZM268.676 96.9206H267.577L268.415 94.2381H269.756L268.676 96.9206ZM271.577 100.898C270.636 100.898 269.993 100.358 269.993 99.4913C269.993 98.7834 270.543 98.2525 271.549 98.0849L272.983 97.8427V97.7216C272.983 97.228 272.611 96.9113 272.071 96.9113C271.614 96.9113 271.26 97.1255 271.009 97.4701L270.143 96.8088C270.562 96.2313 271.251 95.8774 272.108 95.8774C273.468 95.8774 274.166 96.6877 274.166 97.7216V100.758H272.983V100.302C272.685 100.665 272.126 100.898 271.577 100.898ZM271.167 99.4354C271.167 99.7521 271.419 99.957 271.819 99.957C272.359 99.957 272.751 99.7055 272.983 99.333V98.6717L271.866 98.8579C271.372 98.9418 271.167 99.1467 271.167 99.4354ZM277.775 99.8266C278.241 99.8266 278.613 99.6124 278.837 99.2864L279.759 99.9943C279.321 100.572 278.632 100.944 277.775 100.944C276.154 100.944 275.186 99.7801 275.186 98.4109C275.186 97.0417 276.154 95.8774 277.775 95.8774C278.632 95.8774 279.321 96.25 279.759 96.8274L278.837 97.5353C278.613 97.2093 278.241 96.9951 277.756 96.9951C276.983 96.9951 276.415 97.5912 276.415 98.4109C276.415 99.2398 276.983 99.8266 277.775 99.8266ZM280.985 99.0442V97.1255H280.11V96.0637H280.985V94.8901H282.178V96.0637H283.612V97.1255H282.178V99.0442C282.178 99.5658 282.457 99.7707 282.923 99.7707C283.249 99.7707 283.463 99.7335 283.621 99.6683V100.702C283.388 100.805 283.109 100.851 282.718 100.851C281.544 100.851 280.985 100.19 280.985 99.0442ZM285.267 95.244C284.848 95.244 284.494 94.8901 284.494 94.4709C284.494 94.0518 284.848 93.6978 285.267 93.6978C285.687 93.6978 286.031 94.0518 286.031 94.4709C286.031 94.8901 285.687 95.244 285.267 95.244ZM284.671 100.758V96.0637H285.854V100.758H284.671ZM289.508 95.8774C291.036 95.8774 292.079 97.0044 292.079 98.4109C292.079 99.8173 291.036 100.944 289.508 100.944C287.981 100.944 286.938 99.8173 286.938 98.4109C286.938 97.0044 287.981 95.8774 289.508 95.8774ZM289.527 99.8266C290.281 99.8266 290.849 99.2212 290.849 98.4109C290.849 97.5912 290.281 96.9951 289.527 96.9951C288.744 96.9951 288.167 97.5912 288.167 98.4109C288.167 99.2305 288.744 99.8266 289.527 99.8266ZM293.158 100.758V96.0637H294.341V96.4362C294.667 96.1196 295.105 95.8774 295.729 95.8774C296.744 95.8774 297.554 96.576 297.554 97.9638V100.758H296.362V98.0104C296.362 97.3863 296.008 96.9951 295.431 96.9951C294.834 96.9951 294.518 97.3956 294.341 97.6937V100.758H293.158Z" fill="#404092"/>
<rect x="23.4565" y="31.0981" width="16.483" height="19.0189" rx="3.67381" fill="#8888F6"/>
<path d="M91.6453 224.543C91.4993 224.453 91.3151 224.453 91.1691 224.543L89.6934 225.451C89.3588 225.657 88.9384 225.37 89.0082 224.984L89.3617 223.028C89.3879 222.883 89.342 222.734 89.2385 222.629L87.8731 221.241C87.61 220.973 87.7662 220.52 88.1382 220.472L89.9096 220.241C90.07 220.22 90.2072 220.115 90.2698 219.966L90.9883 218.254C91.1442 217.883 91.6703 217.883 91.8261 218.254L92.5446 219.966C92.6072 220.115 92.7444 220.22 92.9048 220.241L94.6762 220.472C95.0483 220.52 95.2045 220.973 94.9414 221.241L93.576 222.629C93.4725 222.734 93.4265 222.883 93.4528 223.028L93.8062 224.984C93.876 225.37 93.4556 225.657 93.1211 225.451L91.6453 224.543Z" fill="#C5C5C5"/>
<path d="M91.6453 224.543C91.4993 224.453 91.3151 224.453 91.1691 224.543L89.6934 225.451C89.3588 225.657 88.9384 225.37 89.0082 224.984L89.3617 223.028C89.3879 222.883 89.342 222.734 89.2385 222.629L87.8731 221.241C87.61 220.973 87.7662 220.52 88.1382 220.472L89.9096 220.241C90.07 220.22 90.2072 220.115 90.2698 219.966L90.9883 218.254C91.1442 217.883 91.6703 217.883 91.8261 218.254L92.5446 219.966C92.6072 220.115 92.7444 220.22 92.9048 220.241L94.6762 220.472C95.0483 220.52 95.2045 220.973 94.9414 221.241L93.576 222.629C93.4725 222.734 93.4265 222.883 93.4528 223.028L93.8062 224.984C93.876 225.37 93.4556 225.657 93.1211 225.451L91.6453 224.543Z" fill="#E40D18"/>
<path d="M106.178 224.543C106.032 224.453 105.848 224.453 105.702 224.543L104.226 225.451C103.891 225.657 103.471 225.37 103.541 224.984L103.894 223.028C103.92 222.883 103.874 222.734 103.771 222.629L102.406 221.241C102.142 220.973 102.299 220.52 102.671 220.472L104.442 220.241C104.603 220.22 104.74 220.115 104.802 219.966L105.521 218.254C105.677 217.883 106.203 217.883 106.359 218.254L107.077 219.966C107.14 220.115 107.277 220.22 107.437 220.241L109.209 220.472C109.581 220.52 109.737 220.973 109.474 221.241L108.108 222.629C108.005 222.734 107.959 222.883 107.985 223.028L108.339 224.984C108.409 225.37 107.988 225.657 107.654 225.451L106.178 224.543Z" fill="#C5C5C5"/>
<path d="M106.178 224.543C106.032 224.453 105.848 224.453 105.702 224.543L104.226 225.451C103.891 225.657 103.471 225.37 103.541 224.984L103.894 223.028C103.92 222.883 103.874 222.734 103.771 222.629L102.406 221.241C102.142 220.973 102.299 220.52 102.671 220.472L104.442 220.241C104.603 220.22 104.74 220.115 104.802 219.966L105.521 218.254C105.677 217.883 106.203 217.883 106.359 218.254L107.077 219.966C107.14 220.115 107.277 220.22 107.437 220.241L109.209 220.472C109.581 220.52 109.737 220.973 109.474 221.241L108.108 222.629C108.005 222.734 107.959 222.883 107.985 223.028L108.339 224.984C108.409 225.37 107.988 225.657 107.654 225.451L106.178 224.543Z" fill="#E40D18"/>
<path d="M120.71 224.543C120.564 224.453 120.38 224.453 120.234 224.543L118.758 225.451C118.424 225.657 118.003 225.37 118.073 224.984L118.427 223.028C118.453 222.883 118.407 222.734 118.303 222.629L116.938 221.241C116.675 220.973 116.831 220.52 117.203 220.472L118.975 220.241C119.135 220.22 119.272 220.115 119.335 219.966L120.053 218.254C120.209 217.883 120.735 217.883 120.891 218.254L121.61 219.966C121.672 220.115 121.809 220.22 121.97 220.241L123.741 220.472C124.113 220.52 124.269 220.973 124.006 221.241L122.641 222.629C122.537 222.734 122.491 222.883 122.518 223.028L122.871 224.984C122.941 225.37 122.521 225.657 122.186 225.451L120.71 224.543Z" fill="#C5C5C5"/>
<path d="M120.71 224.543C120.564 224.453 120.38 224.453 120.234 224.543L118.758 225.451C118.424 225.657 118.003 225.37 118.073 224.984L118.427 223.028C118.453 222.883 118.407 222.734 118.303 222.629L116.938 221.241C116.675 220.973 116.831 220.52 117.203 220.472L118.975 220.241C119.135 220.22 119.272 220.115 119.335 219.966L120.053 218.254C120.209 217.883 120.735 217.883 120.891 218.254L121.61 219.966C121.672 220.115 121.809 220.22 121.97 220.241L123.741 220.472C124.113 220.52 124.269 220.973 124.006 221.241L122.641 222.629C122.537 222.734 122.491 222.883 122.518 223.028L122.871 224.984C122.941 225.37 122.521 225.657 122.186 225.451L120.71 224.543Z" fill="#E40D18"/>
<path d="M135.243 224.543C135.097 224.453 134.913 224.453 134.767 224.543L133.291 225.451C132.956 225.657 132.536 225.37 132.606 224.984L132.959 223.028C132.985 222.883 132.939 222.734 132.836 222.629L131.471 221.241C131.207 220.973 131.364 220.52 131.736 220.472L133.507 220.241C133.667 220.22 133.805 220.115 133.867 219.966L134.586 218.254C134.742 217.883 135.268 217.883 135.424 218.254L136.142 219.966C136.205 220.115 136.342 220.22 136.502 220.241L138.274 220.472C138.646 220.52 138.802 220.973 138.539 221.241L137.173 222.629C137.07 222.734 137.024 222.883 137.05 223.028L137.404 224.984C137.473 225.37 137.053 225.657 136.718 225.451L135.243 224.543Z" fill="#C5C5C5"/>
<path d="M149.775 224.543C149.629 224.453 149.445 224.453 149.299 224.543L147.823 225.451C147.489 225.657 147.068 225.37 147.138 224.984L147.492 223.028C147.518 222.883 147.472 222.734 147.368 222.629L146.003 221.241C145.74 220.973 145.896 220.52 146.268 220.472L148.04 220.241C148.2 220.22 148.337 220.115 148.4 219.966L149.118 218.254C149.274 217.883 149.8 217.883 149.956 218.254L150.675 219.966C150.737 220.115 150.874 220.22 151.035 220.241L152.806 220.472C153.178 220.52 153.334 220.973 153.071 221.241L151.706 222.629C151.602 222.734 151.556 222.883 151.583 223.028L151.936 224.984C152.006 225.37 151.585 225.657 151.251 225.451L149.775 224.543Z" fill="#C5C5C5"/>
<rect x="86.8529" y="231.203" width="37.4037" height="6.97358" rx="3.48679" fill="#EEEEEE"/>
<rect x="131.864" y="231.203" width="55.1547" height="6.97358" rx="3.48679" fill="#EEEEEE"/>
<rect x="117.282" y="243.248" width="69.7358" height="6.97358" rx="3.48679" fill="#EEEEEE"/>
<rect x="86.8529" y="243.248" width="20.2868" height="6.97358" rx="3.48679" fill="#EEEEEE"/>
<rect x="86.8529" y="254.025" width="32.3321" height="6.97358" rx="3.48679" fill="#EEEEEE"/>
<rect x="126.792" y="254.025" width="60.2264" height="6.97358" rx="3.48679" fill="#EEEEEE"/>
<rect x="86.8529" y="266.071" width="37.4037" height="6.97358" rx="3.48679" fill="#EEEEEE"/>
<rect x="131.864" y="266.071" width="55.1547" height="6.97358" rx="3.48679" fill="#EEEEEE"/>
<rect x="34.2336" y="216.622" width="45.0113" height="58.3245" rx="7.34762" fill="#EEEEEE"/>
<rect x="270.701" y="112.883" width="25.2371" height="5.23788" rx="2.61894" fill="#EEEEEE"/>
<rect x="270.701" y="130.404" width="20.2868" height="4.43773" rx="2.21887" fill="#EEEEEE"/>
<rect x="270.701" y="138.409" width="18.7243" height="4.88459" rx="2.4423" fill="#EEEEEE"/>
<rect x="270.701" y="121.6" width="26.8653" height="4.88459" rx="2.4423" fill="#EEEEEE"/>
<rect x="270.701" y="148.805" width="26.8653" height="4.88459" rx="2.4423" fill="#EEEEEE"/>
<rect x="299.195" y="148.805" width="13.5655" height="4.59572" rx="0.76092" fill="#FFD8D8"/>
<path d="M302.463 150.079H302.119L302.42 149.719H302.809L302.463 150.079ZM301.752 152.103V150.239H302.838V150.553H302.13V150.995H302.732V151.309H302.13V151.789H302.838V152.103H301.752ZM303.304 152.103V150.239H303.683V151.759H304.391V152.103H303.304ZM304.75 152.103V150.239H305.837V150.553H305.129V150.995H305.731V151.309H305.129V151.789H305.837V152.103H304.75ZM306.077 150.239H306.479L307.03 151.696L307.581 150.239H307.983L307.278 152.103H306.782L306.077 150.239ZM309.009 150.079H308.665L308.966 149.719H309.355L309.009 150.079ZM308.298 152.103V150.239H309.385V150.553H308.676V150.995H309.278V151.309H308.676V151.789H309.385V152.103H308.298Z" fill="#F55B5B"/>
<rect x="299.195" y="121.6" width="13.5655" height="4.59572" rx="0.76092" fill="#FFD8D8"/>
<path d="M302.463 122.874H302.119L302.42 122.515H302.809L302.463 122.874ZM301.752 124.898V123.034H302.838V123.348H302.13V123.79H302.732V124.105H302.13V124.584H302.838V124.898H301.752ZM303.304 124.898V123.034H303.683V124.555H304.391V124.898H303.304ZM304.75 124.898V123.034H305.837V123.348H305.129V123.79H305.731V124.105H305.129V124.584H305.837V124.898H304.75ZM306.077 123.034H306.479L307.03 124.491L307.581 123.034H307.983L307.278 124.898H306.782L306.077 123.034ZM309.009 122.874H308.665L308.966 122.515H309.355L309.009 122.874ZM308.298 124.898V123.034H309.385V123.348H308.676V123.79H309.278V124.105H308.676V124.584H309.385V124.898H308.298Z" fill="#F55B5B"/>
<rect x="298.38" y="112.652" width="15.5655" height="4.59572" rx="0.76092" fill="#FFF5DF"/>
<path d="M300.937 115.95V114.086H301.409L301.864 114.869L302.319 114.086H302.791V115.95H302.413V114.613L301.997 115.311H301.731L301.315 114.613V115.95H300.937ZM304.169 114.033C304.755 114.033 305.157 114.485 305.157 115.018C305.157 115.551 304.755 116.003 304.169 116.003C303.58 116.003 303.178 115.551 303.178 115.018C303.178 114.485 303.58 114.033 304.169 114.033ZM304.169 115.649C304.518 115.649 304.768 115.375 304.768 115.018C304.768 114.661 304.518 114.387 304.169 114.387C303.817 114.387 303.567 114.661 303.567 115.018C303.567 115.375 303.817 115.649 304.169 115.649ZM307.056 114.086L306.289 115.157V115.95H305.911V115.165L305.141 114.086H305.602L306.1 114.789L306.598 114.086H307.056ZM307.32 115.95V114.086H308.406V114.4H307.698V114.842H308.3V115.157H307.698V115.636H308.406V115.95H307.32ZM308.872 115.95V114.086H309.357L310.191 115.434V114.086H310.569V115.95H310.084L309.251 114.603V115.95H308.872Z" fill="#FFA903"/>
<rect x="291.054" y="138.409" width="10.5655" height="4.59572" rx="0.76092" fill="#E4FCEF"/>
<path d="M293.611 141.707V139.843H294.159C294.548 139.843 294.785 140.034 294.785 140.349C294.785 140.5 294.716 140.631 294.585 140.716C294.782 140.804 294.892 140.964 294.892 141.158C294.892 141.499 294.628 141.707 294.199 141.707H293.611ZM294.167 140.157H293.989V140.578H294.167C294.311 140.578 294.396 140.5 294.396 140.365C294.396 140.234 294.311 140.157 294.167 140.157ZM294.22 140.892H293.989V141.393H294.22C294.396 141.393 294.503 141.299 294.503 141.142C294.503 140.982 294.396 140.892 294.22 140.892ZM295.049 141.707L295.754 139.843H296.25L296.955 141.707H296.553L296.375 141.222H295.629L295.451 141.707H295.049ZM295.746 140.9H296.258L296.002 140.199L295.746 140.9ZM297.097 141.448L297.371 141.195C297.483 141.339 297.632 141.424 297.784 141.424C297.933 141.424 298.024 141.345 298.024 141.211C298.024 140.868 297.177 140.961 297.177 140.33C297.177 140.034 297.422 139.789 297.779 139.789C298.058 139.789 298.271 139.914 298.431 140.104L298.154 140.354C298.045 140.213 297.923 140.12 297.781 140.12C297.648 140.12 297.56 140.205 297.56 140.317C297.56 140.655 298.407 140.559 298.407 141.198C298.402 141.55 298.13 141.76 297.787 141.76C297.472 141.76 297.262 141.646 297.097 141.448Z" fill="#48A775"/>
<rect x="294.223" y="130.095" width="15.5655" height="4.59572" rx="0.76092" fill="#FFF5DF"/>
<path d="M296.78 133.393V131.528H297.252L297.707 132.311L298.162 131.528H298.634V133.393H298.256V132.056L297.84 132.753H297.574L297.158 132.056V133.393H296.78ZM300.012 131.475C300.598 131.475 301 131.928 301 132.46C301 132.993 300.598 133.446 300.012 133.446C299.423 133.446 299.021 132.993 299.021 132.46C299.021 131.928 299.423 131.475 300.012 131.475ZM300.012 133.092C300.361 133.092 300.611 132.817 300.611 132.46C300.611 132.104 300.361 131.829 300.012 131.829C299.66 131.829 299.41 132.104 299.41 132.46C299.41 132.817 299.66 133.092 300.012 133.092ZM302.899 131.528L302.132 132.599V133.393H301.754V132.607L300.984 131.528H301.445L301.943 132.231L302.441 131.528H302.899ZM303.163 133.393V131.528H304.249V131.843H303.541V132.285H304.143V132.599H303.541V133.078H304.249V133.393H303.163ZM304.715 133.393V131.528H305.2L306.034 132.876V131.528H306.412V133.393H305.927L305.093 132.045V133.393H304.715Z" fill="#FFA903"/>
<rect x="353.751" y="112.883" width="25.2371" height="5.23788" rx="2.61894" fill="#EEEEEE"/>
<rect x="353.751" y="130.404" width="13.3132" height="4.43773" rx="2.21887" fill="#EEEEEE"/>
<rect x="353.751" y="138.409" width="18.7243" height="4.88459" rx="2.4423" fill="#EEEEEE"/>
<rect x="353.751" y="121.6" width="26.8653" height="4.88459" rx="2.4423" fill="#EEEEEE"/>
<rect x="353.751" y="148.805" width="26.8653" height="4.88459" rx="2.4423" fill="#EEEEEE"/>
<rect x="318.249" y="108.215" width="31.6981" height="81.3933" rx="7.34762" fill="#EEEEEE"/>
<rect x="382.244" y="148.805" width="13.5655" height="4.59572" rx="0.76092" fill="#FFD8D8"/>
<path d="M385.512 150.079H385.169L385.47 149.719H385.859L385.512 150.079ZM384.801 152.103V150.239H385.888V150.553H385.179V150.995H385.781V151.309H385.179V151.789H385.888V152.103H384.801ZM386.354 152.103V150.239H386.732V151.759H387.441V152.103H386.354ZM387.8 152.103V150.239H388.887V150.553H388.178V150.995H388.78V151.309H388.178V151.789H388.887V152.103H387.8ZM389.126 150.239H389.528L390.08 151.696L390.631 150.239H391.033L390.327 152.103H389.832L389.126 150.239ZM392.059 150.079H391.715L392.016 149.719H392.405L392.059 150.079ZM391.348 152.103V150.239H392.434V150.553H391.726V150.995H392.328V151.309H391.726V151.789H392.434V152.103H391.348Z" fill="#F55B5B"/>
<rect x="382.244" y="121.6" width="13.5655" height="4.59572" rx="0.76092" fill="#FFF5DF"/>
<path d="M385.512 122.874H385.169L385.47 122.515H385.859L385.512 122.874ZM384.801 124.898V123.034H385.888V123.348H385.179V123.79H385.781V124.105H385.179V124.584H385.888V124.898H384.801ZM386.354 124.898V123.034H386.732V124.555H387.441V124.898H386.354ZM387.8 124.898V123.034H388.887V123.348H388.178V123.79H388.78V124.105H388.178V124.584H388.887V124.898H387.8ZM389.126 123.034H389.528L390.08 124.491L390.631 123.034H391.033L390.327 124.898H389.832L389.126 123.034ZM392.059 122.874H391.715L392.016 122.515H392.405L392.059 122.874ZM391.348 124.898V123.034H392.434V123.348H391.726V123.79H392.328V124.105H391.726V124.584H392.434V124.898H391.348Z" fill="#FFA903"/>
<rect x="381.43" y="112.653" width="15.5655" height="4.59572" rx="0.76092" fill="#FFF5DF"/>
<path d="M383.987 115.951V114.086H384.458L384.914 114.869L385.369 114.086H385.84V115.951H385.462V114.614L385.047 115.312H384.78L384.365 114.614V115.951H383.987ZM387.218 114.033C387.804 114.033 388.206 114.486 388.206 115.019C388.206 115.551 387.804 116.004 387.218 116.004C386.63 116.004 386.228 115.551 386.228 115.019C386.228 114.486 386.63 114.033 387.218 114.033ZM387.218 115.65C387.567 115.65 387.818 115.375 387.818 115.019C387.818 114.662 387.567 114.387 387.218 114.387C386.867 114.387 386.616 114.662 386.616 115.019C386.616 115.375 386.867 115.65 387.218 115.65ZM390.106 114.086L389.339 115.157V115.951H388.96V115.165L388.191 114.086H388.652L389.15 114.79L389.648 114.086H390.106ZM390.369 115.951V114.086H391.456V114.401H390.747V114.843H391.349V115.157H390.747V115.636H391.456V115.951H390.369ZM391.922 115.951V114.086H392.407L393.24 115.434V114.086H393.618V115.951H393.134L392.3 114.603V115.951H391.922Z" fill="#FFA903"/>
<rect x="374.103" y="138.409" width="10.5655" height="4.59572" rx="0.76092" fill="#E4FCEF"/>
<path d="M376.66 141.707V139.843H377.209C377.598 139.843 377.835 140.034 377.835 140.349C377.835 140.5 377.765 140.631 377.635 140.716C377.832 140.804 377.941 140.964 377.941 141.158C377.941 141.499 377.678 141.707 377.249 141.707H376.66ZM377.217 140.157H377.038V140.578H377.217C377.361 140.578 377.446 140.5 377.446 140.365C377.446 140.234 377.361 140.157 377.217 140.157ZM377.27 140.892H377.038V141.393H377.27C377.446 141.393 377.552 141.299 377.552 141.142C377.552 140.982 377.446 140.892 377.27 140.892ZM378.098 141.707L378.804 139.843H379.299L380.005 141.707H379.603L379.424 141.222H378.679L378.5 141.707H378.098ZM378.796 140.9H379.307L379.052 140.199L378.796 140.9ZM380.147 141.448L380.421 141.195C380.533 141.339 380.682 141.424 380.834 141.424C380.983 141.424 381.073 141.345 381.073 141.211C381.073 140.868 380.226 140.961 380.226 140.33C380.226 140.034 380.471 139.789 380.828 139.789C381.108 139.789 381.321 139.914 381.481 140.104L381.204 140.354C381.095 140.213 380.972 140.12 380.831 140.12C380.698 140.12 380.61 140.205 380.61 140.317C380.61 140.655 381.457 140.559 381.457 141.198C381.451 141.55 381.18 141.76 380.836 141.76C380.522 141.76 380.312 141.646 380.147 141.448Z" fill="#48A775"/>
<rect x="369.666" y="130.095" width="10.5655" height="4.59572" rx="0.76092" fill="#E4FCEF"/>
<path d="M372.223 133.393V131.528H372.771C373.16 131.528 373.397 131.72 373.397 132.034C373.397 132.186 373.328 132.317 373.197 132.402C373.394 132.49 373.504 132.65 373.504 132.844C373.504 133.185 373.24 133.393 372.811 133.393H372.223ZM372.779 131.843H372.601V132.263H372.779C372.923 132.263 373.008 132.186 373.008 132.05C373.008 131.92 372.923 131.843 372.779 131.843ZM372.833 132.578H372.601V133.078H372.833C373.008 133.078 373.115 132.985 373.115 132.828C373.115 132.668 373.008 132.578 372.833 132.578ZM373.661 133.393L374.366 131.528H374.862L375.567 133.393H375.165L374.987 132.908H374.241L374.063 133.393H373.661ZM374.358 132.586H374.87L374.614 131.885L374.358 132.586ZM375.709 133.134L375.983 132.881C376.095 133.025 376.244 133.11 376.396 133.11C376.545 133.11 376.636 133.03 376.636 132.897C376.636 132.554 375.789 132.647 375.789 132.016C375.789 131.72 376.034 131.475 376.391 131.475C376.67 131.475 376.884 131.6 377.043 131.789L376.766 132.04C376.657 131.899 376.535 131.805 376.393 131.805C376.26 131.805 376.172 131.891 376.172 132.002C376.172 132.341 377.019 132.245 377.019 132.884C377.014 133.235 376.742 133.446 376.399 133.446C376.085 133.446 375.874 133.331 375.709 133.134Z" fill="#48A775"/>
<rect x="239.004" y="112.883" width="25.2371" height="5.23788" rx="2.61894" fill="#F3F3F3"/>
<mask id="mask1_3566_2906" style="mask-type:alpha" maskUnits="userSpaceOnUse" x="239" y="112" width="26" height="7">
<rect x="239.004" y="112.883" width="25.2371" height="5.23788" rx="2.61894" fill="#D9D9D9"/>
</mask>
<g mask="url(#mask1_3566_2906)">
<rect x="235.2" y="110.751" width="20.9207" height="10.7773" fill="#7CD4A5"/>
</g>
<rect x="239.004" y="121.528" width="25.2371" height="5.23788" rx="2.61894" fill="#F3F3F3"/>
<mask id="mask2_3566_2906" style="mask-type:alpha" maskUnits="userSpaceOnUse" x="239" y="121" width="26" height="6">
<rect x="239.004" y="121.528" width="25.2371" height="5.23788" rx="2.61894" fill="#D9D9D9"/>
</mask>
<g mask="url(#mask2_3566_2906)">
<rect x="235.2" y="119.625" width="13.9472" height="10.7773" fill="#7CD4A5"/>
</g>
<rect x="239.004" y="130.173" width="25.2371" height="5.23788" rx="2.61894" fill="#F3F3F3"/>
<mask id="mask3_3566_2906" style="mask-type:alpha" maskUnits="userSpaceOnUse" x="239" y="130" width="26" height="6">
<rect x="239.004" y="130.173" width="25.2371" height="5.23788" rx="2.61894" fill="#D9D9D9"/>
</mask>
<g mask="url(#mask3_3566_2906)">
<rect x="235.2" y="127.867" width="25.3585" height="10.7773" fill="#7CD4A5"/>
</g>
<rect x="239.004" y="138.818" width="25.2371" height="5.23788" rx="2.61894" fill="#F3F3F3"/>
<mask id="mask4_3566_2906" style="mask-type:alpha" maskUnits="userSpaceOnUse" x="239" y="138" width="26" height="7">
<rect x="239.004" y="138.818" width="25.2371" height="5.23788" rx="2.61894" fill="#D9D9D9"/>
</mask>
<g mask="url(#mask4_3566_2906)">
<rect x="235.2" y="136.743" width="10.1434" height="10.7773" fill="#7CD4A5"/>
</g>
<rect x="239.004" y="147.463" width="25.2371" height="5.23788" rx="2.61894" fill="#F3F3F3"/>
<mask id="mask5_3566_2906" style="mask-type:alpha" maskUnits="userSpaceOnUse" x="239" y="147" width="26" height="6">
<rect x="239.004" y="147.463" width="25.2371" height="5.23788" rx="2.61894" fill="#D9D9D9"/>
</mask>
<g mask="url(#mask5_3566_2906)">
<rect x="235.2" y="145.618" width="25.9924" height="10.7773" fill="#7CD4A5"/>
</g>
<rect x="270.701" y="168.123" width="20.2868" height="4.43773" rx="2.21887" fill="#EEEEEE"/>
<rect x="270.701" y="176.128" width="18.7243" height="4.88459" rx="2.4423" fill="#EEEEEE"/>
<rect x="270.701" y="159.319" width="26.8653" height="4.88459" rx="2.4423" fill="#EEEEEE"/>
<rect x="270.701" y="186.524" width="26.8653" height="4.88459" rx="2.4423" fill="#EEEEEE"/>
<rect x="299.195" y="186.524" width="13.5655" height="4.59572" rx="0.76092" fill="#FFD8D8"/>
<path d="M302.463 187.798H302.119L302.42 187.438H302.809L302.463 187.798ZM301.752 189.822V187.958H302.838V188.272H302.13V188.714H302.732V189.028H302.13V189.508H302.838V189.822H301.752ZM303.305 189.822V187.958H303.683V189.478H304.391V189.822H303.305ZM304.751 189.822V187.958H305.837V188.272H305.129V188.714H305.731V189.028H305.129V189.508H305.837V189.822H304.751ZM306.077 187.958H306.479L307.03 189.415L307.581 187.958H307.984L307.278 189.822H306.782L306.077 187.958ZM309.009 187.798H308.666L308.967 187.438H309.355L309.009 187.798ZM308.298 189.822V187.958H309.385V188.272H308.676V188.714H309.278V189.028H308.676V189.508H309.385V189.822H308.298Z" fill="#F55B5B"/>
<rect x="299.195" y="159.319" width="13.5655" height="4.59572" rx="0.76092" fill="#FFD8D8"/>
<path d="M302.463 160.593H302.119L302.42 160.234H302.809L302.463 160.593ZM301.752 162.617V160.753H302.838V161.067H302.13V161.509H302.732V161.824H302.13V162.303H302.838V162.617H301.752ZM303.305 162.617V160.753H303.683V162.274H304.391V162.617H303.305ZM304.751 162.617V160.753H305.837V161.067H305.129V161.509H305.731V161.824H305.129V162.303H305.837V162.617H304.751ZM306.077 160.753H306.479L307.03 162.21L307.581 160.753H307.984L307.278 162.617H306.782L306.077 160.753ZM309.009 160.593H308.666L308.967 160.234H309.355L309.009 160.593ZM308.298 162.617V160.753H309.385V161.067H308.676V161.509H309.278V161.824H308.676V162.303H309.385V162.617H308.298Z" fill="#F55B5B"/>
<rect x="291.054" y="176.128" width="10.5655" height="4.59572" rx="0.76092" fill="#E4FCEF"/>
<path d="M293.611 179.426V177.561H294.159C294.548 177.561 294.785 177.753 294.785 178.067C294.785 178.219 294.716 178.35 294.585 178.435C294.782 178.523 294.892 178.682 294.892 178.877C294.892 179.218 294.628 179.426 294.199 179.426H293.611ZM294.167 177.876H293.989V178.296H294.167C294.311 178.296 294.396 178.219 294.396 178.083C294.396 177.953 294.311 177.876 294.167 177.876ZM294.22 178.611H293.989V179.111H294.22C294.396 179.111 294.503 179.018 294.503 178.861C294.503 178.701 294.396 178.611 294.22 178.611ZM295.049 179.426L295.754 177.561H296.25L296.955 179.426H296.553L296.375 178.941H295.629L295.451 179.426H295.049ZM295.746 178.619H296.258L296.002 177.918L295.746 178.619ZM297.097 179.167L297.371 178.914C297.483 179.058 297.632 179.143 297.784 179.143C297.933 179.143 298.024 179.063 298.024 178.93C298.024 178.587 297.177 178.68 297.177 178.049C297.177 177.753 297.422 177.508 297.779 177.508C298.058 177.508 298.271 177.633 298.431 177.822L298.154 178.073C298.045 177.931 297.923 177.838 297.781 177.838C297.648 177.838 297.56 177.923 297.56 178.035C297.56 178.374 298.407 178.278 298.407 178.917C298.402 179.268 298.13 179.479 297.787 179.479C297.472 179.479 297.262 179.364 297.097 179.167Z" fill="#48A775"/>
<rect x="294.223" y="167.814" width="15.5655" height="4.59572" rx="0.76092" fill="#FFF5DF"/>
<path d="M296.78 171.112V169.247H297.252L297.707 170.03L298.163 169.247H298.634V171.112H298.256V169.775L297.84 170.472H297.574L297.158 169.775V171.112H296.78ZM300.012 169.194C300.598 169.194 301 169.647 301 170.179C301 170.712 300.598 171.165 300.012 171.165C299.423 171.165 299.021 170.712 299.021 170.179C299.021 169.647 299.423 169.194 300.012 169.194ZM300.012 170.811C300.361 170.811 300.611 170.536 300.611 170.179C300.611 169.823 300.361 169.548 300.012 169.548C299.66 169.548 299.41 169.823 299.41 170.179C299.41 170.536 299.66 170.811 300.012 170.811ZM302.899 169.247L302.132 170.318V171.112H301.754V170.326L300.984 169.247H301.445L301.943 169.95L302.441 169.247H302.899ZM303.163 171.112V169.247H304.249V169.562H303.541V170.004H304.143V170.318H303.541V170.797H304.249V171.112H303.163ZM304.715 171.112V169.247H305.2L306.034 170.595V169.247H306.412V171.112H305.927L305.094 169.764V171.112H304.715Z" fill="#FFA903"/>
<rect x="353.751" y="168.123" width="13.3132" height="4.43773" rx="2.21887" fill="#EEEEEE"/>
<rect x="353.751" y="176.128" width="18.7243" height="4.88459" rx="2.4423" fill="#EEEEEE"/>
<rect x="353.751" y="159.319" width="26.8653" height="4.88459" rx="2.4423" fill="#EEEEEE"/>
<rect x="353.751" y="186.524" width="26.8653" height="4.88459" rx="2.4423" fill="#EEEEEE"/>
<rect x="382.244" y="186.524" width="13.5655" height="4.59572" rx="0.76092" fill="#FFD8D8"/>
<path d="M385.512 187.798H385.169L385.47 187.438H385.859L385.512 187.798ZM384.801 189.822V187.958H385.888V188.272H385.18V188.714H385.781V189.028H385.18V189.508H385.888V189.822H384.801ZM386.354 189.822V187.958H386.732V189.478H387.441V189.822H386.354ZM387.8 189.822V187.958H388.887V188.272H388.178V188.714H388.78V189.028H388.178V189.508H388.887V189.822H387.8ZM389.126 187.958H389.528L390.08 189.415L390.631 187.958H391.033L390.327 189.822H389.832L389.126 187.958ZM392.059 187.798H391.715L392.016 187.438H392.405L392.059 187.798ZM391.348 189.822V187.958H392.434V188.272H391.726V188.714H392.328V189.028H391.726V189.508H392.434V189.822H391.348Z" fill="#F55B5B"/>
<rect x="382.244" y="159.319" width="13.5655" height="4.59572" rx="0.76092" fill="#FFF5DF"/>
<path d="M385.512 160.593H385.169L385.47 160.234H385.859L385.512 160.593ZM384.801 162.617V160.753H385.888V161.067H385.18V161.509H385.781V161.824H385.18V162.303H385.888V162.617H384.801ZM386.354 162.617V160.753H386.732V162.274H387.441V162.617H386.354ZM387.8 162.617V160.753H388.887V161.067H388.178V161.509H388.78V161.824H388.178V162.303H388.887V162.617H387.8ZM389.126 160.753H389.528L390.08 162.21L390.631 160.753H391.033L390.327 162.617H389.832L389.126 160.753ZM392.059 160.593H391.715L392.016 160.234H392.405L392.059 160.593ZM391.348 162.617V160.753H392.434V161.067H391.726V161.509H392.328V161.824H391.726V162.303H392.434V162.617H391.348Z" fill="#FFA903"/>
<rect x="374.103" y="176.128" width="10.5655" height="4.59572" rx="0.76092" fill="#E4FCEF"/>
<path d="M376.66 179.426V177.561H377.209C377.598 177.561 377.835 177.753 377.835 178.067C377.835 178.219 377.765 178.35 377.635 178.435C377.832 178.523 377.941 178.682 377.941 178.877C377.941 179.218 377.678 179.426 377.249 179.426H376.66ZM377.217 177.876H377.038V178.296H377.217C377.361 178.296 377.446 178.219 377.446 178.083C377.446 177.953 377.361 177.876 377.217 177.876ZM377.27 178.611H377.038V179.111H377.27C377.446 179.111 377.552 179.018 377.552 178.861C377.552 178.701 377.446 178.611 377.27 178.611ZM378.098 179.426L378.804 177.561H379.299L380.005 179.426H379.603L379.424 178.941H378.679L378.5 179.426H378.098ZM378.796 178.619H379.307L379.052 177.918L378.796 178.619ZM380.147 179.167L380.421 178.914C380.533 179.058 380.682 179.143 380.834 179.143C380.983 179.143 381.073 179.063 381.073 178.93C381.073 178.587 380.226 178.68 380.226 178.049C380.226 177.753 380.471 177.508 380.828 177.508C381.108 177.508 381.321 177.633 381.481 177.822L381.204 178.073C381.095 177.931 380.972 177.838 380.831 177.838C380.698 177.838 380.61 177.923 380.61 178.035C380.61 178.374 381.457 178.278 381.457 178.917C381.451 179.268 381.18 179.479 380.836 179.479C380.522 179.479 380.312 179.364 380.147 179.167Z" fill="#48A775"/>
<rect x="369.666" y="167.814" width="10.5655" height="4.59572" rx="0.76092" fill="#E4FCEF"/>
<path d="M372.223 171.112V169.247H372.772C373.16 169.247 373.397 169.439 373.397 169.753C373.397 169.905 373.328 170.036 373.198 170.121C373.395 170.209 373.504 170.369 373.504 170.563C373.504 170.904 373.24 171.112 372.811 171.112H372.223ZM372.78 169.562H372.601V169.982H372.78C372.923 169.982 373.009 169.905 373.009 169.769C373.009 169.639 372.923 169.562 372.78 169.562ZM372.833 170.297H372.601V170.797H372.833C373.009 170.797 373.115 170.704 373.115 170.547C373.115 170.387 373.009 170.297 372.833 170.297ZM373.661 171.112L374.367 169.247H374.862L375.568 171.112H375.166L374.987 170.627H374.241L374.063 171.112H373.661ZM374.359 170.305H374.87L374.614 169.604L374.359 170.305ZM375.709 170.853L375.984 170.6C376.095 170.744 376.245 170.829 376.396 170.829C376.546 170.829 376.636 170.749 376.636 170.616C376.636 170.273 375.789 170.366 375.789 169.735C375.789 169.439 376.034 169.194 376.391 169.194C376.671 169.194 376.884 169.319 377.044 169.508L376.767 169.759C376.657 169.618 376.535 169.524 376.394 169.524C376.261 169.524 376.173 169.61 376.173 169.721C376.173 170.06 377.02 169.964 377.02 170.603C377.014 170.954 376.743 171.165 376.399 171.165C376.085 171.165 375.874 171.05 375.709 170.853Z" fill="#48A775"/>
<rect x="239.004" y="160.818" width="25.2371" height="5.23788" rx="2.61894" fill="#F3F3F3"/>
<mask id="mask6_3566_2906" style="mask-type:alpha" maskUnits="userSpaceOnUse" x="239" y="160" width="26" height="7">
<rect x="239.004" y="160.818" width="25.2371" height="5.23788" rx="2.61894" fill="#D9D9D9"/>
</mask>
<g mask="url(#mask6_3566_2906)">
<rect x="235.2" y="158.916" width="13.9472" height="10.7773" fill="#7CD4A5"/>
</g>
<rect x="239.004" y="169.463" width="25.2371" height="5.23788" rx="2.61894" fill="#F3F3F3"/>
<mask id="mask7_3566_2906" style="mask-type:alpha" maskUnits="userSpaceOnUse" x="239" y="169" width="26" height="6">
<rect x="239.004" y="169.463" width="25.2371" height="5.23788" rx="2.61894" fill="#D9D9D9"/>
</mask>
<g mask="url(#mask7_3566_2906)">
<rect x="235.2" y="167.158" width="25.3585" height="10.7773" fill="#7CD4A5"/>
</g>
<rect x="239.004" y="178.109" width="25.2371" height="5.23788" rx="2.61894" fill="#F3F3F3"/>
<mask id="mask8_3566_2906" style="mask-type:alpha" maskUnits="userSpaceOnUse" x="239" y="178" width="26" height="6">
<rect x="239.004" y="178.109" width="25.2371" height="5.23788" rx="2.61894" fill="#D9D9D9"/>
</mask>
<g mask="url(#mask8_3566_2906)">
<rect x="235.2" y="176.034" width="10.1434" height="10.7773" fill="#7CD4A5"/>
</g>
<rect x="239.004" y="186.754" width="25.2371" height="5.23788" rx="2.61894" fill="#F3F3F3"/>
<mask id="mask9_3566_2906" style="mask-type:alpha" maskUnits="userSpaceOnUse" x="239" y="186" width="26" height="6">
<rect x="239.004" y="186.754" width="25.2371" height="5.23788" rx="2.61894" fill="#D9D9D9"/>
</mask>
<g mask="url(#mask9_3566_2906)">
<rect x="235.2" y="184.909" width="25.9924" height="10.7773" fill="#7CD4A5"/>
</g>
<circle cx="27.6726" cy="9.93346" r="3.54772" fill="#F2CACA"/>
<circle cx="39.0246" cy="9.93346" r="3.54772" fill="#FEE1A8"/>
<circle cx="50.3776" cy="9.93346" r="3.54772" fill="#C9E8BE"/>
</g>
<g clip-path="url(#clip0_3566_2906)">
<path d="M335.106 327.025L352.587 319.178L353.283 315.106L351.793 308.054L348.912 301.201L346.628 300.307L343.648 301.201L341.066 296.632L338.483 295.837L335.106 296.632L333.219 295.837L329.743 296.632L327.16 291.665L324.479 290.076L322.393 290.672L320.506 292.361V294.546L327.756 310.338H323.187L320.506 311.928V314.609L335.106 327.025Z" fill="white"/>
<path d="M351.789 305.271L350.437 302.196C350.357 302.014 350.268 301.834 350.173 301.66C349.609 300.629 348.684 299.853 347.568 299.475C346.456 299.098 345.25 299.148 344.172 299.617L343.652 299.843L342.986 298.329L342.986 298.329L342.495 297.213C342.076 296.26 341.31 295.529 340.338 295.154C339.37 294.782 338.318 294.809 337.373 295.23L335.645 295.979C335.325 295.524 334.937 295.177 334.484 294.943C333.539 294.454 332.401 294.495 331.103 295.066L329.866 295.609L328.266 291.968C327.614 290.486 326.405 289.468 324.948 289.177C323.578 288.903 322.184 289.291 321.217 290.213C319.767 291.598 319.35 293.676 320.155 295.507L326.218 309.387C325.711 309.284 325.176 309.237 324.633 309.25C323.222 309.285 321.954 309.733 321.105 310.49C321.049 310.526 320.997 310.568 320.949 310.618C320.096 311.497 319.675 312.56 319.732 313.692C319.804 315.107 320.612 316.502 322.07 317.727C322.077 317.733 322.085 317.739 322.092 317.745L334.556 327.555C334.718 327.682 334.914 327.747 335.112 327.747C335.235 327.747 335.358 327.722 335.474 327.671L353.33 319.822C353.637 319.687 353.844 319.391 353.865 319.055L353.962 317.499C354.223 313.327 353.471 309.098 351.789 305.271ZM352.168 317.387L352.105 318.397L335.244 325.809L323.216 316.342C322.172 315.461 321.573 314.488 321.528 313.601C321.499 313.025 321.696 312.49 322.114 312.006C322.145 311.982 322.174 311.956 322.201 311.927C323.277 310.819 325.96 310.743 327.361 311.77L330.457 314.744C330.631 314.911 330.856 314.994 331.08 314.994C331.316 314.994 331.551 314.902 331.728 314.718C332.072 314.36 332.06 313.791 331.702 313.447L328.69 310.554L321.801 294.785C321.198 293.412 321.745 292.195 322.459 291.514C322.994 291.003 323.813 290.783 324.596 290.94C325.483 291.117 326.202 291.739 326.621 292.691L331.839 304.561C331.987 304.898 332.316 305.099 332.662 305.099C332.783 305.099 332.906 305.074 333.023 305.022C333.478 304.823 333.684 304.292 333.484 303.838L330.59 297.255L331.827 296.711C332.603 296.37 333.219 296.312 333.659 296.539C333.969 296.7 334.231 297.019 334.437 297.487L337.514 304.487C337.662 304.824 337.992 305.025 338.338 305.025C338.459 305.025 338.581 305 338.699 304.948C339.153 304.749 339.36 304.218 339.16 303.764L336.446 297.591L338.093 296.878C338.096 296.876 338.1 296.875 338.103 296.873C338.609 296.646 339.173 296.632 339.692 296.832C340.214 297.033 340.626 297.425 340.85 297.936L344.507 306.256C344.655 306.592 344.985 306.793 345.33 306.793C345.451 306.793 345.574 306.769 345.692 306.717C346.146 306.517 346.352 305.987 346.153 305.532L344.375 301.489L344.889 301.265C346.279 300.66 347.873 301.201 348.596 302.523C348.667 302.651 348.732 302.785 348.791 302.92L350.143 305.994C351.711 309.56 352.411 313.5 352.168 317.387Z" fill="#2A2A62"/>
<path d="M321.715 286.693C321.803 287.118 322.177 287.41 322.594 287.41C322.655 287.41 322.716 287.404 322.777 287.391C323.263 287.291 323.576 286.816 323.476 286.329L322.86 283.348C322.76 282.862 322.284 282.549 321.798 282.65C321.312 282.75 320.999 283.225 321.1 283.711L321.715 286.693Z" fill="#F4C447"/>
<path d="M313.988 286.849C314.25 286.427 314.119 285.873 313.697 285.611L313.076 285.227C312.654 284.965 312.1 285.095 311.838 285.518C311.576 285.94 311.707 286.494 312.129 286.756L312.75 287.14C312.898 287.232 313.061 287.275 313.223 287.275C313.524 287.275 313.818 287.124 313.988 286.849Z" fill="#F4C447"/>
<path d="M315.732 289.125L317.65 290.387C317.803 290.487 317.974 290.535 318.144 290.535C318.436 290.535 318.723 290.392 318.896 290.129C319.169 289.715 319.054 289.157 318.639 288.884L316.72 287.622C316.305 287.349 315.748 287.464 315.475 287.879C315.202 288.294 315.317 288.852 315.732 289.125Z" fill="#F4C447"/>
<path d="M318.085 294.808C317.984 294.322 317.509 294.009 317.023 294.109L314.041 294.725C313.555 294.825 313.242 295.301 313.343 295.787C313.43 296.212 313.805 296.504 314.222 296.504C314.282 296.504 314.343 296.498 314.405 296.485L317.386 295.87C317.872 295.769 318.185 295.294 318.085 294.808Z" fill="#F4C447"/>
<path d="M320.346 299.436C319.931 299.163 319.374 299.278 319.101 299.693L317.428 302.236C317.155 302.651 317.27 303.208 317.685 303.481C317.837 303.581 318.009 303.629 318.178 303.629C318.471 303.629 318.757 303.486 318.93 303.224L320.603 300.68C320.876 300.266 320.761 299.708 320.346 299.436Z" fill="#F4C447"/>
<path d="M330.193 292.086C330.281 292.511 330.655 292.803 331.073 292.803C331.133 292.803 331.194 292.797 331.255 292.784L333.244 292.374C333.731 292.273 334.044 291.798 333.943 291.311C333.843 290.825 333.367 290.512 332.881 290.612L330.892 291.023C330.405 291.123 330.092 291.599 330.193 292.086Z" fill="#F4C447"/>
<path d="M336.663 291.649C336.723 291.649 336.784 291.643 336.845 291.63L337.467 291.502C337.953 291.402 338.266 290.926 338.166 290.439C338.065 289.953 337.59 289.64 337.103 289.741L336.482 289.869C335.995 289.969 335.682 290.445 335.783 290.932C335.871 291.357 336.245 291.649 336.663 291.649Z" fill="#F4C447"/>
<path d="M327.457 288.201C327.609 288.301 327.78 288.349 327.95 288.349C328.242 288.349 328.529 288.206 328.701 287.944L330.374 285.4C330.647 284.986 330.532 284.428 330.117 284.156C329.703 283.883 329.145 283.998 328.873 284.413L327.2 286.956C326.927 287.371 327.042 287.928 327.457 288.201Z" fill="#F4C447"/>
</g>
<defs>
<filter id="filter0_d_3566_2906" x="-38.8438" y="-35.9665" width="499.156" height="390.596" filterUnits="userSpaceOnUse" color-interpolation-filters="sRGB">
<feFlood flood-opacity="0" result="BackgroundImageFix"/>
<feColorMatrix in="SourceAlpha" type="matrix" values="0 0 0 0 0 0 0 0 0 0 0 0 0 0 0 0 0 0 127 0" result="hardAlpha"/>
<feOffset dy="2.87732"/>
<feGaussianBlur stdDeviation="19.4219"/>
<feComposite in2="hardAlpha" operator="out"/>
<feColorMatrix type="matrix" values="0 0 0 0 0.0454155 0 0 0 0 0.0320863 0 0 0 0 0.476383 0 0 0 0.28 0"/>
<feBlend mode="normal" in2="BackgroundImageFix" result="effect1_dropShadow_3566_2906"/>
<feBlend mode="normal" in="SourceGraphic" in2="effect1_dropShadow_3566_2906" result="shape"/>
</filter>
<filter id="filter1_d_3566_2906" x="-164.472" y="-161.183" width="750.413" height="641.853" filterUnits="userSpaceOnUse" color-interpolation-filters="sRGB">
<feFlood flood-opacity="0" result="BackgroundImageFix"/>
<feColorMatrix in="SourceAlpha" type="matrix" values="0 0 0 0 0 0 0 0 0 0 0 0 0 0 0 0 0 0 127 0" result="hardAlpha"/>
<feOffset dy="3.28945"/>
<feGaussianBlur stdDeviation="82.2362"/>
<feComposite in2="hardAlpha" operator="out"/>
<feColorMatrix type="matrix" values="0 0 0 0 1 0 0 0 0 1 0 0 0 0 1 0 0 0 1 0"/>
<feBlend mode="normal" in2="BackgroundImageFix" result="effect1_dropShadow_3566_2906"/>
<feBlend mode="normal" in="SourceGraphic" in2="effect1_dropShadow_3566_2906" result="shape"/>
</filter>
<clipPath id="clip0_3566_2906">
<rect width="45.1176" height="45.1176" fill="white" transform="translate(310.299 282.631)"/>
</clipPath>
</defs>
</svg>
