<svg width="428" height="371" viewBox="0 0 428 371" fill="none" xmlns="http://www.w3.org/2000/svg">
<mask id="mask0_3566_2860" style="mask-type:alpha" maskUnits="userSpaceOnUse" x="48" y="-1" width="352" height="372">
<rect width="350.961" height="370.175" transform="matrix(1 0 0 -1 48.2866 370.175)" fill="#D9D9D9"/>
</mask>
<g mask="url(#mask0_3566_2860)">
<path d="M222.027 1.9353C314.757 1.9353 389.937 77.6287 389.937 171.01C389.936 264.39 314.757 340.083 222.027 340.083C129.298 340.083 54.1192 264.39 54.1191 171.01C54.1191 77.6289 129.298 1.93556 222.027 1.9353Z" fill="#FDFDFD" stroke="#F4F5FD" stroke-width="1.21938"/>
<path d="M369.566 169.339C369.566 210.49 352.937 247.731 326.074 274.624C299.405 301.323 262.649 317.822 222.066 317.822C182.452 317.822 146.486 302.102 119.987 276.52C91.9936 249.496 74.5659 211.466 74.5659 169.339C74.5659 87.3348 140.604 20.8569 222.066 20.8569C303.528 20.8569 369.566 87.3348 369.566 169.339Z" fill="url(#paint0_linear_3566_2860)" fill-opacity="0.5"/>
</g>
<g filter="url(#filter0_d_3566_2860)">
<path d="M94.7554 104.942C94.7554 98.0716 100.325 92.5017 107.196 92.5017H347.094C353.965 92.5017 359.535 98.0716 359.535 104.942V269.587C359.535 276.458 353.965 282.028 347.094 282.028H107.196C100.325 282.028 94.7554 276.458 94.7554 269.587V104.942Z" fill="#FBFEFF" shape-rendering="crispEdges"/>
<line x1="37.3223" y1="282.248" x2="389.751" y2="282.248" stroke="url(#paint1_linear_3566_2860)"/>
<rect x="115.659" y="113.255" width="222.972" height="149.112" rx="6.37081" fill="#F4F5FD"/>
<path d="M138.36 165.928C138.129 165.79 137.841 165.79 137.61 165.928L133.837 168.171C133.294 168.494 132.625 168.026 132.741 167.405L133.608 162.767C133.653 162.527 133.576 162.28 133.401 162.109L130.098 158.865C129.66 158.435 129.912 157.69 130.52 157.613L134.909 157.06C135.167 157.028 135.388 156.862 135.491 156.625L137.312 152.431C137.568 151.843 138.402 151.843 138.658 152.431L140.479 156.625C140.583 156.862 140.804 157.028 141.061 157.06L145.45 157.613C146.058 157.69 146.31 158.435 145.872 158.865L142.569 162.109C142.394 162.28 142.317 162.527 142.362 162.767L143.229 167.405C143.345 168.026 142.676 168.494 142.133 168.171L138.36 165.928Z" fill="#C5C5C5"/>
<path d="M138.36 165.928C138.129 165.79 137.841 165.79 137.61 165.928L133.837 168.171C133.294 168.494 132.625 168.026 132.741 167.405L133.608 162.767C133.653 162.527 133.576 162.28 133.401 162.109L130.098 158.865C129.66 158.435 129.912 157.69 130.52 157.613L134.909 157.06C135.167 157.028 135.388 156.862 135.491 156.625L137.312 152.431C137.568 151.843 138.402 151.843 138.658 152.431L140.479 156.625C140.583 156.862 140.804 157.028 141.061 157.06L145.45 157.613C146.058 157.69 146.31 158.435 145.872 158.865L142.569 162.109C142.394 162.28 142.317 162.527 142.362 162.767L143.229 167.405C143.345 168.026 142.676 168.494 142.133 168.171L138.36 165.928Z" fill="#E40D18"/>
<path d="M165.941 165.928C165.71 165.79 165.422 165.79 165.191 165.928L161.418 168.171C160.875 168.494 160.206 168.026 160.322 167.405L161.189 162.767C161.234 162.527 161.157 162.28 160.982 162.109L157.679 158.865C157.241 158.435 157.493 157.69 158.101 157.613L162.49 157.06C162.747 157.028 162.968 156.862 163.072 156.625L164.893 152.431C165.149 151.843 165.983 151.843 166.239 152.431L168.06 156.625C168.163 156.862 168.384 157.028 168.642 157.06L173.031 157.613C173.639 157.69 173.891 158.435 173.453 158.865L170.15 162.109C169.975 162.28 169.898 162.527 169.943 162.767L170.81 167.405C170.926 168.026 170.257 168.494 169.714 168.171L165.941 165.928Z" fill="#C5C5C5"/>
<path d="M165.941 165.928C165.71 165.79 165.422 165.79 165.191 165.928L161.418 168.171C160.875 168.494 160.206 168.026 160.322 167.405L161.189 162.767C161.234 162.527 161.157 162.28 160.982 162.109L157.679 158.865C157.241 158.435 157.493 157.69 158.101 157.613L162.49 157.06C162.747 157.028 162.968 156.862 163.072 156.625L164.893 152.431C165.149 151.843 165.983 151.843 166.239 152.431L168.06 156.625C168.163 156.862 168.384 157.028 168.642 157.06L173.031 157.613C173.639 157.69 173.891 158.435 173.453 158.865L170.15 162.109C169.975 162.28 169.898 162.527 169.943 162.767L170.81 167.405C170.926 168.026 170.257 168.494 169.714 168.171L165.941 165.928Z" fill="#E40D18"/>
<path d="M192.844 165.958C192.602 165.804 192.294 165.804 192.052 165.958L188.705 168.101C188.168 168.445 187.477 167.987 187.587 167.358L188.388 162.745C188.427 162.517 188.357 162.284 188.198 162.116L185.102 158.842C184.692 158.407 184.945 157.691 185.537 157.61L189.555 157.065C189.816 157.03 190.038 156.857 190.137 156.613L191.768 152.569C192.015 151.957 192.881 151.957 193.128 152.569L194.759 156.613C194.858 156.857 195.08 157.03 195.341 157.065L199.359 157.61C199.951 157.691 200.204 158.407 199.794 158.842L196.698 162.116C196.539 162.284 196.469 162.517 196.508 162.745L197.309 167.358C197.419 167.987 196.728 168.445 196.191 168.101L192.844 165.958Z" fill="#C5C5C5"/>
<path d="M192.844 165.958C192.602 165.804 192.294 165.804 192.052 165.958L188.705 168.101C188.168 168.445 187.477 167.987 187.587 167.358L188.388 162.745C188.427 162.517 188.357 162.284 188.198 162.116L185.102 158.842C184.692 158.407 184.945 157.691 185.537 157.61L189.555 157.065C189.816 157.03 190.038 156.857 190.137 156.613L191.768 152.569C192.015 151.957 192.881 151.957 193.128 152.569L194.759 156.613C194.858 156.857 195.08 157.03 195.341 157.065L199.359 157.61C199.951 157.691 200.204 158.407 199.794 158.842L196.698 162.116C196.539 162.284 196.469 162.517 196.508 162.745L197.309 167.358C197.419 167.987 196.728 168.445 196.191 168.101L192.844 165.958Z" fill="#E40D18"/>
<path d="M219.031 165.958C218.79 165.804 218.481 165.804 218.24 165.958L214.892 168.101C214.355 168.445 213.665 167.987 213.774 167.358L214.575 162.745C214.615 162.517 214.544 162.284 214.385 162.116L211.29 158.842C210.879 158.407 211.132 157.691 211.724 157.61L215.742 157.065C216.003 157.03 216.225 156.857 216.324 156.613L217.955 152.569C218.202 151.957 219.069 151.957 219.316 152.569L220.947 156.613C221.045 156.857 221.267 157.03 221.528 157.065L225.547 157.61C226.139 157.691 226.392 158.407 225.981 158.842L222.885 162.116C222.726 162.284 222.656 162.517 222.696 162.745L223.497 167.358C223.606 167.987 222.916 168.445 222.378 168.101L219.031 165.958Z" fill="#C5C5C5"/>
<path d="M245.896 165.928C245.665 165.79 245.378 165.79 245.147 165.928L241.373 168.171C240.831 168.494 240.161 168.026 240.277 167.405L241.145 162.767C241.19 162.527 241.112 162.28 240.938 162.109L237.634 158.865C237.197 158.435 237.448 157.69 238.057 157.613L242.446 157.06C242.703 157.028 242.924 156.862 243.027 156.625L244.849 152.431C245.104 151.843 245.939 151.843 246.194 152.431L248.016 156.625C248.119 156.862 248.34 157.028 248.597 157.06L252.986 157.613C253.595 157.69 253.846 158.435 253.409 158.865L250.105 162.109C249.931 162.28 249.853 162.527 249.898 162.767L250.766 167.405C250.882 168.026 250.212 168.494 249.67 168.171L245.896 165.928Z" fill="#C5C5C5"/>
<rect x="131.282" y="182.811" width="72.057" height="9.79435" rx="4.89717" fill="#E1E1FD"/>
<rect x="217.995" y="182.811" width="106.254" height="9.79435" rx="4.89717" fill="#E1E1FD"/>
<rect x="189.906" y="199.727" width="134.344" height="9.79435" rx="4.89717" fill="#E1E1FD"/>
<rect x="131.282" y="199.727" width="39.0818" height="9.79435" rx="4.89717" fill="#E1E1FD"/>
<rect x="131.282" y="214.864" width="62.2866" height="9.79435" rx="4.89717" fill="#E1E1FD"/>
<rect x="208.225" y="214.864" width="116.024" height="9.79435" rx="4.89717" fill="#E1E1FD"/>
<rect x="131.282" y="231.782" width="72.057" height="9.79435" rx="4.89717" fill="#E1E1FD"/>
<rect x="217.995" y="231.782" width="106.254" height="9.79435" rx="4.89717" fill="#E1E1FD"/>
<rect opacity="0.5" x="76.9321" y="274.323" width="12.5422" height="2.78715" rx="1.39357" fill="#D0D0D0"/>
<rect opacity="0.5" x="131.282" y="274.323" width="12.5422" height="2.78715" rx="1.39357" fill="#D0D0D0"/>
<rect x="129.468" y="135.084" width="25.369" height="3.05372" rx="1.52686" fill="#004899"/>
<rect x="129.468" y="139.483" width="25.369" height="3.05372" rx="1.52686" fill="#004899"/>
<path d="M155.042 133.742H129.673V133.835H155.042V133.742Z" fill="#004899"/>
<path d="M151.548 133.74H133.17C133.18 133.54 133.197 133.343 133.219 133.147C133.428 131.371 134.145 129.751 135.221 128.433C135.752 127.784 136.369 127.209 137.055 126.725C137.367 126.504 137.693 126.303 138.032 126.123C139.321 125.437 140.795 125.048 142.358 125.048C144.131 125.048 145.785 125.547 147.189 126.413C147.189 126.413 147.19 126.413 147.19 126.414C149.002 127.531 150.397 129.259 151.085 131.309C151.244 131.782 151.366 132.272 151.446 132.776C151.496 133.092 151.53 133.414 151.548 133.74Z" fill="#8F99CD"/>
<path d="M151.084 131.309C151.063 131.245 151.04 131.181 151.018 131.118C150.949 130.927 150.873 130.741 150.794 130.556C150.713 130.371 150.626 130.191 150.534 130.013C150.472 129.894 150.408 129.778 150.342 129.662C149.877 128.855 149.292 128.124 148.612 127.495C148.466 127.361 148.316 127.23 148.162 127.104C147.853 126.854 147.528 126.623 147.189 126.414V126.413L146.052 126.525L145.889 126.452L145.184 126.52L145.007 126.467L143.768 126.749L143.721 127.191L145.217 128.826L145.186 129.174L144.96 129.161L144.759 129.604L145.071 131.015L144.602 131.455L144.666 131.867L144.492 131.872L144.351 131.589L143.778 131.409L143.372 131.952L142.955 132.38L143.147 132.688L143.491 132.662L143.55 132.816L143.685 132.799L143.928 132.11L144.073 132.213L143.906 132.585L143.968 132.655L143.855 133.044L143.475 133.142C143.443 133.003 143.368 132.898 143.368 132.898L143.232 132.889L143.193 133.179L142.973 133.24L142.843 133.446C142.787 133.507 142.653 133.538 142.515 133.53C142.397 133.523 142.19 133.471 142.19 133.471C142.19 133.476 142.122 133.558 142.116 133.558C142.116 133.558 142.167 133.609 142.167 133.616C142.167 133.616 142.226 133.657 142.23 133.74H150.094C150.08 133.675 150.071 133.626 150.067 133.596L150.052 133.47L150.266 133.28L150.726 133.389L151.444 132.775L151.445 132.776C151.365 132.272 151.244 131.782 151.084 131.309ZM147.056 127.175L146.721 127.565L145.726 126.994L147.168 126.687L147.463 126.916L147.056 127.175ZM143.325 126.471L143.072 126.374L143.396 126.12L143.307 126.073C143.091 126.216 142.577 126.568 141.683 126.631C141.046 126.676 139.756 126.394 139.756 126.394L138.478 126.202L138.032 126.124C137.777 126.26 137.53 126.406 137.291 126.563C137.21 126.617 137.131 126.67 137.054 126.725C136.367 127.209 135.75 127.784 135.219 128.433L135.181 129.637L134.989 130.188L134.53 131.781L134.678 132.23L133.952 132.333L133.219 133.147C133.196 133.343 133.18 133.54 133.17 133.74H135.95C135.879 133.445 135.819 133.184 135.815 133.174L135.694 132.931L134.821 131.624L135.388 130.21L135.839 130.19L135.866 129.982L135.532 129.703L135.522 129.644L135.511 129.379C135.511 129.198 135.817 129.017 136.02 129.017C136.074 129.017 136.133 129.025 136.192 129.042C136.334 129.081 136.469 129.198 136.591 129.287C136.614 129.303 136.994 130.188 136.994 130.188L136.671 130.446L136.513 130.834L136.733 131.006L137.04 130.478L138.313 130.904L139.094 131.347L139.33 131.089L139.986 131.143L140.465 130.493L140.031 130.328L140.486 129.782L140.432 129.599L139.738 129.465L140.271 128.911L140.776 129.239L140.765 129.386L141.091 129.426L141.366 128.905L141.174 128.736L141.986 127.958L142.719 127.616L143.29 127.243L143.4 127.156L143.423 126.756L143.325 126.471ZM136.265 133.322L136.114 133.378L136.155 133.552L136.32 133.498L136.265 133.322ZM142.082 132.994L141.963 133.157L142.164 133.213L142.224 133.027L142.082 132.994ZM142.663 132.856L142.706 132.695L142.521 132.594L142.462 132.715L142.505 132.762C142.505 132.762 142.271 133.332 142.271 133.334C142.271 133.334 142.64 133.369 142.64 133.372L142.727 132.903L142.663 132.856ZM136.47 133.139C136.47 133.139 136.399 133.2 136.399 133.208L136.391 133.295C136.395 133.295 136.519 133.247 136.519 133.247L136.47 133.139ZM136.455 132.894L136.3 132.95L136.35 133.072L136.5 133.004C136.5 133.004 136.46 132.894 136.455 132.894ZM136.382 132.534L136.199 132.549L136.228 132.737L136.405 132.736L136.382 132.534ZM136.09 131.949L136.032 132.202L136.122 132.346L136.298 132.371L136.376 132.019L136.09 131.949ZM136.208 130.695L136.06 130.684L135.879 131.753L136.168 131.788L136.258 131.108L136.259 130.903L136.208 130.695ZM142.284 128.064L141.452 128.726L141.747 128.939L142.412 128.263L142.284 128.064ZM141.55 129.202L141.433 129.197L141.206 129.609L140.852 129.637L140.449 130.217L140.669 130.355L141.213 130.01L141.628 129.567L141.55 129.202ZM142.858 129.695L142.342 129.517L141.348 130.169L140.937 130.53V130.775L141.591 130.936L142.893 130.055L142.858 129.695ZM139.375 131.24L139.276 131.409L139.697 131.641L139.865 131.319L139.375 131.24Z" fill="#004899"/>
<path d="M132.124 130.104C131.878 130.758 131.135 131.131 130.502 130.836C130.023 130.612 129.769 130.075 129.948 129.577C131.646 124.865 136.465 121.467 142.146 121.467C147.847 121.467 152.681 124.89 154.363 129.628C154.539 130.124 154.284 130.659 153.807 130.882C153.172 131.178 152.427 130.801 152.183 130.144C150.754 126.299 146.8 123.536 142.146 123.536C137.508 123.536 133.566 126.28 132.124 130.104Z" fill="#F14F4F"/>
<rect x="95.7404" y="93.4867" width="262.809" height="187.556" rx="11.015" stroke="url(#paint2_linear_3566_2860)" stroke-width="1.97" stroke-linejoin="round"/>
<path d="M120.319 229.182C179.318 229.182 227.145 179.061 227.145 117.232C227.145 109.189 226.336 101.344 224.797 93.7815H103.011C99.1625 93.7815 96.0428 96.9011 96.0428 100.749V226.279C103.842 228.178 111.969 229.182 120.319 229.182Z" fill="white" fill-opacity="0.2"/>
</g>
<g filter="url(#filter1_d_3566_2860)">
<path d="M98.2678 190.983C96.4246 190.983 94.8497 191.825 93.6621 192.852C92.4744 193.879 91.5214 195.135 90.6403 196.543C88.8781 199.36 87.3835 202.85 85.9249 206.411C84.4664 209.971 83.0683 213.588 81.7335 216.472C80.3987 219.355 78.8556 221.481 78.4802 221.747C78.1048 222.014 75.5576 222.799 72.3392 223.149C69.1208 223.498 65.1549 223.668 61.2392 223.923C57.3234 224.179 53.4734 224.512 50.1878 225.279C48.545 225.663 47.0218 226.145 45.6552 226.931C44.2886 227.718 42.9837 228.91 42.4141 230.623C41.8445 232.336 42.1836 234.078 42.8162 235.5C43.4488 236.921 44.3864 238.177 45.4846 239.431C47.6811 241.939 50.5974 244.427 53.6117 246.883C56.626 249.339 59.7352 251.758 62.1286 253.89C64.5221 256.022 66.1036 258.107 66.247 258.539C66.3904 258.97 66.3652 261.581 65.7109 264.68C65.0566 267.78 64.004 271.512 63.0425 275.231C62.0809 278.95 61.2029 282.628 60.9346 285.919C60.8004 287.564 60.7987 289.123 61.1417 290.636C61.4847 292.149 62.258 293.747 63.7492 294.806C65.2404 295.865 67.0321 296.083 68.6108 295.934C70.1894 295.785 71.6932 295.314 73.2531 294.681C76.3728 293.414 79.6914 291.448 83.0128 289.405C86.3343 287.362 89.6418 285.24 92.4558 283.674C95.2698 282.108 97.8038 281.281 98.2678 281.281C98.7317 281.281 101.266 282.108 104.08 283.674C106.894 285.24 110.201 287.362 113.523 289.405C116.844 291.448 120.163 293.414 123.283 294.681C124.842 295.314 126.346 295.785 127.925 295.934C129.503 296.083 131.295 295.865 132.786 294.806C134.278 293.747 135.051 292.149 135.394 290.636C135.737 289.123 135.735 287.564 135.601 285.919C135.333 282.628 134.455 278.95 133.493 275.231C132.532 271.512 131.479 267.78 130.825 264.68C130.171 261.581 130.145 258.97 130.289 258.539C130.432 258.107 132.014 256.022 134.407 253.89C136.8 251.758 139.91 249.339 142.924 246.883C145.938 244.427 148.855 241.939 151.051 239.431C152.149 238.177 153.087 236.921 153.719 235.5C154.352 234.078 154.691 232.336 154.121 230.623C153.552 228.91 152.247 227.718 150.88 226.931C149.514 226.145 147.991 225.663 146.348 225.279C143.062 224.512 139.212 224.179 135.296 223.923C131.381 223.668 127.415 223.498 124.196 223.149C120.978 222.799 118.431 222.014 118.055 221.747C117.68 221.481 116.137 219.355 114.802 216.472C113.467 213.588 112.069 209.971 110.611 206.411C109.152 202.85 107.658 199.36 105.895 196.543C105.014 195.135 104.061 193.879 102.874 192.852C101.686 191.825 100.111 190.983 98.2678 190.983Z" fill="url(#paint3_linear_3566_2860)"/>
<path d="M98.2659 190.983C97.104 190.983 96.0656 191.333 95.1467 191.838C95.6855 192.133 96.1942 192.472 96.6332 192.852C97.8208 193.879 98.7737 195.134 99.6548 196.543C101.417 199.359 102.912 202.848 104.37 206.409C105.829 209.969 107.227 213.585 108.561 216.468C109.896 219.352 111.439 221.476 111.815 221.743C112.19 222.009 114.737 222.794 117.955 223.144C121.174 223.494 125.139 223.663 129.055 223.919C132.971 224.174 136.82 224.507 140.106 225.274C141.749 225.658 143.272 226.14 144.638 226.926C146.005 227.713 147.31 228.904 147.879 230.618C148.449 232.331 148.11 234.084 147.477 235.505C146.845 236.926 145.907 238.181 144.809 239.435C142.613 241.944 139.697 244.43 136.682 246.886C133.668 249.342 130.559 251.761 128.166 253.892C125.772 256.024 124.191 258.109 124.047 258.54C123.904 258.972 123.929 261.581 124.584 264.681C125.238 267.78 126.29 271.512 127.252 275.23C128.213 278.949 129.091 282.625 129.36 285.916C129.494 287.562 129.496 289.12 129.153 290.633C128.81 292.146 128.036 293.744 126.545 294.803C126.188 295.057 125.809 295.265 125.424 295.429C126.249 295.67 127.075 295.851 127.922 295.93C129.501 296.079 131.292 295.861 132.783 294.803C134.275 293.744 135.048 292.146 135.391 290.633C135.734 289.12 135.732 287.562 135.598 285.917C135.329 282.625 134.452 278.949 133.49 275.23C132.529 271.512 131.476 267.781 130.822 264.681C130.168 261.581 130.142 258.972 130.286 258.54C130.429 258.109 132.01 256.024 134.404 253.892C136.797 251.761 139.906 249.342 142.921 246.886C145.935 244.43 148.851 241.944 151.047 239.435C152.146 238.181 153.083 236.926 153.716 235.505C154.348 234.084 154.687 232.331 154.118 230.618C153.548 228.904 152.243 227.713 150.877 226.926C149.51 226.14 147.987 225.658 146.344 225.274C143.059 224.507 139.209 224.174 135.293 223.919C131.378 223.663 127.412 223.494 124.194 223.144C120.975 222.794 118.428 222.009 118.053 221.743C117.677 221.476 116.134 219.352 114.8 216.468C113.465 213.585 112.067 209.969 110.608 206.409C109.15 202.848 107.655 199.359 105.893 196.543C105.012 195.134 104.059 193.879 102.871 192.852C101.684 191.824 100.109 190.983 98.2659 190.983Z" fill="#B30D15"/>
<path fill-rule="evenodd" clip-rule="evenodd" d="M98.2678 190.983C100.111 190.983 101.686 191.824 102.873 192.851C104.061 193.879 105.014 195.135 105.895 196.544C107.657 199.36 109.152 202.85 110.611 206.411C111.589 208.8 112.542 211.213 113.465 213.414C111.43 226.04 107.242 239.22 100.8 252.125C91.7063 270.342 79.4777 285.299 66.1389 295.821C65.3102 295.652 64.4924 295.334 63.7493 294.806C62.2581 293.748 61.4849 292.149 61.1419 290.635C60.7989 289.122 60.7997 287.564 60.9338 285.919C61.2022 282.628 62.0807 278.95 63.0422 275.231C64.0037 271.513 65.0559 267.78 65.7102 264.68C66.3645 261.581 66.3897 258.97 66.2463 258.539C66.103 258.108 64.5216 256.022 62.1282 253.89C59.7348 251.759 56.6258 249.339 53.6116 246.883C50.5973 244.427 47.6811 241.939 45.4846 239.43C44.3864 238.176 43.4483 236.921 42.8157 235.5C42.1831 234.078 41.8448 232.336 42.4143 230.623C42.9839 228.91 44.2881 227.718 45.6546 226.931C47.0212 226.145 48.545 225.663 50.1878 225.279C53.4732 224.512 57.323 224.179 61.2385 223.924C65.1543 223.668 69.1207 223.498 72.3391 223.148C75.5574 222.799 78.1044 222.013 78.4797 221.747C78.8552 221.48 80.3989 219.355 81.7337 216.471C83.0684 213.588 84.4666 209.971 85.9251 206.411C87.3835 202.85 88.8777 199.36 90.6399 196.544C91.521 195.135 92.4737 193.879 93.6614 192.851C94.849 191.824 96.4246 190.983 98.2678 190.983Z" fill="white" fill-opacity="0.05"/>
</g>
<defs>
<filter id="filter0_d_3566_2860" x="4.57764e-05" y="67.6202" width="427.073" height="264.891" filterUnits="userSpaceOnUse" color-interpolation-filters="sRGB">
<feFlood flood-opacity="0" result="BackgroundImageFix"/>
<feColorMatrix in="SourceAlpha" type="matrix" values="0 0 0 0 0 0 0 0 0 0 0 0 0 0 0 0 0 0 127 0" result="hardAlpha"/>
<feOffset dy="12.4407"/>
<feGaussianBlur stdDeviation="18.6611"/>
<feComposite in2="hardAlpha" operator="out"/>
<feColorMatrix type="matrix" values="0 0 0 0 0.450557 0 0 0 0 0.450557 0 0 0 0 0.799656 0 0 0 0.2 0"/>
<feBlend mode="normal" in2="BackgroundImageFix" result="effect1_dropShadow_3566_2860"/>
<feBlend mode="normal" in="SourceGraphic" in2="effect1_dropShadow_3566_2860" result="shape"/>
</filter>
<filter id="filter1_d_3566_2860" x="27.1235" y="165.983" width="152.289" height="144.993" filterUnits="userSpaceOnUse" color-interpolation-filters="sRGB">
<feFlood flood-opacity="0" result="BackgroundImageFix"/>
<feColorMatrix in="SourceAlpha" type="matrix" values="0 0 0 0 0 0 0 0 0 0 0 0 0 0 0 0 0 0 127 0" result="hardAlpha"/>
<feOffset dx="5" dy="-5"/>
<feGaussianBlur stdDeviation="10"/>
<feComposite in2="hardAlpha" operator="out"/>
<feColorMatrix type="matrix" values="0 0 0 0 0.25098 0 0 0 0 0.25098 0 0 0 0 0.572549 0 0 0 0.37 0"/>
<feBlend mode="normal" in2="BackgroundImageFix" result="effect1_dropShadow_3566_2860"/>
<feBlend mode="normal" in="SourceGraphic" in2="effect1_dropShadow_3566_2860" result="shape"/>
</filter>
<linearGradient id="paint0_linear_3566_2860" x1="209.479" y1="57.638" x2="181.347" y2="281.377" gradientUnits="userSpaceOnUse">
<stop stop-color="#E1E1FD" stop-opacity="0.2"/>
<stop offset="1" stop-color="#F0F0FE"/>
</linearGradient>
<linearGradient id="paint1_linear_3566_2860" x1="37.3223" y1="283.248" x2="389.751" y2="283.248" gradientUnits="userSpaceOnUse">
<stop stop-color="#00418B" stop-opacity="0"/>
<stop offset="0.605" stop-color="#00418B"/>
<stop offset="1" stop-color="#00418B" stop-opacity="0"/>
</linearGradient>
<linearGradient id="paint2_linear_3566_2860" x1="227.145" y1="92.5017" x2="227.145" y2="282.028" gradientUnits="userSpaceOnUse">
<stop stop-color="#C4C4FA"/>
<stop offset="1" stop-color="#7272DB"/>
</linearGradient>
<linearGradient id="paint3_linear_3566_2860" x1="133.062" y1="289.922" x2="47.1122" y2="232.443" gradientUnits="userSpaceOnUse">
<stop stop-color="#E40B1D"/>
<stop offset="1" stop-color="#EC979E"/>
</linearGradient>
</defs>
</svg>
