<svg width="80" height="80" viewBox="0 0 80 80" fill="none" xmlns="http://www.w3.org/2000/svg">
<path d="M44.0332 64.983C44.0332 65.5381 43.5832 65.988 43.0282 65.988C42.4731 65.988 42.0232 65.5381 42.0232 64.983C42.0232 64.428 42.4731 63.978 43.0282 63.978C43.5832 63.978 44.0332 64.428 44.0332 64.983Z" fill="#E1E1FD"/>
<path d="M57.9997 19.1236C57.9997 19.6787 57.5498 20.1286 56.9947 20.1286C56.4397 20.1286 55.9897 19.6787 55.9897 19.1236C55.9897 18.5686 56.4397 18.1187 56.9947 18.1187C57.5498 18.1187 57.9997 18.5686 57.9997 19.1236Z" fill="#E1E1FD"/>
<path d="M14.0078 36.9986C14.0078 37.5537 13.5578 38.0036 13.0028 38.0036C12.4478 38.0036 11.9978 37.5537 11.9978 36.9986C11.9978 36.4436 12.4478 35.9937 13.0028 35.9937C13.5578 35.9937 14.0078 36.4436 14.0078 36.9986Z" fill="#E1E1FD"/>
<path fill-rule="evenodd" clip-rule="evenodd" d="M16.002 58.9114C16.002 58.3593 16.4496 57.9116 17.0018 57.9116L67.0446 57.9116C67.5968 57.9116 68.0444 58.3593 68.0444 58.9114C68.0444 59.4636 67.5968 59.9113 67.0446 59.9113L17.0018 59.9113C16.4496 59.9113 16.002 59.4636 16.002 58.9114Z" fill="#2A2A62"/>
<path fill-rule="evenodd" clip-rule="evenodd" d="M49.1909 27.0019V22.0881C49.1909 18.7242 46.4639 15.9972 43.1 15.9972C39.7361 15.9972 37.0092 18.7242 37.0092 22.0881V27.0019C37.0092 30.3658 39.7361 33.0928 43.1 33.0928C46.4639 33.0928 49.1909 30.3658 49.1909 27.0019ZM43.1 13.9976C38.6318 13.9976 35.0095 17.6198 35.0095 22.0881V27.0019C35.0095 31.4702 38.6318 35.0924 43.1 35.0924C47.5683 35.0924 51.1905 31.4702 51.1905 27.0019V22.0881C51.1905 17.6198 47.5683 13.9976 43.1 13.9976Z" fill="#2A2A62"/>
<path fill-rule="evenodd" clip-rule="evenodd" d="M47.5333 16.8441C47.9351 17.2228 47.9537 17.8556 47.575 18.2574C43.1267 22.9762 38.3393 22.8326 36.3478 22.6364C35.7982 22.5822 35.3967 22.0928 35.4508 21.5433C35.505 20.9938 35.9944 20.5922 36.5439 20.6464C38.2419 20.8137 42.2783 20.9611 46.1199 16.8858C46.4987 16.484 47.1315 16.4653 47.5333 16.8441Z" fill="#2A2A62"/>
<path fill-rule="evenodd" clip-rule="evenodd" d="M45.246 18.1505C45.7837 18.0248 46.3215 18.3587 46.4472 18.8964C46.6965 19.9623 47.2474 20.387 47.8295 20.5875C48.493 20.8159 49.2896 20.7757 49.9544 20.6714C50.4999 20.5858 51.0115 20.9586 51.0971 21.5041C51.1827 22.0496 50.8099 22.5612 50.2644 22.6468C49.503 22.7663 48.3115 22.8683 47.1785 22.4782C45.9642 22.06 44.9102 21.1053 44.5001 19.3518C44.3744 18.8141 44.7083 18.2763 45.246 18.1505Z" fill="#2A2A62"/>
<path fill-rule="evenodd" clip-rule="evenodd" d="M40.2823 32.9941C40.8345 32.9941 41.2821 33.4418 41.2821 33.994L41.2821 35.3625C41.2821 36.5544 40.4716 37.5935 39.3157 37.8838L32.6766 39.5509C32.6396 39.5601 32.6022 39.5673 32.5644 39.5723C30.4529 39.852 28.8478 41.4735 27.7099 43.6752C26.5864 45.8487 26.0387 48.3739 25.9449 50.0188V53.0118C25.9449 53.564 25.4973 54.0116 24.9451 54.0116C24.3929 54.0116 23.9453 53.564 23.9453 53.0118V49.991C23.9453 49.9729 23.9458 49.9549 23.9468 49.9368C24.0497 48.0426 24.66 45.2209 25.9335 42.7571C27.1903 40.3255 29.215 38.0252 32.2429 37.598L38.8287 35.9444C39.0954 35.8774 39.2825 35.6376 39.2825 35.3625L39.2825 33.994C39.2825 33.4418 39.7301 32.9941 40.2823 32.9941Z" fill="#2A2A62"/>
<path fill-rule="evenodd" clip-rule="evenodd" d="M46.2474 33.1768C45.6952 33.1768 45.2476 33.6244 45.2476 34.1766L45.2476 35.2694C45.2476 36.4848 46.0898 37.538 47.2754 37.8053L54.7703 39.495C54.7992 39.5015 54.8283 39.5067 54.8577 39.5106C56.8847 39.7817 58.2028 41.3406 59.038 43.5357C59.8685 45.7182 60.1115 48.2814 60.1115 49.9911V52.9719C60.1115 53.5241 60.5591 53.9717 61.1113 53.9717C61.6635 53.9717 62.1111 53.5241 62.1111 52.9719V49.991C62.1111 48.1482 61.8558 45.3182 60.907 42.8245C59.9675 40.3556 58.2375 37.9665 55.1685 37.5349L47.7152 35.8546C47.4416 35.793 47.2472 35.5499 47.2472 35.2694L47.2472 34.1766C47.2472 33.6244 46.7996 33.1768 46.2474 33.1768Z" fill="#2A2A62"/>
<path fill-rule="evenodd" clip-rule="evenodd" d="M32.0134 46.1823C31.6335 46.1823 31.3493 46.5308 31.4258 46.9029L33.5964 57.4628C33.6537 57.7417 33.8992 57.9419 34.184 57.9419H51.5465C51.8127 57.9419 52.0471 57.7664 52.1221 57.5109L55.221 46.9511C55.3337 46.5669 55.0457 46.1823 54.6454 46.1823L32.0134 46.1823ZM29.4671 47.3055C29.1357 45.6932 30.3673 44.1826 32.0134 44.1826L54.6454 44.1826C56.3802 44.1826 57.6282 45.8495 57.1397 47.5141L54.0408 58.074C53.7159 59.1811 52.7002 59.9415 51.5465 59.9415H34.184C32.95 59.9415 31.8861 59.0741 31.6377 57.8654L29.4671 47.3055Z" fill="#2A2A62"/>
<path fill-rule="evenodd" clip-rule="evenodd" d="M48.0241 26.7751C48.7115 26.1008 49.0628 25.2102 49.2118 24.3701L51.1807 24.7193C50.9846 25.8249 50.4988 27.1488 49.4242 28.2027C48.3289 29.277 46.7204 29.9736 44.4772 29.9736V27.974C46.2789 27.974 47.3574 27.4289 48.0241 26.7751Z" fill="#2A2A62"/>
<path d="M39.9597 28.8348C39.9597 27.9388 40.686 27.2124 41.5821 27.2124H44.6181C45.5142 27.2124 46.2405 27.9388 46.2405 28.8348C46.2405 29.7308 45.5142 30.4572 44.6181 30.4572H41.5821C40.686 30.4572 39.9597 29.7308 39.9597 28.8348Z" fill="#2A2A62"/>
<path fill-rule="evenodd" clip-rule="evenodd" d="M28.1826 27.935C26.0833 28.0452 22.7888 27.977 21.0652 27.9413C20.5739 27.9311 20.2102 27.9236 20.0382 27.9236C16.702 27.9236 13.9974 24.8062 13.9974 20.9606C13.9974 17.1151 16.702 13.9977 20.0382 13.9977C23.3745 13.9977 27.9751 14.5221 27.9751 20.9123C27.9751 23.2154 28.6416 24.7817 29.2353 25.8306C29.2363 25.8323 29.2373 25.834 29.2383 25.8358C29.4111 26.1407 29.5777 26.4018 29.7197 26.6244C30.0799 27.189 30.2823 27.5063 30.0293 27.6647C29.8119 27.8008 29.1275 27.8845 28.2103 27.9335C28.2011 27.934 28.1919 27.9345 28.1826 27.935ZM28.2732 28.093C28.2725 28.0926 28.2662 28.0812 28.2569 28.0601C28.2693 28.0829 28.274 28.0934 28.2732 28.093ZM29.2894 25.8193C29.288 25.8197 29.2857 25.8202 29.2826 25.821C29.2993 25.8159 29.3028 25.8159 29.2894 25.8193ZM20.0382 29.9232C15.3404 29.9232 11.9978 25.6344 11.9978 20.9606C11.9978 16.2869 15.3404 11.998 20.0382 11.998C21.7249 11.998 24.2025 12.1074 26.2781 13.339C28.5688 14.6981 29.9747 17.158 29.9747 20.9123C29.9747 22.8173 30.523 24.0554 30.9985 24.8859C31.1237 25.1046 31.247 25.3004 31.3714 25.4955C31.3831 25.5138 31.3953 25.5329 31.4078 25.5525C31.5128 25.7169 31.6454 25.9244 31.75 26.1127L31.75 26.1128C31.8393 26.2735 32.083 26.7122 32.1325 27.2623C32.1617 27.5879 32.1298 28.0112 31.9181 28.4452C31.7051 28.8819 31.3853 29.175 31.0904 29.3596C30.7728 29.5584 30.4522 29.6497 30.2857 29.6925C30.0831 29.7446 29.8738 29.7814 29.6805 29.8091C29.2922 29.8647 28.8363 29.9017 28.3639 29.9278C27.4121 29.9803 26.2434 29.9958 25.1018 29.9947C23.9536 29.9935 22.8036 29.9754 21.8805 29.9577C21.5407 29.9512 21.2384 29.945 20.9795 29.9396C20.5145 29.9299 20.1894 29.9232 20.0382 29.9232Z" fill="#F4C447"/>
<path fill-rule="evenodd" clip-rule="evenodd" d="M16.9476 19.9909C17.4998 19.9914 17.9471 20.4393 17.9466 20.9915L17.9466 21.0487C17.9462 21.6009 17.4982 22.0482 16.946 22.0478C16.3938 22.0474 15.9465 21.5994 15.947 21.0472L15.947 20.99C15.9474 20.4378 16.3954 19.9905 16.9476 19.9909Z" fill="#F4C447"/>
<path fill-rule="evenodd" clip-rule="evenodd" d="M20.9962 19.9909C21.5483 19.9914 21.9956 20.4393 21.9952 20.9915L21.9952 21.0487C21.9948 21.6009 21.5468 22.0482 20.9946 22.0478C20.4424 22.0474 19.9951 21.5994 19.9955 21.0472L19.9956 20.99C19.996 20.4378 20.444 19.9905 20.9962 19.9909Z" fill="#F4C447"/>
<path fill-rule="evenodd" clip-rule="evenodd" d="M25.0447 19.9909C25.5969 19.9914 26.0442 20.4393 26.0438 20.9915L26.0438 21.0487C26.0433 21.6009 25.5954 22.0482 25.0432 22.0478C24.491 22.0474 24.0437 21.5994 24.0441 21.0472L24.0442 20.99C24.0446 20.4378 24.4926 19.9905 25.0447 19.9909Z" fill="#F4C447"/>
</svg>
