<svg xmlns="http://www.w3.org/2000/svg" width="62" height="57" viewBox="0 0 62 57" fill="none">
  <path fill-rule="evenodd" clip-rule="evenodd" d="M2.13672 10.0083C2.13672 9.45602 2.58443 9.0083 3.13672 9.0083L40.0306 9.0083C40.5829 9.0083 41.0306 9.45602 41.0306 10.0083C41.0306 10.5606 40.5829 11.0083 40.0306 11.0083L3.13672 11.0083C2.58443 11.0083 2.13672 10.5606 2.13672 10.0083Z" fill="#C3C3FB"/>
  <path fill-rule="evenodd" clip-rule="evenodd" d="M32.1272 44.3035C31.5749 44.3035 31.1272 43.8558 31.1272 43.3035L31.1272 11C31.1272 10.4477 31.5749 9.99995 32.1272 9.99995C32.6795 9.99995 33.1272 10.4477 33.1272 11L33.1272 43.3035C33.1272 43.8558 32.6795 44.3035 32.1272 44.3035Z" fill="#C3C3FB"/>
  <path fill-rule="evenodd" clip-rule="evenodd" d="M9.27661 19.1138V23.1138H13.2766V19.1138H9.27661ZM8.07661 17.1138C7.63478 17.1138 7.27661 17.4719 7.27661 17.9138V24.3138C7.27661 24.7556 7.63478 25.1138 8.07661 25.1138H14.4766C14.9184 25.1138 15.2766 24.7556 15.2766 24.3138V17.9138C15.2766 17.4719 14.9184 17.1138 14.4766 17.1138H8.07661Z" fill="#E1E1FD"/>
  <path fill-rule="evenodd" clip-rule="evenodd" d="M9.27661 30.8862V34.8862H13.2766V30.8862H9.27661ZM8.07661 28.8862C7.63478 28.8862 7.27661 29.2444 7.27661 29.6862V36.0862C7.27661 36.5281 7.63478 36.8862 8.07661 36.8862H14.4766C14.9184 36.8862 15.2766 36.5281 15.2766 36.0862V29.6862C15.2766 29.2444 14.9184 28.8862 14.4766 28.8862H8.07661Z" fill="#E1E1FD"/>
  <path fill-rule="evenodd" clip-rule="evenodd" d="M21.1367 19.1138V23.1138H25.1367V19.1138H21.1367ZM19.9367 17.1138C19.4949 17.1138 19.1367 17.4719 19.1367 17.9138V24.3138C19.1367 24.7556 19.4949 25.1138 19.9367 25.1138H26.3367C26.7785 25.1138 27.1367 24.7556 27.1367 24.3138V17.9138C27.1367 17.4719 26.7785 17.1138 26.3367 17.1138H19.9367Z" fill="#E1E1FD"/>
  <path fill-rule="evenodd" clip-rule="evenodd" d="M21.1367 30.8862V34.8862H25.1367V30.8862H21.1367ZM19.9367 28.8862C19.4949 28.8862 19.1367 29.2444 19.1367 29.6862V36.0862C19.1367 36.5281 19.4949 36.8862 19.9367 36.8862H26.3367C26.7785 36.8862 27.1367 36.5281 27.1367 36.0862V29.6862C27.1367 29.2444 26.7785 28.8862 26.3367 28.8862H19.9367Z" fill="#E1E1FD"/>
  <path fill-rule="evenodd" clip-rule="evenodd" d="M37.1663 15.8C37.1663 14.8059 37.9721 14 38.9663 14H49.3646C50.3587 14 51.1646 14.8059 51.1646 15.8V27C51.1646 27.5523 50.7168 28 50.1646 28C49.6123 28 49.1646 27.5523 49.1646 27V16H39.1663V28.9879C39.1663 29.5402 38.7185 29.9879 38.1663 29.9879C37.614 29.9879 37.1663 29.5402 37.1663 28.9879V15.8Z" fill="#E1E1FD"/>
  <path fill-rule="evenodd" clip-rule="evenodd" d="M48.1367 54.3035C54.2119 54.3035 59.1367 49.3786 59.1367 43.3035C59.1367 37.2283 54.2119 32.3035 48.1367 32.3035C42.0616 32.3035 37.1367 37.2283 37.1367 43.3035C37.1367 49.3786 42.0616 54.3035 48.1367 54.3035ZM48.1367 56.3035C55.3164 56.3035 61.1367 50.4832 61.1367 43.3035C61.1367 36.1238 55.3164 30.3035 48.1367 30.3035C40.957 30.3035 35.1367 36.1238 35.1367 43.3035C35.1367 50.4832 40.957 56.3035 48.1367 56.3035Z" fill="#E1E1FD"/>
  <path fill-rule="evenodd" clip-rule="evenodd" d="M40.1807 43.3037C40.1807 42.7514 40.6284 42.3037 41.1807 42.3037L55.0926 42.3036C55.6449 42.3036 56.0926 42.7513 56.0926 43.3036C56.0926 43.8559 55.6449 44.3036 55.0926 44.3036L41.1807 44.3037C40.6284 44.3037 40.1807 43.856 40.1807 43.3037Z" fill="#E1E1FD"/>
  <path fill-rule="evenodd" clip-rule="evenodd" d="M48.1367 51.2595C47.5844 51.2595 47.1367 50.8118 47.1367 50.2595L47.1367 36.3476C47.1367 35.7953 47.5844 35.3476 48.1367 35.3476C48.689 35.3476 49.1367 35.7953 49.1367 36.3476L49.1367 50.2595C49.1367 50.8118 48.689 51.2595 48.1367 51.2595Z" fill="#E1E1FD"/>
  <path fill-rule="evenodd" clip-rule="evenodd" d="M50.0718 25H38.5652V23H50.0718V25Z" fill="#E1E1FD"/>
  <path fill-rule="evenodd" clip-rule="evenodd" d="M45.1121 10.0083C45.1121 9.45602 45.5598 9.0083 46.1121 9.0083L55.6523 9.0083C56.2046 9.0083 56.6523 9.45602 56.6523 10.0083C56.6523 10.5606 56.2046 11.0083 55.6523 11.0083L46.1121 11.0083C45.5598 11.0083 45.1121 10.5606 45.1121 10.0083Z" fill="#C3C3FB"/>
  <path fill-rule="evenodd" clip-rule="evenodd" d="M14.2766 5C14.8289 5 15.2766 5.44772 15.2766 6L15.2766 6.11299C15.2766 6.66527 14.8289 7.11299 14.2766 7.11299C13.7243 7.11299 13.2766 6.66527 13.2766 6.11299L13.2766 6C13.2766 5.44772 13.7243 5 14.2766 5Z" fill="#E1E1FD"/>
  <path fill-rule="evenodd" clip-rule="evenodd" d="M10.2065 5C10.7588 5 11.2065 5.44772 11.2065 6L11.2065 6.11299C11.2065 6.66527 10.7588 7.11299 10.2065 7.11299C9.65426 7.11299 9.20654 6.66527 9.20654 6.11299L9.20654 6C9.20654 5.44772 9.65426 5 10.2065 5Z" fill="#E1E1FD"/>
  <path fill-rule="evenodd" clip-rule="evenodd" d="M6.13672 5C6.689 5 7.13672 5.44772 7.13672 6L7.13672 6.11299C7.13672 6.66527 6.689 7.11299 6.13672 7.11299C5.58443 7.11299 5.13672 6.66527 5.13672 6.11299L5.13672 6C5.13672 5.44772 5.58443 5 6.13672 5Z" fill="#E1E1FD"/>
  <path fill-rule="evenodd" clip-rule="evenodd" d="M29.3335 6C29.3335 5.44772 29.7812 5 30.3335 5H52.2169C52.7692 5 53.2169 5.44772 53.2169 6C53.2169 6.55228 52.7692 7 52.2169 7H30.3335C29.7812 7 29.3335 6.55228 29.3335 6Z" fill="#E1E1FD"/>
  <path fill-rule="evenodd" clip-rule="evenodd" d="M2.68018 2.16479V42.3036H31.9191C32.4714 42.3036 32.9191 42.7513 32.9191 43.3036C32.9191 43.8559 32.4714 44.3036 31.9191 44.3036H2.48018C1.48606 44.3036 0.680176 43.4977 0.680176 42.5036V1.9648C0.680176 0.970685 1.48606 0.164795 2.48018 0.164795H55.3797C56.3738 0.164795 57.1797 0.970682 57.1797 1.96479V27.5992C57.1797 28.1515 56.732 28.5992 56.1797 28.5992C55.6275 28.5992 55.1797 28.1515 55.1797 27.5992V2.16479H2.68018Z" fill="#C3C3FB"/>
</svg>