<svg xmlns="http://www.w3.org/2000/svg" width="62" height="57" viewBox="0 0 62 57" fill="none">
  <path fill-rule="evenodd" clip-rule="evenodd" d="M2.28809 10.0083C2.28809 9.45602 2.7358 9.0083 3.28809 9.0083L40.1819 9.0083C40.7342 9.0083 41.1819 9.45602 41.1819 10.0083C41.1819 10.5606 40.7342 11.0083 40.1819 11.0083L3.28809 11.0083C2.7358 11.0083 2.28809 10.5606 2.28809 10.0083Z" fill="#C3C3FB"/>
  <path fill-rule="evenodd" clip-rule="evenodd" d="M32.2786 44.3035C31.7263 44.3035 31.2786 43.8558 31.2786 43.3035L31.2786 11C31.2786 10.4477 31.7263 9.99995 32.2786 9.99995C32.8308 9.99995 33.2786 10.4477 33.2786 11L33.2786 43.3035C33.2786 43.8558 32.8309 44.3035 32.2786 44.3035Z" fill="#C3C3FB"/>
  <path fill-rule="evenodd" clip-rule="evenodd" d="M9.42798 19.1138V23.1138H13.428V19.1138H9.42798ZM8.22798 17.1138C7.78615 17.1138 7.42798 17.4719 7.42798 17.9138V24.3138C7.42798 24.7556 7.78615 25.1138 8.22798 25.1138H14.628C15.0698 25.1138 15.428 24.7556 15.428 24.3138V17.9138C15.428 17.4719 15.0698 17.1138 14.628 17.1138H8.22798Z" fill="#E1E1FD"/>
  <path fill-rule="evenodd" clip-rule="evenodd" d="M9.42798 30.8862V34.8862H13.428V30.8862H9.42798ZM8.22798 28.8862C7.78615 28.8862 7.42798 29.2444 7.42798 29.6862V36.0862C7.42798 36.5281 7.78615 36.8862 8.22798 36.8862H14.628C15.0698 36.8862 15.428 36.5281 15.428 36.0862V29.6862C15.428 29.2444 15.0698 28.8862 14.628 28.8862H8.22798Z" fill="#E1E1FD"/>
  <path fill-rule="evenodd" clip-rule="evenodd" d="M21.2881 19.1138V23.1138H25.2881V19.1138H21.2881ZM20.0881 17.1138C19.6463 17.1138 19.2881 17.4719 19.2881 17.9138V24.3138C19.2881 24.7556 19.6463 25.1138 20.0881 25.1138H26.4881C26.9299 25.1138 27.2881 24.7556 27.2881 24.3138V17.9138C27.2881 17.4719 26.9299 17.1138 26.4881 17.1138H20.0881Z" fill="#E1E1FD"/>
  <path fill-rule="evenodd" clip-rule="evenodd" d="M21.2881 30.8862V34.8862H25.2881V30.8862H21.2881ZM20.0881 28.8862C19.6463 28.8862 19.2881 29.2444 19.2881 29.6862V36.0862C19.2881 36.5281 19.6463 36.8862 20.0881 36.8862H26.4881C26.9299 36.8862 27.2881 36.5281 27.2881 36.0862V29.6862C27.2881 29.2444 26.9299 28.8862 26.4881 28.8862H20.0881Z" fill="#E1E1FD"/>
  <path fill-rule="evenodd" clip-rule="evenodd" d="M37.3176 15.8C37.3176 14.8059 38.1235 14 39.1176 14H49.5159C50.51 14 51.3159 14.8059 51.3159 15.8V27C51.3159 27.5523 50.8682 28 50.3159 28C49.7636 28 49.3159 27.5523 49.3159 27V16H39.3176V28.9879C39.3176 29.5402 38.8699 29.9879 38.3176 29.9879C37.7653 29.9879 37.3176 29.5402 37.3176 28.9879V15.8Z" fill="#E1E1FD"/>
  <path fill-rule="evenodd" clip-rule="evenodd" d="M48.2881 54.3035C54.3632 54.3035 59.2881 49.3786 59.2881 43.3035C59.2881 37.2283 54.3632 32.3035 48.2881 32.3035C42.213 32.3035 37.2881 37.2283 37.2881 43.3035C37.2881 49.3786 42.213 54.3035 48.2881 54.3035ZM48.2881 56.3035C55.4678 56.3035 61.2881 50.4832 61.2881 43.3035C61.2881 36.1238 55.4678 30.3035 48.2881 30.3035C41.1084 30.3035 35.2881 36.1238 35.2881 43.3035C35.2881 50.4832 41.1084 56.3035 48.2881 56.3035Z" fill="#E1E1FD"/>
  <path fill-rule="evenodd" clip-rule="evenodd" d="M43.3141 42.026C43.7047 41.6354 44.3378 41.6354 44.7283 42.026L48.9952 46.2928C49.3857 46.6833 49.3857 47.3165 48.9952 47.707C48.6047 48.0975 47.9715 48.0975 47.581 47.707L43.3141 43.4402C42.9236 43.0496 42.9236 42.4165 43.3141 42.026Z" fill="#E1E1FD"/>
  <path fill-rule="evenodd" clip-rule="evenodd" d="M47.5811 47.7071C47.1906 47.3166 47.1906 46.6834 47.5811 46.2929L51.848 42.026C52.2385 41.6355 52.8717 41.6355 53.2622 42.026C53.6527 42.4166 53.6527 43.0497 53.2622 43.4402L48.9953 47.7071C48.6048 48.0976 47.9717 48.0976 47.5811 47.7071Z" fill="#E1E1FD"/>
  <path fill-rule="evenodd" clip-rule="evenodd" d="M48.2881 48C47.7358 48 47.2881 47.5523 47.2881 47L47.2881 36.3476C47.2881 35.7953 47.7358 35.3476 48.2881 35.3476C48.8404 35.3476 49.2881 35.7953 49.2881 36.3476L49.2881 47C49.2881 47.5523 48.8404 48 48.2881 48Z" fill="#E1E1FD"/>
  <path fill-rule="evenodd" clip-rule="evenodd" d="M52.3845 50.543C52.3845 51.0953 51.9368 51.543 51.3845 51.543L45.288 51.543C44.7358 51.543 44.288 51.0953 44.288 50.543C44.288 49.9907 44.7358 49.543 45.288 49.543L51.3845 49.543C51.9368 49.543 52.3845 49.9907 52.3845 50.543Z" fill="#E1E1FD"/>
  <path fill-rule="evenodd" clip-rule="evenodd" d="M50.2232 25H38.7166V23H50.2232V25Z" fill="#E1E1FD"/>
  <path fill-rule="evenodd" clip-rule="evenodd" d="M45.2634 10.0083C45.2634 9.45602 45.7111 9.0083 46.2634 9.0083L55.8037 9.0083C56.356 9.0083 56.8037 9.45602 56.8037 10.0083C56.8037 10.5606 56.356 11.0083 55.8037 11.0083L46.2634 11.0083C45.7111 11.0083 45.2634 10.5606 45.2634 10.0083Z" fill="#C3C3FB"/>
  <path fill-rule="evenodd" clip-rule="evenodd" d="M14.428 5C14.9803 5 15.428 5.44772 15.428 6L15.428 6.11299C15.428 6.66527 14.9803 7.11299 14.428 7.11299C13.8757 7.11299 13.428 6.66527 13.428 6.11299L13.428 6C13.428 5.44772 13.8757 5 14.428 5Z" fill="#E1E1FD"/>
  <path fill-rule="evenodd" clip-rule="evenodd" d="M10.3579 5C10.9102 5 11.3579 5.44772 11.3579 6L11.3579 6.11299C11.3579 6.66527 10.9102 7.11299 10.3579 7.11299C9.80563 7.11299 9.35791 6.66527 9.35791 6.11299L9.35791 6C9.35791 5.44772 9.80563 5 10.3579 5Z" fill="#E1E1FD"/>
  <path fill-rule="evenodd" clip-rule="evenodd" d="M6.28809 5C6.84037 5 7.28809 5.44772 7.28809 6L7.28809 6.11299C7.28809 6.66527 6.84037 7.11299 6.28809 7.11299C5.7358 7.11299 5.28809 6.66527 5.28809 6.11299L5.28809 6C5.28809 5.44772 5.7358 5 6.28809 5Z" fill="#E1E1FD"/>
  <path fill-rule="evenodd" clip-rule="evenodd" d="M29.4849 6C29.4849 5.44772 29.9326 5 30.4849 5H52.3683C52.9206 5 53.3683 5.44772 53.3683 6C53.3683 6.55228 52.9206 7 52.3683 7H30.4849C29.9326 7 29.4849 6.55228 29.4849 6Z" fill="#E1E1FD"/>
  <path fill-rule="evenodd" clip-rule="evenodd" d="M2.83154 2.16479V42.3036H32.0705C32.6228 42.3036 33.0705 42.7513 33.0705 43.3036C33.0705 43.8559 32.6228 44.3036 32.0705 44.3036H2.63154C1.63743 44.3036 0.831543 43.4977 0.831543 42.5036V1.9648C0.831543 0.970685 1.63743 0.164795 2.63154 0.164795H55.5311C56.5252 0.164795 57.3311 0.970682 57.3311 1.96479V27.5992C57.3311 28.1515 56.8834 28.5992 56.3311 28.5992C55.7788 28.5992 55.3311 28.1515 55.3311 27.5992V2.16479H2.83154Z" fill="#C3C3FB"/>
</svg>